<?xml version="1.0" encoding="UTF-8" standalone="no"?>
<!-- Generado por Andres Lacquaniti  -->

<svg
   xmlns:dc="http://purl.org/dc/elements/1.1/"
   xmlns:cc="http://creativecommons.org/ns#"
   xmlns:rdf="http://www.w3.org/1999/02/22-rdf-syntax-ns#"
   xmlns:svg="http://www.w3.org/2000/svg"
   xmlns="http://www.w3.org/2000/svg"
   xmlns:sodipodi="http://sodipodi.sourceforge.net/DTD/sodipodi-0.dtd"
   xmlns:inkscape="http://www.inkscape.org/namespaces/inkscape"
   version="1.1"
   id="Layer_1"
   x="0px"
   y="0px"
   width="15px"
   height="15px"
   viewBox="0 0 15 15"
   style="enable-background:new 0 0 15 15;"
   xml:space="preserve"
   sodipodi:docname="lobo.svg"
   inkscape:version="0.92.0 r15299"><metadata
     id="metadata9"><rdf:RDF><cc:Work
         rdf:about=""><dc:format>image/svg+xml</dc:format><dc:type
           rdf:resource="http://purl.org/dc/dcmitype/StillImage" /><dc:title /></cc:Work></rdf:RDF></metadata><defs
     id="defs7" /><sodipodi:namedview
     pagecolor="#ffffff"
     bordercolor="#666666"
     borderopacity="1"
     objecttolerance="10"
     gridtolerance="10"
     guidetolerance="10"
     inkscape:pageopacity="0"
     inkscape:pageshadow="2"
     inkscape:window-width="504"
     inkscape:window-height="403"
     id="namedview5"
     showgrid="false"
     inkscape:zoom="5.5625733"
     inkscape:cx="28.494233"
     inkscape:cy="-0.6615485"
     inkscape:window-x="854"
     inkscape:window-y="502"
     inkscape:window-maximized="0"
     inkscape:current-layer="Layer_1" /><path
     style="fill:#000000;stroke-width:0.04261025"
     d="M 11.998047 0.41992188 C 11.872459 0.41992188 11.561462 0.69178637 11.308594 1.0214844 C 11.17568 1.1947817 10.645335 1.7496237 10.130859 2.2539062 C 9.1373368 3.2277478 8.9296875 3.4866922 8.9296875 3.75 C 8.9296875 3.837772 8.9108006 3.9206722 8.8867188 3.9355469 C 8.8626433 3.9504355 8.7513033 3.9021274 8.640625 3.828125 C 8.462682 3.7091208 8.4123156 3.695769 8.2050781 3.7109375 C 8.0363215 3.7232864 7.9107198 3.7657356 7.7539062 3.8632812 C 7.6341325 3.9377876 7.5033656 4 7.4628906 4 C 7.4224226 4 7.2650363 3.9305708 7.1132812 3.8457031 C 6.8736707 3.7116773 6.8087372 3.6934742 6.6269531 3.7109375 C 6.4988465 3.7232514 6.3524423 3.7746661 6.2480469 3.84375 C 6.0281456 3.989278 5.9902344 3.9852979 5.9902344 3.8203125 C 5.9902344 3.5026136 5.7005677 3.1595676 4.4433594 1.9804688 C 4.0970377 1.6556685 3.6818092 1.2247059 3.5195312 1.0214844 C 3.2267261 0.65479571 2.9372143 0.43140793 2.8144531 0.47851562 C 2.7642319 0.49779111 2.7531738 0.64027598 2.7578125 1.28125 C 2.7622925 1.9001569 2.7442867 2.187067 2.6679688 2.6777344 C 2.4028767 4.3821195 2.432024 4.85623 2.8300781 5.4042969 C 2.9433801 5.5602918 3.1182232 5.7387414 3.2304688 5.8105469 C 3.3403703 5.8808549 3.4397536 5.9615696 3.4511719 5.9902344 C 3.4625829 6.0188924 3.4274519 6.0950676 3.3730469 6.1601562 C 3.044265 6.5534457 2.7727993 7.5370577 2.7832031 8.296875 C 2.7864931 8.5397389 2.8005931 8.7498048 2.8144531 8.7636719 C 2.8283271 8.7775459 2.9012866 8.7638499 2.9765625 8.7324219 C 3.1613411 8.6558939 3.390625 8.6242934 3.390625 8.6757812 C 3.390625 8.6988072 3.3531186 8.8050892 3.3066406 8.9101562 C 3.2601626 9.0152304 3.2021173 9.2402184 3.1777344 9.4121094 C 3.1224194 9.8021175 3.1482199 9.8380829 3.5351562 9.8691406 C 3.6906474 9.8816226 3.8326638 9.9134191 3.8496094 9.9394531 C 3.8665484 9.9654871 3.8808594 10.135645 3.8808594 10.318359 C 3.8808594 10.63447 3.8852711 10.654726 3.9960938 10.722656 C 4.1056175 10.789756 4.1254566 10.787904 4.3164062 10.714844 C 4.6632808 10.582155 4.6768172 10.589155 4.5761719 10.847656 C 4.5011199 11.040425 4.5505886 11.073918 4.9824219 11.113281 C 5.4107151 11.152321 5.6113757 11.258907 5.7089844 11.501953 C 5.7426794 11.585853 5.8001098 11.872986 5.8378906 12.140625 C 5.8756786 12.408257 5.9274183 12.761733 5.9511719 12.925781 C 6.0097609 13.330363 6.1616549 13.633379 6.3632812 13.744141 C 6.5769066 13.861494 6.897909 13.963554 7.2050781 14.009766 C 7.6250384 14.072956 8.1739637 13.984066 8.6171875 13.78125 C 9.0026829 13.604853 9.0873594 13.368904 9.2265625 12.105469 C 9.2788895 11.630558 9.3297242 11.436927 9.4355469 11.3125 C 9.5522771 11.175242 9.8287702 11.075184 10.09375 11.074219 C 10.493029 11.072719 10.577743 10.989448 10.433594 10.738281 C 10.393024 10.667591 10.369189 10.599568 10.380859 10.587891 C 10.392539 10.576211 10.520383 10.609136 10.666016 10.660156 C 10.918011 10.748436 10.936541 10.748306 11.048828 10.679688 C 11.173066 10.603757 11.177041 10.584231 11.144531 10.101562 C 11.137731 10.001106 11.150768 9.9000137 11.173828 9.8769531 C 11.196898 9.8538781 11.343536 9.8232027 11.5 9.8085938 C 11.656471 9.7939846 11.804611 9.7572495 11.830078 9.7265625 C 11.893068 9.6506715 11.808068 9.1049133 11.697266 8.875 C 11.651346 8.779721 11.613281 8.6788805 11.613281 8.6503906 C 11.613281 8.5556576 11.73212 8.551793 11.90625 8.640625 C 12.179773 8.780171 12.210937 8.7432283 12.210938 8.2753906 C 12.210938 7.570979 11.938489 6.5930684 11.628906 6.1875 C 11.550616 6.0849237 11.486328 5.9839222 11.486328 5.9628906 C 11.486328 5.9418586 11.581727 5.8564445 11.697266 5.7734375 C 11.929705 5.6064441 12.189826 5.2741346 12.318359 4.9804688 C 12.445521 4.6899305 12.426625 3.6702921 12.279297 2.9042969 C 12.137617 2.1676522 12.072839 1.5063942 12.097656 1.0351562 C 12.122036 0.57192236 12.097807 0.41992186 11.998047 0.41992188 z M 11.349609 1.8691406 C 11.378089 1.8659206 11.400391 1.9273471 11.400391 2.0351562 C 11.400391 2.23807 11.500088 2.7749075 11.638672 3.3261719 C 11.756088 3.7932119 11.767103 4.1481219 11.679688 4.5605469 C 11.614547 4.8678839 11.506915 5.0618223 11.166016 5.4902344 C 11.044801 5.6425631 10.923757 5.8101344 10.896484 5.8613281 C 10.819344 6.0061215 10.837406 6.2060457 10.947266 6.421875 C 11.105395 6.7325283 11.273438 7.181122 11.273438 7.2929688 C 11.273438 7.3161417 11.150754 7.3204234 10.974609 7.3027344 C 10.693516 7.2745034 10.666694 7.2784806 10.527344 7.3847656 C 10.312949 7.5482957 10.327837 7.6633369 10.626953 8.09375 C 10.84542 8.4081046 11.060547 8.8523966 11.060547 8.9921875 C 11.060547 9.0232455 10.994421 9.0294267 10.865234 9.0117188 C 10.449716 8.9547596 10.251468 9.226958 10.384766 9.671875 C 10.411966 9.762634 10.424159 9.847327 10.412109 9.859375 C 10.400049 9.87143 10.292938 9.8614475 10.173828 9.8359375 C 10.016686 9.8021795 9.9328441 9.8015428 9.8691406 9.8359375 C 9.7633879 9.8925395 9.6113281 10.177274 9.6113281 10.318359 C 9.6113281 10.448761 9.5073007 10.541699 9.2929688 10.599609 C 9.0014787 10.678359 8.8633013 10.792047 8.7363281 11.058594 C 8.6260556 11.290075 8.6154705 11.352549 8.5996094 11.964844 C 8.5881704 12.406403 8.5642286 12.658811 8.5253906 12.732422 C 8.4443426 12.886052 8.1947279 13.10893 8.0253906 13.179688 C 7.6581542 13.333066 7.0871371 13.281553 6.8535156 13.072266 C 6.7907987 13.016084 6.7174613 12.949219 6.6914062 12.925781 C 6.5111543 12.763643 6.4807544 12.639985 6.453125 11.970703 C 6.4306172 11.425504 6.4084346 11.273157 6.3339844 11.109375 C 6.2202977 10.859283 6.0467902 10.709288 5.7695312 10.626953 C 5.4928601 10.544792 5.4432429 10.502694 5.4101562 10.3125 C 5.3952745 10.226975 5.3346233 10.085931 5.2753906 9.9980469 C 5.1574359 9.8230494 5.0722641 9.8020094 4.78125 9.8828125 C 4.6911696 9.9078601 4.6094245 9.9199713 4.5976562 9.9082031 C 4.5858811 9.8964349 4.6033803 9.7934862 4.6367188 9.6796875 C 4.682854 9.5222864 4.6853243 9.4391084 4.6503906 9.3359375 C 4.5745621 9.1119152 4.4798001 9.0488281 4.2226562 9.0488281 C 4.0965786 9.0488281 3.9824982 9.0371725 3.96875 9.0234375 C 3.9130295 8.9678224 4.1333126 8.4710498 4.3769531 8.1015625 C 4.670346 7.6566175 4.6796116 7.5523157 4.4433594 7.4042969 C 4.3252858 7.3303295 4.2636356 7.3224116 3.9980469 7.3457031 C 3.8247426 7.3608996 3.6894531 7.3573049 3.6894531 7.3359375 C 3.6894531 7.2654195 3.9462281 6.5802148 4.03125 6.4238281 C 4.186979 6.1373758 4.1514822 6.0126696 3.7871094 5.546875 C 3.3681496 5.0112898 3.3246777 4.9343012 3.2441406 4.5839844 C 3.1545988 4.194557 3.1599459 3.7840459 3.2597656 3.4003906 C 3.3736203 2.962757 3.4744485 2.3576435 3.4746094 2.1152344 C 3.4746094 1.9105716 3.5344195 1.8441278 3.5820312 1.9941406 C 3.5962763 2.0390236 3.7735579 2.2148277 3.9765625 2.3867188 C 4.5592204 2.8800797 4.7514233 3.0672116 4.9433594 3.3183594 C 5.1326298 3.5660159 5.5547619 4.3032528 5.6503906 4.5546875 C 5.6815816 4.6367075 5.712131 4.7100533 5.71875 4.71875 C 5.7254 4.72745 5.813403 4.6875792 5.9140625 4.6289062 C 6.1703528 4.479516 6.4563771 4.4495154 6.8769531 4.5292969 C 7.0687353 4.5656789 7.2793609 4.6229536 7.34375 4.65625 C 7.442947 4.707549 7.4768107 4.7071981 7.5703125 4.6582031 C 7.6310075 4.6264041 7.8222986 4.5683801 7.9941406 4.5292969 C 8.3913971 4.4389439 8.7806681 4.4649731 8.9921875 4.5957031 C 9.1508131 4.6937461 9.2714844 4.6869501 9.2714844 4.5800781 C 9.2714844 4.5461031 9.3777538 4.3047244 9.5078125 4.0449219 C 9.7402586 3.5805895 10.173418 2.9499649 10.341797 2.8320312 C 10.560459 2.6788702 11.274612 2.0174129 11.296875 1.9472656 C 11.313115 1.8961136 11.332519 1.8710656 11.349609 1.8691406 z M 11.164062 2.5078125 C 11.131613 2.5078125 11.026232 2.6271119 10.927734 2.7734375 C 10.829144 2.9199101 10.50037 3.3735885 10.197266 3.7792969 C 9.5571513 4.6360932 9.5050354 4.767959 9.734375 4.9609375 C 9.807636 5.0225845 9.8671875 5.089085 9.8671875 5.109375 C 9.8671875 5.129665 9.7949154 5.1598713 9.7070312 5.1757812 C 9.3166874 5.2464607 9.2772857 5.3015554 9.0605469 6.0859375 C 8.9862506 6.3548075 8.9109732 6.5853004 8.8945312 6.5976562 C 8.8780963 6.6100052 8.8105577 6.7019772 8.7421875 6.8027344 C 8.6738173 6.9034916 8.5239131 7.0649054 8.4101562 7.1601562 C 8.2963926 7.2554003 8.1539972 7.416738 8.09375 7.5195312 C 8.0335098 7.6223314 7.9549046 7.7070312 7.9199219 7.7070312 C 7.8849459 7.7070312 7.7715665 7.6152212 7.6679688 7.5039062 L 7.4804688 7.3027344 L 7.2773438 7.5234375 C 7.1655111 7.6451773 7.0532321 7.7311317 7.0292969 7.7148438 C 7.0053548 7.6985558 6.922672 7.5968606 6.8457031 7.4882812 C 6.7687412 7.379695 6.6073542 7.2048094 6.4863281 7.0996094 C 6.1834968 6.8363996 6.002692 6.5136628 5.8339844 5.9335938 C 5.7550705 5.662261 5.6810803 5.4216041 5.6679688 5.4003906 C 5.6261994 5.332811 5.3927356 5.2302555 5.2109375 5.1992188 L 5.0351562 5.1699219 L 5.1972656 4.9902344 C 5.3518751 4.819099 5.3562332 4.8045088 5.3085938 4.6601562 C 5.2812022 4.5771632 5.1650557 4.3903753 5.0507812 4.2441406 C 4.9365067 4.0978989 4.7374747 3.8437353 4.609375 3.6796875 C 4.4812754 3.5156396 4.2361692 3.18493 4.0644531 2.9453125 C 3.7537857 2.5117929 3.6464844 2.4236544 3.6464844 2.6015625 C 3.6464844 2.6528825 3.6265336 2.8013301 3.6035156 2.9316406 C 3.5103006 3.4592287 3.4284703 4.31319 3.4550781 4.4707031 C 3.4771521 4.6013355 3.5778697 4.7469404 3.9101562 5.1347656 C 4.1447502 5.4085612 4.3502278 5.6709626 4.3671875 5.7167969 C 4.3841475 5.7626379 4.3727449 5.8983291 4.3417969 6.0175781 C 4.2784779 6.2616734 4.2691863 6.3862361 4.3164062 6.3867188 C 4.3339812 6.3867188 4.4746174 6.3544602 4.6269531 6.3164062 C 4.9842244 6.2271652 5.1367188 6.2750671 5.1367188 6.4726562 C 5.1367188 6.6816148 5.047578 6.9913394 4.9394531 7.1523438 C 4.808401 7.3474842 4.8088208 7.6190226 4.9414062 7.984375 C 5.0304512 8.2296807 5.0955562 8.3172447 5.4589844 8.6777344 C 5.7278055 8.9443796 5.905146 9.1589516 5.9589844 9.2832031 C 6.0048184 9.3889908 6.0998305 9.5996244 6.1699219 9.7519531 C 6.6010977 10.688986 6.6796036 11.022921 6.6796875 11.904297 L 6.6796875 12.542969 L 6.859375 12.714844 C 6.958019 12.809774 7.1049188 12.909834 7.1855469 12.935547 C 7.375426 12.996097 7.6355818 13.001639 7.8183594 12.949219 C 8.0062585 12.895329 8.2636788 12.716141 8.3261719 12.595703 C 8.3564459 12.537383 8.38162 12.190637 8.390625 11.691406 C 8.407291 10.767506 8.4078083 10.761708 8.8417969 9.7519531 C 9.1407446 9.0564031 9.1991982 8.9687653 9.6386719 8.5449219 C 9.9041976 8.2888486 9.9654244 8.2037122 10.041016 7.9765625 C 10.164183 7.6064666 10.166663 7.2865287 10.048828 7.1367188 C 9.9463495 7.0064361 9.8144531 6.6393004 9.8144531 6.4863281 C 9.8144531 6.4309641 9.8379555 6.3574932 9.8671875 6.3222656 C 9.9315835 6.2446806 10.233996 6.2363046 10.46875 6.3066406 C 10.5595 6.3338226 10.645792 6.3444481 10.660156 6.3300781 C 10.674516 6.3157141 10.653871 6.1693883 10.613281 6.0039062 C 10.565377 5.8084295 10.553757 5.6846177 10.580078 5.6503906 C 10.695024 5.5008955 11.221343 4.8637908 11.304688 4.7734375 C 11.47173 4.592346 11.509633 4.3798285 11.447266 3.9628906 C 11.416922 3.760047 11.376718 3.4511577 11.357422 3.2753906 C 11.30464 2.7946304 11.231628 2.5081763 11.164062 2.5078125 z M 6.1308594 7.7988281 C 6.2476596 7.7765581 6.6389348 8.1851969 6.6210938 8.3105469 C 6.5967388 8.4816263 6.4683706 8.4527385 6.2402344 8.2246094 C 6.0160723 8.0004472 5.971898 7.8291371 6.1308594 7.7988281 z M 8.7714844 7.8007812 C 8.94404 7.825339 8.9129399 8.0022405 8.6953125 8.2285156 C 8.4449413 8.4888498 8.2419716 8.4993556 8.3066406 8.2480469 C 8.3468567 8.0917442 8.6648641 7.7856127 8.7714844 7.8007812 z M 7.5390625 8.4804688 C 7.6303185 8.4811683 7.6809648 8.4966076 7.6992188 8.5253906 C 7.7187038 8.5561126 7.7360061 9.3418758 7.7363281 10.273438 L 7.7363281 11.966797 L 7.484375 11.966797 L 7.2304688 11.966797 L 7.2050781 11.787109 C 7.1908471 11.687509 7.1845144 10.906619 7.1914062 10.052734 L 7.203125 8.5 L 7.4335938 8.484375 C 7.4731448 8.481645 7.5086413 8.4802586 7.5390625 8.4804688 z "
     id="path4652" /></svg>