<?xml version="1.0" encoding="UTF-8" standalone="no"?>
<!-- Generado por Andres Lacquaniti  -->

<svg
   xmlns:dc="http://purl.org/dc/elements/1.1/"
   xmlns:cc="http://creativecommons.org/ns#"
   xmlns:rdf="http://www.w3.org/1999/02/22-rdf-syntax-ns#"
   xmlns:svg="http://www.w3.org/2000/svg"
   xmlns="http://www.w3.org/2000/svg"
   xmlns:sodipodi="http://sodipodi.sourceforge.net/DTD/sodipodi-0.dtd"
   xmlns:inkscape="http://www.inkscape.org/namespaces/inkscape"
   version="1.1"
   id="Layer_1"
   x="0px"
   y="0px"
   width="15px"
   height="15px"
   viewBox="0 0 15 15"
   style="enable-background:new 0 0 15 15;"
   xml:space="preserve"
   sodipodi:docname="ltv-raksha.svg"
   inkscape:version="0.92.0 r15299"><metadata
     id="metadata9"><rdf:RDF><cc:Work
         rdf:about=""><dc:format>image/svg+xml</dc:format><dc:type
           rdf:resource="http://purl.org/dc/dcmitype/StillImage" /><dc:title></dc:title></cc:Work></rdf:RDF></metadata><defs
     id="defs7" /><sodipodi:namedview
     pagecolor="#ffffff"
     bordercolor="#666666"
     borderopacity="1"
     objecttolerance="10"
     gridtolerance="10"
     guidetolerance="10"
     inkscape:pageopacity="0"
     inkscape:pageshadow="2"
     inkscape:window-width="1920"
     inkscape:window-height="996"
     id="namedview5"
     showgrid="false"
     inkscape:zoom="7.8666669"
     inkscape:cx="3.1352008"
     inkscape:cy="-12.116219"
     inkscape:window-x="-8"
     inkscape:window-y="-8"
     inkscape:window-maximized="1"
     inkscape:current-layer="Layer_1" /><path
     inkscape:connector-curvature="0"
     style="fill:#000000;stroke-width:0.11117815"
     d="m 5.514385,14.451943 c -0.1244258,-0.05044 -0.2939255,-0.173268 -0.3766724,-0.27298 -0.1279636,-0.154183 -0.1214919,-0.2133 0.043203,-0.395291 0.1065068,-0.117701 0.3260489,-0.229337 0.48785,-0.248059 0.2923244,-0.03385 0.2942816,-0.04039 0.3114782,-1.034671 0.017883,-1.029865 -0.00758,-1.056237 -0.1289166,-0.13428 -0.090978,0.690654 -0.4838771,1.136523 -1.4260152,1.618266 C 3.7647945,14.322657 3.6616503,14.345323 3.3113046,14.229697 3.0989558,14.159611 2.8995473,14.03538 2.8681803,13.953651 2.7740928,13.70848 3.1079524,13.35102 3.4656794,13.313931 3.8880976,13.270104 3.9405891,13.09691 3.562119,12.995694 3.2165175,12.903277 2.3563525,12.022514 2.3524404,11.757049 2.3509403,11.653652 2.2996134,11.538133 2.2384702,11.500347 2.1773295,11.462544 2.127299,11.136601 2.127299,10.776013 c 0,-0.70352 0.2751436,-1.3025184 1.02948,-2.2411873 C 3.4237841,8.2025648 3.5119716,7.9820918 3.5119716,7.6467936 V 7.2007616 L 3.7554521,7.4838343 C 4.0735536,7.8536442 4.3871367,8.9467037 4.3195843,9.450296 4.2727263,9.7996757 4.2948243,9.846564 4.5031533,9.8400709 4.6658481,9.835018 4.831499,9.6694844 5.0322725,9.3114274 5.1930235,9.0247489 5.4306608,8.6552833 5.5603677,8.4903976 5.7128785,8.2965086 5.796778,8.0289493 5.7978739,7.7330815 5.8002424,7.0858179 6.0497004,6.3306959 6.338318,6.0969834 6.4735311,5.9874836 6.5747867,5.8631249 6.5632984,5.8206256 6.5518345,5.7781176 6.6921755,5.5878029 6.8752353,5.3976887 7.2107411,5.0492418 7.4512427,4.3293546 7.2321609,4.3293546 c -0.063225,0 -0.076868,-0.06167 -0.030278,-0.1370203 0.1517723,-0.2455837 0.1185373,-0.5299624 -0.062333,-0.5334315 -0.1489927,-0.00268 -0.1461551,-0.02078 0.018656,-0.1167106 0.1070121,-0.062333 0.1945616,-0.200892 0.1945616,-0.3079198 0,-0.1070311 0.060035,-0.2546286 0.1334059,-0.3280062 0.07337,-0.073371 0.090628,-0.133405 0.038363,-0.133405 -0.052282,0 -0.00268,-0.1021731 0.1103944,-0.2270402 C 7.7735841,2.3926099 7.8321321,2.1786363 7.8149623,1.8877796 7.7886313,1.4415549 7.9526245,1.2158774 8.1556719,1.4189185 8.2368539,1.5001005 8.3602541,1.4794197 8.5629083,1.3506642 8.9472154,1.1064715 9.0166935,0.99702843 9.018725,0.63269153 c 0.00237,-0.4214992 0.2214519,-0.386768 0.701283,0.1111713 0.2209767,0.2292943 0.474063,0.47665847 0.562429,0.54968007 0.08835,0.073015 0.183452,0.1981042 0.211326,0.2779456 0.03926,0.1124542 0.09821,0.1034363 0.261476,-0.039982 0.185513,-0.1629277 1.035425,-0.4054743 1.050293,-0.2997215 0.100715,0.7160627 0.106876,0.9851862 0.02256,0.9851862 -0.05703,0 -0.157894,0.1189267 -0.224119,0.2643081 -0.137739,0.3022873 -0.0021,0.5139405 0.329324,0.5139405 0.313449,0 0.260868,0.5962105 -0.08287,0.939959 -0.352717,0.3527009 -0.460086,0.3533988 -0.782932,0.00505 -0.388677,-0.4193914 -0.525946,-0.359236 -0.443984,0.1945645 0.06684,0.4515904 0.09636,1.3618585 0.07121,2.1957679 -0.0066,0.2140107 -0.09197,0.8879136 -0.190002,1.4975556 -0.197172,1.2259988 -0.163045,3.3371687 0.07067,4.3710077 l 0.132842,0.587584 0.435136,-0.02567 c 0.719042,-0.04243 0.884681,0.394149 0.3117,0.821517 -0.259506,0.193559 -0.33739,0.201323 -0.757153,0.07556 -0.373574,-0.111929 -0.501237,-0.219969 -0.63327,-0.535968 C 9.9736907,12.904447 9.8081386,12.625597 9.6967375,12.502471 9.5636238,12.355344 9.4721132,12.026939 9.4298058,11.544439 9.394372,11.140656 9.3066232,10.576835 9.2347702,10.291492 9.1282239,9.8683035 9.0757095,9.7962895 8.9498855,9.9007087 c -0.1301988,0.1080423 -0.1253591,0.1491483 0.03102,0.2634763 0.3030856,0.221629 0.3412725,1.29447 0.062854,1.766355 -0.2203546,0.373471 -0.2206964,0.384248 -0.01399,0.438294 0.2897008,0.07576 0.3821267,0.372076 0.2140399,0.686146 -0.1822663,0.340607 -0.3959431,0.386753 -1.0369662,0.223989 -0.3854614,-0.09788 -0.6458708,-0.102172 -0.968569,-0.01613 -0.3750128,0.100094 -0.441377,0.162521 -0.441377,0.415185 0,0.208096 -0.1145923,0.384766 -0.3817127,0.588502 -0.4024054,0.306942 -0.5339511,0.33401 -0.9006921,0.185358 z"
     id="path8033" /></svg>