<?xml version="1.0" encoding="UTF-8" standalone="no"?>
<!-- Generado por Andres Lacquaniti  -->

<svg
   xmlns:dc="http://purl.org/dc/elements/1.1/"
   xmlns:cc="http://creativecommons.org/ns#"
   xmlns:rdf="http://www.w3.org/1999/02/22-rdf-syntax-ns#"
   xmlns:svg="http://www.w3.org/2000/svg"
   xmlns="http://www.w3.org/2000/svg"
   xmlns:sodipodi="http://sodipodi.sourceforge.net/DTD/sodipodi-0.dtd"
   xmlns:inkscape="http://www.inkscape.org/namespaces/inkscape"
   version="1.1"
   id="Layer_1"
   x="0px"
   y="0px"
   width="15px"
   height="15px"
   viewBox="0 0 15 15"
   style="enable-background:new 0 0 15 15;"
   xml:space="preserve"
   sodipodi:docname="ltv-mowgli.svg"
   inkscape:version="0.92.0 r15299"><metadata
     id="metadata9"><rdf:RDF><cc:Work
         rdf:about=""><dc:format>image/svg+xml</dc:format><dc:type
           rdf:resource="http://purl.org/dc/dcmitype/StillImage" /><dc:title></dc:title></cc:Work></rdf:RDF></metadata><defs
     id="defs7" /><sodipodi:namedview
     pagecolor="#ffffff"
     bordercolor="#666666"
     borderopacity="1"
     objecttolerance="10"
     gridtolerance="10"
     guidetolerance="10"
     inkscape:pageopacity="0"
     inkscape:pageshadow="2"
     inkscape:window-width="1920"
     inkscape:window-height="996"
     id="namedview5"
     showgrid="false"
     inkscape:zoom="15.733334"
     inkscape:cx="6.529731"
     inkscape:cy="-1.4660014"
     inkscape:window-x="-8"
     inkscape:window-y="-8"
     inkscape:window-maximized="1"
     inkscape:current-layer="Layer_1" /><path
     inkscape:connector-curvature="0"
     style="fill:#000000;stroke-width:0.08651229"
     d="M 5.6660112,14.040227 C 5.5470513,13.944048 5.3426748,13.779767 5.2118217,13.675169 4.9815144,13.491059 4.9003775,13.23595 5.0439072,13.147247 c 0.03849,-0.02379 0.3791315,-0.07026 0.7569824,-0.103261 0.4841575,-0.04229 0.8530114,-0.13632 1.2493184,-0.318515 L 7.6125381,12.466961 7.338548,12.390451 C 6.9500383,12.281963 6.6101836,11.85503 6.6708461,11.551695 6.6980241,11.415837 6.6399306,11.080907 6.5353445,10.770431 6.4346443,10.471537 6.3466785,10.014648 6.3398496,9.7551474 6.3330462,9.4956324 6.3001922,9.3133905 6.2668911,9.3501532 6.0389254,9.6018804 5.6350517,11.520643 5.7124514,11.984246 c 0.041998,0.25153 0.015906,0.355091 -0.1249931,0.495979 -0.1485937,0.148607 -0.2444264,0.168988 -0.5789056,0.123137 -0.3862373,-0.05293 -0.3973224,-0.04837 -0.3042582,0.125534 0.053131,0.09928 0.096594,0.272803 0.096594,0.385638 0,0.112847 0.09732,0.337087 0.2162809,0.498322 0.3600181,0.487975 0.2513008,0.60321 -0.1612934,0.17096 -0.2054608,-0.215243 -0.391716,-0.445802 -0.4138978,-0.512348 -0.031466,-0.0944 -0.1007929,-0.0763 -0.3154701,0.08242 -0.3796389,0.280692 -0.4384212,0.161224 -0.114196,-0.232107 0.4146472,-0.50304 0.3476639,-0.607697 -0.1934648,-0.302309 -0.38581,0.217735 -0.5263985,0.253216 -0.8434948,0.212855 -0.7161375,-0.09114 -0.8233088,-0.435848 -0.2186685,-0.70331 0.2079757,-0.09199 0.4049238,-0.210605 0.4376717,-0.263586 0.032734,-0.05296 0.2226824,-0.09691 0.4220989,-0.09763 0.5848576,-0.0021 0.6403639,-0.0768 0.4666593,-0.627836 -0.081045,-0.257102 -0.1473478,-0.529535 -0.1473478,-0.605413 0,-0.07587 -0.077908,-0.162689 -0.1731171,-0.192911 C 3.4776658,10.451189 3.4099326,10.217378 3.4950954,9.6179854 3.5656666,9.1213475 3.5536809,9.0360924 3.3649924,8.692385 3.2506807,8.4841666 3.157155,8.2982578 3.157155,8.2792366 c 0,-0.086304 0.5196162,0.2457179 0.594801,0.3800661 0.04637,0.082868 0.098543,0.1315329 0.1159379,0.1081395 C 4.3888017,8.0666355 4.3749827,8.1025095 4.2826339,7.6904223 4.2188332,7.4057162 4.2220179,7.2523242 4.2941712,7.1368362 4.4029692,6.962635 4.9755648,6.6435773 5.3199881,6.5652549 5.4389363,6.5381923 5.6785178,6.3892773 5.8523727,6.2343166 L 6.1684775,5.9525613 6.1215409,5.0329474 C 6.0763726,4.1479264 6.0661156,4.1091917 5.8486929,4.0029548 5.7244378,3.9422462 5.6033208,3.8891966 5.5795243,3.885067 5.2012345,3.8195025 5.2354934,3.290797 5.6559896,2.7047625 6.1460527,2.0217767 6.8048613,1.5290259 7.428119,1.3793021 7.5645774,1.3464976 7.6568111,1.3002641 7.6330837,1.2765137 7.6093477,1.252787 7.3421952,1.2905959 7.0394134,1.3605345 6.7366436,1.4304823 6.4735538,1.4723549 6.4547866,1.4535867 6.3722883,1.3710884 6.959845,1.2109028 7.3669375,1.2049161 c 0.5121526,-0.0075 0.5125449,-0.051976 0.00176,-0.1927494 L 7.0070397,0.91252804 7.3122093,0.90399024 C 7.4800545,0.89938194 7.7039021,0.95610454 7.8096547,1.0301711 8.0642434,1.2084902 8.0531006,1.1110657 7.7820962,0.78898654 7.6611811,0.64529674 7.5810131,0.50896434 7.6039444,0.48602157 c 0.078403,-0.0784033 0.7873424,0.37893497 0.7620696,0.49162067 -0.017199,0.076638 0.042989,0.099385 0.1890582,0.071459 0.1178526,-0.022529 0.2654544,-0.00854 0.3280091,0.031166 0.075863,0.048099 0.027331,0.073905 -0.1458028,0.077492 -0.235798,0.00486 -0.2210792,0.020395 0.1610051,0.1696332 0.4136327,0.1615704 0.7857739,0.4236683 0.7096315,0.499822 C 9.5865604,1.8485413 9.4598056,1.7894158 9.3262196,1.6958077 8.8618563,1.3704292 8.6375588,1.3075179 8.9968155,1.6034127 9.564567,2.0710519 9.7980468,2.3500598 10.046406,2.8576566 c 0.250759,0.5125565 0.38806,1.4118226 0.215554,1.4118226 -0.05348,0 -0.09723,0.074078 -0.09723,0.1646277 0,0.090561 -0.143669,0.2798846 -0.3192533,0.4207498 L 9.5262129,5.1109788 9.8452246,5.3910713 c 0.4250864,0.373237 0.7993854,1.1849992 1.1057774,2.3981784 0.306829,1.2149208 0.314823,1.7461757 0.04124,2.7405713 -0.132572,0.481862 -0.186094,0.834313 -0.144417,0.951024 0.04031,0.112904 0.01186,0.337721 -0.07275,0.574741 -0.122133,0.342197 -0.185806,0.405016 -0.526041,0.519074 -0.212901,0.07138 -0.4722194,0.178481 -0.5762648,0.238025 -0.1091783,0.06247 -0.3893515,0.09622 -0.6626039,0.07982 l -0.4734494,-0.02843 0.044848,0.276331 c 0.054375,0.335126 -0.2016659,0.558916 -0.6394758,0.558916 -0.1544762,0 -0.5643256,0.09231 -0.9107551,0.205125 -0.9870477,0.321435 -1.1193309,0.334585 -1.3652452,0.135745 z"
     id="path8021" /></svg>