<?xml version="1.0" encoding="UTF-8" standalone="no"?>
<!-- Generado por Andres Lacquaniti  -->

<svg
   xmlns:dc="http://purl.org/dc/elements/1.1/"
   xmlns:cc="http://creativecommons.org/ns#"
   xmlns:rdf="http://www.w3.org/1999/02/22-rdf-syntax-ns#"
   xmlns:svg="http://www.w3.org/2000/svg"
   xmlns="http://www.w3.org/2000/svg"
   xmlns:sodipodi="http://sodipodi.sourceforge.net/DTD/sodipodi-0.dtd"
   xmlns:inkscape="http://www.inkscape.org/namespaces/inkscape"
   version="1.1"
   id="Layer_1"
   x="0px"
   y="0px"
   width="15px"
   height="15px"
   viewBox="0 0 15 15"
   style="enable-background:new 0 0 15 15;"
   xml:space="preserve"
   sodipodi:docname="ltv-bagheera.svg"
   inkscape:version="0.92.4 (5da689c313, 2019-01-14)"><metadata
     id="metadata9"><rdf:RDF><cc:Work
         rdf:about=""><dc:format>image/svg+xml</dc:format><dc:type
           rdf:resource="http://purl.org/dc/dcmitype/StillImage" /><dc:title /></cc:Work></rdf:RDF></metadata><defs
     id="defs7" /><sodipodi:namedview
     pagecolor="#ffffff"
     bordercolor="#666666"
     borderopacity="1"
     objecttolerance="10"
     gridtolerance="10"
     guidetolerance="10"
     inkscape:pageopacity="0"
     inkscape:pageshadow="2"
     inkscape:window-width="1920"
     inkscape:window-height="996"
     id="namedview5"
     showgrid="false"
     inkscape:zoom="31.466668"
     inkscape:cx="4.1147684"
     inkscape:cy="6.258951"
     inkscape:window-x="1912"
     inkscape:window-y="-8"
     inkscape:window-maximized="1"
     inkscape:current-layer="Layer_1" /><path
     inkscape:connector-curvature="0"
     style="fill:#000000;stroke-width:0.0885495"
     d="M 8.5292963,12.397791 C 8.4785512,12.336632 8.410321,12.180183 8.3776642,12.050111 8.3450186,11.920025 8.2396683,11.74243 8.143539,11.655438 8.0474096,11.568448 7.8866985,11.306507 7.7864014,11.07335 7.6861043,10.840193 7.5623594,10.649434 7.5114141,10.649434 c -0.050946,0 -0.3120366,0.123816 -0.5802003,0.275164 -0.4264659,0.24069 -0.5519704,0.270514 -1.0014712,0.237998 -0.2826502,-0.02045 -0.5435755,-0.06684 -0.5798218,-0.103095 -0.1242293,-0.124218 0.1942417,-0.542478 0.420669,-0.552502 0.1194,-0.0053 0.3001,-0.01524 0.4015658,-0.02214 0.1014663,-0.0069 0.3405262,-0.147416 0.5312383,-0.312272 L 7.0501416,9.8728557 6.651728,9.435067 C 6.2900212,9.0376096 6.2071861,8.991493 5.7523131,8.9343847 5.4767471,8.8997909 5.0683097,8.7788563 4.844681,8.665631 L 4.4380618,8.459783 v 0.3810341 c 0,0.3178456 -0.059246,0.4495013 -0.3571853,0.7937461 -0.375013,0.4332908 -0.6955857,1.0071388 -0.8789779,1.5734298 -0.060059,0.185447 -0.2149271,0.498782 -0.3441502,0.696282 -0.232307,0.355061 -0.2399337,0.358591 -0.677699,0.313254 -0.7913842,-0.08194 -1.0417904,-0.287656 -0.8760261,-0.719636 0.038914,-0.101408 0.1737459,-0.140061 0.4884625,-0.140061 0.4102088,0 0.4430899,-0.01759 0.5835413,-0.312132 0.134371,-0.281776 0.1384798,-0.438887 0.042207,-1.6160288 -0.058655,-0.7171447 -0.106354,-1.4683867 -0.1059996,-1.6694295 0,-0.2010309 -0.059127,-0.5085691 -0.1321868,-0.6834129 -0.074712,-0.178799 -0.1328243,-0.5863869 -0.1328243,-0.9315406 0,-0.4809183 -0.044946,-0.692788 -0.2078079,-0.9795111 L 1.6315957,4.7999143 1.5312162,5.0903213 c -0.093202,0.2696273 -0.097121,0.257136 -0.054783,-0.1744664 0.025077,-0.2556955 0.023708,-0.4648847 -0.00309,-0.4648847 -0.026741,0 -0.1275821,0.129495 -0.2240895,0.2877859 -0.1021396,0.1675122 -0.1755997,0.2280088 -0.1757999,0.1447604 0,-0.078655 0.079364,-0.2443375 0.1767679,-0.3681647 C 1.5942908,4.0779526 1.4215247,4.0648708 0.9845745,4.4952472 0.52199199,4.9508638 0.36237824,4.9626464 0.78533804,4.5099479 L 1.028849,4.2493171 0.73027213,4.3058122 C 0.47981874,4.3532022 0.44838957,4.3421787 0.53533341,4.2374288 0.60619631,4.1520432 0.60960867,4.0943798 0.54607834,4.0551585 0.35621629,3.9378128 0.44677312,3.5733666 0.69810028,3.4433995 0.83667421,3.3717335 1.0130176,3.1580221 1.1043181,2.9510643 1.3119729,2.4804059 1.6000066,2.2955736 2.1205242,2.2989501 2.3480137,2.3004683 2.5743105,2.2703539 2.6233906,2.2321132 2.7671832,2.1200919 3.4639145,1.8980335 3.4639145,1.9642331 c 0,0.033259 -0.044347,0.1048187 -0.098538,0.1590228 -0.1346782,0.1346664 -0.021155,0.2904069 0.2144549,0.2942089 0.1874298,0.00309 0.186509,0.00743 -0.027369,0.1296953 l -0.2213736,0.1265435 0.2656485,0.00992 0.2656482,0.00992 -0.2838778,0.1039458 c -0.1561421,0.05718 -0.335449,0.1596249 -0.3984725,0.2276785 -0.095055,0.1026233 -0.090108,0.1151614 0.029042,0.073531 0.3512112,-0.1227058 0.9632301,-0.1700268 0.9632301,-0.074488 0,0.05424 -0.1295068,0.1025752 -0.2877859,0.1074279 -0.1582796,0.00486 -0.38741,0.040735 -0.5091595,0.07973 -0.177678,0.056896 -0.1339936,0.072906 0.2213736,0.081076 0.5980393,0.013753 0.8643137,0.1813495 0.2910917,0.1832146 l -0.4173044,0.00142 0.3730295,0.382876 c 0.2724256,0.2796159 0.4924416,0.4127589 0.8157768,0.4936693 0.2435114,0.060946 0.5072119,0.1689882 0.585997,0.2400991 0.078786,0.071124 0.7362711,0.2675968 1.4610665,0.4366198 1.9336381,0.4509179 2.126806,0.5286762 2.7212087,1.0953574 0.6312057,0.6017588 0.8404407,0.9923685 0.9885797,1.8454185 0.126896,0.7307463 0.170994,0.7841237 0.972911,1.1778144 0.414978,0.2037233 0.651783,0.2608434 1.08165,0.2608905 0.491307,5.94e-5 0.584497,-0.029907 0.868576,-0.2793321 0.475828,-0.4177766 0.691511,-0.8974315 0.619503,-1.3776528 -0.07884,-0.525819 -0.300383,-0.7344299 -0.776602,-0.7313126 -0.277822,0.00177 -0.46739,0.071347 -0.72417,0.2656481 -0.392641,0.2970896 -0.512666,0.3205138 -0.670119,0.1308055 -0.289686,-0.3490501 0.751562,-1.0524636 1.544824,-1.0435971 0.395827,0.00447 0.470941,0.039871 0.774807,0.3656384 l 0.336488,0.3607271 v 0.778244 c 0,0.6000114 -0.03765,0.8390714 -0.163286,1.0438804 -0.254821,0.4154387 -0.818338,0.9186474 -1.152076,1.0287914 -0.454861,0.1501213 -1.331147,0.04745 -1.92869,-0.225978 l -0.518971,-0.2374782 0.279663,0.2929102 c 0.228918,0.2397573 0.297208,0.4084373 0.376336,0.9297103 0.19044,1.254511 0.11437,1.544233 -0.399524,1.521446 -0.32786,-0.01454 -0.832026,-0.160938 -0.832026,-0.241613 0,-0.135658 0.283335,-0.455581 0.40349,-0.455581 0.170358,0 0.161113,-0.118893 -0.03987,-0.51269 C 10.254922,10.602757 10.072534,10.450782 9.5531616,10.25922 9.3084462,10.168959 9.0568477,9.9966057 8.9492897,9.8455637 8.8478829,9.7031527 8.6780326,9.5414495 8.5718322,9.4862416 8.3820885,9.3875856 8.3822775,9.389687 8.5830478,9.6081802 L 8.7873374,9.8305224 8.5664242,9.9965347 C 8.3560894,10.154625 8.3511545,10.178569 8.4633878,10.497489 c 0.1710658,0.486149 0.5000571,0.930785 0.7723409,1.043857 0.289946,0.120404 0.4895844,0.334186 0.5297025,0.567213 0.022765,0.132234 -0.045609,0.201338 -0.2797921,0.28278 -0.408379,0.142021 -0.8412088,0.145008 -0.9560871,0.0066 z"
     id="path8031" /></svg>