<?xml version="1.0" encoding="UTF-8" standalone="no"?>
<!-- Generado por Andres Lacquaniti  -->

<svg
   xmlns:dc="http://purl.org/dc/elements/1.1/"
   xmlns:cc="http://creativecommons.org/ns#"
   xmlns:rdf="http://www.w3.org/1999/02/22-rdf-syntax-ns#"
   xmlns:svg="http://www.w3.org/2000/svg"
   xmlns="http://www.w3.org/2000/svg"
   xmlns:sodipodi="http://sodipodi.sourceforge.net/DTD/sodipodi-0.dtd"
   xmlns:inkscape="http://www.inkscape.org/namespaces/inkscape"
   version="1.1"
   id="Layer_1"
   x="0px"
   y="0px"
   width="15px"
   height="15px"
   viewBox="0 0 15 15"
   style="enable-background:new 0 0 15 15;"
   xml:space="preserve"
   sodipodi:docname="ltv-kaa.svg"
   inkscape:version="0.92.0 r15299"><metadata
     id="metadata9"><rdf:RDF><cc:Work
         rdf:about=""><dc:format>image/svg+xml</dc:format><dc:type
           rdf:resource="http://purl.org/dc/dcmitype/StillImage" /><dc:title></dc:title></cc:Work></rdf:RDF></metadata><defs
     id="defs7" /><sodipodi:namedview
     pagecolor="#ffffff"
     bordercolor="#666666"
     borderopacity="1"
     objecttolerance="10"
     gridtolerance="10"
     guidetolerance="10"
     inkscape:pageopacity="0"
     inkscape:pageshadow="2"
     inkscape:window-width="1920"
     inkscape:window-height="996"
     id="namedview5"
     showgrid="false"
     inkscape:zoom="7.8666669"
     inkscape:cx="7.1881393"
     inkscape:cy="-23.547409"
     inkscape:window-x="-8"
     inkscape:window-y="-8"
     inkscape:window-maximized="1"
     inkscape:current-layer="Layer_1" /><path
     inkscape:connector-curvature="0"
     style="fill:#010101;stroke-width:0.13418145"
     d="M 6.9951649,14.184273 C 5.955509,14.049751 4.925693,13.715263 4.3969822,13.340343 3.9702495,13.037718 3.6267629,12.348347 3.7066632,11.954856 3.7352506,11.814073 3.7932009,11.53451 3.8354417,11.333613 3.8776783,11.132699 4.0473591,10.838287 4.2125276,10.679363 4.4229061,10.476909 4.4617473,10.371729 4.3422366,10.328058 4.2484346,10.293782 3.8220062,10.002873 3.3946291,9.6816253 2.0151538,8.6446525 1.8342955,7.7533298 2.9002146,7.2450323 3.4322356,6.9913401 3.5167698,6.6098354 3.1612423,6.0672234 3.0451849,5.8900862 2.9697034,5.5778369 2.993516,5.3733082 3.0298493,5.0612742 3.1519927,4.9573636 3.7528756,4.7272869 4.4648422,4.4546662 4.8334476,4.0532131 4.8435022,3.5394417 c 0.01056,-0.5345073 0.273122,-0.035746 0.273122,0.5186381 0,0.4921239 -0.081547,0.6857747 -0.469635,1.1153338 -0.2582905,0.2859139 -0.469635,0.595766 -0.469635,0.6885836 0,0.092818 0.2113445,0.4026696 0.469635,0.6885836 0.4853437,0.5372088 0.586069,0.9900266 0.3276712,1.4728651 -0.1722887,0.3219279 0.044977,0.5328077 1.3895833,1.3487205 1.0843293,0.6579896 1.3420294,1.0688006 1.279304,2.0394696 l -0.044565,0.6898 0.87218,0.0851 C 9.7134498,12.307747 9.865004,12.197096 9.777607,11.23324 9.6859526,10.222394 9.5288886,9.9578418 8.7278251,9.4649484 7.8141207,8.9027283 7.66772,8.5620864 7.6580763,6.9756496 7.646984,5.1400477 7.5131067,4.4833275 7.0065271,3.7779266 6.7683998,3.4463556 6.5937846,3.0701643 6.6184743,2.9419405 6.6431621,2.8137341 6.8950846,2.5588792 7.1783151,2.3756048 7.4916022,2.1728656 7.8229229,1.7864592 8.0244099,1.3888701 8.3331521,0.77957882 8.3844277,0.73975385 8.7823561,0.80026081 c 0.2347466,0.0356924 0.5281031,0.0119829 0.6519079,-0.0527424 0.327492,-0.17114379 0.665236,0.005533 0.639581,0.33466669 -0.04752,0.6092197 0.01521,0.8885498 0.199733,0.8885498 0.105717,0 0.229057,0.1160581 0.27407,0.257897 0.06636,0.2090546 0.19603,0.2535311 0.684844,0.2348172 0.64942,-0.02485 0.855845,0.1398168 0.859512,0.6856851 0.0077,1.1440313 -1.184141,1.9208343 -2.4265547,1.5815345 C 9.3598378,4.6472081 9.2937311,4.6905572 9.1314788,5.0809718 9.0296444,5.3260405 8.9460756,5.8733762 8.9457896,6.2972819 c 0,0.9139371 0.265375,1.2559205 1.4201224,1.8257624 0.576301,0.2843931 0.781241,0.4778294 1.016721,0.9596659 0.428932,0.8776186 0.756961,4.2047828 0.460635,4.6721458 -0.06186,0.09759 -0.347762,0.230845 -0.635305,0.296111 -0.802923,0.182255 -3.2387466,0.259328 -4.2127967,0.133306 z"
     id="path8135" /></svg>