<?xml version="1.0" encoding="UTF-8" standalone="no"?>
<!-- Generado por Andres Lacquaniti  -->

<svg
   xmlns:dc="http://purl.org/dc/elements/1.1/"
   xmlns:cc="http://creativecommons.org/ns#"
   xmlns:rdf="http://www.w3.org/1999/02/22-rdf-syntax-ns#"
   xmlns:svg="http://www.w3.org/2000/svg"
   xmlns="http://www.w3.org/2000/svg"
   xmlns:sodipodi="http://sodipodi.sourceforge.net/DTD/sodipodi-0.dtd"
   xmlns:inkscape="http://www.inkscape.org/namespaces/inkscape"
   version="1.1"
   id="Layer_1"
   x="0px"
   y="0px"
   width="15px"
   height="15px"
   viewBox="0 0 15 15"
   style="enable-background:new 0 0 15 15;"
   xml:space="preserve"
   sodipodi:docname="ltv-baloo.svg"
   inkscape:version="0.92.4 (5da689c313, 2019-01-14)"><metadata
     id="metadata9"><rdf:RDF><cc:Work
         rdf:about=""><dc:format>image/svg+xml</dc:format><dc:type
           rdf:resource="http://purl.org/dc/dcmitype/StillImage" /><dc:title /></cc:Work></rdf:RDF></metadata><defs
     id="defs7" /><sodipodi:namedview
     pagecolor="#ffffff"
     bordercolor="#666666"
     borderopacity="1"
     objecttolerance="10"
     gridtolerance="10"
     guidetolerance="10"
     inkscape:pageopacity="0"
     inkscape:pageshadow="2"
     inkscape:window-width="1920"
     inkscape:window-height="996"
     id="namedview5"
     showgrid="false"
     inkscape:zoom="11.125147"
     inkscape:cx="5.1660535"
     inkscape:cy="-7.5001726"
     inkscape:window-x="1912"
     inkscape:window-y="-8"
     inkscape:window-maximized="1"
     inkscape:current-layer="Layer_1" /><path
     inkscape:connector-curvature="0"
     style="fill:#010101;stroke-width:0.06413353"
     d="M 8.8545056,14.248145 C 7.4375561,14.128745 7.0988717,14.092292 7.0618282,14.055188 7.0400709,14.033387 7.0160442,13.76704 7.008454,13.463296 6.9960496,12.967415 6.9780488,12.894457 6.8321726,12.748686 6.742819,12.659398 6.4823022,12.51836 6.2532603,12.435277 5.6085473,12.20143 5.3020318,12.024301 4.9248663,11.667591 4.3093048,11.085412 4.1325101,10.629269 4.1318766,9.6216029 4.1310096,8.4650958 4.6611493,7.3725926 5.5397448,6.7194577 5.8734277,6.4714059 5.9559633,6.3251562 6.1489366,5.6399549 L 6.3079708,5.075246 6.0583459,4.8944237 C 5.9210569,4.7949791 5.6065886,4.6165771 5.3595294,4.4979927 5.1124703,4.3794051 4.9103214,4.2565177 4.9103126,4.2249019 4.9103038,4.193296 4.7876379,4.0328859 4.6377285,3.8684559 4.4878181,3.7040259 4.2395614,3.392433 4.0860508,3.1760279 3.7740293,2.7361573 3.6233753,2.6681941 3.1807848,2.7676332 c -0.164224,0.036883 -0.3364018,0.039009 -0.4253423,0.00518 -0.091226,-0.034701 -0.1642581,-0.032774 -0.1875345,0.00485 -0.020964,0.033908 -0.083746,0.061681 -0.1395033,0.061681 -0.055754,0 -0.1336283,0.044109 -0.1730514,0.098023 C 2.1947744,3.020205 2.1650193,3.0007391 2.0631258,2.8115245 1.7896957,2.3037888 2.2666164,1.9359211 3.2598491,1.8884274 3.8146719,1.8619111 3.8298767,1.8651939 4.1942743,2.090107 4.3980051,2.2158574 4.7290628,2.380239 4.9299459,2.4554024 5.300646,2.5940938 5.4392603,2.6935097 5.549698,2.8998635 5.615311,3.0224644 5.9851907,3.1039116 6.5457002,3.1191912 6.8529175,3.1275612 6.8672409,3.1202912 6.8872587,2.9454073 6.9071212,2.7718194 6.8983742,2.76503 6.7087796,2.806674 6.5325831,2.8453744 6.4750337,2.8170294 6.2135397,2.5628635 6.0197633,2.3745094 5.9309253,2.2407368 5.9560745,2.1751829 5.9772039,2.1201342 6.1521688,2.029246 6.3448854,1.9732202 6.5376109,1.9171911 6.7229488,1.8366263 6.7567602,1.7941781 6.7905694,1.7517322 6.7994816,1.5871281 6.7765676,1.4284002 6.73909,1.1688165 6.7272033,1.1526963 6.6582884,1.2680672 c -0.076211,0.1275836 -0.07663,0.1275682 -0.078569,-0.00297 -0.00102,-0.072311 0.034129,-0.1700318 0.078216,-0.2171564 0.06569,-0.0702179 0.054443,-0.0794939 -0.06222,-0.0514019 -0.138785,0.033424 -0.139598,0.0304379 -0.032069,-0.11752794 0.1089076,-0.14987514 0.2623147,-0.185231 0.6805679,-0.1568529 0.1458046,0.009915 0.1770856,-0.009254 0.1463092,-0.0893976 -0.040606,-0.10582302 0.051501,-0.14413016 0.1118236,-0.046511 0.01886,0.0305153 0.1515177,0.0712097 0.294792,0.0904222 0.1432746,0.0191967 0.3625943,0.1128015 0.4873725,0.2079849 L 8.5113903,1.0576979 8.6373404,0.92250315 c 0.139255,-0.14946423 0.3739838,-0.17719788 0.4929384,-0.058243 0.1254197,0.12541894 0.096235,0.67335769 -0.043294,0.81288629 -0.066134,0.066142 -0.1534587,0.1313292 -0.1940599,0.1448583 -0.051042,0.017009 -0.036266,0.1035317 0.047938,0.2805853 0.066964,0.1407889 0.1600684,0.3641442 0.2068948,0.4963337 0.1461301,0.4125248 0.408265,0.6043271 0.9894173,0.7239745 0.282187,0.058089 0.613689,0.1476532 0.736663,0.1990092 0.122983,0.051369 0.522945,0.1217527 0.888814,0.1564189 0.365869,0.034668 0.745754,0.1046773 0.844202,0.1555894 0.379218,0.1961008 0.91015,1.0214235 0.8156,1.267825 -0.04734,0.1233511 -0.432123,0.2242609 -1.168069,0.3063194 -0.723025,0.080628 -1.101755,0.043084 -1.472207,-0.1458998 -0.245563,-0.1252823 -0.258552,-0.1258485 -0.322172,-0.014035 -0.03646,0.064093 -0.124018,0.1760842 -0.194565,0.2488791 l -0.128267,0.1323559 0.172494,0.5130676 c 0.21902,0.6514858 0.37631,1.7894369 0.392266,2.8380466 0.01075,0.7070335 -0.0075,0.8752512 -0.135014,1.2442323 -0.178795,0.517361 -0.452363,0.943362 -0.7931171,1.235032 l -0.2545419,0.217884 0.044757,0.60979 c 0.024626,0.335385 0.026621,0.682108 0.00444,0.770484 -0.047911,0.190887 -0.3707514,0.40516 -0.7196809,0.477658 -0.3318865,0.06895 -0.3220527,0.208793 0.023668,0.336504 0.1509622,0.05576 0.3523242,0.17924 0.4474812,0.274388 0.095148,0.09516 0.1592223,0.167945 0.1423934,0.161754 -0.016837,-0.0062 -0.2903537,-0.03314 -0.6078146,-0.05989 z"
     id="path8119" /></svg>