<svg width="15px" height="15px" enable-background="new 0 0 15 15" version="1.1" viewBox="0 0 15 15" xmlns="http://www.w3.org/2000/svg">
 <path d="m9.2598 0.51172c-0.91791 0-1.6621 0.59721-1.6621 1.332 0 0.73646 0.7442 1.332 1.6621 1.332 0.00206 0 0.0049325-0.0019531 0.0078125-0.0019531 0.15141 0.55049 0.77539 0.55664 0.77539 0.55664 0-3e-7 -0.17674-0.4149 0.042969-0.73828 0.49701-0.22999 0.83594-0.65431 0.83594-1.1484 0-0.73482-0.7442-1.332-1.6621-1.332zm-3.8281 0.037109c-0.89116 0-1.6113 0.57718-1.6113 1.291 0 0.47891 0.32598 0.89265 0.80859 1.1152 0.13742 0.37605-0.023437 0.71484-0.023437 0.71484s0.67384-0.0038957 0.82031-0.53711h0.0058594c0.89034 0 1.6133-0.57913 1.6133-1.293 0-0.71384-0.72294-1.291-1.6133-1.291zm-4.1602 2.5684c-0.1793 0.024773-0.34623 0.1268-0.44922 0.29297-0.18226 0.29623-0.091565 0.68451 0.20508 0.86719 0.15182 0.093395 2.6778 1.6133 6.4062 1.6133 0.95948 0 2.0046-0.11769 3.1035-0.36914 0.55012 1.6461 1.5186 5.6169 0.23242 7.0312-0.48096 0.52869-1.3199 0.65026-2.4941 0.35938-0.34149-0.085578-0.68056 0.1212-0.76367 0.45898-0.083932 0.33779 0.1212 0.68056 0.45898 0.76367 0.51923 0.12836 0.99932 0.19141 1.4375 0.19141 0.96481 0 1.7337-0.30863 2.2949-0.92578 1.9451-2.1416 0.43504-7.0699 0.054687-8.2051 0.48942-0.15805 0.98708-0.34208 1.4941-0.56641 0.31722-0.14071 0.46061-0.51399 0.32031-0.83203-0.14112-0.31845-0.51358-0.46102-0.83203-0.32031-6.0793 2.6904-11.003-0.24022-11.053-0.27148-0.073955-0.045258-0.15366-0.073736-0.23438-0.085938-0.060538-0.0091511-0.12187-0.010211-0.18164-0.0019531zm2.2168 2.6465c-0.071589 0.2555-0.17201 0.55273-0.28516 0.89258-0.51635 1.5536-1.2969 3.9013-1.2969 7.2891h1.2598c0-3.1837 0.74312-5.4148 1.2344-6.8906 0.12014-0.36206 0.22508-0.67839 0.30078-0.95117l-1.2129-0.33984zm2.0254 0.50195c-0.0037 0.095864-0.0046294 0.25091-0.0058594 0.44922-0.003703 0.5147-0.010447 1.2925-0.074219 2.1055h0.0019531c-1.741e-4 0.0021365-0.0018004 0.0037161-0.0019531 0.0058594-0.039086 0.55914-0.20748 1.1226-0.48438 1.6328-0.16622 0.30569-0.0522 0.68884 0.25391 0.85547 0.095452 0.05184 0.19762 0.076172 0.29883 0.076172 0.22341 0 0.44072-0.11942 0.55469-0.33008 0.36247-0.66652 0.58138-1.4096 0.63281-2.1465 0.066616-0.85652 0.074025-1.6923 0.078125-2.1914 8.3e-4 -0.17938 6.163e-4 -0.31903 0.0039063-0.40625l-1.2578-0.050781zm4.5137 0.058594-1.2539 0.11719c0.17774 1.8955-0.044232 3.881-0.16602 4.9746l1.2559 0.11328c0.12384-1.1117 0.35414-3.1817 0.16406-5.2051z"/>
</svg>
