<svg width="15px" height="15px" enable-background="new 0 0 15 15" version="1.1" viewBox="0 0 15 15" xmlns="http://www.w3.org/2000/svg">
 <path d="m6.1255 0.23611v0.68281c-1.6298 0.17233-1.8251 1.0883-1.8251 1.5065 0 0.65698 0.49255 1.3534 1.8251 1.5058v0.84616h-0.96903c-0.31232 0-0.56435 0.25358-0.56435 0.56545 0 0.31232 0.25203 0.56508 0.56435 0.56508h0.96903v0.7288h1.1302v-0.76007c1.3317-0.15284 1.824-0.84947 1.824-1.5069 0-0.41776-0.19508-1.3334-1.824-1.5062v-0.84579h0.84358c0.31232 0 0.56472-0.25321 0.56472-0.56508 0-0.31188-0.2524-0.56545-0.56472-0.56545h-0.84358v-0.65117zm7.2585 1.391-3.424 2.8865 1.4569 0.52646-0.92893 2.5443c-1.8256-0.52762-3.5036-0.41574-4.9978 0.33294-3.0536 1.531-4.1802 5.1689-4.2267 5.323l-0.19535 0.64823 1.2961 0.3918 0.19756-0.64823c0.00976-0.0319 1.0137-3.243 3.5428-4.5056 1.3206-0.65964 2.8564-0.67937 4.5637-0.057395l0.63682 0.2314 1.3873-3.7996 1.4789 0.53492zm-7.2585 0.4286v0.73505c-0.47092-0.076201-0.69569-0.2426-0.69569-0.36532 0-0.17587 0.26686-0.3086 0.69569-0.36973zm1.1302 1.9447c0.42883 0.061132 0.69458 0.19438 0.69458 0.36937 0 0.12316-0.22367 0.28941-0.69458 0.36605z"/>
</svg>
