<svg width="15px" height="15px" enable-background="new 0 0 15 15" version="1.1" viewBox="0 0 15 15" xmlns="http://www.w3.org/2000/svg">
 <path d="m7.4902 0.40625c-0.28423 0-0.52344 0.24116-0.52344 0.52539v2.8848c2e-7 0.28423 0.2392 0.52344 0.52344 0.52344h0.085938c0.28423 0 0.52539-0.23921 0.52539-0.52344v-2.8848c0-0.28423-0.24116-0.52539-0.52539-0.52539h-0.085938zm4.0586 1.4258c-0.13495 7e-7 -0.26865 0.049899-0.36914 0.15039l-2.041 2.041c-0.20098 0.20098-0.20098 0.53925 0 0.74023l0.060547 0.060547c0.20098 0.20099 0.54121 0.20108 0.74219 0l2.0391-2.0391c0.20098-0.20098 0.20099-0.5412 0-0.74219l-0.060547-0.060547c-0.10049-0.10049-0.23614-0.15039-0.37109-0.15039zm-8.3066 0.072266c-0.13513-4e-7 -0.2706 0.049898-0.37109 0.15039l-0.060547 0.060547c-0.20099 0.20099-0.20099 0.53925 0 0.74023l2.041 2.041c0.20098 0.20098 0.53925 0.20109 0.74023 0l0.060547-0.060547c0.20098-0.20098 0.20098-0.5412 0-0.74219l-2.0391-2.0391c-0.10049-0.10049-0.23596-0.15039-0.37109-0.15039zm4.2578 2.498c-1.1262 0-2.0469 0.92263-2.0469 2.0488 0 0.93688 0.64106 1.724 1.5039 1.9648-0.0086301 0.039608-0.023437 0.078072-0.023437 0.11914v3.4902c-0.84641 0.21542-1.5686 0.73778-2.3672 1.0703-0.18168 0.07566-0.35937 0.1704-0.35938 0.36719 0 0.19682 0.51112 1.0987 0.66992 0.98242 1.8548-1.3579 3.2754-2.1383 5.3828-0.023437 0.13892 0.13943 0.53516-0.76217 0.53516-0.95898 0-0.19679-0.21226-0.24582-0.36719-0.36719-0.92706-0.72622-1.6919-1.0523-2.3594-1.1426v-3.418c0-0.041068-0.014807-0.079533-0.023438-0.11914 0.86285-0.24088 1.5039-1.028 1.5039-1.9648 0-1.1262-0.92264-2.0488-2.0488-2.0488zm0 0.80469c0.6918 0 1.2441 0.55234 1.2441 1.2441 0 0.69178-0.55234 1.2441-1.2441 1.2441-0.6918 0-1.2422-0.55236-1.2422-1.2441 0-0.6918 0.55039-1.2441 1.2422-1.2441zm-5.7695 0.77539c-0.2842 0-0.52344 0.23922-0.52344 0.52344v0.085938c0 0.28421 0.23924 0.52344 0.52344 0.52344h2.8848c0.2842 0 0.52539-0.23922 0.52539-0.52344v-0.085938c0-0.28421-0.24119-0.52344-0.52539-0.52344h-2.8848zm8.6621 0.023438c-0.28427 0-0.52344 0.2392-0.52344 0.52344v0.085938c0 0.28427 0.23917 0.52344 0.52344 0.52344h2.8848c0.28427 0 0.52539-0.23917 0.52539-0.52344v-0.085938c0-0.28424-0.24112-0.52344-0.52539-0.52344h-2.8848zm-4.9844 1.9355c-0.13504-4.35e-5 -0.2706 0.049718-0.37109 0.15039l-2.0391 2.041c-0.20098 0.201-0.20099 0.53927 0 0.74024l0.060547 0.060547c0.20098 0.201 0.53925 0.20137 0.74023 0l2.041-2.041c0.20098-0.201 0.20099-0.53927 0-0.74023l-0.060547-0.060547c-0.10049-0.1005-0.23605-0.15035-0.37109-0.15039zm3.9434 0.10352c-0.13513 0-0.2706 0.049893-0.37109 0.15039l-0.060547 0.060547c-0.20099 0.201-0.20098 0.54119 0 0.74219l2.0391 2.0391c0.20098 0.201 0.54121 0.201 0.74219 0l0.060547-0.060547c0.20098-0.20099 0.20098-0.54119 0-0.74219l-2.0391-2.0391c-0.10049-0.1005-0.23596-0.15039-0.37109-0.15039z" color="#000000" color-rendering="auto" dominant-baseline="auto" enable-background="accumulate" image-rendering="auto" shape-rendering="auto" solid-color="#000000" style="font-feature-settings:normal;font-variant-alternates:normal;font-variant-caps:normal;font-variant-ligatures:normal;font-variant-numeric:normal;font-variant-position:normal;isolation:auto;mix-blend-mode:normal;shape-padding:0;text-decoration-color:#000000;text-decoration-line:none;text-decoration-style:solid;text-indent:0;text-orientation:mixed;text-transform:none;white-space:normal"/>
</svg>
