<svg width="15px" height="15px" enable-background="new 0 0 15 15" version="1.1" viewBox="0 0 15 15" xmlns="http://www.w3.org/2000/svg">
 <path d="m4.6543 1.4707c-0.58116 0-1.0527 0.47115-1.0527 1.0527 0 0.58074 0.47157 1.0508 1.0527 1.0508s1.0527-0.47004 1.0527-1.0508c0-0.58159-0.47157-1.0527-1.0527-1.0527zm6.2109 0.042969c-0.58159 0-1.0527 0.47115-1.0527 1.0527 0 0.58074 0.47114 1.0508 1.0527 1.0508 0.58074 0 1.0527-0.47004 1.0527-1.0508 0-0.58159-0.472-1.0527-1.0527-1.0527zm-3.7598 0.074219c-0.15009 2.5221 1.3591 4.4336 3.1836 5.8262-0.63062 1.0446-1.2914 2.1806-1.9668 3.1992-0.66473-2.9071-2.6092-5.7868-5.4336-7.1973-0.90905 1.5149-1.8391 2.987-2.6582 4.5391-0.095937 0.18292-0.041785 0.63847 0.18164 0.80859 0.34111 0.26009 0.76021 0.20603 0.91797-0.019531 0.72912-1.0442 1.3145-2.0751 1.9844-3.1172 0.71889 0.4153 1.2492 1.0181 1.7012 1.7012-1.0493 1.9614-2.2253 3.9857-3.3535 5.9023 0.66346 0.01194 1.3325 0.0081 1.7695 0 0.81354-1.4301 1.6748-2.9476 2.5254-4.4199 0.65194 1.3141 1.0539 2.9451 1.0684 4.4199 0.54236 0.0051 1.1711-0.02175 1.5859 0-0.037522-0.0021 2.4149-4.402 3.0293-5.1797 0.81184 0.45197 1.3022 1.3726 1.4297 2.2578 0.16118 1.1158-0.54765 2.0388-1.1113 2.9219 0.15734 0 1.7843-0.01194 1.7754 0 1.234-1.648 1.5539-4.8812-1.2637-6.5723 0.76323-1.3342 1.4143-2.441 2.1895-3.8809 0.55728-1.0348-0.68511-1.6513-1.2539-0.73242-0.82889 1.3393-1.4367 2.4977-2.2656 3.9219-1.4915-0.93336-2.4151-2.6333-2.4395-4.3789h-1.5957z"/>
</svg>
