<svg width="15px" height="15px" enable-background="new 0 0 15 15" version="1.1" viewBox="0 0 15 15" xmlns="http://www.w3.org/2000/svg">
 <g transform="matrix(.38362 0 0 -.38362 7.5392 6.9514)">
  <path transform="matrix(2.6067 0 0 -2.6067 -19.653 18.12)" d="m7.5332 0.35547c-0.064832 0.0053707-0.12159 0.13582-0.25586 0.23633-0.44253 0.16448-0.48519 0.35389-0.23242 0.56836v-0.023437h0.98633v0.013672c0.22424-0.17054 0.1538-0.35502-0.23633-0.5625-0.16688-0.1078-0.20916-0.20212-0.26172-0.23242zm0.49805 0.79492c-8.898e-4 6.767e-4 -0.001054 0.0012769-0.0019531 0.0019532-0.0046035 0.052172 0.0030339 0.10798-0.0019531 0.16016h0.0039062v-0.16211zm-0.0039062 0.16211h-0.98047l0.0039062-0.0039062v-0.14258c-0.0025669-0.0021335-0.003351-0.003731-0.0058593-0.0058594v0.15234l-0.41992 0.40234c0.29896-0.046081 0.60242-0.076172 0.91406-0.076172 0.30318 0 0.59941 0.028618 0.89062 0.072266h0.019531c-0.14041-0.13273-0.28109-0.2657-0.42188-0.39844zm0.40234 0.39844-0.51562 0.0019531c2.8312 0.17821 5.1301 2.3502 5.5059 5.125v-0.11133l0.046875 0.048828c-0.15648-1.0822-0.59886-2.0732-1.2539-2.8887l-0.94531-0.93945c-0.80411-0.64093-1.7757-1.0771-2.8379-1.2363zm2.8379 1.2363c0.34887 0.27807 0.66595 0.59166 0.94531 0.93945l0.20508 0.20508c-0.005735-0.19269-0.009893-0.38581-0.015625-0.57812l0.001953 0.0019531 0.11328-0.11523c-0.039896 0.033375-0.074954 0.07757-0.11523 0.11133l-0.6875-0.6875-0.00586-0.0058594-0.58398-0.013672 0.14258 0.14258zm0.44141-0.12891h0.00586c0.033758-0.033759 0.066234-0.067804 0.099609-0.10156-2.19e-4 -0.0023531 2e-4 -0.0035289 0-0.0058594l-0.10742 0.10547 0.001953 0.0019532zm0.10547-0.10742 0.017578-0.017578 0.68945 0.69141 0.007813 0.0058594-0.009766 0.0097656c0.27967 0.038927 0.36015-0.14254 0.23047-0.56641-0.041047-0.1945-0.004186-0.28896-0.019531-0.34766-0.050255-0.041431-0.18312 0.010113-0.34961-0.013672-0.43009-0.19695-0.59493-0.093731-0.56641 0.23828zm1.6523 4.0645c0.040712 0.28157 0.068359 0.56672 0.068359 0.85938 0 0.29739-0.028296 0.58713-0.070312 0.87305 0.11942-0.12638 0.23828-0.25253 0.35742-0.37891v-0.98047l-0.35547-0.37305zm0.35547 0.37305 0.003906 0.0039063h0.14258c0.00143-0.001721 0.002478-0.0022117 0.003906-0.0039063h-0.15039zm0.15039 0h0.025391v0.98633h-0.013672c0.17054 0.22423 0.35464 0.15185 0.5625-0.23828 0.1078-0.16688 0.20173-0.20721 0.23242-0.25977-0.005371-0.064448-0.13544-0.12159-0.23633-0.25586-0.16463-0.44397-0.35496-0.48797-0.57031-0.23242zm0.011719 0.98633c-6.77e-4 -8.897e-4 -0.001277-0.001054-0.001953-0.0019531-0.052173-0.0049871-0.10798 0.0010808-0.16016-0.0039063v0.0058594h0.16211zm-0.51953 0.37305c-0.013619 0.014412-0.027389 0.028557-0.041016 0.042969v-0.14258c-0.15538 1.183-0.65827 2.2578-1.4062 3.1172l0.35938-0.36328c0.56133-0.76781 0.94354-1.672 1.0879-2.6543zm-1.0879 2.6543c-0.35853 0.49041-0.78765 0.92319-1.2754 1.2852 0.19269-0.005733 0.38505-0.011844 0.57813-0.017578l0.6875-0.6875 0.005859-0.00586 0.013672-0.58398-0.009766 0.009765zm-0.003906 0.57422v0.00586c0.033759 0.033375 0.06742 0.068187 0.10156 0.10156 0.003142-2.89e-4 0.004712 2.55e-4 0.007813 0l-0.10938-0.10742zm0.10938 0.10742 0.015625 0.015625-0.69141 0.69141-0.00586 0.007813-0.009765-0.009766c-0.037957 0.27814 0.14449 0.35707 0.56641 0.22852 0.19526-0.041815 0.28935-0.004187 0.34766-0.019532 0.041815-0.04987-0.01088-0.18155 0.013672-0.34766 0.19611-0.42946 0.093824-0.59359-0.23633-0.56641zm-0.69141 0.70508c2.13e-4 -0.001564-2.28e-4 -0.002329 0-0.003906-0.033759-0.039897-0.077953-0.074954-0.11133-0.11523l-0.003907 0.003906 0.11524 0.11523zm0.22656-1.0234-0.53906 0.53906c0.19017-0.16931 0.37188-0.34698 0.53906-0.53906zm-0.53906 0.53906c-0.89225 0.79439-2.0187 1.329-3.2656 1.4707h0.21875l-0.027344 0.027344c0.99994-0.14541 1.9183-0.53887 2.6953-1.1152l0.37891-0.38281zm-3.0742 1.498c-0.28306 0.041163-0.57094 0.068359-0.86523 0.068359-0.30961 0-0.6111-0.030685-0.9082-0.076171l0.39648 0.37891v0.15234c0.0025185-0.002137 0.0032817-0.003718 0.0058593-0.00586v-0.14258l-0.0039062-0.003906h0.98047l0.39453-0.37109zm-0.39453 0.37109c0.0049871 0.052172-0.0026503 0.10798 0.0019532 0.16016 9.006e-4 6.73e-4 0.0010618 0.001279 0.0019531 0.001953v-0.16211h-0.0039063zm0.0039063 0.16211v0.013672h-0.98633v-0.023437c-0.25236 0.21409-0.21046 0.40389 0.23242 0.56836 0.13388 0.10089 0.19141 0.23057 0.25586 0.23633 0.05294-0.030306 0.095227-0.12386 0.26172-0.23242 0.39051-0.20825 0.46094-0.39272 0.23633-0.5625zm-1.3828-0.54102-0.025391-0.023438h0.24414c-1.0659-0.12445-2.0428-0.53584-2.8613-1.1504l0.056641 0.058594c-0.026689-7.41e-4 -0.053402-0.001211-0.080078-0.001953 0.76871 0.5738 1.6769 0.96576 2.666 1.1172zm-2.666-1.1172c-0.45616-0.3405-0.86178-0.74331-1.2051-1.1973l0.011719 0.48828 0.69141 0.69141 0.0019532 0.003906c-0.033375 0.04028-0.076 0.074954-0.10938 0.11523l0.11328-0.11328-0.0019531-0.001953c0.166 0.004939 0.33212 0.009054 0.49805 0.013672zm-1.1934-0.70898-0.10547 0.10742c0.0023332 2e-4 0.0035036-2.2e-4 0.0058594 0l0.099609-0.09961v-0.007812zm-0.10547 0.10742c-0.33239-0.028526-0.43756 0.13751-0.24023 0.56836 0.023785 0.16572-0.028143 0.29778 0.013672 0.34766 0.05831 0.015345 0.15511-0.022283 0.34961 0.019531 0.42348 0.12892 0.60495 0.049201 0.56641-0.23047l-0.0097657 0.009765-0.69141-0.68945-0.0058594-0.007812 0.017578-0.017578zm0.09375-0.5957-0.0019531-0.09375 0.015625 0.015625c-0.72415-0.97505-1.1603-2.1741-1.1719-3.4746l-0.0019531 0.72656c0.13761 1.0523 0.54884 2.0178 1.1602 2.8262zm-1.1602-2.8262c-0.033464-0.25589-0.056641-0.51443-0.056641-0.7793 0-0.27642 0.026103-0.5459 0.0625-0.8125v-0.11328l-0.4043 0.42188h0.0019531v0.98242c0.13273 0.14041 0.26414 0.28109 0.39648 0.42188v-0.12109zm-0.39648-0.30078c-0.052172 0.0046035-0.1076-0.0030339-0.16016 0.0019532-6.732e-4 8.991e-4 -0.0012795 0.0010633-0.0019532 0.0019531h0.16211v-0.0039063zm-0.16211 0.0039063h-0.013672v-0.98633h0.023437c-0.21533-0.25551-0.40335-0.21153-0.56836 0.23242-0.10089 0.13465-0.23253 0.19141-0.23828 0.25586 0.03069 0.052556 0.12424 0.09446 0.23242 0.26172 0.20748 0.39013 0.39467 0.46056 0.56445 0.23633zm0.0097656-0.98633c0.0014388 0.0017072 0.0024652 0.0021723 0.0039063 0.0039062h0.14258l0.0039063-0.0039062h-0.15039zm0.55469-0.30859-0.0019532 0.75195c0.014202-1.3924 0.50996-2.6719 1.3301-3.6797l-0.18164 0.17969c3.679e-4 -0.012384-3.649e-4 -0.024731 0-0.037109-0.60122 0.79808-1.0051 1.7496-1.1465 2.7852zm1.1465-2.7852c0.35982-0.47763 0.78959-0.89814 1.2734-1.25l-0.56445 0.013672-0.68945 0.68945-0.0039063 0.0039062c-0.04028-0.033375-0.075338-0.077953-0.11523-0.11133l0.11328 0.11523 0.0019531-0.0019531c-0.0053647 0.18069-0.010301 0.36041-0.015625 0.54102zm0.70898-1.2363 0.0019531-0.0019531-0.10742-0.10547c-2.002e-4 0.0023357 2.192e-4 0.0035009 0 0.0058594 0.033759 0.033759 0.066234 0.067804 0.099609 0.10156h0.0058594zm-0.10547-0.10742c0.02852-0.33276-0.13632-0.43523-0.56641-0.23828-0.16611 0.023784-0.30012-0.028526-0.34961 0.013672-0.015345 0.05831 0.022284 0.15316-0.019531 0.34766-0.1293 0.42348-0.049205 0.60571 0.23047 0.56641l-0.0097656-0.0097656 0.68945-0.69141 0.0078125-0.0058594 0.017578 0.017578zm0.66992 0.09375h0.019531l-0.22852 0.22852c0.9166-0.74089 2.055-1.212 3.2988-1.3008l-0.49219 0.0019531 0.0019531-0.0019531c-0.96089 0.14811-1.8454 0.5238-2.5996 1.0723zm3.0898-1.0723 0.79883-0.0019532c-0.12434-0.0078265-0.24875-0.019531-0.375-0.019531-0.14314 0-0.28317 0.011444-0.42383 0.021484zm-3.2988 1.3008c-0.32371 0.26166-0.6201 0.55608-0.88281 0.87891l0.88281-0.87891zm-2.2129 4.5586c-2.082e-4 0.020418-0.0039062 0.040081-0.0039062 0.060547 0 0.017797 0.0017955 0.034973 0.0019531 0.052734l0.0019531-0.11328zm1.1699 3.5879c0.34383 0.46296 0.75374 0.87256 1.2148 1.2188l-0.38672-0.38672c-0.03075-0.027805-0.06164-0.055546-0.091797-0.083985-0.058362-0.030652-0.12008-0.057584-0.16797-0.10547-0.051969-0.051969-0.083692-0.1157-0.11523-0.17969-0.023168-0.025019-0.045622-0.050754-0.068359-0.076172l-0.38477-0.38672zm0.38477 0.38672 0.058594 0.058594c-0.046179-0.10143-0.072229-0.21013-0.0625-0.32422-0.73184-0.87812-1.2013-1.9804-1.2988-3.1855-0.10764-0.097459-0.16916-0.22643-0.19531-0.36719 0.023731 1.466 0.58645 2.7993 1.498 3.8184zm-1.498-3.8184c-5.205e-4 -0.032156-0.0058593-0.063425-0.0058593-0.095703 0-0.050704 0.0065311-0.09999 0.0078125-0.15039-0.0089155 0.043512-0.029297 0.083459-0.029297 0.12891 0 0.041212 0.019969 0.077502 0.027344 0.11719zm0.0019532-0.24609c0.027995-0.13663 0.090092-0.26091 0.19531-0.35547 0.10598-1.1977 0.58174-2.2909 1.3145-3.1621-0.0044499-0.1518 0.044905-0.29438 0.13672-0.41406-0.98907 1.0251-1.6077 2.4072-1.6465 3.9316zm1.6465-3.9316c0.038719-0.04013 0.077354-0.080118 0.11719-0.11914-0.022524 0.017366-0.049882 0.026445-0.070312 0.046875-0.02097 0.020913-0.029144 0.049153-0.046875 0.072266zm0.11719-0.11914c0.11493-0.088615 0.24923-0.14648 0.39453-0.14648 0.0096986 0 0.019767 0.0014978 0.029297 0.0019531 0.88632-0.75399 2.0033-1.2394 3.2305-1.3379 0.12082-0.10882 0.27134-0.17969 0.43555-0.17969 0.16297 0 0.31151 0.071009 0.43164 0.17773 1.2727 0.090558 2.4288 0.59725 3.3359 1.3887 0.13606 0.021795 0.26665 0.072988 0.36524 0.17188 0.097556 0.097557 0.14508 0.22446 0.16797 0.35742 0.803 0.91068 1.319 2.0774 1.4102 3.3613 0.086768 0.1142 0.14648 0.24728 0.14648 0.39258 0 0.144-0.059619 0.27354-0.14453 0.38672-0.084172 1.2907-0.59714 2.4644-1.4004 3.3809-0.016451 0.14819-0.068795 0.29176-0.17578 0.39844-0.10808 0.10778-0.25122 0.15839-0.40039 0.17383-0.90081 0.77394-2.0436 1.2688-3.2988 1.3594-0.12151 0.11421-0.27411 0.18945-0.44336 0.18945-0.1712 0-0.32361-0.075815-0.44531-0.19141-1.2147-0.10081-2.3208-0.58217-3.2012-1.3262-0.11668 0.009724-0.22685-0.017698-0.33008-0.066407l0.068359 0.06836c1.0442 0.94421 2.4223 1.5254 3.9375 1.5254 3.2319 0 5.8615-2.6191 5.8828-5.8457v-0.082031c-0.023416-3.2251-2.6522-5.8418-5.8828-5.8418-1.6005 0-3.0513 0.64323-4.1133 1.6836zm9.9961 4.1582c1.05e-4 0.01446 0.001953 0.028484 0.001953 0.042969 0 0.013169-0.001866 0.025914-0.001953 0.039062l0.001953 0.73438c0.033344-0.25387 0.056641-0.51072 0.056641-0.77344 0-0.27089-0.025139-0.53544-0.060547-0.79688l0.001953 0.75391zm-9.8887 4.334-0.31641-0.31836c0.002777 0.006099 0.0067993 0.011561 0.0097656 0.017578 0.091069 0.098343 0.1857 0.1932 0.2832 0.28516 0.008286 0.004352 0.014986 0.011638 0.023438 0.015625zm0.33008 0.066407c0.0053818-4.49e-4 0.010238 0.002534 0.015625 0.001953l-0.011719-0.10938c-0.010697 0.001114-0.02059-0.004404-0.03125-0.003907-0.0094734 4.88e-4 -0.017791 0.00586-0.027344 0.00586-0.027945 0-0.052956-0.011524-0.080078-0.015625 0.044819 0.040359 0.088682 0.082149 0.13477 0.12109zm-0.13477-0.12109c-0.0010074-9.07e-4 -9.463e-4 -0.002999-0.0019531-0.003906-0.0083629-0.001294-0.017117-2.79e-4 -0.025391-0.001954 0.0091719 0.001876 0.018047 0.004454 0.027344 0.00586zm-0.027344-0.00586c-0.030782-0.006293-0.062766-0.008102-0.091797-0.019531 0.029391 0.011518 0.060747 0.013248 0.091797 0.019531zm-0.091797-0.019531c-0.049051-0.019222-0.090731-0.050953-0.13281-0.083984 0.041736 0.032726 0.084118 0.064814 0.13281 0.083984zm-0.13281-0.083984c-0.017472-0.0137-0.038751-0.021173-0.054688-0.03711 3.984e-4 4e-4 -3.998e-4 0.001555 0 0.001953 0.015861 0.015913 0.037278 0.021491 0.054688 0.035157zm0.25 0.10547c0.036232 0.005603 0.072065 0.015414 0.10938 0.013671 0.019595-0.001009 0.037482-0.008663 0.056641-0.011718-0.0087173-0.00752-0.01672-0.015866-0.025391-0.023438-0.060156 0.006935-0.11859 0.002373-0.17773-0.011719 0.012213 0.011206 0.024799 0.022103 0.037109 0.033204zm-0.037109-0.033204c-0.012889-0.011826-0.026282-0.023213-0.039062-0.035156-0.07026-0.023884-0.13561-0.059218-0.18945-0.11328-0.054523-0.054524-0.089469-0.12048-0.11328-0.19141-0.011559-0.012544-0.023708-0.024463-0.035156-0.03711 0.02146 0.090256 0.0585 0.17751 0.12891 0.24805 0.070349 0.070349 0.15789 0.10742 0.24805 0.12891zm-0.37695-0.37695c-0.014234-0.059866-0.019018-0.11883-0.011719-0.17969-0.0072252-0.008394-0.014308-0.016954-0.021484-0.025391-0.0032364 0.019828-0.010673 0.038308-0.011719 0.058594-0.0018898 0.037279 0.0062073 0.073139 0.011719 0.10938 0.011047 0.012418 0.02205 0.024788 0.033203 0.037109zm-0.033203-0.037109c-6.122e-4 -6.88e-4 -0.0013413-0.001265-0.0019531-0.001953 0.0012722 0.008469 0.0022436 0.017025 0.0039062 0.02539-0.0015069-0.007669-7.752e-4 -0.015693-0.0019531-0.023437zm0.0019531 0.023437c0.0061239 0.031169 0.0081067 0.062263 0.019531 0.091797-0.011147-0.028876-0.013453-0.061216-0.019531-0.091797zm0.019531 0.091797c0.022607 0.058562 0.057594 0.10978 0.099609 0.1582-0.041553-0.047971-0.077212-0.1003-0.099609-0.1582zm-0.023437-0.11719c-0.0040438-0.026918-0.015625-0.052332-0.015625-0.080078 0-0.00957 0.0053699-0.017852 0.0058593-0.027344 5.41e-4 -0.010673-0.005071-0.020544-0.0039062-0.03125l-0.11133-0.011719c-5.878e-4 0.005362 0.0024098 0.010269 0.0019531 0.015625 0.039015 0.046813 0.082582 0.089234 0.12305 0.13477zm0.0019531-0.16602c0.018319-0.11223 0.060635-0.21884 0.14258-0.30078 0.099853-0.099482 0.2322-0.1527 0.37305-0.15625-0.0060051 1.44e-4 -0.011562-0.002293-0.017578-0.001953l-0.0039063-0.060547c-0.62717-0.75004-1.0467-1.678-1.1289-2.709-0.095616 0.081954-0.21599 0.13672-0.35156 0.13672-0.12544 0-0.23579-0.049831-0.32812-0.12109 0.087813 1.2214 0.56576 2.3327 1.3145 3.2129zm-1.3145-3.2129c-7.906e-4 -0.010995-0.0012266-0.022191-0.0019532-0.033203-0.049035-0.041246-0.088085-0.089903-0.11914-0.14648 6.669e-4 0.016991 0.0011373 0.033828 0.0019531 0.050781 0.024752 0.037329 0.050206 0.074669 0.083984 0.10547 0.010474 0.0094528 0.023974 0.014806 0.035156 0.023438zm-0.035156-0.023438c-0.033838-0.03054-0.058615-0.067416-0.083984-0.10547 0.0030143 0.062638 0.0047386 0.1254 0.0097657 0.1875 0.0094762 0.0085802 0.013404 0.021211 0.023437 0.029297l0.070313-0.085938c-0.0085061-0.0068906-0.011506-0.018073-0.019531-0.025391zm-0.085938-0.15625c-6.938e-4 -0.017676-0.0033744-0.035018-0.0039062-0.052734 0.02726 0.063854 0.07096 0.11748 0.12109 0.16406-0.0066628-0.11157-0.017578-0.22273-0.017578-0.33594 0-0.1277 0.011071-0.25331 0.019531-0.37891-0.050109 0.046-0.091543 0.098912-0.11914 0.16211-0.0027513 0.072621-0.011719 0.14352-0.011719 0.2168 0 0.057414 0.0061204 0.11291 0.0078126 0.16992-0.02484-0.05873-0.037109-0.1237-0.037109-0.19141 0-0.069676 0.014793-0.13526 0.041016-0.19531 6.687e-4 -0.01765 0.0011238-0.035126 0.0019531-0.052734-0.041824 0.074852-0.072266 0.15621-0.072266 0.24805 0 0.090433 0.029668 0.17204 0.070312 0.24609zm0.0019531-0.49414c0.031097-0.055656 0.070556-0.10392 0.11914-0.14453 8.566e-4 -0.011636 0.001025-0.02354 0.0019531-0.035156-0.011226 0.0085859-0.024636 0.014026-0.035156 0.023438-0.034363 0.030686-0.058752 0.068028-0.083984 0.10547-9.47e-4 0.016919-0.0011544 0.033824-0.0019531 0.050781zm0.085938-0.15625c0.0070744-0.0063175 0.010139-0.015498 0.017578-0.021484l-0.068359-0.087891c-0.010041 0.0080278-0.013952 0.020773-0.023438 0.029297-0.0053697 0.060684-0.0063186 0.12238-0.0097657 0.18359 0.025359-0.03742 0.050398-0.07347 0.083984-0.10352zm0.035156-0.023438c0.091973-0.070341 0.2017-0.11914 0.32617-0.11914 0.13655 1e-7 0.25763 0.055574 0.35352 0.13867 0.08944-1.0143 0.50708-1.9262 1.125-2.666l0.0039062-0.046875c0.0081105 6.55e-4 0.01535-0.0042088 0.023438-0.0039063-0.1368-0.006066-0.26556-0.057302-0.36328-0.1543-0.091412-0.091576-0.13538-0.20862-0.14844-0.32812-0.74428 0.87107-1.2238 1.9712-1.3203 3.1797zm1.3203-3.1797c0.0078127-0.0091436 0.015567-0.018251 0.023438-0.027344-0.003971-0.065014 0.0050107-0.12891 0.025391-0.19141-0.012111 0.013224-0.025122 0.025724-0.037109 0.039062-0.0016118 0.0070928-0.0025797 0.014343-0.0039062 0.021484-0.0077786 0.041661-0.015778 0.08378-0.013672 0.12695 5.419e-4 0.010636 0.0047014 0.020652 0.0058594 0.03125zm-0.0058594-0.03125c-0.002191-0.043006 0.0057904-0.084524 0.013672-0.12695 0.0010774-0.0057706 6.916e-4 -0.011853 0.0019531-0.017578-0.041194 0.045901-0.085287 0.089499-0.125 0.13672 5.076e-4 0.017315-0.007734 0.033374-0.0058594 0.050781l0.11133-0.011719c-0.0011401-0.010682 0.0044256-0.020602 0.0039062-0.03125zm0.015625-0.14453c9.35e-4 -0.0010418 0.0010174-0.0028651 0.0019531-0.0039062 0.0058818-0.025882 0.005944-0.053177 0.015625-0.078125-0.010299 0.026315-0.011483 0.054372-0.017578 0.082031zm0.017578-0.082031c0.027137-0.069337 0.066698-0.13328 0.12109-0.1875-0.055356 0.055156-0.094471 0.11889-0.12109 0.1875zm0.12109-0.1875c0.055003-0.055003 0.12126-0.094048 0.19141-0.12109-0.070313 0.02712-0.13626 0.06636-0.19141 0.12109zm0.19141-0.12109c0.022921-0.0088408 0.04823-0.0099633 0.072266-0.015625-0.024628 0.0057246-0.048721 0.0065471-0.072266 0.015625zm0.072266-0.015625c-0.013273 0.01212-0.025904 0.024866-0.039063 0.037109 0.063653-0.021074 0.12906-0.031637 0.19531-0.027344 0.007959-0.006989 0.015439-0.01454 0.023437-0.021484-0.010051-0.001074-0.019134-0.0053365-0.029297-0.0058594-0.045763-0.0023075-0.088854 0.0069085-0.13281 0.015625-0.0057856 0.0011649-0.011847 6.032e-4 -0.017578 0.0019531zm0.017578-0.0019531c0.035331-0.0071139 0.068535-0.021484 0.10547-0.021484 0.0095944 0 0.017833 0.00537 0.027344 0.0058594 0.010777 5.434e-4 0.020433-0.0050804 0.03125-0.0039062l0.013672-0.11133c-0.014621-0.0016245-0.030327-0.0012559-0.044922-0.0019531-0.050646 0.043084-0.099334 0.088017-0.14844 0.13281 0.0050658-0.0011562 0.010522 0.0010119 0.015625 0zm0.16211-0.0097656c0.12384 0.013232 0.2409 0.059587 0.33008 0.14844 0.099882 0.099882 0.15466 0.23217 0.1582 0.37305-1.551e-4 -0.0059789 0.0023079-0.011591 0.0019531-0.017578l0.029297-0.0019531c0.73916-0.61419 1.6489-1.0288 2.6602-1.1172l0.03125-0.023438c0.0060086 0.0074613 0.01515 0.010484 0.021484 0.017578-0.086424-0.096709-0.14258-0.22167-0.14258-0.36133 0-0.14317 0.058114-0.2716 0.14844-0.36914 0.012963-9.759e-4 0.026075-0.0010661 0.039062-0.0019531 0.064413-0.062697 0.14665-0.10038 0.23633-0.12305-0.037402 9.574e-4 -0.074106 0.0041821-0.11133 0.0058593 0.0067506-0.0032619 0.010677-0.010683 0.017578-0.013672-0.0078376 0.0034096-0.013811 0.0098987-0.021484 0.013672-0.065933 0.003016-0.13193 0.0045204-0.19727 0.0097657-0.017485 0.015748-0.040782 0.023314-0.056641 0.041016l0.078125 0.068359c0.0045222-3.531e-4 0.0091467 3.422e-4 0.013672 0-0.0022505 0.0024334-0.005602 0.0033806-0.0078125 0.0058593l-0.0058594-0.0058593c-1.228 0.095868-2.3441 0.58879-3.2227 1.3516zm3.4199-1.4844c0.06827-0.0297 0.14102-0.044922 0.2168-0.044922-0.076939 0-0.15034 0.016137-0.2168 0.044922zm0.2168-0.044922c0.076725 0 0.15211 0.018719 0.2207 0.048828-0.067788-0.030179-0.14181-0.048828-0.2207-0.048828zm0.2207 0.048828c0.003514 0.0015644 0.0062911 0.0042235 0.0097657 0.0058594 0.0026347 9.5e-5 0.0051786 0.0018545 0.0078124 0.0019531-0.0060154-0.0029064-0.011461-0.0051273-0.017578-0.0078125zm0.017578 0.0078125c0.021071 0.010181 0.036991 0.028202 0.056641 0.041016 0.036216 0.023885 0.072037 0.046555 0.10156 0.078125 6.458e-4 4.28e-5 0.0013073-4.31e-5 0.0019531 0 0.013595 9.064e-4 0.027447 9.492e-4 0.041016 0.0019531l0.066406-0.056641c-0.020394-0.024062-0.050983-0.034044-0.074219-0.054687-0.063984-0.0045527-0.12882-0.0073499-0.19336-0.0097657zm0.20117 0.12109-0.019531 0.015625c-0.0061445-0.0072514-0.01501-0.01069-0.021484-0.017578 0.090977 0.097665 0.14844 0.22734 0.14844 0.37109 0 0.14063-0.05703 0.26633-0.14453 0.36328 0.0072958-0.0080287 0.018525-0.011025 0.025391-0.019531l0.033203 0.027344c0.98224 0.099274 1.8641 0.51005 2.5859 1.1074l0.074219 0.0078125c-0.001174 0.010792 0.004446 0.020495 0.003906 0.03125 0.006641-0.13047 0.054958-0.26004 0.1543-0.35938 0.10022-0.10022 0.23254-0.15468 0.37305-0.1582-0.006017 1.551e-4 -0.011547-0.0023079-0.017578-0.0019531l-0.003907-0.066406c-0.87526-0.73987-1.9807-1.2112-3.1914-1.3008zm3.1914 1.3008c0.028564 0.024145 0.053961 0.05147 0.082032 0.076172 0.024141 0.0021124 0.046929 0.0084723 0.070312 0.013672 0.028634 0.0063877 0.058777 0.004773 0.085938 0.015625 0.057701 0.023061 0.10865 0.061269 0.15625 0.10352-0.08252-0.081263-0.17051-0.15625-0.25781-0.23242-0.034428-0.0055149-0.066314-0.021484-0.10156-0.021484-0.01266 0-0.026403-7.672e-4 -0.039063 0l0.003906 0.044922zm0.39453 0.20898c-0.04765-0.042217-0.098036-0.080256-0.15625-0.10352-0.026986-0.010785-0.057427-0.0092851-0.085938-0.015625-0.022012-0.0049105-0.043799-0.0095586-0.066406-0.011719 0.011755 0.01036 0.021536 0.022747 0.033203 0.033203 0.10301 0.017115 0.20359 0.055303 0.2832 0.13477 0.078976 0.079125 0.11738 0.17888 0.13477 0.28125 0.009596 0.010609 0.019781 0.020567 0.029297 0.03125-0.002651-0.025694-0.003558-0.051316-0.009766-0.076172-0.005365-0.021343-0.00578-0.044009-0.013672-0.064453-0.024296-0.063012-0.060838-0.121-0.10742-0.17188-6.2e-4 -6.769e-4 -0.001329-0.001279-0.001953-0.0019531-0.012039-0.012074-0.024963-0.023189-0.037109-0.035156-4.11e-4 -3.667e-4 -0.001542 3.653e-4 -0.001953 0zm0.041015 0.037109c0.04673 0.050947 0.083099 0.10887 0.10742 0.17188 0.008015 0.020787 0.008262 0.042792 0.013672 0.064453 0.0068 0.027053 0.013035 0.053865 0.015625 0.082031 0.030978 0.034879 0.063638 0.067868 0.09375 0.10352l0.025391 0.0019531c0.004698-0.056497-0.01206-0.10932-0.021485-0.16406-0.077232-0.087589-0.15199-0.17706-0.23438-0.25977zm0.23047 0.42188-0.085938-0.0078125c6.55e-4 -0.007467-0.004255-0.014039-0.003906-0.021484-0.006523 0.1358-0.057412 0.26408-0.1543 0.36133-0.096778 0.09642-0.2243 0.14733-0.35938 0.1543 0.010755-5.622e-4 0.020458 0.0051054 0.03125 0.0039062l0.007813 0.082031c0.57262 0.70911 0.96607 1.5673 1.0664 2.5215l0.056641 0.070312c-0.007784 0.0062685-0.010197 0.016814-0.017578 0.023438 0.096562-0.08592 0.2203-0.14258 0.35938-0.14258 0.14726 0 0.28053 0.059208 0.37891 0.1543-0.005423-0.0052538-0.008013-0.012533-0.013672-0.017578l0.035156-0.039062c-0.098127-1.192-0.57098-2.2786-1.3008-3.1426zm1.3008 3.1426c0.002388 0.02901 0.001964 0.058758 0.003907 0.087891 0.016272 0.018233 0.027267 0.040257 0.041015 0.060547 0.019014 0.02827 0.043216 0.052791 0.056641 0.083984 0.012221 0.028226 0.012173 0.061374 0.019531 0.091797-0.007319-0.030484-0.007184-0.063106-0.019531-0.091797-0.013628-0.031473-0.037597-0.055879-0.056641-0.083984-0.013062-0.01942-0.025463-0.038934-0.041015-0.056641 0.001067 0.016184 0.001023 0.032607 0.001953 0.048828 0.066189 0.087066 0.11328 0.19076 0.11328 0.30859 0 0.1167-0.046134 0.2179-0.11133 0.30469-7.73e-4 0.014946-0.001063 0.030007-0.001953 0.044922 0.015878-0.018423 0.031729-0.036436 0.044921-0.056641 0.016566-0.025409 0.036605-0.04809 0.048829-0.076172 0.0152-0.034968 0.017759-0.07368 0.02539-0.11133-0.007668 0.037747-0.010367 0.076816-0.02539 0.11133-0.0122 0.028066-0.03205 0.050476-0.048829 0.076172-0.014682 0.022521-0.02718 0.046337-0.044921 0.066406-0.002311 0.037609-0.002806 0.075874-0.00586 0.11328l0.025391 0.03125c0.038743-0.032668 0.060068-0.077498 0.089844-0.11719 0.006691-0.10261 0.014453-0.20459 0.015625-0.30859 0.003997-0.026744 0.017578-0.05066 0.017578-0.078125 0-0.030579-0.014538-0.05813-0.019531-0.087891-0.00182-0.10253-0.00844-0.20353-0.015626-0.30469-0.025488-0.033547-0.042251-0.072993-0.074218-0.10156l-0.039063 0.044922zm0 0.92188-0.046875-0.054688c0.005828-0.0049076 0.00808-0.012461 0.013672-0.017578-0.097317 0.089324-0.225 0.14648-0.36719 0.14648-0.13966 0-0.26462-0.056066-0.36133-0.14258 0.00707 0.0063151 0.010139 0.015498 0.017579 0.021484l-0.050782 0.064453c-0.094489 0.96585-0.48871 1.8357-1.0664 2.5527 0.001928 1.76e-4 0.003937-1.86e-4 0.005859 0l-0.011718 0.11133c-0.010707-0.00119-0.020578 0.004463-0.03125 0.003906 0.13433 0.007359 0.26147 0.058341 0.35742 0.1543 0.10312 0.10312 0.1548 0.23769 0.1582 0.37305-1.29e-4 -0.005992 0.002278-0.011577 0.001953-0.017579l0.037109-0.001953c0.7545-0.8726 1.2445-1.9772 1.3438-3.1934zm-1.3438 3.1934c-0.012339 0.014271-0.026582 0.026872-0.039062 0.041016-6.45e-4 0.043933-0.012293 0.086131-0.023438 0.12891-0.005401 0.020616-0.003985 0.042674-0.011719 0.0625-0.006923 0.017679-0.022417 0.031809-0.03125 0.048828 0.056199-0.05888 0.11039-0.11846 0.16406-0.17969 0.004018-0.036195 0.017658-0.070598 0.015625-0.10742l-0.074219 0.005859zm-0.10547 0.28125c0.008981-0.017323 0.024167-0.030668 0.03125-0.048828 0.007883-0.020127 0.00631-0.041739 0.011719-0.0625 0.010527-0.040177 0.016326-0.081084 0.017578-0.12305-0.009774 0.011046-0.019436 0.022236-0.029297 0.033204-0.010746 0.11638-0.053327 0.2314-0.14258 0.32031 0.037103-0.036726 0.071331-0.075559 0.10742-0.11328 0.001119-0.002091 0.002816-0.003756 0.003906-0.00586zm-0.11133 0.11914c-0.090003 0.090345-0.20634 0.13463-0.32422 0.14453-0.010049 0.008843-0.019185 0.018572-0.029297 0.027344 0.029282-7.95e-4 0.05746-0.006276 0.085937-0.011719 0.033434-0.006308 0.068178-0.007194 0.09961-0.019531 0.015622-0.006198 0.027949-0.019719 0.042968-0.027344 0.041045-0.038317 0.085098-0.073783 0.125-0.11328zm-0.125 0.11328c-0.004027 0.00376-0.00768 0.00797-0.011718 0.011719 0.040922-0.019231 0.077837-0.046902 0.11328-0.076172-0.031195 0.025579-0.06609 0.046444-0.10156 0.064453zm-0.011718 0.011719c-0.010632 0.004996-0.02032 0.011335-0.03125 0.015625-0.031803 0.012617-0.065921 0.013093-0.09961 0.019531-0.031415 0.005928-0.061162 0.017213-0.09375 0.017578-0.019558 0.016906-0.036848 0.036096-0.05664 0.052735l-0.003907 0.058593c0.041773 0.003633 0.080191-0.01139 0.12109-0.015624 0.055881-0.048011 0.11009-0.098337 0.16406-0.14844zm-0.28125 0.10547 0.003906-0.050781c0.00941 8.29e-4 0.017962-0.004242 0.027344-0.003907-0.13815-0.00504-0.26687-0.057881-0.36524-0.15625-0.10058-0.10058-0.15053-0.23133-0.15625-0.36328 4.93e-4 0.012081-0.005196 0.023018-0.003906 0.035156l-0.10938 0.011719c-1.43e-4 -0.00133 1.35e-4 -0.002576 0-0.003906-0.72018 0.58606-1.5962 0.9867-2.5703 1.082l-0.033203 0.029297c-0.0049076-0.005828-0.012461-0.008079-0.017578-0.013672 0.089193 0.097317 0.14648 0.225 0.14648 0.36719 0 0.13948-0.056193 0.26263-0.14258 0.35938-0.012303 8.2e-4 -0.024785 0.001212-0.037109 0.001953-0.055267 0.056156-0.12341 0.094572-0.19922 0.12109 0.026162-6.31e-4 0.05205-0.002921 0.078125-0.003906 0.020256-0.010467 0.037951-0.024279 0.056641-0.037109 0.034442-0.023677 0.068981-0.046605 0.097656-0.078125-0.028499 0.031291-0.062667 0.054106-0.097656 0.078125-0.016465 0.011319-0.029327 0.027697-0.046875 0.037109 0.06256-0.002468 0.12547-0.00529 0.1875-0.009766 0.021984-0.020663 0.051035-0.030825 0.070312-0.054687l-0.070312-0.056641c-0.01228 9.05e-4 -0.024807 0.001129-0.037109 0.001954 0.005662-0.006389 0.014136-0.008941 0.019531-0.015626l0.017578 0.013672c1.2061-0.088811 2.3078-0.5564 3.1816-1.291zm-3.3691 1.4121c-0.0032498 1.28e-4 -0.0065144-1.23e-4 -0.0097656 0-0.010049 0.005193-0.016946 0.014957-0.027344 0.019531 0.013114-0.00575 0.024488-0.012761 0.037109-0.019531zm-0.037109 0.019531c-0.068283 0.029943-0.14187 0.048829-0.21875 0.048829 0.077815 0 0.15168-0.019319 0.21875-0.048829zm-0.21875 0.048829c-0.07741 0-0.15028-0.018721-0.21875-0.048829 0.067127 0.02951 0.14084 0.048829 0.21875 0.048829zm-0.21875-0.048829c-0.012249-0.005385-0.021441-0.015245-0.033203-0.021484-0.0026024-1.28e-4 -0.005211 1.31e-4 -0.0078125 0 0.01376 0.007533 0.026659 0.015172 0.041016 0.021484zm-0.041016-0.021484c-0.016089-0.008808-0.027801-0.024733-0.042969-0.035156-0.035313-0.024225-0.070914-0.046507-0.099609-0.078125 0.028831 0.031682 0.065022 0.054356 0.099609 0.078125 0.017058 0.011702 0.03241 0.025412 0.050781 0.035156 0.021503 0.001057 0.042889 0.001136 0.064453 0.001953-0.069831-0.027444-0.13224-0.068058-0.18359-0.12109-0.011649-8.32e-4 -0.023527 9.04e-4 -0.035156 0-0.08535-0.096497-0.14062-0.21891-0.14062-0.35742 0-0.14628 0.058506-0.27877 0.15234-0.37695-0.0046028 0.0048-0.011182 0.006737-0.015625 0.011719l-0.013672-0.011719c-1.0004-0.081789-1.9029-0.48248-2.6406-1.0801l-0.091797-0.009765c6.743e-4 -0.008092-0.0042243-0.015367-0.0039062-0.023438-0.0059408 0.13692-0.056526 0.26551-0.1543 0.36328-0.082444 0.082444-0.18981 0.12653-0.30273 0.14453 0.86814 0.74884 1.9659 1.236 3.1738 1.3379l0.015625-0.013672c0.0047665 0.005919 0.012606 0.007984 0.017578 0.013672-0.010981-8.61e-4 -0.02224 9.25e-4 -0.033203 0l-0.070312 0.056641c0.018867 0.023469 0.046891 0.034297 0.068359 0.054687 0.06142 0.005098 0.1236 0.006638 0.18555 0.009766zm-2.9004-1.9668c3.528e-4 -0.008131 0.0058594-0.015244 0.0058594-0.023437 0-0.007458-0.0036123-0.014072-0.0039063-0.021485-0.0024786-0.002112-0.0053382-0.003742-0.0078125-0.005859 9.388e-4 0.017198 0.006544 0.033412 0.0058594 0.050781zm-0.0058594-0.050781c-0.0015931-0.029186-0.0055898-0.057643-0.011719-0.085938-0.0057164-0.026664-0.0060325-0.054712-0.015625-0.080078-0.018873-0.017051-0.039997-0.03148-0.058594-0.048828 0.033126 0.061084 0.051805 0.12406 0.058594 0.19141 0.0090746 0.007882 0.018211 0.015623 0.027344 0.023438zm-0.027344-0.023438c-0.01084-0.009414-0.022447-0.017835-0.033203-0.027343 0.0043492 0.026442 0.015625 0.050781 0.015625 0.078125 0 0.1312-0.051695 0.25482-0.14453 0.34766-0.0843 0.08465-0.19433 0.13053-0.3125 0.13867 0.0082976 0.007333 0.017049 0.0142 0.025391 0.021484 0.11218-0.012932 0.22254-0.054568 0.30859-0.14062 0.11479-0.11479 0.1557-0.26842 0.14062-0.41797zm-0.47461 0.53711c-0.18362-0.16228-0.35656-0.33673-0.51758-0.52148-8.976e-4 0.012196-0.0078126 0.0228-0.0078126 0.035157 1e-7 0.054144 0.014518 0.10641 0.03125 0.15625 0.097137 0.10541 0.19801 0.20682 0.30273 0.30469 0.050391 0.017129 0.10325 0.03125 0.1582 0.03125 0.011569 0 0.021775-0.005072 0.033203-0.005859zm-0.51758-0.52148c0.0086317-0.11729 0.052626-0.22645 0.13672-0.31055 0.092453-0.092837 0.21607-0.14453 0.34766-0.14453 0.025241 0 0.047782 0.009961 0.072266 0.013672-0.0095805-0.01069-0.017857-0.022428-0.027344-0.033203-0.14749-0.012944-0.29922 0.031643-0.41211 0.14453-0.085446 0.085608-0.12727 0.19335-0.14062 0.30469 0.0075105 0.008725 0.015874 0.016712 0.023438 0.02539zm0.5293-0.47461c0.064497 0.00566 0.12641 0.023012 0.18555 0.052734-0.015212-0.016139-0.027981-0.03443-0.042969-0.050781-0.022371-0.008205-0.046935-0.008456-0.070313-0.013672-0.031685-0.007036-0.062951-0.014265-0.095703-0.015625 0.0078761 0.009079 0.015496 0.018324 0.023438 0.027344zm-0.023438-0.027344c-0.0012029-0.001386-0.0027049-0.002518-0.0039062-0.003906-0.0061288-2.02e-4 -0.011417-0.003906-0.017578-0.003906-0.0047327 0-0.0089586 0.001834-0.013672 0.001953 0.012112-2.9e-4 0.023119 0.005359 0.035156 0.005859zm-0.0039062-0.003906c0.034559 0.001139 0.06648 0.01214 0.099609 0.019531 0.022563 0.005011 0.046665 0.001984 0.068359 0.009766-0.038391-0.041957-0.072489-0.087544-0.10938-0.13086-0.02599-0.003124-0.049768-0.015624-0.076172-0.015624-0.01266 0-0.026403-3.84e-4 -0.039063 0l0.0039063 0.052734c0.017836 0.02133 0.034542 0.043435 0.052734 0.064453zm0.058594-0.10156c0.14582 0.017532 0.28546 0.072894 0.39062 0.17774 0.10256 0.10284 0.15055 0.238 0.16992 0.37891 0.73497 0.61861 1.6528 1.0112 2.666 1.0918 0.1062-0.08314 0.22936-0.13734 0.36523-0.14453-2.4906-0.034405-4.5078-2.0658-4.5078-4.5645 0-2.4883 2.0007-4.5092 4.4766-4.5605-0.12787-0.01414-0.2416-0.067126-0.33984-0.14844-1.0015 0.080898-1.9085 0.46847-2.6387 1.0762-0.013604 0.15348-0.068034 0.30177-0.17773 0.41211-0.11192 0.1113-0.26118 0.16358-0.41602 0.17578-0.60715 0.71893-0.99835 1.613-1.0918 2.6016 0.10199 0.11882 0.17188 0.26337 0.17188 0.42188 0 0.16063-0.071792 0.3066-0.17578 0.42578 0.087103 1.0105 0.4851 1.9254 1.1074 2.6562zm-1.1074-2.6562c-0.0045691-0.053006-0.012821-0.10472-0.015625-0.1582-0.0055525 0.0097753-0.013375 0.017913-0.019531 0.027344-0.024087 0.036521-0.04623 0.073804-0.078125 0.10352-0.0069057 0.0064717-0.010304 0.01534-0.017578 0.021484l0.070312 0.085938c0.02623-0.02205 0.03837-0.054662 0.060547-0.080078zm-0.11328-0.027344c0.032283-0.030254 0.054356-0.067101 0.078125-0.10352 0.0064959-0.0098492 0.013669-0.019018 0.019531-0.029297-7.552e-4 -0.014516-0.0032825-0.028418-0.0039063-0.042969-0.028626 0.060044-0.066924 0.11164-0.11523 0.15625 7.598e-4 0.010362 0.0011282 0.020906 0.0019531 0.03125 0.0057684-0.0049441 0.013975-0.0065425 0.019531-0.011719zm-0.021484-0.019531c-8.544e-4 -0.011653-0.0011814-0.02348-0.0019531-0.035156-0.089088 0.090709-0.21088 0.14844-0.34766 0.14844-0.1288 0-0.24446-0.053397-0.33203-0.13477 6.974e-4 0.011678 0.0011839 0.023498 0.0019531 0.035156 0.090152 0.075831 0.20304 0.12695 0.33008 0.12695 0.13571 0 0.2572-0.055295 0.34961-0.14062zm-0.0019531-0.035156c0.050193-0.051106 0.08523-0.11458 0.10938-0.18359-0.001392-0.04715-0.013672-0.091192-0.013672-0.13867 0-0.057563 0.015536-0.1109 0.017578-0.16797-0.02318-0.072874-0.05944-0.13768-0.11133-0.19141-0.0087784 0.11909-0.017578 0.23809-0.017578 0.35938 0 0.10875 0.0085533 0.21528 0.015625 0.32227zm0.0019531-0.68164c9.543e-4 -0.012945 8.972e-4 -0.026146 0.0019531-0.039062-0.092624-0.086418-0.21488-0.14258-0.35156-0.14258-0.12645 0-0.23815 0.051747-0.32812 0.12695-8.567e-4 0.011636-0.0011681 0.023501-0.0019532 0.035156 0.087351-0.080188 0.20225-0.13281 0.33008-0.13281 0.13836 0 0.26031 0.059887 0.34961 0.15234zm0.0019531-0.039062c0.048921 0.045644 0.08682 0.10061 0.11523 0.16211 7.672e-4 -0.015248 0.004948-0.029712 0.0058594-0.044922 0.0032777-0.054699 0.010502-0.10792 0.015625-0.16211-0.018965-0.022094-0.028827-0.050704-0.050781-0.070312l-0.074219 0.083984c0.0035593 0.0031496 0.0043465 0.0084839 0.0078125 0.011719 0.040156 0.037593 0.070239 0.082752 0.097656 0.13086-0.026831-0.047113-0.057431-0.093316-0.097656-0.13086-0.0051515-0.0048227-0.012244-0.0070958-0.017578-0.011719-9.102e-4 0.010322-0.0011079 0.02091-0.0019532 0.03125zm0.12109 0.11719c0.0084663 0.015314 0.022301 0.026807 0.029297 0.042969-0.0069174-0.015927-0.020896-0.027768-0.029297-0.042969zm0.029297 0.042969c0.029655 0.06828 0.044922 0.14084 0.044922 0.2168 0-0.076939-0.016137-0.1503-0.044922-0.2168zm0.044922 0.2168c0 0.076907-0.018769 0.15215-0.048828 0.2207 0.030179-0.067788 0.048828-0.14181 0.048828-0.2207zm-0.048828 0.2207c-0.0073764 0.016569-0.020369 0.029267-0.029297 0.044922 3.4e-5 6.538e-4 -3.43e-5 0.0012995 0 0.0019532 0.0093043-0.016381 0.021737-0.029634 0.029297-0.046875zm-0.03125-0.43555c-0.0011622 0.023098-0.00503 0.045176-0.0058594 0.068359 0.014908 0.046868 0.029297 0.094708 0.029297 0.14648 0 0.056691-0.015466 0.10946-0.033203 0.16016 6.291e-4 0.021307 0.006902 0.041263 0.0078125 0.0625 0.032242-0.067628 0.052734-0.14275 0.052734-0.22266 0-0.077691-0.020202-0.14866-0.050781-0.21484zm1.1133-2.8086c0.034668-0.04105 0.065547-0.085156 0.10156-0.125-0.012635 0.0037056-0.026164 0.0030653-0.039062 0.0058593-0.037822 0.0081724-0.073658 0.023438-0.11328 0.023438-0.0040664 0-0.0076676-0.0018649-0.011719-0.0019531-0.013251 0.01547-0.026003 0.031238-0.039062 0.046875l-0.0058594 0.064453c0.036869 0.0032724 0.071205-0.010819 0.10742-0.013672zm-0.0625-0.097656c0.0015213-0.0017761 0.0023824-0.0040855 0.0039062-0.0058594-0.005349-4.68e-5 -0.010262 0.0021537-0.015625 0.0019531 0.0041679 1.849e-4 0.0075334 0.0038151 0.011719 0.0039063zm0.0039062-0.0058594c0.041477 3.629e-4 0.081219-0.0069871 0.12109-0.015625 0.014275-0.0030845 0.029049-0.0036087 0.042969-0.0078125 0.0093493-0.010326 0.015952-0.02296 0.025391-0.033203-0.05483 0.02048-0.11214 0.031888-0.16992 0.033203-0.0066841 0.0076832-0.012895 0.015712-0.019531 0.023438zm0.019531-0.023438c0.0094237-0.010832 0.017826-0.022455 0.027344-0.033203-0.013479 0.0010973-0.02539 0.0078125-0.039062 0.0078125-0.13081 0-0.25325-0.050125-0.3457-0.14258-0.093843-0.09403-0.14056-0.21696-0.14258-0.33984-0.0072876 0.0083201-0.016198 0.015074-0.023438 0.023438 0.0074508 0.12199 0.051354 0.24258 0.14453 0.33594 0.1043 0.1041 0.24224 0.15155 0.37891 0.14844zm-0.5-0.50781c0.15411-0.17594 0.31943-0.34062 0.49414-0.49609-0.0020988-2.62e-5 -0.0037565-0.0019532-0.0058594-0.0019532-0.084787 0-0.16219 0.027998-0.23438 0.068359-0.067054 0.06453-0.13146 0.13151-0.19531 0.19922-0.037538 0.072653-0.059906 0.15054-0.058594 0.23047zm0.058594-0.23047c0.022709-0.043952 0.047057-0.088221 0.083984-0.125 0.03253-0.032665 0.072141-0.052308 0.11133-0.074219 0.023279-0.022403 0.048611-0.042444 0.072266-0.064453-0.074424 0.02464-0.14587 0.059821-0.20508 0.11914-0.059714 0.059714-0.094635 0.13188-0.11914 0.20703 0.018964-0.020708 0.037377-0.042074 0.056641-0.0625zm0.43555-0.26562c0.12885 0.001607 0.25083 0.049277 0.3418 0.14062 0.092836 0.092453 0.14453 0.21646 0.14453 0.34766 0 0.014943-0.0064946 0.028234-0.0078125 0.042969 0.010437-0.0091117 0.020735-0.01832 0.03125-0.027344 0.0042552-0.13809-0.043072-0.27745-0.14844-0.38281-0.092706-0.092882-0.21269-0.13863-0.33398-0.14648-0.0093404 0.0082018-0.018058 0.017128-0.027344 0.025391zm0.50977 0.50391c-0.0017972 0.058326-0.01185 0.11669-0.033203 0.17188 0.010612-0.0096494 0.022503-0.017789 0.033203-0.027344 0.0043226-0.013916 0.0046139-0.028693 0.0078125-0.042969 0.0090744-0.040662 0.01999-0.080928 0.019531-0.12305-0.0088611 0.0074958-0.018537 0.013927-0.027344 0.021484zm0.027344-0.021484c7.009e-4 -5.928e-4 0.0012519-0.0013606 0.0019531-0.0019531-2.86e-5 -0.0019513 4.89e-5 -0.0039116 0-0.0058593 7.04e-5 0.0027135-0.0019827 0.0051013-0.0019531 0.0078124zm0.0019531-0.0019531c4e-5 0.0027283 0.0019531 0.0050777 0.0019531 0.0078125 0 0.041008-0.014684 0.078119-0.023438 0.11719-0.0030175 0.013522-0.001833 0.027778-0.0058593 0.041016 0.040768-0.036362 0.084945-0.068555 0.12695-0.10352 0.0028086-0.031688 0.01551-0.061582 0.013672-0.09375l-0.082031 0.0058594c-0.01034 0.0085921-0.020982 0.016715-0.03125 0.025391zm-0.027344 0.16602c-6.844e-4 6.103e-4 -0.0012692 0.0013423-0.0019532 0.0019531-0.0043226 0.013916-0.0023898 0.029465-0.0078125 0.042969 0.0057256-0.014351 0.0052687-0.030137 0.0097657-0.044922zm-0.0097657 0.044922c-0.027293 0.068409-0.067949 0.13063-0.12109 0.18359 0.053081-0.053278 0.093887-0.11584 0.12109-0.18359zm-0.12109 0.18359c-0.053752 0.053933-0.1186 0.091968-0.1875 0.11914 0.069078-0.027149 0.13349-0.065336 0.1875-0.11914zm-0.1875 0.11914c-0.013628 0.0053559-0.028924 0.005524-0.042969 0.0097656-8.936e-4 9.87e-4 -0.0030134 9.654e-4 -0.0039062 0.0019532 0.015822-0.0046406 0.031549-0.0056747 0.046875-0.011719zm0.2832-0.31836c-0.01919 0.017448-0.041645 0.031072-0.060547 0.048828-0.021757 0.038679-0.042013 0.079256-0.074219 0.11133-0.03395 0.03395-0.076015 0.055823-0.11719 0.078125-0.017176 0.018066-0.031934 0.038307-0.048828 0.056641 0.06733-0.025149 0.13139-0.061185 0.18555-0.11523 0.052683-0.052783 0.089957-0.11435 0.11523-0.17969zm-0.25195 0.23828c0.062163-0.065385 0.12565-0.12768 0.19141-0.18945 0.033796-0.060082 0.056284-0.12385 0.0625-0.19336-0.15802 0.13795-0.30626 0.28242-0.44531 0.43945 0.068368-0.0055656 0.13214-0.02454 0.19141-0.056641zm3.0527-1.4473c0.052442-0.004236 0.10335-0.013115 0.15625-0.015625-0.012322-0.0065532-0.021397-0.017893-0.033203-0.025391-0.04142-0.026266-0.080382-0.053751-0.11328-0.089844-0.001265-0.0013882-0.0026537-0.0025036-0.0039063-0.0039063 9.637e-4 0.0010783 9.811e-4 0.0028356 0.0019531 0.0039063-0.018095 0.0013779-0.036647 3.765e-4 -0.054687 0.0019531l-0.056641 0.044922c0.028609 0.035674 0.069119 0.055517 0.10352 0.083984zm0.0097656-0.13086c0.033324 0.03657 0.072436 0.063904 0.11328 0.089844 0.012424 0.0078787 0.024036 0.01656 0.037109 0.023438 0.014538-6.771e-4 0.028397-0.0033608 0.042969-0.0039062-0.060714-0.026781-0.1142-0.064605-0.16016-0.11133-0.011021 7.595e-4 -0.022202 0.0011198-0.033203 0.0019531zm0.033203-0.0019531c0.013606-9.378e-4 0.027379-0.0011282 0.041016-0.0019532-0.098929-0.089782-0.16406-0.21735-0.16406-0.36133 0-0.15312 0.075488-0.28294 0.18555-0.37305-0.018216 0.0010663-0.036518 7.122e-4 -0.054688 0.0019532-0.096939 0.094356-0.1582 0.22546-0.1582 0.37109 0 0.14116 0.058189 0.26955 0.15039 0.36328zm0.0625-0.73633c0.1094-0.0064036 0.21715-0.017578 0.32812-0.017578 0.094118 0 0.1863 0.0090562 0.2793 0.013672-0.084021-0.06722-0.18697-0.11328-0.30273-0.11328-0.11755 0-0.22008 0.047917-0.30469 0.11719zm0.60742-0.0039062c0.11255 0.090043 0.18945 0.22188 0.18945 0.37695 0 0.14554-0.067113 0.2734-0.16797 0.36328 0.014239 0.0010382 0.028764 7.918e-4 0.042969 0.0019531 0.093364-0.093894 0.15234-0.22311 0.15234-0.36523 1e-7 -0.14716-0.063327-0.2785-0.16211-0.37305-0.018183-0.0010796-0.036458-0.0030014-0.054688-0.0039062zm0.054688 0.0039062c0.012974 7.704e-4 0.026112 0.0010942 0.039062 0.0019532-0.029986-0.03172-0.06555-0.054641-0.10156-0.078125-0.021668-0.014291-0.040787-0.031826-0.064453-0.042969-0.04108-0.0014812-0.081753-0.0052555-0.12305-0.0058594 0.094636 0.020766 0.18231 0.060209 0.25 0.125zm-0.25-0.125c-0.035824-0.0078607-0.069298-0.021484-0.10742-0.021484-0.043664 0-0.082473 0.015134-0.12305 0.025391 0.049215-0.0012599 0.096972-0.0078125 0.14648-0.0078125 0.02828 0 0.055801 0.0034941 0.083984 0.0039062zm0.25977 0.86328c-0.04909 0.049368-0.10834 0.088632-0.17383 0.11523 0.015843 7.582e-4 0.031073 0.0029925 0.046875 0.0039063 0.018299-0.0091392 0.033717-0.022142 0.050781-0.033203 0.037579-0.024308 0.074377-0.05064 0.10547-0.083984-0.0096797-8.497e-4 -0.019601-0.0011605-0.029297-0.0019531zm0.029297 0.0019531c0.0012862 1.129e-4 0.0026203-1.139e-4 0.0039062 0 9.773e-4 -0.0010658 9.843e-4 -0.0028327 0.0019532-0.0039062-0.0015991 0.0017596-0.0042403 0.0021698-0.0058594 0.0039062zm0.0039062 0c-0.031416 0.034262-0.070216 0.058602-0.10938 0.083984-0.015472 0.010008-0.0266 0.026784-0.042969 0.035156 0.05274 0.003139 0.10398 0.01077 0.15625 0.015625 0.036679-0.029446 0.079042-0.050459 0.10938-0.087891l-0.052734-0.042969c-0.019928-0.0020141-0.040549-0.0021347-0.060547-0.0039062zm0.0039063 0.13477c-0.092937 0.074608-0.19954 0.12258-0.31836 0.13867 1.1601 0.016023 2.2095 0.47183 3.0078 1.2012-0.03911-0.075172-0.060579-0.15323-0.068359-0.23828-0.72277-0.61465-1.624-1.0089-2.6211-1.1016zm2.6211 1.1016c0.039912 0.033942 0.082331 0.064389 0.12109 0.099609-0.005739-0.018884-0.004154-0.039135-0.007812-0.058594-0.006648-0.035518-0.01798-0.069452-0.017578-0.10547-0.024228-0.020863-0.04958-0.040156-0.074219-0.060547l-0.037109-0.0039062c-0.00479 0.044563 0.011634 0.085286 0.015625 0.12891zm0.095703-0.064453c0.002086 0.0017969 0.003776 0.004059 0.005859 0.0058594-4e-6 -0.0093094-0.002423-0.01799-0.001953-0.027344-3.71e-4 0.0072982-0.003825 0.014178-0.003906 0.021484zm0.005859 0.0058594c1.5e-5 0.03409 0.005511 0.066587 0.011719 0.099609 0.004069 0.021741 0.006962 0.043243 0.013672 0.064453 0.010616 0.00968 0.022675 0.017569 0.033203 0.027344-0.02211-0.05573-0.033119-0.11475-0.035156-0.17383-0.007353-0.0064305-0.016046-0.011191-0.023438-0.017578zm0.023438 0.017578c0.011497 0.010056 0.023754 0.019135 0.035156 0.029297-0.013642-0.14115 0.025183-0.28495 0.13281-0.39258 0.092837-0.092836 0.21646-0.14453 0.34766-0.14453 0.043776 0 0.083844 0.014372 0.125 0.025391-0.013635-0.012464-0.027258-0.024779-0.041016-0.037109-0.15956-0.026512-0.32785 0.011676-0.45117 0.13477-0.10585 0.10605-0.15322 0.24606-0.14844 0.38477zm0.64062-0.48242c0.11828 0.10812 0.23119 0.22011 0.33984 0.33789-0.022156-0.081439-0.055792-0.15761-0.11719-0.21875-0.06186-0.06186-0.14047-0.097136-0.22266-0.11914zm0.33984 0.33789c0.011347 0.041706 0.025391 0.082519 0.025391 0.12695 0 0.1312-0.049742 0.25444-0.14258 0.34766-0.092836 0.092453-0.21646 0.14258-0.34766 0.14258-0.019103 0-0.035996-0.0076321-0.054688-0.0097657 0.00972 0.011124 0.019677 0.021991 0.029297 0.033203 0.14127 0.0070683 0.28448-0.038382 0.39258-0.14648 0.12358-0.12358 0.16198-0.29294 0.13477-0.45312-0.012393-0.013701-0.024584-0.027438-0.03711-0.041016zm-0.49023 0.64062c-0.060769-0.0030405-0.12083-0.01471-0.17773-0.039062 0.011238 0.012325 0.02014 0.026619 0.03125 0.039062 0.021299 0.0071392 0.044263 0.0072588 0.066406 0.011719 0.032915 0.0065387 0.065566 0.011384 0.099609 0.011719-0.006584-0.0077711-0.012899-0.015708-0.019531-0.023438zm0.019531 0.023438c0.00243 0.0028682 0.003436 0.0068916 0.00586 0.0097656 0.009569 0 0.017854-0.0053699 0.027343-0.0058594-0.011417 5.968e-4 -0.021855-0.0037945-0.033203-0.0039062zm0.00586 0.0097656c-0.036837 0-0.070119-0.014364-0.10547-0.021484-0.019961-0.0039652-0.041224 3.102e-4 -0.060547-0.0058594 0.034761 0.039067 0.066133 0.08089 0.099609 0.12109 0.046001 0.0048117 0.089729 0.020705 0.13672 0.015625l-0.003906-0.029297c-0.021829-0.027031-0.044016-0.053527-0.066406-0.080078zm-0.066407 0.09375c-0.078946-0.008258-0.15214-0.026974-0.22266-0.0625 0.71055 0.77271 1.1552 1.7848 1.1992 2.9043 0.020567-0.078004 0.052434-0.14758 0.099609-0.21289-0.083059-0.9976-0.47033-1.9013-1.0762-2.6289zm1.0762 2.6289c0.004695 0.056382 0.01488 0.11105 0.017578 0.16797 0.001959-0.0047173 0.003773-0.0090217 0.00586-0.013672 0.010353-0.023154 0.029451-0.040975 0.042968-0.0625 0.020627-0.032767 0.037567-0.06808 0.064454-0.095703-0.003149-0.038899-0.00375-0.07855-0.007813-0.11719l-0.013672-0.015625c-0.046823 0.037735-0.075072 0.089226-0.10938 0.13672zm0.13086-0.0039062c3.65e-4 0.0045103-3.53e-4 0.0091581 0 0.013672 0.01109-0.011878 0.019026-0.026142 0.03125-0.037109-0.009872 0.0087836-0.022037 0.013971-0.03125 0.023438zm0 0.013672c-0.023857 0.025552-0.046109 0.05282-0.064454 0.082031-0.013557 0.021538-0.032467 0.039095-0.042968 0.0625-0.003805 0.0085096-0.002496 0.018642-0.00586 0.027344 0.00127 0.028513 0.009004 0.055344 0.009766 0.083984 0.01887-0.083864 0.051426-0.15963 0.10547-0.22266-7.86e-4 -0.011015-0.001094-0.022208-0.001953-0.033203zm0.001953 0.033203c0.001108 0.015537 9.92e-4 0.031298 0.001953 0.046875 0.089405-0.12066 0.22503-0.20312 0.38672-0.20312 0.17408 0 0.32108 0.095403 0.4082 0.23242-8.16e-4 -0.016908-9.87e-4 -0.033912-0.001953-0.050781-0.094774-0.12467-0.23775-0.21094-0.40625-0.21094-0.15765 0-0.29357 0.074635-0.38867 0.18555zm0.79688 0.076172c0.004364 0.090445 0.013672 0.17998 0.013672 0.27148 0 0.080301-0.008353 0.15879-0.011719 0.23828 0.046805-0.075196 0.080078-0.157 0.080078-0.25195 0-0.096505-0.033804-0.18196-0.082031-0.25781zm0.001953 0.50977c-0.086702 0.1393-0.23452 0.23828-0.41016 0.23828-0.16071 0-0.29525-0.083485-0.38477-0.20312-8.74e-4 0.015598-9.31e-4 0.031317-0.001953 0.046875 0.09508 0.10986 0.23005 0.18359 0.38672 0.18359 0.16948 0 0.31352-0.086846 0.4082-0.21289 9.07e-4 -0.01754 0.001208-0.035153 0.001953-0.052734zm-0.79688 0.082031c-0.052634-0.060815-0.085525-0.13238-0.10547-0.21289-6.4e-4 0.027999-0.00864 0.054152-0.009765 0.082031 0.002475 0.0061502 0.001208 0.013479 0.003906 0.019531 0.010725 0.02391 0.029058 0.042501 0.042968 0.064453 0.018823 0.02977 0.041837 0.056136 0.066407 0.082031 8.5e-4 -0.011655 0.001186-0.023479 0.001953-0.035156zm-0.001953 0.035156c-3.32e-4 0.0045525-0.001609 0.0091228-0.001953 0.013672 0.008484 0.0086617 0.020258 0.013399 0.029296 0.021484-0.011343-0.010133-0.016975-0.024229-0.027343-0.035156zm-0.001953 0.013672c-0.026968-0.027531-0.043732-0.063004-0.064454-0.095703-0.013954-0.02207-0.032356-0.04065-0.042968-0.064453-0.001199-0.0026735-0.002749-0.0051166-0.003906-0.0078125-0.002413 0.056313-0.013211 0.11022-0.017579 0.16602 0.033536 0.045726 0.060114 0.096261 0.10547 0.13281l0.019531-0.023438c0.003457-0.035334 0.001214-0.071872 0.003907-0.10742zm-0.12891-0.0019531c-0.046303-0.063136-0.078358-0.12983-0.099609-0.20508-0.041152 1.1484-0.50294 2.1869-1.2422 2.9688 0.075701-0.045794 0.15658-0.07557 0.24414-0.087891 0.62178-0.73708 1.018-1.6585 1.0977-2.6758zm-1.0977 2.6758c-0.037602 0.044575-0.07214 0.091613-0.11133 0.13477 0.001778-7.05e-4 0.004074 6.86e-4 0.005859 0 0.028909-0.011202 0.059392-0.011447 0.089844-0.017578 0.025533-0.005117 0.0498-0.01418 0.076172-0.015625 0.03255-0.037957 0.064316-0.076279 0.095703-0.11524-0.021916-0.001997-0.044192-0.003906-0.066406-0.003906-0.031017 0-0.059524 0.013312-0.089844 0.017578zm0.060547 0.10156c-0.001793 0.00209-0.004063 0.003772-0.005859 0.005859 0.021641-0.00147 0.042524-0.007003 0.064453-0.005859-0.010133-5.55e-4 -0.019072-0.005859-0.029297-0.005859s-0.019164 0.005304-0.029297 0.005859zm-0.005859 0.005859c-0.023735 0.001612-0.04717 0.005107-0.070313 0.009766-0.030062 0.006025-0.061417 0.006652-0.089844 0.017578-0.003531 0.001368-0.006262 0.004417-0.009765 0.005859-0.018979 0.020838-0.035347 0.043957-0.054688 0.064453 0.064212-0.038237 0.13106-0.062213 0.20312-0.070312 0.007631-0.008741 0.013916-0.018548 0.021485-0.027344zm-0.021485 0.027344c-0.009771 0.011194-0.017471 0.024053-0.027344 0.035156 0.028362-0.005032 0.054624-0.017578 0.083985-0.017578 0.1312 0 0.2552 0.050126 0.34766 0.14258 0.1179 0.1179 0.15428 0.28071 0.12695 0.43359 0.011823-0.012907 0.023453-0.026045 0.035156-0.039062 0.013689-0.14824-0.028893-0.30059-0.14258-0.41406-0.1159-0.11612-0.27234-0.15765-0.42383-0.14062zm0.53125 0.59375c-0.1243 0.1357-0.25366 0.26574-0.39062 0.38867 0.098637-0.017216 0.19167-0.054955 0.26367-0.12695 0.073529-0.073529 0.10991-0.16637 0.12695-0.26172zm-0.39062 0.38867c-0.028021 0.004891-0.054958 0.015625-0.083984 0.015625-0.13082 0-0.25287-0.050126-0.3457-0.14258-0.1166-0.11683-0.15463-0.278-0.12891-0.42969-0.01069 0.009581-0.022429 0.017857-0.033204 0.027344-0.016125 0.15064 0.027154 0.30667 0.14258 0.42188 0.11238 0.11259 0.2613 0.15687 0.4082 0.14453 0.01387-0.012205 0.027267-0.024769 0.041015-0.037109zm-0.5918-0.5293c0.007413-0.069248 0.029243-0.13496 0.064454-0.19727-0.019137 0.018174-0.041111 0.032925-0.060547 0.050782-0.001075 0.002685-0.002875 0.00511-0.003907 0.007812-0.011026 0.029074-0.011678 0.059609-0.017578 0.089844-0.004699 0.023852-0.006318 0.047755-0.007812 0.072265 0.008696-0.007549 0.016748-0.015827 0.02539-0.023437zm-0.02539 0.023437c-0.001766 0.001533-0.004092 0.002376-0.00586 0.003907-8.84e-4 0.017323-0.002704 0.033453-0.001953 0.050781-7.69e-4 -0.018865 0.006677-0.036061 0.007813-0.054688zm-0.00586 0.003907c0.001324-0.025924 0.008685-0.050614 0.013672-0.076172 6e-3 -0.030455 0.006552-0.060978 0.017578-0.089844 4.63e-4 -0.001219-4.71e-4 -0.00269 0-0.003906-0.040639 0.03725-0.085036 0.069631-0.12695 0.10547-0.007643 0.052925-0.025085 0.10358-0.019531 0.1582 0.038477-0.031312 0.077744-0.061299 0.11523-0.09375zm-0.095703-0.064453c0.013936-0.0965 0.047232-0.18432 0.10156-0.26562-0.81204 0.76005-1.8941 1.234-3.0898 1.2402 0.12595 0.010504 0.23836 0.060621 0.33789 0.13672 1.0092-0.08952 1.9213-0.48802 2.6504-1.1113zm-2.6504 1.1113c-0.052987 0.0047-0.10474 0.012688-0.1582 0.015625 0.022682 0.010725 0.039485 0.031137 0.060547 0.044922 0.034648 0.02262 0.070986 0.042595 0.099609 0.072265 0.01937-0.001661 0.039289-0.002017 0.058594-0.003906l0.052734-0.042969c-0.031326-0.037152-0.075503-0.057053-0.11328-0.085937zm0.0019532 0.13281c-0.0025739 2.21e-4 -0.0052375-2.16e-4 -0.0078126 0 0.0046433 0.004722 0.011137 0.006814 0.015625 0.011719-0.0031766-0.003466-0.0045487-0.008336-0.0078124-0.011719zm-0.0078126 0c-0.027775-0.028247-0.059155-0.050902-0.091797-0.072265-0.022944-0.014979-0.043214-0.033474-0.068359-0.044922-0.024456 0.001303-0.047714 0.006883-0.072266 0.007812 0.075016 0.02366 0.14308 0.058722 0.19922 0.11133 0.010997-8.5e-4 0.022226-0.001029 0.033203-0.001953zm-0.033203 0.001953c-0.014867 0.00115-0.030018 9.38e-4 -0.044922 0.001953 0.10952 0.090011 0.18359 0.22231 0.18359 0.375 0 0.14719-0.069081 0.27322-0.17188 0.36328 0.016243-8.35e-4 0.032622-9.8e-4 0.048828-0.001953 0.0922-0.093685 0.15039-0.21998 0.15039-0.36133 0-0.14895-0.064939-0.28223-0.16602-0.37695zm-0.033203 0.74024c-0.096225 0.004944-0.19163 0.015625-0.28906 0.015625-0.1202 0-0.23713-0.010075-0.35547-0.017578 0.084593 0.075972 0.19457 0.12443 0.31641 0.12695 0.0052589 3.6e-5 0.010363-2.2e-5 0.015625 0 0.12099-0.001546 0.22763-0.050645 0.3125-0.125zm-0.3125 0.125c-0.0021159 2.7e-5 -0.0037372 0.001953-0.0058594 0.001953-0.0034518 0-0.0063306-0.001882-0.0097656-0.001953-0.059986-4.1e-4 -0.1182-0.007511-0.17773-0.009766 0.058643 0.023047 0.12085 0.039063 0.1875 0.039063 0.05964 0 0.11454-0.016463 0.16797-0.035157-0.046452 0.001122-0.091955 0.007813-0.13867 0.007813-0.007934 0-0.015511-0.001921-0.023438-0.001953zm-0.33203-0.12695c-0.10016-0.089949-0.16602-0.21638-0.16602-0.36133 0-0.15118 0.073917-0.28107 0.18164-0.37109-0.015621-9.14e-4 -0.031294-0.002845-0.046875-0.003907-0.099241 0.094549-0.16211 0.22765-0.16211 0.375 0 0.13978 0.057992 0.26402 0.14844 0.35742 0.014952 0.001069 0.029938 0.002957 0.044922 0.003907zm-0.03125-0.73633c0.05302-0.050512 0.11895-0.084732 0.18945-0.10937-0.021967-6.67e-4 -0.042561-0.006847-0.064453-0.007813-0.025281 0.011996-0.045384 0.031293-0.068359 0.046875-0.03151 0.021249-0.064967 0.038709-0.091797 0.066406 0.026376-0.027327 0.060262-0.045019 0.091797-0.066406 0.022165-0.014947 0.040455-0.035339 0.064453-0.046875-0.054915-0.002468-0.10769-0.011297-0.16211-0.015625-0.030746 0.024071-0.067408 0.038785-0.09375 0.068359l0.068359 0.0625c0.0096616 7.9e-4 0.01962-7.33e-4 0.029297 0 0.012291 9.31e-4 0.024793 0.001115 0.037109 0.001953zm0.12109-0.11719c0.0013106 5.9e-5 0.0025954-5.8e-5 0.0039063 0 0.0056168-0.002665 0.0099053-0.007288 0.015625-0.009766-0.0067773 0.002929-0.012876 0.006566-0.019531 0.009766zm0.019531-0.009766c0.02871-0.012405 0.061307-0.012174 0.091797-0.019531-0.030432 0.007358-0.063579 0.00731-0.091797 0.019531zm0.091797-0.019531c0.041243-0.009972 0.080728-0.02539 0.125-0.02539 0.037311 0 0.070237 0.014317 0.10547 0.021484-0.03557-0.007252-0.0685-0.023438-0.10547-0.023438-0.043458 0-0.083431 0.017314-0.125 0.027344zm0.23047-0.003906c0.037593 0.007664 0.076386 0.010144 0.11133 0.02539-0.034464-0.015023-0.073631-0.017722-0.11133-0.02539zm0.11133 0.02539c0.0026853 0.001171 0.0051497 0.002694 0.0078125 0.003907 0.0026156-1.4e-4 0.005198 1.43e-4 0.0078125 0-0.0049813-0.002356-0.010575-0.001703-0.015625-0.003907zm-0.38477 0.015626c0.030517 9.26e-4 0.059186 0.007467 0.089844 0.007812 0.026382-0.004391 0.050511-0.015625 0.078125-0.015625 0.022141 0 0.041126 0.010818 0.0625 0.013672 0.030669-5.74e-4 0.059318-0.00861 0.089844-0.009766-0.049077-0.015478-0.098296-0.03125-0.15234-0.03125-0.05972 0-0.11449 0.016463-0.16797 0.035157zm0.23047 0.005859c-0.029944 5.6e-4 -0.057816 0.007812-0.087891 0.007812-0.018085 0-0.034697-0.005656-0.052734-0.005859-0.087938 0.014638-0.16683 0.050653-0.23242 0.10547 0.094856 0.005546 0.18893 0.013672 0.28516 0.013672 0.11208 0 0.22182-0.010072 0.33203-0.017579-0.068841-0.056575-0.15162-0.091162-0.24414-0.10352zm-0.0097656-0.16992c-0.018271-0.001524-0.034228-0.011719-0.052734-0.011719-0.011621 0-0.021657 0.007202-0.033203 0.007813 0.02132 2.94e-4 0.041111 0.005859 0.0625 0.005859 0.0080125 0 0.015435-0.001912 0.023438-0.001953zm3.0898-1.2402c0.068566-0.064177 0.1347-0.12903 0.19922-0.19727-0.045278 0.02739-0.092389 0.04942-0.13086 0.087891-0.03114 0.03114-0.044429 0.073563-0.068359 0.10938zm0.02539 0.16016c0.001355-0.001241 0.002554-0.002664 0.003907-0.003906 0.019635-0.049045 0.050595-0.092816 0.083984-0.13477-0.034594 0.043608-0.06852 0.088684-0.087891 0.13867zm0.087891-0.13867c0.012951-0.016325 0.020072-0.035697 0.035156-0.050781-4.02e-4 3.97e-4 -0.001552-3.99e-4 -0.001953 0-0.014651 0.014699-0.020447 0.034755-0.033203 0.050781zm-0.023437 0.083984c0.023195-0.022028 0.05147-0.03806 0.074218-0.060547 0.00925-0.011067 0.013061-0.024758 0.023438-0.035156 0.008199-0.008165 0.018682-0.012019 0.027344-0.019531 0.021362-0.02179 0.037649-0.048117 0.058593-0.070313-0.036241 0.021582-0.074287 0.039132-0.10547 0.070313-0.034068 0.034068-0.055516 0.075228-0.078124 0.11523zm0.125-0.11523c-0.017523 0.017873-0.032981 0.037091-0.050782 0.054687-0.057108 0.068334-0.091332 0.14712-0.10547 0.23047 0.13791-0.1236 0.26757-0.25222 0.39062-0.39062-0.086842 0.015408-0.16697 0.047013-0.23437 0.10547zm0.11328-0.13477c0.001573-0.001727 0.002335-0.00413 0.003906-0.005859-0.05658 0.022439-0.10548 0.058875-0.15234 0.099609 0.045284-0.038946 0.094416-0.071511 0.14844-0.09375zm1.1133-3.0215c0.001972-0.055019 0.015625-0.10662 0.015625-0.16211 0-0.060864-0.015209-0.11744-0.017578-0.17773-0.014347 0.054411-0.03711 0.10623-0.037109 0.16406 0 0.06176 0.022722 0.11792 0.039062 0.17578zm0.11719 0.039062c1.68e-4 -0.0039333-1.59e-4 -0.007783 0-0.011719-0.025866-0.064252-0.044922-0.13161-0.044922-0.20312 0 0.076356 0.016547 0.14875 0.044922 0.21484zm-0.044922-0.21484c0-0.068911 0.01891-0.13308 0.042968-0.19531-2.04e-4 -0.0045881 2.18e-4 -0.009087 0-0.013672-0.026775 0.06447-0.042968 0.13503-0.042968 0.20898zm0.054687 0.12109c7.14e-4 -0.031227 0.007708-0.060426 0.007813-0.091797-6.46e-4 -0.010297-0.00586-0.018839-0.00586-0.029297 0-0.0075669 0.003567-0.014002 0.003906-0.021484-2.29e-4 -0.030689-0.006999-0.059295-0.007812-0.089844-0.008285 0.036819-0.023438 0.071998-0.023438 0.11133 0 0.043115 0.015463 0.081013 0.025391 0.12109zm0.005859-0.14258c9.1e-5 0.012037 0.003907 0.023098 0.003907 0.035156 0 0.0053651-0.001935 0.010264-0.001953 0.015625 0.006154 0.098136 0.044096 0.18362 0.099609 0.25781 0.005103-0.091024 0.013672-0.18116 0.013672-0.27344 0-0.10153-0.009457-0.20078-0.015625-0.30078-0.056173 0.075807-0.095052 0.16517-0.09961 0.26562zm-1.334-3.0469c-0.090572-0.098496-0.18441-0.191-0.2832-0.28125 0.027544 0.052942 0.051812 0.10782 0.09375 0.15234 0.011876 0.011699 0.025362 0.021375 0.037109 0.033203 0.044989 0.041266 0.099032 0.068842 0.15234 0.095703zm-0.15234-0.095703c-0.007454-0.0068378-0.018212-0.0084079-0.02539-0.015625-0.005144-0.0051161-0.006768-0.012322-0.011719-0.017578-0.17606-0.17343-0.36992-0.3297-0.57227-0.47266l-0.007812 0.060547c0.40777 0.29165 0.76314 0.64926 1.0527 1.0586l0.0625-0.0097656c-0.15009-0.21483-0.31386-0.41807-0.49805-0.60352zm0.43555 0.61328-0.34961 0.050781-1.6387 1.6621c0.062914 0.1312 0.11171 0.23951 0.13281 0.34961l2.2832-0.013672 0.31641-0.25781c-0.11604-0.65854-0.37236-1.2655-0.74414-1.791zm0.74414 1.791c0.044419 0.25208 0.078125 0.5088 0.078125 0.77344 0 0.26526-0.033489 0.52274-0.078125 0.77539l0.052734 0.041016c0.048984-0.26562 0.082032-0.53697 0.082032-0.81641 0-0.44218-0.083682-0.86124-0.20313-1.2656 0.043654 0.14829 0.08122 0.30114 0.11133 0.45898l-0.042969 0.033203zm-0.06836-0.49219c-0.00559-0.01899-0.011771-0.037796-0.017578-0.056641 0.005865 0.018926 0.011958 0.03761 0.017578 0.056641zm-0.017578-0.056641c-0.13906-0.44873-0.33223-0.87263-0.5957-1.25 0.25498 0.38666 0.45637 0.79784 0.5957 1.25zm0.13867 2.1387c-0.11992 0.65025-0.37863 1.25-0.74609 1.7715l0.033204 0.00586c0.34948-0.5294 0.59801-1.1039 0.72461-1.7676l-0.011719-0.0097656zm-0.74609 1.7715-0.0625-0.007812c-0.28891 0.40461-0.64204 0.75824-1.0469 1.0469l0.009765 0.060547c0.42695-0.30079 0.79876-0.67269 1.0996-1.0996zm-1.0996 1.0996c-0.022723 0.016009-0.041426 0.037136-0.064453 0.052734 0.021148-0.013542 0.045405-0.021298 0.066406-0.035156l-0.001953-0.017578zm-0.009765-0.060547-0.048829-0.33398-1.6621-1.6387c-0.1312 0.063298-0.23951 0.11248-0.34961 0.13281l0.013672 2.2832 0.25 0.30859c0.66132-0.1177 1.2702-0.37648 1.7969-0.75195zm-1.7969 0.75195c-0.25445 0.045287-0.514 0.080078-0.78125 0.080078-0.26919 0-0.52898-0.034159-0.78516-0.080078l-0.025391 0.03125c-0.66366-0.12621-1.2386-0.37551-1.7676-0.72461l0.0078125-0.054687c-0.40987-0.29125-0.76733-0.64876-1.0586-1.0586l-0.064453 0.009766c0.81786 1.1652 2.1671 1.9316 3.6934 1.9316 0.28145 0 0.55484-0.034304 0.82227-0.083985l-0.041016-0.050781zm0.041016 0.050781c0.094708-0.017594 0.18478-0.04492 0.27734-0.068359-0.091909 0.023207-0.18188 0.050149-0.27734 0.068359zm0.27734-0.068359c0.18058-0.045597 0.3551-0.097978 0.52344-0.16211-0.16913 0.065681-0.34526 0.11699-0.52344 0.16211zm0.52344-0.16211c0.31691-0.12307 0.62056-0.26905 0.89844-0.45703-0.28371 0.18147-0.58129 0.33621-0.89844 0.45703zm-5.3164-1.6172c-0.014942-0.021287-0.034246-0.038995-0.048828-0.060547 0.012796 0.01996 0.020126 0.042669 0.033203 0.0625l0.015625-0.001953zm0.064453-0.009766 0.33203-0.046875 1.6387-1.6641c-0.062914-0.1312-0.11248-0.23951-0.13281-0.34961l-2.2832 0.013672-0.30469 0.25c0.11678 0.66108 0.3756 1.2701 0.75 1.7969zm-0.75-1.7969c-0.044632-0.25266-0.080078-0.51012-0.080078-0.77539 0-0.26928 0.034131-0.53087 0.080078-0.78711l-0.035156-0.029297c0.12621-0.66405 0.37513-1.2382 0.72461-1.7676-0.51603 0.73387-0.82422 1.6222-0.82422 2.584 0 0.27944 0.033048 0.55079 0.082031 0.81641l0.052734-0.041016zm-0.052734 0.041016-0.0019531 0.0019531c0.0011486 0.0060363 0.0027372 0.011556 0.0039062 0.017578-0.0011985-0.006345-7.813e-4 -0.013177-0.0019531-0.019531zm0.0019531 0.019531c0.01435 0.075967 0.036563 0.14807 0.054688 0.22266-0.018154-0.074385-0.0398-0.14597-0.054688-0.22266zm0.054688 0.22266c0.053502 0.21923 0.11664 0.43127 0.19727 0.63281-0.082835-0.20343-0.14459-0.41602-0.19727-0.63281zm0.19727 0.63281c0.10592 0.26013 0.23627 0.50673 0.38672 0.74023-0.14608-0.23773-0.28243-0.47954-0.38672-0.74023zm0.48828-4.2754 0.0625 0.0097657c0.29394-0.41305 0.65404-0.77414 1.0684-1.0664l-0.0097657-0.0625c-0.43669 0.30415-0.81503 0.68387-1.1211 1.1191zm1.1211-1.1191c0.37401-0.24654 0.77206-0.44127 1.207-0.58008-0.4322 0.1383-0.84184 0.32573-1.207 0.58008zm1.207-0.58008c0.043594-0.01395 0.086708-0.02837 0.13086-0.041016-0.044169 0.012684-0.087465 0.027168-0.13086 0.041016zm0.13086-0.041016c0.13931-0.040004 0.28009-0.075438 0.42773-0.10352l0.039062 0.046875c0.24957-0.043488 0.50184-0.078125 0.76367-0.078125 0.26527 0 0.52272 0.035454 0.77539 0.080078l0.042969-0.054688c-0.26618-0.049219-0.5383-0.082031-0.81836-0.082031-0.42918 0-0.83667 0.07862-1.2305 0.19141zm2.0488-0.10938c0.65125 0.12042 1.2515 0.38125 1.7734 0.75l0.00586-0.041016c-0.52901-0.3491-1.1016-0.5984-1.7656-0.72461l-0.013672 0.015625zm-0.042969 0.054688-0.23633 0.29102-0.013672 2.2832c0.10972 0.020716 0.21841 0.068329 0.34961 0.13086l1.6641-1.6387 0.044922-0.31055c-0.52945-0.37868-1.1427-0.63826-1.8086-0.75586zm-1.5391-0.0019532c-0.65975 0.11496-1.2683 0.36873-1.7949 0.74023l0.048828 0.34961 1.6641 1.6387c0.1312-0.06253 0.23951-0.11171 0.34961-0.13281l-0.013672-2.2832-0.25391-0.3125zm-2.8633 1.8066c-0.37311 0.5243-0.63401 1.1294-0.75195 1.7871l0.32617 0.26172 2.2812 0.015625c0.021099-0.1101 0.070282-0.21841 0.13281-0.34961l-1.6387-1.6641-0.34961-0.050781zm1.0566 6.2051c0.5239 0.37229 1.1283 0.6303 1.7852 0.74805l0.26562-0.32812 0.013672-2.2832c-0.10972-0.020716-0.21684-0.070282-0.34766-0.13281l-1.6641 1.6387-0.052734 0.35742zm6.1953-1.0508c0.37746-0.52862 0.63848-1.1403 0.75586-1.8047l-0.29688-0.24023-2.2832-0.015625c-0.021099 0.11048-0.068713 0.22036-0.13086 0.35156l1.6367 1.6621 0.31836 0.046875zm-0.14844-5.7207c-0.001829-0.0020552-0.004027-0.0038074-0.005859-0.0058594-0.008228-0.0027577-0.01731-0.0027109-0.025391-0.0058593 0.010604 0.0041431 0.020404 0.0082558 0.03125 0.011719zm-0.03125-0.011719c-0.052251-0.020416-0.098341-0.05365-0.14258-0.089844 0.044389 0.03601 0.09021 0.069441 0.14258 0.089844zm-0.14258-0.089844c-0.014748-0.011964-0.03324-0.017665-0.046875-0.03125 3.97e-4 3.993e-4 -3.98e-4 0.0015549 0 0.0019531 0.013394 0.013482 0.032365 0.017425 0.046875 0.029297zm0.13672 0.056641c-0.019947-0.021875-0.036295-0.04686-0.056641-0.068359-0.029515-0.018908-0.062465-0.033273-0.087891-0.058594-0.030066-0.030187-0.047756-0.066383-0.068359-0.10156-0.020344-0.019568-0.043765-0.03548-0.064453-0.054688 0.02531 0.063794 0.061669 0.12417 0.11328 0.17578 0.048332 0.048332 0.10492 0.082112 0.16406 0.10742zm-0.21289-0.22852c0.05406 0.051999 0.10469 0.10567 0.15625 0.16016 0.062562 0.040079 0.13055 0.065712 0.20508 0.074219-0.13407-0.15342-0.27369-0.29805-0.42578-0.43359 0.006762 0.069964 0.027897 0.1368 0.064453 0.19922zm-0.097656-0.082031c-0.002036-0.0018566-0.00382-0.0040063-0.00586-0.0058594 0.004049 0.013323 0.006656 0.026089 0.011719 0.039062-0.004124-0.010661-0.002426-0.022351-0.005859-0.033203zm0.005859 0.033203c0.019235 0.049719 0.053621 0.0933 0.087891 0.13672-0.033838-0.042825-0.06841-0.0868-0.087891-0.13672zm-3.0723-1.1016c-0.02132-2.945e-4 -0.041111-0.0058594-0.0625-0.0058594-0.032116 0-0.06179 0.0091029-0.09375 0.0097657 0.024255 0.0026821 0.04555 0.015625 0.070312 0.015625 0.030183 0 0.056526-0.015549 0.085938-0.019531zm0.16211-0.1543c-0.0026771-1.593e-4 -0.0051343-0.0017982-0.0078125-0.0019531-0.0067015 0.003347-0.010724 0.010596-0.017578 0.013672 0.0085529-0.0038309 0.017048-0.0074513 0.025391-0.011719zm-0.025391 0.011719c-0.048585 0.021762-0.10258 0.028344-0.15625 0.035156 0.054093-0.006885 0.10826-0.013616 0.15625-0.035156zm-0.15625 0.035156c-0.022755 0.0028964-0.042874 0.013672-0.066406 0.013672s-0.043651-0.010776-0.066406-0.013672c0.022901 0.0029039 0.042941 0.015625 0.066406 0.015625 0.023411 0 0.043546-0.012723 0.066406-0.015625zm-0.13281 0c-0.053764-0.0068172-0.1076-0.013338-0.15625-0.035156 0.047992 0.02154 0.10216 0.028271 0.15625 0.035156zm-0.15625-0.035156c-0.010362-0.0046509-0.017334-0.014266-0.027344-0.019531-0.0013765 6.41e-5 -0.0025301 0.0018879-0.0039062 0.0019531 0.010741 0.0057123 0.020153 0.012602 0.03125 0.017578zm0.41602-0.017578c-0.031098-0.001488-0.060547-0.0088817-0.091797-0.0097656-0.03374 0.0073379-0.065646 0.019531-0.10156 0.019531-0.043869 0-0.082548-0.012591-0.12305-0.023438-0.028612 5.595e-4 -0.055497 0.0067463-0.083984 0.0078125 0.063753 0.028122 0.13314 0.044922 0.20703 0.044922 0.06865 0 0.13328-0.014657 0.19336-0.039063zm-0.31641-0.013672c0.031316-6.124e-4 0.060337-0.0097656 0.091797-0.0097656 0.045501 0 0.087615 0.012393 0.13281 0.013672 0.083968-0.018262 0.16071-0.05222 0.22266-0.10742-0.11782-0.0085908-0.2355-0.017578-0.35547-0.017578-0.099542 0-0.19684 0.0096917-0.29492 0.015625 0.056978 0.05171 0.12668 0.084995 0.20312 0.10547zm-2.9473 8.3555c-0.040724-0.034276-0.083505-0.065962-0.12305-0.10156 0.0085472 0.02341 0.0044758 0.049797 0.0097656 0.074218 0.0065759 0.030673 0.018268 0.059932 0.019531 0.091797 0.031007 0.026425 0.06208 0.052472 0.09375 0.078125l0.019531 0.001953c0.0043094-0.049656-0.012888-0.096223-0.019531-0.14453zm-0.45117-0.42578c9.581e-4 0.001047 9.942e-4 0.00286 0.0019532 0.003906 0.0049059 0.0018 0.010775 1.3e-5 0.015625 0.001953-0.0057989-0.002306-0.011703-0.003752-0.017578-0.005859zm0.017578 0.005859c0.068385 0.027202 0.13064 0.065823 0.18359 0.11914-0.053081-0.052884-0.11594-0.092079-0.18359-0.11914zm0.18359 0.11914c0.053752 0.053752 0.091968 0.11864 0.11914 0.1875-0.02704-0.069124-0.064934-0.1335-0.11914-0.1875zm0.11914 0.1875c7.426e-4 0.001898 0.0012321 0.003953 0.0019531 0.005859 0.0017336 0.001566 0.0041236 0.002343 0.0058594 0.003907-0.0014327-0.003888-0.0062916-0.005912-0.0078125-0.009766zm-0.27539-0.25781c0.021905 0.023241 0.038183 0.051423 0.060547 0.074219 0.017692 0.013498 0.038711 0.021067 0.054688 0.03711 0.012624 0.012623 0.018242 0.02928 0.029297 0.042968 0.022912 0.022246 0.050865 0.038762 0.074219 0.060547-0.023355-0.043066-0.045584-0.086599-0.082031-0.12305-0.040298-0.040298-0.088441-0.067533-0.13672-0.091797zm0.14453 0.1543c-0.027876-0.027065-0.056775-0.052342-0.083984-0.080078-0.064994-0.049585-0.13796-0.081504-0.21875-0.09375 0.12672 0.1414 0.26008 0.27267 0.40234 0.39844-0.013681-0.08318-0.046312-0.15861-0.099609-0.22461zm6.9824 0.82812c0.006777 2.47e-4 0.012714 0.003907 0.019531 0.003907 0.002096 0 0.003766-0.00193 0.005859-0.001954 0.002457-0.002123 0.00536-0.003731 0.007813-0.005859-0.011286 3.07e-4 -0.021849 0.004312-0.033203 0.003906zm0.55859-0.5293c0.001828-0.002064 0.004036-0.003792 0.00586-0.005859 1.07e-4 -0.007322 1.84e-4 -0.014163 0-0.021484 2.03e-4 0.009466-0.005578 0.017917-0.00586 0.027343zm1.3555-3.3125c0.014133-0.012972 0.026354-0.02664 0.039063-0.041016 1.98e-4 -0.0032342-1.94e-4 -0.00653 0-0.0097657-0.014073 0.016328-0.022976 0.036059-0.039063 0.050781zm0.03711-0.75781c-8.6e-5 -0.0012923 8.6e-5 -0.0026142 0-0.0039063-0.009042-0.01013-0.015631-0.021815-0.025391-0.03125 0.010565 0.010237 0.015746 0.024176 0.025391 0.035156zm-1.3945-3.2637c4.25e-4 -0.0088444 0.00586-0.016477 0.00586-0.025391 0-0.017087-0.008221-0.032032-0.009766-0.048828-0.001836-0.0020672-0.00402-0.0037948-0.005859-0.0058593 0.002784 0.026989 0.011057 0.052544 0.009765 0.080078zm-0.49023-0.56055c-0.001053-9.282e-4 -0.002852-0.0010257-0.003906-0.0019531-0.016137-0.001412-0.030489-0.0097656-0.046875-0.0097656-0.004721 0-0.008971 0.0018352-0.013672 0.0019531 0.022197-5.724e-4 0.042593 0.0076769 0.064453 0.0097656zm-4.3828 10.092c0.22683 0.026483 0.45572 0.042969 0.68945 0.042969 0.22756 0 0.4528-0.013942 0.67383-0.039063l-1.3633-0.003906zm0.92383-12.73c0.074422 0.010741 0.15981 0.039314 0.18359 0.13867-0.016496 0.078259-0.1084 0.11328-0.18359 0.11328 0.11087-0.05294 0.10204-0.20669 0-0.25195zm-0.52344 0.013672c-0.11125 0.053323-0.10243 0.20707 0 0.25195-0.074806-0.010358-0.16176-0.037361-0.18555-0.13672 0.017263-0.078259 0.10997-0.11447 0.18555-0.11523zm-0.18555 0.3418v0.13672h0.94727v-0.13672h-0.94727zm0.18555 0.80469c-0.047183 0.026883-0.092941 0.057303-0.13086 0.097656 0.037555-0.040156 0.082786-0.070239 0.13086-0.097656zm-4.1836 0.57031c0.037691-0.011221 0.077761-0.0099558 0.11133 0.011719 0.053323 0.086698 0.012064 0.16633-0.033203 0.22656 0.040664-0.10396-0.061881-0.21878-0.17773-0.17773 0.026662-0.027045 0.061919-0.049326 0.099609-0.060547zm9.0371 0.017578c0.03769 0.011365 0.072947 0.034077 0.099609 0.060547-0.11547-0.041431-0.21763 0.073389-0.17773 0.17773-0.045268-0.059845-0.086527-0.13948-0.033203-0.22656 0.033566-0.021675 0.073637-0.023084 0.11133-0.011719zm-8.7656 0.1543-0.66992 0.66992 0.097656 0.097656 0.66992-0.67188-0.097656-0.095703zm8.4941 0.017578-0.097656 0.095703 0.66992 0.67188 0.097656-0.097656-0.66992-0.66992zm-9.2461 0.23242c-0.04028 0.10434 0.061881 0.21917 0.17773 0.17773-0.053323 0.053707-0.14342 0.093747-0.21094 0.050781-0.053323-0.087849-0.012064-0.16829 0.033203-0.22852zm9.998 0.017578c0.044884 0.059845 0.086527 0.14143 0.033204 0.22852-0.067134 0.042582-0.15762 0.002542-0.21094-0.050781 0.11585 0.040664 0.21802-0.073389 0.17773-0.17773zm-5.0449 3.9805c-0.37595 0-0.68359 0.30726-0.68359 0.68359 0 0.37672 0.30764 0.68359 0.68359 0.68359 0.37672 0 0.68359-0.30688 0.68359-0.68359 1e-7 -0.37633-0.30688-0.68359-0.68359-0.68359zm-6.7207 0.19922c0.099358 0.023401 0.12598 0.10917 0.13672 0.18359-0.045267-0.10243-0.19706-0.11125-0.25 0 0-0.075573 0.035406-0.16633 0.11328-0.18359zm0.22852 0v0.94727h0.13672v-0.94727h-0.13672zm12.795 0.017578v0.94727h0.13672v-0.94727h-0.13672zm0.36523 0c0.078259 0.016496 0.11328 0.10764 0.11328 0.18359-0.052556-0.11087-0.20668-0.10243-0.25195 0 0.010742-0.074422 0.039314-0.15981 0.13867-0.18359zm-12.369 0.1582c-0.014008 0.022102-0.032296 0.040608-0.042969 0.064453 0.010725-0.02391 0.029058-0.042501 0.042969-0.064453zm-0.042969 0.064453c-0.02154 0.04802-0.028271 0.10215-0.035156 0.15625 0.0068147-0.053792 0.013367-0.10757 0.035156-0.15625zm-0.035156 0.15625c-0.0029028 0.022913-0.015625 0.042941-0.015625 0.066406 0 0.023411 0.012736 0.043545 0.015625 0.066406-0.0028963-0.022755-0.013672-0.042874-0.013672-0.066406 0-0.023532 0.010776-0.043647 0.013672-0.066406zm0 0.13281c0.0068851 0.054093 0.013616 0.10826 0.035156 0.15625-0.021698-0.048613-0.028375-0.10258-0.035156-0.15625zm0.035156 0.15625c0.011314 0.025348 0.031796 0.044974 0.046875 0.068359-0.015112-0.023313-0.035399-0.04279-0.046875-0.068359zm11.447-0.29883c0.0046 0.028481 0.017578 0.054242 0.017578 0.083984 0 0.026324-0.012014 0.048874-0.015625 0.074219 2.16e-4 -0.020424 0.003906-0.040073 0.003906-0.060547 0-0.033015-0.005298-0.064773-0.005859-0.097656zm-12.551 0.32227c0.044884 0.10243 0.19706 0.11087 0.25 0-3.8362e-4 0.075573-0.03579 0.16671-0.11328 0.18359-0.099358-0.023785-0.12636-0.10917-0.13672-0.18359zm13.391 0.017578c0.052556 0.11048 0.20707 0.10243 0.25195 0-0.010357 0.074422-0.037744 0.15943-0.13672 0.18359-0.078259-0.016879-0.11524-0.10802-0.11524-0.18359zm-2.4551 3.748c-0.018644 0.027101-0.030606 0.05795-0.054687 0.082031 3.95e-4 -3.92e-4 0.001558 3.94e-4 0.001953 0 0.023675-0.023592 0.034022-0.054889 0.052734-0.082031zm-8.8555 0.13086-0.095703 0.097657 0.66992 0.66992 0.095703-0.097657-0.66992-0.66992zm9.6016 0.007813-0.66992 0.66992 0.097656 0.095703 0.66992-0.66992-0.097656-0.095703zm-9.7363 0.23047c0.038554 0.00935 0.075354 0.0301 0.10547 0.052734-0.10396-0.04028-0.21878 0.061881-0.17773 0.17773-0.053323-0.053707-0.093747-0.1438-0.050781-0.21094 0.043541-0.026662 0.084493-0.028882 0.12305-0.019531zm9.8711 0.005859c0.03865-0.009399 0.081459-0.005177 0.125 0.021484 0.042966 0.067134 0.002159 0.15762-0.050781 0.21094 0.041048-0.11585-0.073006-0.2184-0.17773-0.17773 0.030114-0.022442 0.064866-0.045289 0.10352-0.054688zm-9.4043 0.42773c0.05294 0.053324 0.091794 0.14342 0.048828 0.21094-0.087082 0.05294-0.1679 0.012448-0.22852-0.033203 0.10434 0.040664 0.22035-0.062265 0.17969-0.17774zm8.9395 0.00586c-0.041048 0.11585 0.073006 0.21997 0.17773 0.17969-0.060612 0.044884-0.14143 0.086527-0.22852 0.033203-0.04335-0.067133-0.002543-0.15918 0.050781-0.21289zm-4.9961 1.5195v0.13672h0.94922v-0.13672h-0.94922zm0.18555 0.22656c-0.10204 0.044883-0.11087 0.19863 0 0.25195-0.075573 0-0.16867-0.03736-0.18555-0.11524 0.023784-0.099358 0.11112-0.12598 0.18555-0.13672zm0.52344 0.013671c0.075573 3.84e-4 0.16828 0.035407 0.18555 0.11328-0.023784 0.099358-0.11112 0.1287-0.18555 0.13867 0.10243-0.044883 0.11087-0.19863 0-0.25195z" fill-rule="evenodd"/>
 </g>
</svg>
