<svg width="15px" height="15px" enable-background="new 0 0 15 15" version="1.1" viewBox="0 0 15 15" xmlns="http://www.w3.org/2000/svg">
 <path d="m4.5977 0.48633c-0.32292 0-0.58398 0.26072-0.58398 0.58398 0 0.30522 0.23639 0.55007 0.53516 0.57617-0.1533 0.018796-0.27734 0.13891-0.27734 0.29688 0 0.15134 0.11621 0.26183 0.25977 0.28906-0.20498 0.034123-0.36523 0.20559-0.36523 0.41992 0 0.20741 0.15043 0.37406 0.3457 0.41602l-1.2832 1.2812c0.20398 0.11478 0.36752 0.24833 0.44531 0.41602v1.2363l0.55078 0.53906-0.83203 0.7832v1.5117l0.83203 0.82227-0.55078 0.48633v4.2773h0.55078v-4.0254l0.36328-0.33789 0.375 0.39062v3.9727h7.248v-0.52344-2.0352c-0.12377-0.96391-1.1026-1.8731-2.9941-2.7246-1.4341 0.60435-2.6175 1.3901-3.041 2.7246v2.0352h-0.62891v-3.7461l-0.58398-0.49805 0.85352-0.81836v-1.5117l-0.85352-0.7832 0.58398-0.53906v-1.2695c0.097843-0.17736 0.24714-0.29332 0.42969-0.36523l-1.3262-1.291c0.21368-0.026324 0.38281-0.20324 0.38281-0.42383 0-0.22258-0.17221-0.40013-0.38867-0.42383 0.13686-0.032202 0.24805-0.13843 0.24805-0.28516 0-0.15408-0.11998-0.2693-0.26758-0.29297 0.30951-0.015042 0.55859-0.26717 0.55859-0.58008 0-0.076408-0.014394-0.14812-0.041016-0.21484 0.042871 0.69666-0.61426 0.64055-0.78125 0.44141-0.27693-0.29422-0.10605-0.82919 0.41602-0.7832-0.056701-0.018324-0.11711-0.027344-0.17969-0.027344zm4.6953 0.24414c-1.0784 0-1.9531 0.87443-1.9531 1.9531-1e-7 1.078 0.87477 1.9531 1.9531 1.9531 1.0784 0 1.9531-0.87512 1.9531-1.9531 0-0.25446-0.049822-0.4977-0.13867-0.7207 0.14244 2.3265-2.0508 2.1408-2.6074 1.4746-0.92588-0.98155-0.35062-2.7664 1.3926-2.6133-0.18912-0.06085-0.39009-0.09375-0.59961-0.09375zm-4.7051 3.1641 0.375 0.34961v1.5469l-0.375 0.38086-0.36328-0.38086v-1.5469l0.36328-0.34961zm4.6309 2.6289c-0.32326 0-0.58594 0.26107-0.58594 0.58398 0 0.30632 0.23892 0.54923 0.53906 0.57422-0.15484 0.016892-0.28125 0.13939-0.28125 0.29883 0 0.15064 0.11675 0.26167 0.25977 0.28906-0.20512 0.034127-0.36523 0.20528-0.36523 0.41992 0 0.23856 0.19469 0.43359 0.43359 0.43359 0.23856 0 0.43359-0.19504 0.43359-0.43359 0-0.2229-0.17225-0.40013-0.38867-0.42383 0.13718-0.032182 0.24805-0.13894 0.24805-0.28516 0-0.15473-0.12077-0.27004-0.26953-0.29297 0.31173-0.012964 0.56055-0.26546 0.56055-0.58008 0-0.076408-0.01474-0.14812-0.041016-0.21484 0.042525 0.69631-0.61426 0.64055-0.78125 0.44141-0.27693-0.29422-0.10375-0.82919 0.41797-0.7832-0.056355-0.018325-0.11711-0.027344-0.17969-0.027344zm-4.6309 0.37695 0.59766 0.60547v1.1309l-0.59766 0.66016-0.60938-0.66016v-1.1309l0.60938-0.60547zm4.6387 2.8379c0.98604 0.50754 1.9983 1.02 2.4727 2.125v2.0371h-4.9551v-2.0371c0.36855-0.80349 1.1876-1.5179 2.4824-2.125zm-0.32422 0.95703-0.83594 0.88086-0.046875 1.5039 0.89258 0.14844 1.7949-0.14844-0.058593-1.625-1.7461-0.75977zm-0.029297 0.056641h0.11523v0.48438h-0.11523v-0.48438zm0.12695 0.5 1.625 0.52734v0.32422l-1.6172-0.36914-0.0078125-0.48242zm-0.13281 0.007813v0.48438l-0.75391 0.36914 0.0078126-0.28125 0.74609-0.57226zm0.0097656 0.50976h0.11328v1.4062h-0.11328v-1.4062z" fill-rule="evenodd"/>
</svg>
