<svg width="15px" height="15px" enable-background="new 0 0 15 15" version="1.1" viewBox="0 0 15 15" xmlns="http://www.w3.org/2000/svg">
 <path d="m11.146 1.0605-0.46094 1.041c1.3194 0.58371 2.3249 1.706 2.7578 3.0801 0.44662 1.4212 0.24197 2.9563-0.5625 4.2109-0.1689 0.26436-0.093256 0.61742 0.17188 0.78711 0.09427 0.06089 0.20176 0.089843 0.30664 0.089843 0.18698 0 0.37127-0.092811 0.48047-0.26172 0.98673-1.5398 1.2386-3.4239 0.68945-5.168-0.53107-1.6867-1.7637-3.0636-3.3828-3.7793zm-0.93555 1.9512-0.46094 1.041c0.77147 0.34096 1.3599 0.99827 1.6133 1.8027 0.26161 0.83078 0.14206 1.7287-0.32812 2.4629-0.16969 0.26436-0.093265 0.61546 0.17188 0.78516 0.09427 0.060878 0.20098 0.089844 0.30664 0.089844 0.18698 0 0.37127-0.092027 0.48047-0.26172 0.65245-1.0185 0.81842-2.2643 0.45508-3.418v-0.0019531c-0.35157-1.1168-1.1679-2.0271-2.2383-2.5zm-5.3281 1.2852c-0.59039 0-1.1669 0.11784-1.7129 0.35156-1.0688 0.45801-1.8945 1.3038-2.3262 2.3828-0.43209 1.0794-0.417 2.262 0.041016 3.3301 0.68702 1.6019 2.2567 2.6367 4 2.6367 0.59039 0 1.1673-0.11824 1.7129-0.35156 1.0178-0.43641 1.8241-1.2338 2.2695-2.2461l0.49023-1.1152-1.1445-0.41406-1.7832-0.64648 0.99609-1.8574 0.53516-0.99805-0.99414-0.54102c-0.6387-0.34803-1.3589-0.53125-2.084-0.53125zm4.3457 0.53516-0.45898 1.041c0.27221 0.1202 0.47841 0.35077 0.56836 0.63477 0.091127 0.29303 0.049351 0.61067-0.11523 0.86914-0.17009 0.26475-0.092488 0.61702 0.17188 0.78711 0.095457 0.060491 0.20176 0.087891 0.30664 0.087891 0.18776 0 0.3701-0.091636 0.47852-0.26172 0.34803-0.54286 0.4374-1.2083 0.24414-1.8242-0.18776-0.59589-0.6226-1.0818-1.1953-1.334zm-4.3457 0.60352c0.54129 0 1.0704 0.13686 1.5391 0.39258l-1.6172 3.0176 3.0195 1.0957c-0.3166 0.71962-0.8949 1.3239-1.6738 1.6582-0.41284 0.17676-0.84375 0.26172-1.2656 0.26172-1.246 0-2.4315-0.72957-2.9531-1.9473-0.69959-1.6309 0.054619-3.5199 1.6855-4.2188 0.41284-0.17676 0.84297-0.25977 1.2656-0.25977zm-0.76562 0.91992c-0.086171 4.965e-4 -0.1718 0.016497-0.25586 0.052734-0.33821 0.14416-0.49495 0.53641-0.34961 0.87305 0.14416 0.33703 0.53407 0.49182 0.87109 0.34766 0.33742-0.14495 0.4926-0.53407 0.34766-0.87109-0.10783-0.25277-0.35477-0.40384-0.61328-0.40234z"/>
</svg>
