<svg width="15px" height="15px" enable-background="new 0 0 15 15" version="1.1" viewBox="0 0 15 15" xmlns="http://www.w3.org/2000/svg">
 <path d="m8.993 0.18336c-0.17495 0.031789-0.33509 0.12828-0.42922 0.29892-1.6121 2.9126-2.9988 5.5905-4.3573 8.1648-0.80403 0-1.9979 0.00477-2.8129 0 0 0.54678-0.00236 1.2198-0.00383 1.4103 0.00991-0.0048 2.0324 0 2.079 0-0.69504 1.2965-1.437 2.6997-2.1423 3.9933 0.66972 0 1.2821 0.01436 1.7801 0.0096 0.70531-1.3692 1.3428-2.6556 2.0848-4.0086 1.411 0.0048 2.7134 0.0057 4.1255 0.0057 0.27046 0 0.68982-0.26059 0.68982-0.70131 0-0.39412-0.30528-0.71473-0.6994-0.71473h-3.3475c1.2044-2.4421 2.5313-4.8919 3.8285-7.4596 0.16147-0.3189 0.056627-0.73081-0.27401-0.91209-0.15468-0.08532-0.34624-0.11802-0.5212-0.086227zm3.2345 1.0769c-0.03156-0.012477-1.5711 0.013088-1.5674 0.00575-0.98054 1.8466-2.2704 3.9595-1.2436 5.9209 0.8165 1.5596 1.9085 2.7762 2.0637 3.9703 0.12477 0.95412-0.35338 1.6461-0.77796 2.4527-0.13174 0.25138-0.21278 0.64897 0.13988 0.92934 0.48733 0.38568 0.95669-0.05792 1.0117-0.11114 0.67082-0.81907 1.1107-1.9975 1.121-3.0639 0.02018-2.1996-2.0218-3.6929-2.3722-5.5109-0.22238-1.1497 0.54528-2.767 1.6249-4.593z"/>
</svg>
