<svg width="15px" height="15px" enable-background="new 0 0 15 15" version="1.1" viewBox="0 0 15 15" xmlns="http://www.w3.org/2000/svg">
 <path d="m10.434 0.46875c-0.19773 0-0.31656 0.122-0.36524 0.1875-0.04867 0.065496-0.065327 0.10931-0.080078 0.15039-0.029496 0.082169-0.042718 0.1514-0.054687 0.23047-0.023932 0.15815-0.035156 0.34797-0.035156 0.55859v0.3418h-4.8574v-0.30469c0-0.21062-0.011226-0.40045-0.035156-0.55859-0.011965-0.079073-0.025196-0.14635-0.054688-0.22852-0.014747-0.041083-0.02945-0.086848-0.078125-0.15234-0.048676-0.065495-0.16946-0.1875-0.36719-0.1875-0.19773 0-0.31656 0.122-0.36523 0.1875-0.048675 0.065496-0.065331 0.11126-0.080078 0.15234-0.029492 0.082169-0.042722 0.14944-0.054688 0.22852-0.014058 0.092911-0.015722 0.21567-0.021484 0.32812-0.013036-0.005029-0.015317-0.010791-0.03125-0.015625-0.039044-0.011846-0.10203-0.024561-0.17383-0.019531-0.071798 0.00503-0.15295 0.027126-0.23242 0.085938-0.15895 0.11762-0.18343 0.28754-0.18359 0.36914-1.118e-4 0.055267 0.0095419 0.082985 0.017578 0.11523h-0.37109c-0.15982 0-0.3032 0.010597-0.43164 0.035156-0.064222 0.012278-0.12271 0.0239-0.19922 0.058594-0.038253 0.017346-0.083262 0.037935-0.14062 0.091797-0.057363 0.053862-0.14062 0.16817-0.14062 0.31836s0.083263 0.2645 0.14062 0.31836c0.057363 0.053862 0.10237 0.07445 0.14062 0.091797 0.076504 0.034694 0.135 0.048269 0.19922 0.060547 0.12845 0.024554 0.27182 0.035156 0.43164 0.035156h0.96094v7.3828h-0.96094c-0.15982 0-0.30319 0.010596-0.43164 0.035156-0.064223 0.01228-0.12272 0.025857-0.19922 0.060547-0.03825 0.01735-0.083267 0.037937-0.14062 0.091797s-0.13867 0.16817-0.13867 0.31836 0.081307 0.26254 0.13867 0.31641c0.057365 0.05387 0.10237 0.0764 0.14062 0.09375 0.076504 0.03468 0.135 0.046324 0.19922 0.058594 0.12844 0.024548 0.27183 0.035156 0.43164 0.035156h0.39258c-0.084962 0.12024-0.17031 0.24156-0.22656 0.3457-0.038009 0.07036-0.069835 0.13342-0.095703 0.2168-0.012934 0.04169-0.026829 0.086371-0.027344 0.16797-5.167e-4 0.0816 0.02173 0.25215 0.17969 0.37109 0.15795 0.11894 0.32601 0.093353 0.4043 0.070313 0.078283-0.02304 0.1178-0.050259 0.1543-0.074219 0.072137-0.047341 0.12336-0.093315 0.17969-0.14844v1.0762c0 0.21062 0.011226 0.40045 0.035156 0.55859 0.011964 0.07908 0.025196 0.14635 0.054688 0.22852 0.014745 0.04108 0.031406 0.086843 0.080078 0.15234 0.048673 0.065489 0.16749 0.1875 0.36523 0.1875 0.19774 0 0.31851-0.12201 0.36719-0.1875 0.048673-0.065491 0.063379-0.11126 0.078125-0.15234 0.029491-0.08216 0.042724-0.14944 0.054688-0.22852 0.023929-0.15815 0.035156-0.34798 0.035156-0.55859v-2.0254h4.8574v1.9883c0 0.21062 0.011224 0.3985 0.035156 0.55664 0.011971 0.07907 0.025192 0.1483 0.054687 0.23047 0.014748 0.04108 0.031407 0.086845 0.080078 0.15234 0.04867 0.06549 0.1675 0.1875 0.36524 0.1875 0.19773 0 0.31656-0.122 0.36523-0.1875 0.04867-0.06549 0.065328-0.11126 0.080078-0.15234 0.0295-0.08217 0.042718-0.1514 0.054688-0.23047 0.02392-0.15814 0.035156-0.34602 0.035156-0.55664v-0.97852c0.052531 0.061099 0.10856 0.13804 0.1582 0.1875 0.05665 0.05645 0.1071 0.10384 0.17969 0.15234 0.0363 0.02425 0.076213 0.050529 0.1543 0.074219 0.078078 0.02369 0.2473 0.051214 0.40625-0.066406 0.15894-0.11762 0.18147-0.28754 0.18164-0.36914 1.66e-4 -0.0816-0.012812-0.12812-0.02539-0.16992-0.025192-0.08359-0.056331-0.14612-0.09375-0.2168-0.074842-0.14136-0.17744-0.29944-0.30274-0.46875l-0.097656-0.13281h0.001953c0.15982 0 0.3032-0.010597 0.43164-0.035156 0.06423-0.012271 0.12271-0.023914 0.19922-0.058594 0.03825-0.01734 0.081309-0.03989 0.13867-0.09375 0.05736-0.05386 0.14062-0.16622 0.14062-0.31641 0-0.15019-0.083264-0.2645-0.14062-0.31836-0.05736-0.05386-0.10043-0.074447-0.13867-0.091797-0.0765-0.03469-0.13499-0.048277-0.19922-0.060547-0.12845-0.02456-0.27182-0.035156-0.43164-0.035156h-0.5625v-7.2754l0.080078-0.10742h0.48047c0.15982 0 0.3032-0.010597 0.43164-0.035156 0.06423-0.012278 0.12271-0.025853 0.19922-0.060547 0.03825-0.017346 0.083261-0.037935 0.14062-0.091797 0.05736-0.053862 0.13867-0.16817 0.13867-0.31836 0-0.15019-0.08132-0.2645-0.13867-0.31836-0.05736-0.053862-0.10238-0.07445-0.14062-0.091797-0.07651-0.034693-0.135-0.046316-0.19922-0.058594-0.068024-0.013003-0.15199-0.013808-0.22852-0.019531 0.022873-0.046127 0.046983-0.090176 0.064453-0.14648 0.01294-0.041691 0.026824-0.086366 0.027344-0.16797 5.22e-4 -0.081601-0.021738-0.25215-0.17969-0.37109-0.07897-0.059474-0.16067-0.082263-0.23242-0.087891-0.07175-0.00563-0.13273 0.0060561-0.17188 0.017578-0.07828 0.023041-0.1178 0.050269-0.1543 0.074219-0.052396 0.034387-0.090646 0.070229-0.13086 0.10742-0.005643-0.11775-0.00683-0.24503-0.021484-0.3418-0.01197-0.079073-0.025198-0.1483-0.054688-0.23047-0.01474-0.041083-0.031408-0.084895-0.080078-0.15039-0.04867-0.065495-0.1675-0.1875-0.36523-0.1875zm-5.1172 2.4785h4.3945l-2.2168 2.9414-2.1777-2.9414zm-0.27539 1.4238 1.7832 2.4102-1.7832 2.3672v-4.7773zm4.8574 0.10547v4.6621l-1.7402-2.3516 1.7402-2.3105zm-2.4121 3.2012 1.9629 2.6523h-3.959l1.9961-2.6523z" color="#000000" color-rendering="auto" dominant-baseline="auto" enable-background="accumulate" image-rendering="auto" shape-rendering="auto" solid-color="#000000" style="font-feature-settings:normal;font-variant-alternates:normal;font-variant-caps:normal;font-variant-ligatures:normal;font-variant-numeric:normal;font-variant-position:normal;isolation:auto;mix-blend-mode:normal;shape-padding:0;text-decoration-color:#000000;text-decoration-line:none;text-decoration-style:solid;text-indent:0;text-orientation:mixed;text-transform:none;white-space:normal"/>
</svg>
