<svg width="15px" height="15px" enable-background="new 0 0 15 15" version="1.1" viewBox="0 0 15 15" xmlns="http://www.w3.org/2000/svg">
 <path d="m7.2539 0.71289c-3.7784 1e-8 -6.8535 3.0735-6.8535 6.8516 0 3.778 3.0751 6.8516 6.8535 6.8516 3.7784 0 6.8516-3.0735 6.8516-6.8516 0-3.778-3.0732-6.8516-6.8516-6.8516zm0 1.2852c3.07 0 5.5664 2.4972 5.5664 5.5664 0 3.0688-2.4964 5.5684-5.5664 5.5684-3.0692 2e-6 -5.5664-2.4995-5.5664-5.5684 0-3.0692 2.4972-5.5664 5.5664-5.5664zm-0.0019531 0.43164-4.5059 7.8047h9.0137l-4.5078-7.8047zm0 2.5703 2.2812 3.9492h-4.5605l2.2793-3.9492zm0.0019531 1.584c-0.55429 0-1.0039 0.4484-1.0039 1.002 0 0.55391 0.44961 1.002 1.0039 1.002 0.55354 0 1.002-0.44805 1.002-1.002 0-0.55355-0.44842-1.002-1.002-1.002z"/>
</svg>
