<?xml version="1.0" encoding="UTF-8" standalone="no"?>
<!-- Generado por Andres Lacquaniti  -->

<svg
   xmlns:dc="http://purl.org/dc/elements/1.1/"
   xmlns:cc="http://creativecommons.org/ns#"
   xmlns:rdf="http://www.w3.org/1999/02/22-rdf-syntax-ns#"
   xmlns:svg="http://www.w3.org/2000/svg"
   xmlns="http://www.w3.org/2000/svg"
   xmlns:sodipodi="http://sodipodi.sourceforge.net/DTD/sodipodi-0.dtd"
   xmlns:inkscape="http://www.inkscape.org/namespaces/inkscape"
   version="1.1"
   id="Layer_1"
   x="0px"
   y="0px"
   width="15px"
   height="15px"
   viewBox="0 0 15 15"
   style="enable-background:new 0 0 15 15;"
   xml:space="preserve"
   sodipodi:docname="saac-oms.svg"
   inkscape:version="0.92.0 r15299"><metadata
     id="metadata9"><rdf:RDF><cc:Work
         rdf:about=""><dc:format>image/svg+xml</dc:format><dc:type
           rdf:resource="http://purl.org/dc/dcmitype/StillImage" /><dc:title></dc:title></cc:Work></rdf:RDF></metadata><defs
     id="defs7" /><sodipodi:namedview
     pagecolor="#ffffff"
     bordercolor="#666666"
     borderopacity="1"
     objecttolerance="10"
     gridtolerance="10"
     guidetolerance="10"
     inkscape:pageopacity="0"
     inkscape:pageshadow="2"
     inkscape:window-width="1920"
     inkscape:window-height="996"
     id="namedview5"
     showgrid="false"
     inkscape:zoom="15.733333"
     inkscape:cx="7.337977"
     inkscape:cy="6.2154669"
     inkscape:window-x="-8"
     inkscape:window-y="-8"
     inkscape:window-maximized="1"
     inkscape:current-layer="Layer_1" /><path
     style="fill:#000000;fill-rule:evenodd;stroke-width:1.04166055"
     d="m 7.4085752,0.39948728 -0.00337,0.003372 -0.070835,0.0792675 c -0.016667,0.028124 -0.030853,0.0873047 -0.037104,0.12480464 -0.00625,0.0343746 -3.013e-4,0.0804099 -0.025298,0.12311869 0,0 -0.032145,0.0522834 -0.075894,0.0877011 0.1979154,-0.0145835 0.3961462,-0.0231164 0.5919784,-0.0168658 l -0.00337,-0.001686 c 0.045834,-0.0333328 0.082641,-0.0826407 0.082641,-0.0826407 0.028124,-0.0427087 0.027729,-0.0864114 0.037104,-0.11974552 0.00937,-0.0406252 0.029515,-0.0968291 0.047223,-0.11974553 l 0.077582,-0.0725225 C 7.8230611,0.39323906 7.6168237,0.39016031 7.4085816,0.39948162 Z m -0.1855203,0.0101157 c -0.2057008,0.0135707 -0.4115815,0.0385001 -0.6172766,0.0758981 l -0.00337,0.00843 c 0,0 -0.044445,0.0474722 -0.059029,0.0860139 -0.012506,0.0270822 -0.018155,0.0885944 -0.020238,0.12817769 -0.00208,0.0333328 0.00968,0.0793682 -0.010116,0.12311743 0,0 -0.023465,0.0561536 -0.064089,0.0978193 C 6.6447684,0.8873937 6.839378,0.8564879 7.0341684,0.834612 L 7.0307984,0.83124 c 0.042709,-0.0374999 0.072522,-0.089387 0.072522,-0.089387 0.021875,-0.0468746 0.016072,-0.0887428 0.020238,-0.12311743 0.00521,-0.0385404 0.018503,-0.10149067 0.032044,-0.1264911 z m 0.9900037,0.006744 -0.00169,0.003372 -0.080955,0.069148 c -0.019792,0.0270835 -0.039783,0.0860151 -0.052283,0.12143148 -0.010418,0.032291 -0.011953,0.0770368 -0.042163,0.11974552 0,0 -0.038743,0.0467286 -0.087701,0.0758944 0.1999987,0.009373 0.3971879,0.0264909 0.5919784,0.0556566 l -0.00674,-0.001686 C 8.584547,0.83803438 8.626265,0.79244688 8.626265,0.79244688 8.661681,0.75598878 8.667338,0.71382358 8.681922,0.67944769 8.697547,0.64194779 8.722847,0.59080429 8.742638,0.56476254 L 8.830339,0.50573404 C 8.6272108,0.46720111 8.42139,0.43718786 8.2130586,0.41635588 Z m -1.787741,0.1045748 C 6.2232354,0.56363065 6.0232188,0.61487485 5.8232199,0.67945733 l -0.00169,0.003372 c 0,0 -0.041618,0.0579893 -0.04891,0.0944474 -0.00728,0.0302088 -0.00482,0.0934069 -0.00169,0.12986439 0.00208,0.0364581 0.019245,0.0748048 0.00674,0.12480468 0,0 -0.018951,0.059775 -0.052284,0.1045656 0.187512,-0.065625 0.3767133,-0.1230697 0.5683789,-0.17202791 h -0.00507 c 0.0375,-0.0395834 0.060716,-0.10287969 0.060716,-0.10287969 0.017708,-0.044791 0.00506,-0.0849733 0.00506,-0.12143148 0.00104,-0.0364594 0.00307,-0.10173979 0.013493,-0.12986427 0.012506,-0.0354164 0.057343,-0.089387 0.057343,-0.089387 z m 2.5854782,0.0202377 -0.00507,0.003372 -0.087701,0.0573426 c -0.020833,0.0218746 -0.050151,0.078227 -0.065775,0.11468515 -0.016667,0.028124 -0.021928,0.0727703 -0.057343,0.11131197 0,0 -0.045092,0.043256 -0.096133,0.0640889 0.194745,0.0362556 0.3868993,0.0825249 0.5734267,0.1332372 0.052305,-0.020926 0.099507,-0.0556566 0.099507,-0.0556566 0.039583,-0.0354164 0.049752,-0.0777313 0.067462,-0.10793882 l 0.077582,-0.10456564 0.091073,-0.0489103 C 9.4131036,0.64100386 9.2127135,0.58982484 9.0107958,0.54115751 Z M 5.6495054,0.73679953 C 5.4547158,0.80242416 5.25956,0.8789188 5.0710193,0.96954311 v 0.006744 c 0,0 -0.032938,0.0609649 -0.037103,0.0995065 -0.00208,0.027084 0.00749,0.09172 0.016866,0.1281777 0.00728,0.034375 0.029217,0.072077 0.021925,0.1231175 0,0 -0.00898,0.062751 -0.037104,0.109626 0.177082,-0.092708 0.3574045,-0.1699468 0.5396951,-0.2428632 h -0.00506 c 0.031251,-0.048958 0.047223,-0.1045656 0.047223,-0.1045656 0.010418,-0.053125 -0.00659,-0.0923651 -0.011802,-0.12986402 -0.00313,-0.0354164 -0.00962,-0.10005258 -0.00337,-0.12817781 0.00728,-0.0385404 0.047223,-0.0944474 0.047223,-0.0944474 z m 4.1320426,0.0320445 -0.00169,0.001686 -0.096133,0.0438499 -0.082641,0.10456565 c -0.017711,0.028124 -0.030601,0.0737127 -0.069148,0.10287972 0,0 -0.049356,0.037302 -0.1045656,0.053969 0.1906238,0.057291 0.3757083,0.1295691 0.5548746,0.2108185 l -0.00507,-0.00843 c 0.055218,-0.0073 0.109625,-0.038791 0.109625,-0.038791 0.04271,-0.027084 0.05635,-0.068654 0.07926,-0.097819 l 0.08938,-0.094452 0.09951,-0.03373 C 10.16954,0.92172568 9.9784011,0.84175835 9.7815276,0.76884209 Z M 4.9074242,1.0488111 c -0.1843739,0.094791 -0.3642996,0.196784 -0.5413818,0.310325 l -0.00337,0.00506 c 0,0 -0.024653,0.063693 -0.023612,0.1011925 0.00208,0.03125 0.020189,0.091322 0.033732,0.1298642 0.012506,0.030209 0.039436,0.067414 0.040478,0.1163724 0,0 -0.00109,0.065727 -0.021925,0.1146851 0.1628964,-0.1134094 0.3284921,-0.2150131 0.4975318,-0.3120114 0.025,-0.053124 0.033732,-0.112999 0.03373,-0.112999 0.00313,-0.051042 -0.019694,-0.086412 -0.026984,-0.1197455 -0.010418,-0.0375 -0.021925,-0.1017398 -0.021925,-0.1298642 0.00208,-0.040625 0.033732,-0.1028797 0.033732,-0.1028797 z m 5.6145188,0.045537 -0.0051,0.00169 -0.09951,0.030357 -0.09276,0.091073 c -0.02395,0.027084 -0.04161,0.06905 -0.08433,0.096133 0,0 -0.05546,0.028771 -0.109624,0.037104 0.179165,0.085416 0.355121,0.1778842 0.52283,0.2799669 l -0.0051,-0.00506 c 0.05625,0 0.112998,-0.023612 0.112998,-0.023612 0.04584,-0.021876 0.06672,-0.062056 0.09276,-0.086014 l 0.101193,-0.082641 0.104567,-0.021925 C 10.887037,1.2978753 10.7084,1.1922613 10.521943,1.0943452 Z M 4.2125664,1.4603288 C 4.0417341,1.5738702 3.8744088,1.701658 3.7150348,1.8381156 c 0,0 -0.018056,0.071482 -0.011802,0.1079388 l 0.050596,0.1214315 c 0.015625,0.030209 0.046677,0.063396 0.053969,0.1113119 0,0 0.00614,0.063247 -0.00843,0.1163724 0.1468475,-0.1314466 0.2987045,-0.2574217 0.4536827,-0.3727271 0.019792,-0.053125 0.020238,-0.1180583 0.020238,-0.1180583 -0.00313,-0.046875 -0.03135,-0.08279 -0.04385,-0.1129992 -0.014584,-0.0375 -0.035021,-0.095887 -0.037104,-0.1281777 -0.00208,-0.035416 0.020238,-0.1028797 0.020238,-0.1028797 z m 6.9941166,0.053969 -0.106253,0.020238 -0.102879,0.079269 c -0.02708,0.021875 -0.0503,0.061162 -0.09613,0.080954 0,0 -0.0574,0.020238 -0.114686,0.020238 0.168749,0.1104162 0.328187,0.2258027 0.482354,0.350802 l -0.0033,-0.00506 c 0.05625,0.00416 0.114685,-0.011802 0.114685,-0.011802 0.04687,-0.019791 0.07371,-0.05402 0.102879,-0.075894 l 0.111258,-0.065783 c 0.03485,-0.012305 0.100705,-0.00856 0.102879,-0.00843 C 11.542802,1.7609111 11.379613,1.635321 11.208391,1.5159848 h -0.0017 z M 7.6683036,1.7419797 c -0.2541653,0.27604 -0.6731337,0.596792 -0.7606332,0.6645 C 6.2587158,2.8950183 5.9525879,3.5639154 5.9463379,4.1503704 5.9400879,5.2357806 6.8531584,6.1843863 6.9666995,7.4947953 7.1510735,7.4718786 7.3494529,7.4648341 7.5536183,7.462751 7.5296601,6.1388003 7.5804072,4.3376377 7.6699902,3.0355621 7.7595735,4.3376377 7.8092785,6.1388003 7.7863625,7.462751 7.9915697,7.464841 8.1878657,7.471871 8.3732813,7.494795 8.4878633,6.1843863 9.3986017,5.2357806 9.3902688,4.1503704 9.3871438,3.5639155 9.0806195,2.8950183 8.4306232,2.4064797 8.3441656,2.3387717 7.9224686,2.0180197 7.6683036,1.7419797 Z M 3.5733646,1.9527982 C 3.4202406,2.094464 3.2704267,2.2373831 3.1298026,2.3946738 v 0.00337 h 0.00169 c 0,0 -0.00809,0.067066 0.00337,0.1045657 l 0.065775,0.1163723 c 0.020833,0.028124 0.054962,0.054169 0.067462,0.1062529 0,0 0.013641,0.056749 0.00843,0.1129992 0.128127,-0.153122 0.2641501,-0.29738 0.4047742,-0.4317542 l -0.00506,0.00169 c 0.012508,-0.057295 0.00506,-0.1180624 0.00506,-0.1180624 -0.010418,-0.047916 -0.044049,-0.077334 -0.060716,-0.109626 L 3.5683059,2.0624242 c -0.00833,-0.036458 0.00506,-0.1062528 0.00506,-0.1062528 z m 8.2624004,0.065775 v 0.00169 c 0,0 -0.07317,-0.00496 -0.109626,0.00337 l -0.111312,0.067462 c -0.02917,0.017707 -0.05625,0.056004 -0.106253,0.067462 0,0 -0.05948,0.01508 -0.114685,0.00674 0.152083,0.1291658 0.296341,0.2654371 0.431757,0.4081446 l -0.0017,-0.00674 c 0.05625,0.015625 0.114685,0.00506 0.114685,0.00506 0.05104,-0.010418 0.0828,-0.042363 0.112999,-0.059029 l 0.116371,-0.055657 c 0.03692,-0.00718 0.104139,0.00634 0.106253,0.00674 -0.136005,-0.1535155 -0.2805,-0.301004 -0.435116,-0.4452422 z M 3.0100576,2.5279111 C 2.8756835,2.6831186 2.7463573,2.8529238 2.6255247,3.0237563 l 0.00169,0.00337 0.016866,0.1011925 0.079268,0.1062528 c 0.022916,0.028124 0.06285,0.048861 0.082641,0.097819 0,0 0.020883,0.059476 0.021925,0.1146851 0.1061975,-0.1670246 0.2208538,-0.3269317 0.3423694,-0.4806623 0.00313,-0.059378 -0.013493,-0.1129992 -0.013493,-0.1129992 -0.015625,-0.05 -0.048961,-0.078524 -0.070835,-0.1045656 L 3.0151171,2.6375364 c -0.010418,-0.035416 -0.00506,-0.109626 -0.00506,-0.1096253 z m 9.2760154,0.065775 -0.123119,0.04891 c -0.0323,0.018749 -0.06235,0.045884 -0.111312,0.057343 0,0 -0.06221,0.00654 -0.116372,-0.010116 0.133332,0.1489576 0.259434,0.3024922 0.3761,0.4587411 l -0.0017,-0.00506 c 0.05208,0.01875 0.114686,0.020238 0.114686,0.020238 0.05,-0.00208 0.08408,-0.03135 0.116372,-0.04385 0.03541,-0.018749 0.0942,-0.036707 0.126491,-0.038791 0.03645,-0.00208 0.102879,0.020238 0.102879,0.020238 C 12.654447,2.9325876 12.528995,2.7648617 12.395663,2.6054877 h -0.0051 c 0,0 -0.06707,-0.019097 -0.104567,-0.011802 z M 2.5209585,3.1738591 C 2.4074144,3.3446914 2.3024487,3.5270972 2.2055741,3.7135544 l 0.00337,0.00337 0.032044,0.099506 0.089387,0.094447 c 0.028124,0.021875 0.068406,0.043306 0.094447,0.086014 0,0 0.027729,0.055211 0.037104,0.1062528 C 2.547342,3.9281451 2.6408519,3.7517913 2.741893,3.5820006 l -0.00506,0.00337 C 2.734743,3.5280756 2.711528,3.470683 2.711528,3.470683 2.689653,3.427975 2.651555,3.40709 2.625514,3.377923 L 2.542873,3.278417 Z m 10.2440935,0.057343 c -0.03229,0.00208 -0.09067,0.020834 -0.128177,0.035418 -0.0323,0.011462 -0.06975,0.037103 -0.119744,0.037103 0,0 -0.06027,-0.00174 -0.111314,-0.023612 0.1125,0.1666655 0.216576,0.3330489 0.310326,0.5059644 v -0.00674 c 0.05,0.026042 0.111312,0.033732 0.111312,0.033732 0.05104,0.00728 0.09043,-0.017609 0.124804,-0.026985 0.03541,-0.00728 0.09589,-0.021925 0.128179,-0.021925 0.03854,0.00418 0.09951,0.037104 0.09951,0.037104 -0.09142,-0.1888106 -0.195906,-0.3662551 -0.306957,-0.5447646 h -0.0051 v -0.00169 c 0,0 -0.06643,-0.023612 -0.10288,-0.023612 z M 2.1246198,3.875463 C 2.0360787,4.0619202 1.9542764,4.2520156 1.8834434,4.4488893 v 0.00507 l 0.04385,0.097819 0.104566,0.079269 c 0.030209,0.019792 0.072275,0.032292 0.1045656,0.070835 0,0 0.034971,0.052484 0.050596,0.1045657 C 2.2474371,4.6158179 2.3180284,4.4292946 2.396153,4.2532539 H 2.394463 C 2.3830101,4.2011629 2.3523039,4.1469972 2.3523039,4.1469972 2.324179,4.1011643 2.2815673,4.0896043 2.254484,4.0677294 L 2.158351,3.9783424 Z M 12.792037,3.926059 c 0.09063,0.1791655 0.172676,0.3628613 0.24455,0.5430685 v -0.00506 c 0.04479,0.033333 0.106253,0.050598 0.106253,0.050596 0.04896,0.00937 0.08835,-0.00764 0.124804,-0.011802 0.03854,-0.00521 0.100301,-0.01339 0.131551,-0.00507 0.03489,0.00822 0.08938,0.042857 0.09108,0.04385 -0.06652,-0.1930743 -0.143477,-0.3878883 -0.232746,-0.5768033 h -0.0017 c 0,0 -0.0637,-0.034625 -0.101193,-0.038791 -0.0323,0 -0.09133,0.00814 -0.129864,0.018553 -0.03542,0.00625 -0.07312,0.027134 -0.123117,0.021925 0,0 -0.06171,-0.010267 -0.109626,-0.040478 z m 0.300206,0.6931713 c 0.06667,0.1906239 0.124111,0.3783877 0.172028,0.5700532 v -0.00506 c 0.0427,0.035416 0.09951,0.062402 0.09951,0.062402 0.04583,0.016667 0.08938,0.00506 0.124798,0.00506 0.03751,0 0.100302,3.506e-4 0.13155,0.011802 0.03566,0.011198 0.08382,0.053698 0.08601,0.055657 C 13.663729,5.11831 13.612129,4.9189608 13.549291,4.7170518 h -0.005 v -0.00169 c 0,0 -0.0563,-0.04018 -0.09276,-0.050596 -0.03125,-0.00521 -0.093,-0.00208 -0.131551,0 -0.03438,0.00208 -0.0748,0.021978 -0.124806,0.00843 0,0 -0.05705,-0.020637 -0.102878,-0.053969 z m 0.613904,0.6999173 c 4.73e-4,0.00224 0.0012,0.0045 0.0018,0.00674 v -0.00506 z M 1.8193546,4.6242905 C 1.7537302,4.8232477 1.6999061,5.0215778 1.6540729,5.2247015 l 0.00337,0.00169 0.057343,0.09276 c 0.023958,0.021875 0.076541,0.051837 0.1129987,0.067462 0.03125,0.011462 0.075896,0.022324 0.1113122,0.055657 0,0 0.042214,0.04534 0.064089,0.099507 0.035416,-0.1968737 0.080757,-0.3912351 0.1349238,-0.5818592 l -0.00337,0.00337 C 2.1170261,4.9122415 2.0807668,4.8637804 2.0807668,4.8637804 2.047434,4.8241969 2.0047227,4.811546 1.9745143,4.7980055 L 1.8665752,4.720424 Z m 2.7406407,0.026985 c -1.0041607,0 -1.6965124,0.9598229 -1.4892219,1.9108589 C 3.2103559,7.2027553 3.78842,7.7626557 4.4790411,7.6668231 4.3634173,7.2230757 4.5647231,6.7253303 5.0490943,6.6565807 5.6126326,6.5753317 5.941381,7.1549197 6.0559636,7.611167 6.2986704,7.555958 6.5614379,7.535867 6.7676869,7.515034 l 0.010116,-0.00169 C 6.7298897,6.5143948 5.9693621,4.6533585 4.5599953,4.6512755 Z m 6.2216767,0.00169 c -1.4104099,0 -2.1698951,1.8641614 -2.2178113,2.8620721 h 0.013493 c 0.202082,0.020834 0.4656427,0.045489 0.7083505,0.094447 0.1145816,-0.4489606 0.4422877,-1.0335092 1.0068678,-0.9512181 0.483331,0.068749 0.685678,0.568975 0.570055,1.0085559 0.688537,0.094791 1.268684,-0.4627781 1.408267,-1.101316 0.206249,-0.9520769 -0.485062,-1.9146258 -1.489222,-1.9125446 z m 2.518017,0.6948579 c 0.04375,0.1958321 0.07426,0.3877135 0.09613,0.5835455 l 0.0018,-0.00337 c 0.03751,0.042709 0.08938,0.070835 0.08938,0.070835 0.04479,0.021875 0.0877,0.018801 0.123125,0.021925 0.03854,0.00625 0.10005,0.018899 0.128179,0.030359 l 0.07927,0.065775 c -0.01459,-0.2036347 -0.03953,-0.4098964 -0.07589,-0.61559 h -0.005 c 0,0 -0.05059,-0.048216 -0.08601,-0.060716 -0.02916,-0.010418 -0.09172,-0.018553 -0.128178,-0.018553 -0.03645,-0.00418 -0.07962,0.00799 -0.126491,-0.011802 0,0 -0.05551,-0.022819 -0.09613,-0.062403 z M 1.6169688,5.4051634 C 1.5785927,5.608798 1.5523799,5.8150579 1.5326414,6.0207535 l 0.00337,0.00674 0.067462,0.082641 c 0.025,0.016667 0.082245,0.034326 0.1197449,0.04891 0.033333,0.012506 0.078475,0.013393 0.1180585,0.040478 0,0 0.046729,0.038743 0.075895,0.087701 0.010416,-0.1989572 0.028821,-0.3938148 0.059029,-0.5886053 l -0.00337,0.00506 C 1.9488736,5.6526485 1.9053683,5.6092428 1.9053683,5.6092428 1.8668265,5.5769517 1.8257029,5.5688151 1.7923695,5.5552734 L 1.6776843,5.4894967 Z M 3.900555,5.4270874 4.1838952,5.7087409 4.5380702,5.5249071 4.3609826,5.8790822 4.6426362,6.1641088 4.2496705,6.10002 4.0708963,6.4575682 4.0068076,6.0679757 3.6121553,6.0038868 3.9663304,5.8217395 Z m 7.537184,0.00169 -0.06409,0.3929657 0.35249,0.1855204 -0.392966,0.059027 -0.06578,0.3929657 -0.175399,-0.3558649 -0.396339,0.060716 0.28334,-0.2816536 -0.177088,-0.3541751 0.354176,0.1787742 z m 1.971574,0.6661854 c 0.01647,0.196699 0.02313,0.3922563 0.02024,0.5869188 0.03021,0.048958 0.07926,0.084328 0.07926,0.084328 0.0427,0.027082 0.08705,0.027333 0.121427,0.038791 0.03854,0.010418 0.09604,0.028871 0.123112,0.045537 l 0.06915,0.077582 c 0.01246,-0.2036488 0.01379,-0.4141745 0.0034,-0.6240229 l -0.0018,-0.00337 -0.07926,-0.069148 c -0.02709,-0.016667 -0.08626,-0.028771 -0.124811,-0.037104 -0.03645,-0.00418 -0.07937,0.00164 -0.123125,-0.020238 0,0 -0.05229,-0.034477 -0.0877,-0.079269 z M 1.5174625,6.206272 c -0.0125,0.2083321 -0.011703,0.4152939 -0.00337,0.6257094 l 0.00168,0.00337 0.077581,0.070835 c 0.029166,0.015625 0.090678,0.027085 0.1281777,0.035418 0.034375,0.00833 0.07664,0.00135 0.1214314,0.025298 0,0 0.053325,0.031103 0.087701,0.075894 -0.01771,-0.1989537 -0.021679,-0.3953492 -0.018554,-0.5953481 l -0.00168,0.00674 C 1.8781393,6.4073235 1.8311604,6.3698677 1.8311604,6.3698677 1.7894941,6.3427842 1.7441038,6.3417412 1.7097291,6.33445 c -0.0375,-0.014584 -0.09539,-0.032243 -0.1214315,-0.04891 z M 13.424493,6.8471608 c -0.01145,0.1999988 -0.03051,0.3982295 -0.06071,0.5919784 l 0.0034,-0.00506 c 0.025,0.046875 0.06746,0.09276 0.06746,0.09276 0.03854,0.033333 0.08343,0.0377 0.114683,0.052282 0.03645,0.018751 0.08968,0.042611 0.114683,0.062402 l 0.05903,0.091073 c 0.03854,-0.2052072 0.06831,-0.4102345 0.08601,-0.6206497 l -0.0034,-0.00169 -0.06746,-0.084328 c -0.02605,-0.018751 -0.08328,-0.037452 -0.119741,-0.04891 -0.03437,-0.010418 -0.07911,-0.011953 -0.11974,-0.042164 0,0 -0.04713,-0.038742 -0.07421,-0.087701 z M 1.5242088,7.0175022 c 0.015639,0.20673 0.040572,0.4132666 0.075895,0.6189632 h 0.00337 c 0,0 0.051243,0.049902 0.087701,0.062402 0.03125,0.00833 0.092365,0.01374 0.1298642,0.016866 0.035416,0 0.077534,-0.00863 0.126491,0.010116 0,0 0.054864,0.024109 0.094447,0.065775 C 2.0003097,7.5957916 1.9683628,7.3984537 1.947529,7.2047047 l -0.00337,0.00674 c -0.035416,-0.045833 -0.087701,-0.072525 -0.087701,-0.072525 -0.045833,-0.025 -0.089388,-0.021925 -0.1248045,-0.021925 -0.0375,-0.0073 -0.098366,-0.017065 -0.1264912,-0.033732 z M 13.340165,7.5976747 c -0.03645,0.1937487 -0.08036,0.3905903 -0.13661,0.5801726 l 0.0033,-0.00506 c 0.01771,0.053125 0.05397,0.099506 0.05397,0.099506 0.03333,0.039584 0.07708,0.05144 0.106253,0.069148 l 0.106253,0.077582 0.0489,0.091073 c 0.06512,-0.1947389 0.120106,-0.3937035 0.163598,-0.5987304 l -0.0034,-0.00506 -0.05566,-0.087701 c -0.02291,-0.021875 -0.07758,-0.050151 -0.112997,-0.065776 -0.03021,-0.016667 -0.07694,-0.021928 -0.111311,-0.057343 0,0 -0.04157,-0.045737 -0.06241,-0.097819 z m -5.6718614,0.065775 c -1.053119,0 -1.9074859,0.1564082 -1.9074859,0.3491154 0,0.1927072 0.8543671,0.347429 1.9074859,0.3474289 1.0520771,0 1.9074858,-0.1547217 1.9074858,-0.3474289 0,-0.1927072 -0.854367,-0.3491154 -1.9074858,-0.3491154 z M 1.6355209,7.8101798 c 0.041666,0.2041654 0.093308,0.4092417 0.156849,0.6071573 h 0.00337 v 0.00169 c 0,0 0.05526,0.04018 0.09276,0.050598 0.03125,0.010418 0.093009,0.00521 0.1315506,0 0.034375,-0.00104 0.076491,-0.017808 0.1264912,-0.00843 0,0 0.058087,0.020884 0.1028797,0.057343 -0.066302,-0.1906326 -0.1242664,-0.3808159 -0.1720244,-0.56837 -0.040625,-0.03438 -0.09782,-0.057342 -0.09782,-0.057342 -0.048958,-0.017708 -0.09172,-0.00739 -0.1281777,-0.00843 -0.038541,0 -0.098614,-0.00347 -0.1298642,-0.011802 z m 6.0327827,0.052283 c 0.9114528,0 1.6477576,0.09177 1.6477576,0.1501027 0,0.057291 -0.731245,0.1416701 -1.642698,0.1416701 -0.9093698,0 -1.6545037,-0.084379 -1.6545037,-0.1416701 0,-0.058333 0.7390327,-0.1501027 1.6494441,-0.1501027 z M 13.195122,8.3178307 C 13.122202,8.5022046 13.038866,8.6808406 12.9472,8.8558395 l 0.0033,-0.00337 c 0.0062,0.055207 0.03542,0.1079388 0.03542,0.1079388 0.02292,0.043748 0.06269,0.066474 0.0877,0.089383 l 0.08938,0.096133 0.02699,0.1045656 C 13.294182,9.07237 13.387917,8.8835133 13.473333,8.6939314 l -0.0018,-0.00506 -0.0371,-0.099507 -0.09614,-0.0877 c -0.02812,-0.020833 -0.06969,-0.035915 -0.09782,-0.077582 0,0 -0.03305,-0.052086 -0.04554,-0.1062528 z M 6.1200523,8.4207104 c -0.1,0.6229127 -0.6225499,0.8780392 -1.1350468,0.6290826 0.034375,0.4156221 0.3717975,0.8011107 0.8061699,0.8011107 0.5966693,0 0.9444353,-0.9121678 0.9883173,-1.3290005 -0.242707,-0.023958 -0.4667331,-0.056302 -0.6594404,-0.09276 z m 3.0948155,0.00337 v 0.00169 c 0.00145,-2.861e-4 0.00362,2.868e-4 0.00507,0 z m 0,0.00169 c -0.1922864,0.038071 -0.4151228,0.07135 -0.6594399,0.096138 0.048019,0.4198903 0.3930843,1.3188808 0.9866309,1.3188808 0.4343732,0 0.7717952,-0.3821149 0.8061692,-0.7977371 C 9.8393317,9.2865679 9.3217854,9.0318387 9.2148678,8.4257704 Z m -0.6594399,0.096138 c -1.006e-4,-8.79e-4 9.79e-5,-0.0025 0,-0.00337 l -0.00169,0.00337 z m -1.6022207,0.01686 C 6.9021657,8.9314746 6.738758,9.4188129 6.4168848,9.8677682 6.6377169,10.354223 7.1599732,10.828413 7.6683036,11.053412 8.1766339,10.828413 8.70018,10.354223 8.9230953,9.8677682 8.6012222,9.4177713 8.4378143,8.9314746 8.3867729,8.5387687 8.1992742,8.5543936 8.0023332,8.5606938 7.7981678,8.5606938 7.7721263,8.9138164 7.7720728,9.6622201 7.6699902,10.068468 7.568949,9.6611786 7.5684987,8.9138164 7.5434989,8.5606938 c -0.205207,0 -0.4048762,-0.0063 -0.5902917,-0.021925 z m -5.1034947,0.052283 c 0.066666,0.1958321 0.1458891,0.3905904 0.2344302,0.5801727 l 0.00169,0.00335 c 0,0 0.063693,0.031256 0.1011925,0.03542 0.031251,0.00421 0.092364,-0.00852 0.1298643,-0.016867 0.035416,-0.00833 0.073763,-0.027781 0.1248046,-0.023616 0,0 0.060668,0.012104 0.109626,0.037105 C 2.4596503,9.0306018 2.3776,8.8510721 2.306767,8.6635732 v 0.00843 C 2.259892,8.6407562 2.2005141,8.6264662 2.2005141,8.6264662 c -0.05,-0.011462 -0.089388,0.00595 -0.1248046,0.010116 -0.03854,0.00418 -0.1003008,0.00794 -0.1315506,0.00169 -0.037499,-0.00625 -0.094447,-0.047223 -0.094447,-0.047223 z M 12.879738,9.0312403 c -0.08438,0.183333 -0.178529,0.3584956 -0.281654,0.5262037 l 0.0051,-0.00335 c 0.0021,0.055207 0.0253,0.111312 0.0253,0.111312 0.02187,0.044792 0.06102,0.065681 0.08601,0.092763 l 0.08264,0.1011925 0.02192,0.1045656 C 12.932624,9.7920526 13.036525,9.609247 13.134443,9.425914 l -0.0017,-0.00671 -0.03036,-0.099507 -0.09276,-0.094447 c -0.02708,-0.022918 -0.06776,-0.04058 -0.09276,-0.084328 0,0 -0.02877,-0.052335 -0.0371,-0.1096248 z M 2.5142125,9.3247 C 2.4652545,9.31847 2.4288425,9.34375 2.3944669,9.350002 2.3559249,9.361464 2.2941665,9.371924 2.2629162,9.371924 2.2264592,9.365694 2.1634112,9.338187 2.1634112,9.338187 2.2561182,9.5236031 2.3589053,9.7031319 2.4703631,9.8812553 h 0.00506 c 0,0 0.063693,0.021922 0.1011924,0.021922 0.031251,-0.00105 0.091322,-0.020583 0.1298642,-0.032041 0.031251,-0.012506 0.067018,-0.03879 0.1180583,-0.03879 0,0 0.060916,0.0021 0.1129992,0.021922 C 2.8239951,9.6896936 2.7203158,9.5239557 2.6255247,9.3499985 v 0.00679 C 2.5765667,9.3307505 2.5142127,9.3247375 2.5142127,9.3247375 Z M 12.512071,9.6906806 C 12.403737,9.8604717 12.289245,10.017429 12.166328,10.17472 l 0.0051,-0.0017 c -0.0041,0.05625 0.0118,0.112999 0.0118,0.112999 0.01563,0.04791 0.05104,0.07515 0.07084,0.101194 l 0.06914,0.112998 c 0.01354,0.03646 0.0084,0.106253 0.0084,0.106253 0.136457,-0.154166 0.262014,-0.320598 0.382846,-0.492472 l -0.0017,-0.0017 -0.01687,-0.106253 -0.08095,-0.107939 c -0.02395,-0.023961 -0.06052,-0.047319 -0.07926,-0.091077 0,0 -0.02256,-0.060118 -0.02362,-0.1163724 z m -9.59646,0.283341 c -0.05,0.00316 -0.084726,0.027579 -0.1180583,0.042159 -0.036458,0.01667 -0.092514,0.03463 -0.1248047,0.03879 -0.03692,0.002 -0.1008741,-0.02124 -0.1028797,-0.02192 0.1173122,0.17221 0.2405449,0.337978 0.3744137,0.500903 h 0.00506 v 0.0017 c 0,0 0.067711,0.01131 0.1062528,0.0051 l 0.1197405,-0.04892 c 0.032291,-0.01458 0.065727,-0.04668 0.1146852,-0.05397 0,0 0.060519,-0.0058 0.1146851,0.0067 C 3.2713771,10.296643 3.1442339,10.144397 3.0286097,9.9891899 l 0.00169,0.00507 C 2.9771679,9.97343 2.9156105,9.9740226 2.915611,9.9740216 Z m 9.149524,0.3238164 c -0.129165,0.155207 -0.26479,0.298027 -0.406459,0.433443 h 0.0051 c -0.01146,0.05104 -0.0033,0.112998 -0.0033,0.112998 0.0083,0.05208 0.04133,0.0807 0.05903,0.112999 l 0.05228,0.118059 c 0.0082,0.03794 -0.0047,0.104166 -0.0051,0.106252 0.153535,-0.140111 0.302434,-0.284276 0.443558,-0.436816 v -0.0068 c 0,0 0.0063,-0.06786 -0.0051,-0.101192 l -0.06411,-0.11468 c -0.02188,-0.03333 -0.05729,-0.06002 -0.07084,-0.107938 0,0 -0.01238,-0.05908 -0.0051,-0.116373 z m -8.552486,0.264788 0.00169,0.0051 c -0.054167,-0.01251 -0.1146851,-0.0017 -0.1146851,-0.0017 -0.048958,0.0073 -0.079417,0.04132 -0.109626,0.05903 l -0.1214315,0.05229 c -0.036458,0.0083 -0.1045657,-0.0051 -0.1045657,-0.0051 0.1364577,0.155208 0.2816087,0.301894 0.4368161,0.443562 h 0.00506 c 0,0 0.070836,0.0059 0.1062529,-0.0033 l 0.1129992,-0.06407 c 0.028124,-0.02188 0.056649,-0.05561 0.1045656,-0.06915 0,0 0.061165,-0.01472 0.1163724,-0.0084 C 3.7940094,10.842586 3.6491065,10.705334 3.512649,10.562626 Z m 8.02797,0.281654 c -0.146875,0.134373 -0.300409,0.255664 -0.458741,0.374413 h 0.0067 c -0.0198,0.04896 -0.02024,0.111313 -0.02024,0.111313 0.0031,0.05312 0.03134,0.08745 0.04385,0.119744 0.01562,0.03438 0.03567,0.09212 0.03879,0.126492 0.0021,0.03645 -0.02024,0.102881 -0.02024,0.102881 0.169791,-0.115627 0.335033,-0.241726 0.497531,-0.3761 v -0.0051 h -0.0017 c 0,0 0.01637,-0.06667 0.01012,-0.106253 l -0.04891,-0.119746 c -0.01667,-0.0323 -0.04772,-0.06677 -0.05397,-0.114684 0,0 -0.0056,-0.06091 0.0067,-0.112999 z m -7.4697227,0.22937 0.00169,0.0067 c -0.055208,-0.0062 -0.1146851,0.0118 -0.1146851,0.0118 -0.046875,0.01354 -0.073713,0.05065 -0.1028797,0.07253 l -0.111312,0.06746 c -0.034733,0.0119 -0.09512,0.0088 -0.1011925,0.0084 0.1553494,0.138357 0.3168133,0.264291 0.4874124,0.384533 l 0.00506,-0.0034 0.1028797,-0.01687 0.1062529,-0.08095 c 0.026042,-0.02187 0.048613,-0.06116 0.094447,-0.08096 0,0 0.058436,-0.02049 0.1146851,-0.02362 C 4.384506,11.313106 4.2250679,11.195486 4.0709021,11.073612 Z m -0.428383,0.166969 c -0.0021,-0.0019 -0.00464,-0.0032 -0.00674,-0.0051 l 0.00169,0.0051 c 0,0 0.00476,-1.6e-5 0.00506,0 z m 7.3078137,0.06914 c -0.163541,0.116666 -0.332405,0.219552 -0.504278,0.315384 h 0.0051 c -0.02605,0.05 -0.03204,0.111311 -0.03204,0.111311 -0.0041,0.04896 0.01865,0.08874 0.02699,0.123112 0.0083,0.03541 0.02295,0.09757 0.02192,0.129864 -0.0021,0.0354 -0.03374,0.09782 -0.03374,0.09782 0.184374,-0.09167 0.365986,-0.19589 0.543069,-0.305264 v -0.005 c 0,0 0.02505,-0.06642 0.02192,-0.102881 0,-0.03437 -0.0185,-0.09445 -0.03204,-0.129864 -0.01251,-0.03541 -0.03775,-0.06911 -0.03879,-0.118058 0,0 5.3e-5,-0.06221 0.02192,-0.116371 z m -6.262154,0.19564 0.00337,0.0033 c -0.057291,0.0041 -0.1129992,0.02867 -0.1129992,0.02867 -0.044791,0.02084 -0.066718,0.05958 -0.09276,0.0877 l -0.10119,0.07759 -0.1045656,0.02192 c 0.1729156,0.115626 0.3519485,0.219155 0.5363223,0.31707 h 0.00674 l 0.1011925,-0.02699 0.09276,-0.09614 c 0.021875,-0.02604 0.041619,-0.06841 0.084328,-0.09445 0,0 0.053772,-0.03046 0.1079388,-0.03879 -0.1791684,-0.08228 -0.3523972,-0.176843 -0.5211462,-0.279968 z m 5.619578,0.19564 c -0.179166,0.09271 -0.3586949,0.172029 -0.5430682,0.242862 h 0.00674 c -0.032295,0.04584 -0.052282,0.104567 -0.052282,0.104567 -0.012506,0.05937 -0.010946,0.08548 -0.00674,0.128177 0.00414,0.03958 -0.00998,0.10263 -0.015179,0.134924 -0.00622,0.03542 -0.040477,0.102881 -0.040477,0.102881 0.1947903,-0.06667 0.4226352,-0.154966 0.6122172,-0.244548 v -0.005 -0.0018 c 0,0 0.03463,-0.06136 0.03879,-0.09782 0.0021,-0.0323 -0.0075,-0.09157 -0.01687,-0.133238 -0.0073,-0.0323 -0.02609,-0.07104 -0.02192,-0.123112 0,0 0.01067,-0.06003 0.03879,-0.107939 z m -1.6207724,0.06241 c -0.1153734,0.0048 -0.4339712,0.122899 -0.5278896,0.209132 l -0.00674,-0.01007 c -0.00372,0.0042 8.947e-4,0.0107 -0.00169,0.01519 -0.00481,0.0048 -0.023865,0.0107 -0.026985,0.01519 l 0.023612,0.03036 c 0.00809,0.120269 0.2226243,0.295146 0.2226245,0.295146 0.1729169,-0.142714 0.3252109,-0.196687 0.441877,-0.160229 0.4020812,-0.175 0.4688601,-0.19058 0.4688601,-0.19058 -0.1572949,-0.175063 -0.3207539,-0.215594 -0.593669,-0.204135 z m -1.6258323,0.06578 c -0.047916,0.0062 -0.1110641,-0.01183 -0.1433567,0.0371 0,0 -0.2177605,0.272232 -0.1281777,0.365981 0.073958,-0.02603 0.168211,-0.0092 0.2546688,-0.005 0.085416,0.0021 0.1975762,0.01095 0.2715343,0.04216 l 0.062403,0.0253 c 10e-8,0 0.1275852,-0.018 0.2192513,-0.09614 L 7.7054081,12.11598 C 7.6356171,11.96283 7.2996869,11.803198 7.0611467,11.829241 Z m -0.3946523,0.0018 -0.1231174,0.03036 c -0.2645817,0.07084 -0.5010577,0.253186 -0.6375152,0.48235 h 0.00337 c 0,0 0.065633,0.329226 0.2833401,0.340684 0.041667,-0.134375 0.2288283,-0.293561 0.3423694,-0.372727 l 0.042163,-0.05398 c -0.035416,-0.274998 0.089387,-0.426696 0.089387,-0.426697 z m -1.3087614,0.02192 0.00506,0.005 c -0.055207,0.0083 -0.109626,0.04048 -0.109626,0.04048 -0.042709,0.02812 -0.058435,0.068 -0.079267,0.09614 l -0.091073,0.09614 -0.096133,0.03373 c 0.1829517,0.09175 0.3748599,0.1747 0.570059,0.242864 l 0.00337,-0.005 0.094447,-0.04048 0.084328,-0.106253 c 0.017708,-0.02812 0.029566,-0.06891 0.069148,-0.101195 0,0 0.0504,-0.03434 0.1045656,-0.04891 C 5.7230281,12.000841 5.5369017,11.93 5.3577361,11.852917 Z m -0.3710405,0.2715 c -0.00157,-7.88e-4 -0.0035,-8.98e-4 -0.00506,-0.0018 v 0.0034 z m 4.5823515,-0.126526 c -0.1895825,0.06354 -0.4625166,0.171038 -0.6375155,0.264787 -0.040625,0.02083 -0.080955,0.04216 -0.080955,0.04216 -0.018751,0.04687 -0.025298,0.08705 -0.025298,0.121427 -0.00208,0.03645 -0.00843,0.09261 -0.00843,0.133235 0,0.08333 -0.077582,0.199013 -0.077582,0.199013 0.2041654,-0.03333 0.459937,-0.15467 0.6307692,-0.254668 l 0.1028784,-0.05059 c 0,0 0.015921,-0.04177 0.025298,-0.07926 0.00622,-0.03125 0.017911,-0.0707 0.016867,-0.111311 -0.00311,-0.03228 -0.02937,-0.06404 -0.016867,-0.112997 0,0 0.036459,-0.108039 0.070837,-0.15179 z m -1.5398188,0.02699 c -0.2947898,0.257292 -0.4133603,0.386218 -0.6560671,0.386221 -0.061458,0.01245 -0.00843,0.0018 -0.00843,0.0018 -0.030209,0.03958 -0.049903,0.09042 -0.062403,0.124798 -0.011462,0.03645 -0.023612,0.07798 -0.023612,0.111311 -0.00313,0.102088 0.00506,0.133238 0.00506,0.133238 0.266665,0.01667 0.2487234,0.02411 0.4924722,-0.04048 0,0 0.1680643,-0.0647 0.3305634,-0.220937 L 8.241732,12.404495 c 0,0 -0.2614629,-0.223224 -0.2125049,-0.379473 z m -1.3340595,0.318755 c -0.0625,0.01667 -0.1496568,0.075 -0.1652818,0.106253 l -0.072522,0.07252 -0.070835,0.08601 c 0.1999989,0.08854 0.5703569,0.198913 0.7724391,0.190579 0,0 -0.029565,-0.0023 0.00169,-0.158535 0.011462,-0.04584 0.027581,-0.07694 0.042164,-0.111311 0.013542,-0.03437 0.030111,-0.08017 0.062402,-0.11974 l -0.075894,0.005 c -0.1999987,-0.01667 -0.302493,-0.03437 -0.4941586,-0.07084 z m 1.9951865,0.0253 c -0.040625,0.02188 -0.258042,0.09445 -0.258042,0.09445 -0.059375,0.01354 -0.099507,0.02362 -0.099507,0.02362 l -0.087701,0.07758 c -0.017708,0.01459 -0.060419,0.0519 -0.1062528,0.08938 l -0.1501027,0.09782 c -0.03125,0.01667 0.1970392,0.09489 0.5616204,0.04386 l 0.00507,-0.005 0.060716,-0.08432 c 0.013542,-0.03021 0.039039,-0.101195 0.042163,-0.13661 0.00313,-0.03645 0.014137,-0.06003 0.015179,-0.107939 0,0 1.989e-4,-0.05006 0.016866,-0.09276 z m -2.8671319,0.144999 c -0.0375,0.108329 -0.059276,0.221289 -0.062403,0.338997 -0.00418,0.214583 0.05928,0.419856 0.1686548,0.588606 h 0.00337 c 0.00104,0.0011 0.2141468,0.04546 0.3693542,0.0018 0.044791,-0.01246 0.088942,-0.05143 0.1045657,-0.06915 h 0.00169 C 6.2563719,13.255357 6.1597361,13.068037 6.1639025,12.859705 5.8857793,12.827413 5.8232199,12.513962 5.8232199,12.513962 Z m 3.7812407,0.04555 -0.4435623,0.204072 c 0.00622,0.01979 0.074005,0.145048 -0.048909,0.286714 l 0.4047718,0.219251 c 0.2260399,-0.258332 0.1304085,-0.56733 0.087699,-0.710037 z m -2.8401468,0.359229 c -0.1664054,-0.01132 -0.323151,0.003 -0.4351295,0.04722 l 0.055657,0.101195 0.1517893,0.209132 0.1720279,-0.01855 c 0.00521,0 0.1352242,0.0038 0.2310571,0.05059 L 7.2567862,13.023307 C 7.107308,12.967054 6.9307195,12.930063 6.7643142,12.91874 Z m 1.7455772,0.01855 c -0.1843739,-0.0052 -0.5062147,0.05015 -0.5801726,0.172029 0,0 0.2780377,0.05358 0.451995,0.232742 0.016667,0.0146 0.091079,-0.0042 0.2681611,0.03542 0,0.0052 0.2974332,-0.276639 0.4890992,-0.192266 l -0.042164,-0.03878 C 8.9238945,13.018293 8.7161398,12.944579 8.509891,12.937285 Z m -1.0254212,0.145043 -0.3794733,0.264788 0.4536814,0.153476 c 0.1374993,0.0323 0.1738683,0.09833 0.3457423,0.21082 0,0 0.401296,-0.23111 0.2867132,-0.323818 C 7.9307183,13.180304 7.6750936,13.14587 7.4844698,13.082329 Z m -1.7911141,0.178774 -0.080955,0.03036 c -0.075757,0.0421 -0.1311274,0.08873 -0.1754009,0.134924 -0.045834,0.04479 -0.1282302,0.151247 -0.2209379,0.264788 h 0.00169 c 0.2166653,-0.187499 0.4958451,0.138297 0.4958451,0.138297 l 0.082641,-0.08095 c 0,0 0.052881,-0.05194 0.1382968,-0.111311 C 5.7480741,13.533049 5.6923097,13.26215 5.6933546,13.261112 Z m 3.4405579,0.02362 c -0.213133,-0.005 -0.3255035,0.155157 -0.3255035,0.155157 0.2302071,0.112506 0.4115179,0.364296 0.4115179,0.364296 l 0.053969,0.09276 c 0.00312,-0.0034 0.2899467,-0.313212 0.4992182,-0.116368 -0.088542,-0.118747 -0.1643412,-0.221686 -0.2091323,-0.266477 -0.036458,-0.04376 -0.1015423,-0.09852 -0.1838333,-0.156849 -0.093489,-0.05052 -0.1751921,-0.07086 -0.2462367,-0.07252 z m 0.139984,0.612218 -0.00169,0.0018 0.00507,0.005 z M 8.3665344,13.460128 c 0.015625,0.115627 -0.320444,0.337311 -0.320444,0.337311 0.1968738,0.122911 0.3600335,0.139068 0.5329491,0.134923 0,0 0.2433634,-0.01057 0.3912792,-0.158535 -0.1520824,-0.09375 -0.2337885,-0.295145 -0.2327437,-0.295145 -0.060416,0.04167 -0.2939573,0.0012 -0.3710406,-0.01856 z m -1.8029198,0.0034 c -0.059375,0.191666 -0.489099,0.148416 -0.489099,0.148415 0.1520824,0.15 0.3572571,0.258837 0.5801724,0.290087 l -0.00337,-0.005 c 0,0 0.239144,-0.05113 0.2512957,-0.396339 -0.038059,0.0042 -0.078003,0.0084 -0.1180584,0.0084 -0.078124,0 -0.1521881,-0.01844 -0.2209378,-0.04553 z m 0.338996,0.0371 h 0.00169 v -0.005 c -5.76e-5,0.0021 -0.00161,0.003 -0.00169,0.005 z m 0.1399837,-0.03036 -0.00843,0.0034 0.00843,-0.0018 c 0.1135414,0.274997 -0.1433567,0.460427 -0.1433567,0.460427 0.3447897,0.08958 0.7353349,-0.27828 0.7353349,-0.27828 0,0 -0.06271,-0.05625 -0.406458,-0.14167 z m -1.7708756,0.315343 c -0.061718,0.0039 -0.1298663,0.02911 -0.2006994,0.0877 l 0.3052653,0.281654 0.2125051,-0.207447 c 0,0 -0.1319157,-0.173773 -0.317071,-0.161908 z m 4.4406809,0.08432 C 9.5281235,13.851331 9.3902688,14.02172 9.3902688,14.02172 l 0.2040731,0.212505 0.3153841,-0.269848 c -0.068228,-0.06119 -0.1359004,-0.08824 -0.1973264,-0.09444 z m -4.7054691,0.09445 -0.038791,0.04385 0.2799671,0.269849 0.038791,-0.04386 z m -0.1129991,0.09782 c -0.096875,0.06563 -0.156849,0.118055 -0.156849,0.118055 l 0.3120113,0.369353 0.1298642,-0.19564 z m 5.0613304,0.01007 -0.291772,0.259727 0.042163,0.04386 0.2883994,-0.258042 z m 0.1248062,0.09107 -0.2951465,0.279967 0.1231175,0.199013 0.325503,-0.352489 c 0,0 -0.05868,-0.05878 -0.153474,-0.126491 z"
     id="line7"
     inkscape:connector-curvature="0" /></svg>