<?xml version="1.0" encoding="UTF-8" standalone="no"?>
<!-- Generado por Andres Lacquaniti  -->

<svg
   xmlns:dc="http://purl.org/dc/elements/1.1/"
   xmlns:cc="http://creativecommons.org/ns#"
   xmlns:rdf="http://www.w3.org/1999/02/22-rdf-syntax-ns#"
   xmlns:svg="http://www.w3.org/2000/svg"
   xmlns="http://www.w3.org/2000/svg"
   xmlns:sodipodi="http://sodipodi.sourceforge.net/DTD/sodipodi-0.dtd"
   xmlns:inkscape="http://www.inkscape.org/namespaces/inkscape"
   version="1.1"
   id="Layer_1"
   x="0px"
   y="0px"
   width="15px"
   height="15px"
   viewBox="0 0 15 15"
   style="enable-background:new 0 0 15 15;"
   xml:space="preserve"
   sodipodi:docname="saac-insignia-scout.svg"
   inkscape:version="0.92.0 r15299"><metadata
     id="metadata9"><rdf:RDF><cc:Work
         rdf:about=""><dc:format>image/svg+xml</dc:format><dc:type
           rdf:resource="http://purl.org/dc/dcmitype/StillImage" /><dc:title></dc:title></cc:Work></rdf:RDF></metadata><defs
     id="defs7" /><sodipodi:namedview
     pagecolor="#ffffff"
     bordercolor="#666666"
     borderopacity="1"
     objecttolerance="10"
     gridtolerance="10"
     guidetolerance="10"
     inkscape:pageopacity="0"
     inkscape:pageshadow="2"
     inkscape:window-width="1920"
     inkscape:window-height="996"
     id="namedview5"
     showgrid="false"
     inkscape:zoom="31.466667"
     inkscape:cx="1.2162508"
     inkscape:cy="9.9114348"
     inkscape:window-x="-8"
     inkscape:window-y="-8"
     inkscape:window-maximized="1"
     inkscape:current-layer="Layer_1" /><path
     style="fill:#000000;fill-rule:evenodd;stroke:none;stroke-width:0.11468203"
     d="M 8.0273438 0.11914062 L 6.859375 3.265625 L 6.84375 3.2871094 L 5.75 2.0390625 L 5.9980469 3.7753906 L 2.9160156 2.3925781 L 4.2734375 5.2714844 L 2.6171875 5.2148438 L 3.8945312 6.4082031 L 3.90625 6.4394531 L 0.48242188 7.6503906 L 3.6894531 8.8203125 L 3.7109375 8.8242188 L 2.609375 9.8769531 L 4.2871094 9.8359375 L 3.3144531 11.830078 L 3.2285156 11.935547 L 3.2460938 11.974609 L 2.8085938 12.869141 L 3.7363281 12.421875 L 3.8417969 12.378906 L 5.890625 11.380859 L 5.8105469 13.097656 L 6.0195312 12.886719 C 6.2006141 12.678457 6.7597656 10.944236 6.7597656 10.476562 L 6.7597656 10.287109 C 6.7597656 9.3643773 6.11556 9.3359375 5.2167969 9.3359375 L 4.9980469 7.6269531 L 5.0253906 7.6230469 L 5.0253906 7.2421875 C 5.0253906 6.8816272 5.0706535 6.7589944 5.1953125 6.5234375 C 5.5294959 6.6013065 6.4545349 7.4376679 6.6621094 7.7207031 C 7.0680838 8.274388 7.3300781 8.7664269 7.3300781 9.7167969 C 7.3300781 10.274955 7.1091966 10.908031 6.9472656 11.320312 C 6.8588456 11.545777 6.7350948 11.770049 6.625 11.992188 C 6.556879 12.129691 6.2976354 12.520729 6.2734375 12.611328 L 7.0625 11.814453 L 7.2226562 12.306641 C 7.2166944 12.314464 7.2089305 12.335118 7.203125 12.341797 L 7.1992188 12.345703 L 6.5839844 13.34375 L 7.453125 13.003906 L 8.0117188 14.710938 L 8.0273438 12.71875 L 8.0585938 12.703125 L 8.4550781 12.410156 C 8.5503034 12.716571 8.9160156 13.241284 8.9160156 13.373047 L 8.9160156 13.521484 C 8.9160156 13.636395 8.8756849 13.635095 8.8730469 13.753906 C 8.981192 13.725006 9.0429688 13.591323 9.0429688 13.457031 L 9.0429688 13.289062 C 9.0429688 13.086533 8.9134661 12.882082 8.8378906 12.732422 C 8.7842296 12.62602 8.7023764 12.290196 8.6816406 12.208984 L 8.7070312 12.185547 L 8.7089844 12.179688 C 8.7522264 12.115148 8.8660409 11.988366 8.9667969 11.855469 C 9.0597717 11.732834 9.1410495 11.605784 9.1542969 11.480469 C 9.2115496 11.587644 9.2650544 11.693816 9.3242188 11.800781 C 9.4473873 12.023609 10.073653 13.359439 10.205078 13.394531 C 10.254618 13.291432 9.630697 11.9317 9.5410156 11.710938 C 9.4230078 11.420219 9.3003365 11.157559 9.1816406 10.865234 C 9.0947116 10.651352 8.8753811 10.219332 8.8320312 10.033203 L 8.703125 10.097656 L 9.203125 11.253906 L 9.1796875 11.265625 L 8.59375 10.140625 L 8.4902344 10.179688 C 8.485391 10.164314 8.4679381 10.138295 8.4648438 10.125 L 8.4628906 10.119141 L 8.4628906 10.117188 L 8.8613281 9.9492188 L 8.8632812 9.9550781 L 8.8730469 9.9648438 C 8.8884299 9.9825507 8.9404359 10.067414 8.9902344 10.152344 C 9.0400324 10.237274 9.0923173 10.325092 9.1269531 10.376953 C 9.1604951 10.427233 9.2162631 10.504602 9.2773438 10.578125 C 9.3384247 10.651645 9.3997005 10.720695 9.4550781 10.757812 L 9.6132812 10.863281 L 9.484375 10.556641 C 9.8124817 10.856421 9.9419178 11.341828 10.21875 11.710938 C 10.382172 11.929063 10.568859 12.042115 10.78125 12.205078 C 10.906138 12.300838 10.961336 12.328132 11.054688 12.458984 C 11.146657 12.587658 11.098982 12.797498 11.199219 12.824219 C 11.210229 12.776859 11.220703 12.773914 11.220703 12.716797 L 11.220703 12.632812 C 11.220703 12.291863 10.929442 12.051993 10.730469 11.896484 C 10.515785 11.728589 10.344456 11.456443 10.226562 11.195312 C 10.092958 10.899547 10.0211 10.64181 9.8085938 10.408203 C 9.6481535 10.232052 9.3573493 9.9532307 9.2539062 9.7578125 L 9.2109375 9.8125 L 9.1835938 9.7421875 L 9.1816406 9.7226562 C 9.3924509 9.611264 9.6913354 9.1834757 9.7832031 8.9980469 C 9.9251795 8.7114565 10.078125 8.3031115 10.078125 7.8769531 L 10.078125 7.6855469 L 9.9824219 7.1308594 C 9.983823 7.1305237 9.9849249 7.1292331 9.9863281 7.1289062 L 9.9882812 7.1289062 L 10.039062 7.1113281 L 10.039062 7.1289062 L 10.347656 7.0664062 C 10.407071 7.0687567 10.476567 7.0701697 10.492188 7.0800781 L 10.501953 7.0859375 L 10.583984 7.0957031 C 10.501809 7.1314104 10.411698 7.1711236 10.345703 7.1933594 C 10.106476 7.2736364 10.080801 7.1645869 10.099609 7.390625 C 10.741714 7.2410797 11.033504 6.9667969 11.833984 6.9667969 C 12.749835 6.9667969 13.001025 6.4609375 13.503906 6.4609375 C 13.588536 6.4609375 13.695231 6.5042855 13.777344 6.5234375 C 13.766674 6.395567 13.542822 6.3339844 13.398438 6.3339844 C 12.918722 6.3339844 12.701399 6.6213002 12.255859 6.671875 C 12.035555 6.696876 11.788263 6.6942774 11.537109 6.6933594 C 11.295422 6.6924481 11.121704 6.7420366 10.951172 6.765625 L 11.125 6.3769531 L 11.146484 6.3222656 C 11.288292 6.2833332 12.104767 5.8910294 12.234375 5.8261719 C 12.426812 5.7299539 12.627543 5.6402332 12.826172 5.5507812 C 12.941313 5.4989453 13.366403 5.3392702 13.376953 5.2128906 L 13.369141 5.1933594 L 11.265625 5.9902344 L 11.445312 5.3535156 L 11.453125 5.3125 C 11.982705 5.1258171 12.087921 4.3242188 12.785156 4.3242188 C 12.767836 4.2593087 12.743982 4.2402344 12.658203 4.2402344 L 12.552734 4.2402344 C 12.140574 4.2402344 11.83988 4.7405397 11.515625 4.9550781 L 11.636719 3.6933594 L 11.636719 3.6328125 C 11.735016 3.5415587 11.911528 3.3448728 11.917969 3.2675781 C 11.806413 3.2700079 11.71815 3.3739564 11.636719 3.4492188 L 11.636719 3.1816406 L 11.546875 3.2421875 C 11.043455 3.5793013 10.643411 3.9428724 10.222656 4.3632812 C 10.017318 4.5683868 9.8336951 4.8066038 9.6582031 5.0371094 C 9.5871853 5.1303089 9.4979372 5.277199 9.40625 5.4140625 C 9.3145628 5.550926 9.2147406 5.6769804 9.1582031 5.7148438 L 9.1328125 5.7324219 L 9.1328125 5.8125 L 8.6699219 5.5390625 L 8.6738281 5.5332031 L 8.6757812 5.5214844 C 8.7338456 5.2724005 8.963248 4.8419188 9.2167969 4.4277344 C 9.4703457 4.0135499 9.7479186 3.6100884 9.9042969 3.3984375 C 10.123783 3.1014583 10.418442 2.7426813 10.673828 2.4902344 C 10.741248 2.4236254 10.937344 2.2335896 11.123047 2.0488281 C 11.215897 1.9564471 11.305429 1.8651107 11.376953 1.7910156 C 11.448473 1.7169206 11.497133 1.6672959 11.521484 1.6308594 L 11.601562 1.5097656 L 11.460938 1.5429688 C 11.185605 1.6071388 10.888186 1.6105738 10.597656 1.6992188 C 10.33128 1.7804632 10.076743 1.8222758 9.8242188 1.9257812 C 9.3311849 2.1278463 8.9279053 2.2934564 8.5058594 2.5722656 L 8.4726562 2.2753906 L 8.4726562 2.1054688 C 8.4726562 1.8813112 8.6264433 1.856409 8.6621094 1.703125 C 8.2968987 1.7335377 8.2857124 2.2726814 8.2851562 2.7109375 L 8.25 2.734375 L 8.0273438 2.9003906 L 8.0273438 0.11914062 z M 11.318359 1.6835938 C 11.306619 1.6960878 11.307952 1.6974435 11.294922 1.7109375 C 11.224382 1.7840185 11.133576 1.8747058 11.041016 1.9667969 C 10.855898 2.1509787 10.662226 2.3405535 10.59375 2.4082031 C 10.331003 2.6679262 10.034768 3.0293346 9.8125 3.3300781 C 9.6535027 3.5452737 9.3749234 3.9493539 9.1191406 4.3671875 C 8.8651341 4.7821196 8.6363272 5.2045518 8.5683594 5.4882812 C 8.4213498 5.7051685 8.2862855 6.162814 8.1777344 6.671875 C 8.0681074 7.1859811 7.9921875 7.7398231 7.9921875 8.109375 L 7.9921875 8.1523438 C 7.9921875 8.8076505 8.1442023 9.7105603 8.3574219 10.158203 C 8.3580248 10.159503 8.356818 10.162762 8.3574219 10.164062 C 8.4080809 10.367404 8.5834419 10.678158 8.6679688 10.847656 C 8.6814957 10.874826 8.7095399 10.923436 8.7480469 10.986328 C 8.7865539 11.049228 8.8329789 11.124136 8.8789062 11.197266 C 8.9248333 11.270396 8.9708023 11.340257 9.0039062 11.392578 C 9.0204583 11.418738 9.0334647 11.440018 9.0429688 11.455078 C 9.0467488 11.461078 9.0503844 11.46498 9.0527344 11.46875 C 9.0527344 11.54039 8.9716984 11.659564 8.875 11.787109 C 8.781546 11.910376 8.6794708 12.022054 8.6230469 12.103516 L 8.3925781 12.314453 L 7.9980469 12.605469 L 7.4121094 12.898438 L 6.8613281 13.111328 L 7.2890625 12.417969 C 7.4411165 12.242998 7.5840872 11.861789 7.6992188 11.4375 C 7.8143502 11.013211 7.8945314 10.550379 7.8945312 10.222656 L 7.8945312 9.96875 C 7.8945312 9.0878233 7.465633 8.0414498 7.1699219 7.4492188 C 6.9953377 7.0993557 6.7818665 6.7541463 6.5722656 6.4335938 C 6.3603392 6.1095507 6.0977286 5.8186131 5.8984375 5.5273438 C 6.0502553 5.296812 6.1796046 5.0668986 6.34375 4.8496094 C 6.5162936 4.621152 6.6875623 4.4067857 6.8574219 4.1777344 C 7.065618 3.8969652 7.7769233 3.2094481 8.0605469 3.0195312 L 8.3144531 2.8300781 L 8.5449219 2.6816406 L 8.546875 2.6816406 C 8.9666573 2.4004858 9.3648271 2.2371375 9.8671875 2.03125 C 10.104355 1.9340391 10.355708 1.8925143 10.630859 1.8085938 C 10.84793 1.7423617 11.084186 1.7225538 11.318359 1.6835938 z M 10.882812 2.5917969 C 10.636347 2.6039859 10.376761 3.0139932 10.318359 3.1914062 C 10.200351 3.5501316 10.080107 3.7642172 9.8417969 4.0019531 C 9.6202312 4.2228307 9.3883682 4.3940004 9.2207031 4.671875 C 9.0403082 4.970851 8.9420852 5.2172117 8.7460938 5.5097656 L 8.8535156 5.5507812 C 9.1175136 5.3739412 9.3963788 4.390699 9.71875 4.3046875 C 9.5604888 4.5409325 9.4467891 4.6104162 9.3105469 4.9316406 C 9.1949474 5.2040104 9.1083391 5.3929012 8.9804688 5.6347656 L 9.1054688 5.6992188 C 9.1240473 5.619515 9.437269 4.9926497 9.5 4.8671875 C 9.6906016 4.4860992 9.7947176 4.4543579 10.0625 4.1835938 C 10.256313 3.9876022 10.41409 3.6815275 10.492188 3.3652344 C 10.53095 3.2081201 10.581693 3.0235732 10.648438 2.9082031 C 10.763922 2.708427 10.908806 2.7217705 10.988281 2.6132812 C 10.954235 2.5969505 10.918022 2.5900556 10.882812 2.5917969 z M 3.3515625 2.7636719 L 5.4140625 4.8691406 L 4.4433594 4.8691406 L 3.3515625 2.7636719 z M 11.521484 3.4140625 L 11.521484 3.5 L 11.521484 3.6875 L 11.396484 4.9941406 L 11.333984 5.3261719 L 11.144531 5.9980469 L 11.019531 6.3320312 L 10.832031 6.75 L 10.726562 6.9160156 L 10.681641 6.9921875 L 10.529297 6.9746094 C 10.455197 6.9383577 10.363673 6.937548 10.269531 6.9453125 C 10.168482 6.9536425 10.076993 6.9707399 10.017578 6.9980469 L 9.9609375 7.0175781 C 9.6586732 7.087993 9.4136506 7.3265964 9.2460938 7.6328125 C 9.0785367 7.9390286 8.9863281 8.3152713 8.9863281 8.6796875 L 8.9746094 9.1503906 L 9.0722656 9.7734375 L 9.1132812 9.875 L 9.1132812 9.8945312 L 9.2011719 10.179688 L 9.3046875 10.425781 C 9.2743116 10.386047 9.2379892 10.340366 9.2207031 10.314453 C 9.1912317 10.270325 9.1400196 10.179324 9.0898438 10.09375 C 9.043468 10.014657 9.0033098 9.9476325 8.96875 9.9042969 C 8.925371 9.7291024 8.8028951 9.5347929 8.7480469 9.3125 C 8.7053536 9.1399981 8.6132813 8.78234 8.6132812 8.6171875 L 8.6132812 7.9609375 C 8.6132812 7.6113575 8.7545025 7.1158368 8.8417969 6.8339844 C 8.8930125 6.6686668 8.9530725 6.5022966 9.0234375 6.3515625 C 9.0485114 6.2979276 9.0985867 6.1992048 9.1445312 6.1035156 C 9.1904759 6.0078265 9.2321382 5.9194549 9.2460938 5.859375 L 9.2480469 5.8535156 L 9.2480469 5.8476562 L 9.2480469 5.7792969 C 9.333189 5.7110462 9.4171294 5.6031808 9.5019531 5.4765625 C 9.5954201 5.3370423 9.6862664 5.1891089 9.75 5.1054688 C 9.9249762 4.8756407 10.106345 4.643429 10.304688 4.4453125 C 10.694397 4.0559219 11.072934 3.7263481 11.521484 3.4140625 z M 10.121094 7.4960938 L 10.121094 7.5605469 C 10.121094 7.6738528 10.782999 7.6230469 10.923828 7.6230469 L 11.791016 7.6230469 L 11.791016 7.6445312 L 10.142578 7.7441406 L 10.142578 7.8554688 L 13.947266 7.6328125 C 13.935226 7.4857901 13.686863 7.5390625 13.525391 7.5390625 L 13.039062 7.5390625 C 12.689856 7.5390625 12.415613 7.5175781 12.066406 7.5175781 C 11.39414 7.5175781 10.791984 7.4960938 10.121094 7.4960938 z M 3.8417969 7.5800781 L 3.4628906 8.2988281 L 1.0703125 7.5917969 L 3.8417969 7.5800781 z M 5.7382812 7.7714844 L 5.8066406 8.2578125 L 5.3613281 8.4824219 L 5.8730469 8.59375 L 5.9550781 9.0859375 L 6.1953125 8.6621094 L 6.6738281 8.7324219 C 6.6424052 8.6741634 6.3574219 8.3646574 6.3574219 8.3632812 C 6.3574219 8.3161473 6.5270385 8.0116641 6.5488281 7.9179688 L 6.1035156 8.109375 L 5.7382812 7.7714844 z M 10.121094 8.0039062 L 10.121094 8.0664062 C 10.121094 8.265609 11.515434 8.1375855 11.726562 8.4257812 C 11.458322 8.3632792 11.343528 8.2827339 10.966797 8.2773438 C 10.746837 8.2741338 10.233443 8.3005501 10.099609 8.2363281 L 10.076172 8.3828125 C 10.511735 8.3831566 11.007931 8.42735 11.390625 8.46875 C 11.748318 8.507283 11.988458 8.7636719 12.466797 8.7636719 L 12.720703 8.7636719 L 13.353516 8.6914062 C 13.547099 8.6769562 13.716335 8.8828655 13.841797 8.9121094 C 13.819207 8.6407718 13.384177 8.53125 13.058594 8.53125 C 12.578765 8.53125 12.382626 8.5359498 12.025391 8.4023438 C 11.809216 8.3214928 11.425523 8.1224488 11.15625 8.109375 C 10.825507 8.093205 10.395299 8.0099843 10.121094 8.0039062 z M 10.042969 8.4746094 C 10.023239 8.5464004 10.015625 8.5294927 10.015625 8.5742188 C 10.015625 8.6394727 11.34326 9.0920845 11.453125 9.1875 L 9.9726562 8.703125 L 9.9257812 8.8261719 C 10.150788 8.8463559 11.425884 9.3077488 11.736328 9.4121094 C 11.951128 9.4843594 13.440182 9.9902344 13.525391 9.9902344 C 13.553951 9.9902344 13.555856 9.9681418 13.566406 9.9492188 L 13.578125 9.921875 L 10.042969 8.4746094 z M 9.8632812 8.953125 L 9.8164062 9.078125 C 9.9315469 9.109777 10.366738 9.3889242 10.5625 9.4648438 C 10.732115 9.5305568 11.132435 9.7796041 11.177734 9.9492188 C 11.074864 9.8804098 11.004143 9.7715761 10.880859 9.6953125 C 10.755168 9.6175585 10.664253 9.5754821 10.515625 9.5117188 C 10.436145 9.4777727 9.7682556 9.1875 9.7617188 9.1875 C 9.7353417 9.1875 9.6932164 9.269918 9.6777344 9.2929688 C 9.7767054 9.3194607 10.426251 9.6153544 10.558594 9.6816406 C 10.95654 9.8811873 10.981005 9.9607328 11.277344 10.228516 C 11.502464 10.431962 11.800922 10.561035 12.132812 10.640625 C 12.269972 10.673535 12.515683 10.734143 12.611328 10.796875 C 12.788282 10.913163 12.817267 11.063316 12.912109 11.132812 C 12.939749 11.077072 12.933594 11.149209 12.933594 11.068359 C 12.933594 10.765484 12.491614 10.537531 12.238281 10.453125 C 11.858798 10.326746 11.69607 10.219473 11.416016 9.984375 C 11.128508 9.743084 11.081371 9.6228633 10.716797 9.3945312 C 10.500621 9.2592065 10.103999 9.080078 9.8632812 8.953125 z M 9.6132812 9.3984375 L 9.5449219 9.4667969 L 10.443359 10.365234 L 10.429688 10.382812 L 9.4492188 9.5625 L 9.3769531 9.6484375 C 9.7248979 9.882385 12.107462 11.998047 12.193359 11.998047 L 12.255859 11.998047 C 12.220309 11.84552 11.140972 10.873392 10.951172 10.683594 C 10.658848 10.391384 9.8994129 9.5900711 9.6132812 9.3984375 z M 8.6132812 10.451172 C 8.7279231 10.670901 8.8459198 10.890698 8.9609375 11.111328 C 8.9205177 11.046763 8.8792241 10.980534 8.8457031 10.925781 C 8.8076071 10.863561 8.7768192 10.811511 8.7695312 10.796875 C 8.7239561 10.705567 8.6749631 10.579996 8.6132812 10.451172 z "
     id="path72" /></svg>