<?xml version="1.0" encoding="UTF-8" standalone="no"?>
<!-- Generado por Andres Lacquaniti  -->

<svg
   xmlns:dc="http://purl.org/dc/elements/1.1/"
   xmlns:cc="http://creativecommons.org/ns#"
   xmlns:rdf="http://www.w3.org/1999/02/22-rdf-syntax-ns#"
   xmlns:svg="http://www.w3.org/2000/svg"
   xmlns="http://www.w3.org/2000/svg"
   xmlns:sodipodi="http://sodipodi.sourceforge.net/DTD/sodipodi-0.dtd"
   xmlns:inkscape="http://www.inkscape.org/namespaces/inkscape"
   version="1.1"
   id="Layer_1"
   x="0px"
   y="0px"
   width="15px"
   height="15px"
   viewBox="0 0 15 15"
   style="enable-background:new 0 0 15 15;"
   xml:space="preserve"
   sodipodi:docname="saac-insignia-caminantes.svg"
   inkscape:version="0.92.0 r15299"><metadata
     id="metadata9"><rdf:RDF><cc:Work
         rdf:about=""><dc:format>image/svg+xml</dc:format><dc:type
           rdf:resource="http://purl.org/dc/dcmitype/StillImage" /><dc:title></dc:title></cc:Work></rdf:RDF></metadata><defs
     id="defs7" /><sodipodi:namedview
     pagecolor="#ffffff"
     bordercolor="#666666"
     borderopacity="1"
     objecttolerance="10"
     gridtolerance="10"
     guidetolerance="10"
     inkscape:pageopacity="0"
     inkscape:pageshadow="2"
     inkscape:window-width="1920"
     inkscape:window-height="996"
     id="namedview5"
     showgrid="false"
     inkscape:zoom="15.733333"
     inkscape:cx="20.855117"
     inkscape:cy="20.573693"
     inkscape:window-x="-8"
     inkscape:window-y="-8"
     inkscape:window-maximized="1"
     inkscape:current-layer="Layer_1" /><path
     style="fill:#000000;fill-rule:evenodd;stroke:none;stroke-width:0.09848219"
     d="M 1.7734375 0.86523438 L 1.7734375 4.640625 L 1.9902344 4.640625 L 1.9902344 0.86523438 L 1.7734375 0.86523438 z M 2.7519531 0.86523438 L 2.7519531 4.6230469 L 2.9707031 4.6230469 L 2.9707031 0.86523438 L 2.7519531 0.86523438 z M 3.7695312 0.86523438 L 3.7695312 4.6230469 L 3.96875 4.6230469 L 3.96875 0.86523438 L 3.7695312 0.86523438 z M 11.449219 1.15625 C 11.429719 1.15625 11.376953 1.2083746 11.376953 1.2460938 L 11.376953 1.2636719 C 11.376953 1.3633359 11.521484 1.5919145 11.521484 1.8457031 L 11.521484 2.0449219 C 11.521484 2.2811807 11.334759 2.8510918 11.265625 3.0585938 C 11.186445 3.2959356 11.013672 3.7671684 11.013672 4.0605469 L 11.013672 4.3320312 C 11.013672 4.5865092 11.289085 5.0761719 11.484375 5.0761719 C 11.526725 5.0761719 11.576172 5.0286761 11.576172 4.9863281 C 11.576172 4.8783916 11.212891 4.6916805 11.212891 4.1699219 C 11.212891 3.4625243 11.720703 2.7569481 11.720703 2.0449219 L 11.720703 1.7910156 C 11.720703 1.5949376 11.622352 1.15625 11.449219 1.15625 z M 12.375 1.15625 C 12.33265 1.15625 12.283203 1.2037458 12.283203 1.2460938 L 12.283203 1.2636719 C 12.283203 1.3528969 12.429686 1.6106559 12.429688 1.9003906 C 12.429688 2.2665473 12.301 2.6771772 12.205078 2.9648438 C 12.134468 3.1767774 11.919922 3.7614768 11.919922 3.9882812 L 11.919922 4.3515625 C 11.919922 4.5913667 12.203985 5.0761719 12.392578 5.0761719 C 12.434828 5.0761719 12.484375 5.0286761 12.484375 4.9863281 C 12.484375 4.8853839 12.121094 4.6496585 12.121094 4.2246094 L 12.121094 4.1875 C 12.121094 3.4444519 12.628906 2.7735934 12.628906 2.0097656 L 12.628906 1.7910156 C 12.628906 1.6110887 12.523019 1.15625 12.375 1.15625 z M 13.246094 1.15625 C 13.203744 1.15625 13.15625 1.2037458 13.15625 1.2460938 L 13.15625 1.2636719 C 13.15625 1.2818909 13.243124 1.5331186 13.259766 1.578125 C 13.296696 1.6784784 13.300781 1.825968 13.300781 1.9550781 L 13.300781 2.0449219 C 13.300781 2.2756657 13.126547 2.8155747 13.058594 3.0195312 C 12.991624 3.2206321 12.792969 3.7710296 12.792969 3.9882812 L 12.792969 4.3515625 C 12.792969 4.5913667 13.075178 5.0761719 13.263672 5.0761719 C 13.306022 5.0761719 13.355469 5.0286761 13.355469 4.9863281 C 13.355469 4.8783916 12.992186 4.6916805 12.992188 4.1699219 C 12.992188 3.4548427 13.5 2.7664042 13.5 2.0097656 L 13.5 1.7910156 C 13.5 1.6105963 13.394802 1.15625 13.246094 1.15625 z M 7.6953125 1.8457031 L 6.5683594 5.859375 C 6.6798412 5.827861 6.8337462 5.7272215 6.9902344 5.6835938 C 7.1362835 5.6429208 7.3402778 5.5859375 7.5097656 5.5859375 L 7.8359375 5.5859375 C 8.1911628 5.5859375 8.5983985 5.7678012 8.8359375 5.8925781 L 7.6953125 1.8457031 z M 10.375 5.6699219 L 9.1015625 6.0761719 C 9.2007335 6.1180269 9.4467528 6.4115796 9.5195312 6.4980469 C 9.6656789 6.671868 9.6663449 6.8929886 9.953125 6.890625 L 10.375 5.6699219 z M 5.0292969 5.6796875 L 5.3691406 6.9101562 C 5.683348 6.884551 5.667714 6.6864433 5.8261719 6.4980469 C 5.8973745 6.4133522 5.9532851 6.3473818 6.0273438 6.2636719 C 6.0794409 6.2046811 6.2163681 6.1128409 6.2558594 6.0605469 L 5.0292969 5.6796875 z M 7.4550781 5.7675781 C 7.2772192 5.7675781 6.9689216 5.865527 6.8320312 5.9238281 C 6.6172416 6.0152191 6.5031113 6.1291146 6.3300781 6.2207031 C 6.4702183 6.4298792 6.9277344 6.4505893 6.9277344 6.6015625 C 6.9277344 6.8214732 6.8472239 7.0864286 6.6542969 7.109375 C 6.4484691 7.133897 6.2753906 7.2895594 6.2753906 7.5097656 L 6.2753906 7.5644531 C 6.2753906 7.8439456 6.5821133 7.7146151 6.5839844 7.9980469 C 6.5860544 8.3057052 6.5303384 8.4831844 6.6972656 8.6484375 C 6.7740816 8.7245645 6.8095265 8.7602524 6.8613281 8.8652344 C 6.8957971 8.9350584 6.9178176 9.1029229 6.9707031 9.1386719 C 7.0629811 9.2011099 7.1758136 9.1491677 7.1835938 9.3066406 C 7.1891038 9.4171376 7.1039681 9.5623997 7.2363281 9.5976562 C 7.2410581 9.5409305 7.2558594 9.5332391 7.2558594 9.4707031 L 7.2558594 9.3613281 C 7.2558594 9.2556567 7.2441096 9.0416269 7.2128906 8.96875 C 7.1793085 8.8903582 7.0546875 8.7709963 7.0546875 8.6894531 C 7.0546875 8.562608 7.1966235 8.630083 7.2382812 8.4199219 C 7.2595532 8.3122808 7.2726463 8.1070152 7.3320312 8.0390625 C 7.4196802 7.9386106 7.5057571 7.9988761 7.5761719 7.8300781 C 7.6213749 7.7217477 7.6367188 7.565101 7.6367188 7.4179688 C 7.6367188 7.0311306 6.9677645 7.2680425 6.9804688 6.875 C 6.9875587 6.6546954 7.0015359 6.5364752 7.1328125 6.4257812 C 7.1949545 6.3733892 7.5097656 6.2407452 7.5097656 6.203125 C 7.5097656 6.107893 7.4179686 6.0445177 7.4179688 5.9296875 C 7.4179688 5.9181655 7.4590653 5.8776109 7.4726562 5.8574219 C 7.5681842 5.8574219 7.611459 5.859167 7.6191406 5.7675781 L 7.4550781 5.7675781 z M 7.7636719 5.8027344 C 7.7412179 5.8994434 7.678741 5.9618226 7.5820312 5.984375 C 7.6019242 6.028987 7.6542969 6.1518158 7.6542969 6.203125 C 7.6542969 6.3992031 7.2794353 6.4206005 7.1464844 6.6191406 L 7.1132812 6.8925781 C 7.0854112 7.0460133 7.78125 6.9404103 7.78125 7.4550781 L 7.78125 7.4726562 C 7.78125 7.8929782 7.662303 7.9809525 7.4179688 8.1445312 C 7.4179688 8.2148475 7.3831415 8.4443086 7.3671875 8.4941406 C 7.3329155 8.6009937 7.21875 8.6912074 7.21875 8.7265625 C 7.21875 8.7278425 7.3361497 8.9025033 7.3574219 8.9882812 C 7.3845049 9.0970056 7.4003906 9.1962904 7.4003906 9.3242188 L 7.4003906 9.4160156 C 7.4003906 9.5669888 7.3667687 9.7421875 7.21875 9.7421875 C 7.143313 9.7421875 7.0105694 9.6029946 7.0195312 9.5253906 L 7.0410156 9.3066406 C 6.7403495 9.2815276 6.8285265 9.0077556 6.6875 8.8398438 C 6.5294361 8.6515456 6.4375 8.6539224 6.4375 8.2910156 L 6.4375 8.1269531 L 6.4570312 7.9824219 C 6.3629808 7.8425772 6.1484375 7.8771137 6.1484375 7.6367188 L 6.1484375 7.4921875 C 6.1484375 7.1961501 6.3940884 6.9648436 6.6914062 6.9648438 L 6.8027344 6.6074219 L 6.7832031 6.6015625 C 6.4597876 6.5262236 6.4701084 6.5029628 6.2382812 6.3476562 C 6.1792904 6.4356994 6.0631607 6.5318188 5.984375 6.6386719 C 5.8993849 6.7538961 5.8493178 6.8376041 5.7792969 6.9765625 C 5.6703756 7.1925339 5.5664064 7.5191203 5.5664062 7.8359375 L 5.5664062 7.9824219 C 5.5664062 9.0062427 6.5315401 9.9960938 7.5449219 9.9960938 L 7.7988281 9.9960938 C 8.3433361 9.9960938 9.1108097 9.5712825 9.2890625 9.234375 C 9.1789594 9.0263806 9.0880272 8.6850347 8.9902344 8.4433594 C 8.8607303 8.1231938 8.4902344 8.1226992 8.4902344 7.8730469 C 8.4902344 7.7424595 8.6393537 7.7265625 8.7792969 7.7265625 C 8.9046647 7.5392493 8.9544384 7.2011719 9.2519531 7.2011719 C 9.4695003 7.2011719 9.5429686 7.3754942 9.5429688 7.0371094 L 9.5429688 6.9648438 C 9.5429688 6.7622659 9.0487709 6.2845545 8.8925781 6.1816406 C 8.6319943 6.0097888 8.2601988 5.8027344 7.8359375 5.8027344 L 7.7636719 5.8027344 z M 9.8515625 7.0917969 C 9.8575725 7.1649689 9.919183 7.3243293 9.9375 7.4042969 C 9.962908 7.5149908 9.9785156 7.6519429 9.9785156 7.78125 L 9.9785156 7.9824219 C 9.9785156 8.1678639 9.956377 8.3726949 9.90625 8.5078125 C 9.883698 8.5684775 9.7432708 8.9398291 9.7421875 8.9648438 L 12.626953 8.0078125 L 9.8515625 7.0917969 z M 5.4960938 7.0957031 L 2.7148438 8.0097656 L 5.6035156 8.9628906 C 5.5980991 8.8983848 5.4890805 8.6685653 5.4589844 8.5625 C 5.4177597 8.4170418 5.3671875 8.2811944 5.3671875 8.0898438 L 5.3671875 7.78125 C 5.3671875 7.6527308 5.3814489 7.5278584 5.4042969 7.4199219 C 5.4241999 7.3259699 5.4885107 7.1712389 5.4960938 7.0957031 z M 9.6699219 7.1640625 C 9.6699219 7.2630375 9.6107745 7.4003903 9.5253906 7.4003906 L 9.5058594 7.4003906 C 9.4226424 7.4003906 9.4039912 7.3457031 9.2890625 7.3457031 L 9.234375 7.3457031 C 8.9631551 7.3457031 9.0689534 7.8730469 8.7070312 7.8730469 L 8.6347656 7.8730469 C 8.6815446 8.0484437 8.9772933 8.0305735 9.1230469 8.4023438 C 9.2117799 8.6289513 9.2977067 8.9366518 9.3964844 9.1425781 C 9.6052666 9.0028318 9.8144531 8.3057757 9.8144531 7.9082031 C 9.8144531 7.6870121 9.7632832 7.2714081 9.6699219 7.1640625 z M 5.4316406 9.1308594 C 5.3320554 9.1153977 5.2204617 9.6579674 5.1933594 9.7675781 C 5.1552173 9.9218012 5.0427387 10.333584 4.9863281 10.451172 C 5.145298 10.437972 5.604031 10.247672 5.7871094 10.199219 C 5.9154317 10.165239 6.0606219 10.120094 6.1914062 10.076172 C 6.2631013 10.052042 6.3286466 10.026722 6.3945312 10.007812 C 6.545603 9.9645795 6.4777614 10.008708 6.4746094 9.8691406 C 6.3454994 9.8347703 6.0788525 9.5718113 5.9804688 9.4746094 C 5.7916785 9.2879856 5.7818531 9.1849261 5.4316406 9.1308594 z M 9.9238281 9.1425781 C 9.5753981 9.1503582 9.5079694 9.3322683 9.3378906 9.5019531 C 9.2061215 9.6333284 8.9234844 9.7883945 8.90625 9.9960938 L 10.376953 10.453125 L 9.9238281 9.1425781 z M 8.6796875 10 C 8.3333256 10.076521 8.1789915 10.214844 7.6914062 10.214844 L 7.6542969 10.214844 C 7.1932032 10.214844 7.0456282 10.089486 6.7285156 10.015625 L 7.703125 13.480469 L 8.6796875 10 z M 10.941406 11.503906 C 10.765713 11.503906 10.304686 11.610533 10.304688 11.740234 L 10.304688 11.775391 C 10.304688 11.817931 10.334403 11.847656 10.376953 11.847656 L 10.414062 11.847656 C 10.505064 11.847656 10.785223 11.703125 11.068359 11.703125 L 11.085938 11.703125 C 11.866803 11.703125 12.539494 12.230469 13.373047 12.230469 L 13.390625 12.230469 C 13.531849 12.230469 13.794753 12.145893 13.884766 12.087891 C 13.952126 12.044561 14.208984 11.851025 14.208984 11.775391 L 14.208984 11.740234 C 14.208984 11.702514 14.154366 11.648435 14.134766 11.648438 C 14.006739 11.648438 13.808024 12.011719 13.410156 12.011719 L 13.373047 12.011719 C 12.524524 12.011719 11.936775 11.503906 11.068359 11.503906 L 10.941406 11.503906 z M 0.55664062 11.794922 L 0.55664062 12.011719 L 4.3144531 12.011719 L 4.3144531 11.794922 L 0.55664062 11.794922 z M 10.941406 12.375 C 10.768471 12.375 10.304686 12.482611 10.304688 12.611328 L 10.304688 12.646484 C 10.304688 12.688924 10.334403 12.720703 10.376953 12.720703 L 10.414062 12.720703 C 10.496982 12.720703 10.766845 12.574219 10.958984 12.574219 L 11.121094 12.574219 C 11.405412 12.574219 11.962122 12.754885 12.205078 12.835938 C 12.489002 12.930578 12.948905 13.101562 13.300781 13.101562 L 13.390625 13.101562 C 13.661353 13.101562 14.208984 12.818532 14.208984 12.646484 L 14.208984 12.611328 C 14.208984 12.573708 14.154366 12.519531 14.134766 12.519531 C 14.006739 12.519531 13.808024 12.882814 13.410156 12.882812 L 13.228516 12.882812 C 12.945182 12.882812 12.420295 12.690228 12.177734 12.609375 C 11.88337 12.511285 11.454902 12.375 11.068359 12.375 L 10.941406 12.375 z M 0.55664062 12.810547 L 0.55664062 13.009766 L 4.3144531 13.009766 L 4.3144531 12.810547 L 0.55664062 12.810547 z M 10.941406 13.283203 C 10.765713 13.283203 10.304686 13.38983 10.304688 13.519531 L 10.304688 13.554688 C 10.304688 13.597136 10.334403 13.626953 10.376953 13.626953 L 10.414062 13.626953 C 10.496982 13.626953 10.766845 13.482422 10.958984 13.482422 L 11.013672 13.482422 C 11.879133 13.482422 12.529696 14.009766 13.355469 14.009766 C 13.516192 14.009766 13.771298 13.938913 13.875 13.875 C 13.9462 13.83117 14.208984 13.631208 14.208984 13.554688 L 14.208984 13.519531 C 14.208984 13.481911 14.154366 13.427734 14.134766 13.427734 C 14.014224 13.427734 13.789755 13.791016 13.427734 13.791016 L 13.300781 13.791016 C 12.542764 13.791016 11.916389 13.283203 11.068359 13.283203 L 10.941406 13.283203 z M 0.55664062 13.791016 L 0.55664062 14.009766 L 4.3144531 14.009766 L 4.3144531 13.791016 L 0.55664062 13.791016 z "
     id="path182" /></svg>