<?xml version="1.0" encoding="UTF-8" standalone="no"?>
<!-- Generado por Andres Lacquaniti  -->

<svg
   xmlns:dc="http://purl.org/dc/elements/1.1/"
   xmlns:cc="http://creativecommons.org/ns#"
   xmlns:rdf="http://www.w3.org/1999/02/22-rdf-syntax-ns#"
   xmlns:svg="http://www.w3.org/2000/svg"
   xmlns="http://www.w3.org/2000/svg"
   xmlns:sodipodi="http://sodipodi.sourceforge.net/DTD/sodipodi-0.dtd"
   xmlns:inkscape="http://www.inkscape.org/namespaces/inkscape"
   version="1.1"
   id="Layer_1"
   x="0px"
   y="0px"
   width="15px"
   height="15px"
   viewBox="0 0 15 15"
   style="enable-background:new 0 0 15 15;"
   xml:space="preserve"
   sodipodi:docname="zona9.svg"
   inkscape:version="0.92.0 r15299"><metadata
     id="metadata9"><rdf:RDF><cc:Work
         rdf:about=""><dc:format>image/svg+xml</dc:format><dc:type
           rdf:resource="http://purl.org/dc/dcmitype/StillImage" /></cc:Work></rdf:RDF></metadata><defs
     id="defs7" /><sodipodi:namedview
     pagecolor="#ffffff"
     bordercolor="#666666"
     borderopacity="1"
     objecttolerance="10"
     gridtolerance="10"
     guidetolerance="10"
     inkscape:pageopacity="0"
     inkscape:pageshadow="2"
     inkscape:window-width="1920"
     inkscape:window-height="996"
     id="namedview5"
     showgrid="false"
     inkscape:zoom="15.733333"
     inkscape:cx="14.451279"
     inkscape:cy="14.269433"
     inkscape:window-x="-8"
     inkscape:window-y="-8"
     inkscape:window-maximized="1"
     inkscape:current-layer="Layer_1" /><path
     style="fill:#000000;fill-opacity:1;fill-rule:evenodd;stroke:none;stroke-width:0.15088066"
     d="M 8.7705213,1.078959 C 8.7028263,1.074854 8.6339762,1.076862 8.5695406,1.082453 8.5083876,1.087781 8.4475637,1.0956339 8.3872562,1.1069981 6.7832123,1.4083682 5.5101337,2.4741559 4.8829453,3.8576305 H 1.241921 c -0.27490305,0 -0.49777796,0.2229935 -0.49777796,0.4977775 v 2.0577163 c 0,0.2748971 0.22287491,0.4966096 0.49777796,0.4966096 h 1.9326875 l -2.770497,4.1446181 c -0.0674769,0.08486 -0.10750136,0.191676 -0.10750136,0.308482 0,0.274897 0.22287959,0.497779 0.49777806,0.497779 h 7.0997636 c 0.2747895,0 0.5031722,-0.222935 0.4977775,-0.497779 l -0.01519,-0.803923 c 0.5903079,0.105479 1.1978559,0.09504 1.7948057,-0.0444 0.299546,-0.06998 0.612707,-0.194721 0.835472,-0.413648 C 11.203687,9.90758 11.317188,9.6434761 11.275769,9.3658827 11.195425,8.8269764 10.643964,8.5626583 10.148175,8.5596191 8.9912848,8.5525612 7.8265271,8.0735968 7.0785438,7.1971562 L 8.6314711,4.6568525 c 0.063782,-0.083773 0.1016581,-0.1880364 0.1016581,-0.3014717 0,-0.27479 -0.2228782,-0.4977775 -0.4977772,-0.4977775 H 6.6181572 C 7.0155676,3.0366362 7.7562569,2.3938698 8.6408193,2.0616295 8.7566424,2.0181381 8.8822311,1.9689921 8.9890295,1.9062197 c 0.014587,-0.00856 0.028284,-0.017383 0.042067,-0.026877 -0.06138,0.2198568 -0.04419,0.4564418 0.03155,0.6742206 0.1080639,0.3108005 0.3258725,0.5747144 0.5854146,0.7723733 0.8636299,0.657751 1.5548249,1.5302772 1.9618979,2.5391353 0.369258,0.9153415 0.494254,1.9282586 0.293294,2.8990313 -0.130179,0.628849 -0.391896,1.2152275 -0.77705,1.7293688 -1.2438726,1.660384 -3.4270985,2.137636 -5.3633818,1.569286 -0.3145974,-0.09228 -0.8736248,-0.271569 -1.0376226,0.156614 -0.080226,0.209416 0.021437,0.400919 0.1741055,0.537507 0.075132,0.06726 0.1610629,0.126553 0.246552,0.179948 0.068101,0.04254 0.1383476,0.08247 0.2103287,0.118018 3.2230349,1.593094 7.1444112,0.301929 8.7414962,-2.929413 C 15.679597,6.9249288 14.434263,2.863898 11.101664,1.3944526 10.737477,1.2338316 10.312019,1.1145546 9.9109705,1.1677642 9.6572598,1.2014635 9.4219221,1.306182 9.2519407,1.4867632 9.2501937,1.4561211 9.2448655,1.4234962 9.2355802,1.3909464 9.1699635,1.1618734 8.973594,1.0910979 8.7705196,1.078959 Z m -7.3252825,3.1712901 3.27996,0.00584 C 4.4595918,5.016434 4.3797724,5.8522808 4.5394084,6.7017451 4.6588032,7.337005 4.9105514,7.9320317 5.2580317,8.4626641 l -0.5118,0.8191136 1.2350968,0.04674 c 0.3549227,0.3369602 0.7562531,0.6274227 1.2047165,0.8448203 0.087647,0.04249 0.1769252,0.07901 0.2664166,0.115681 l 0.012851,0.756018 -6.4080156,-0.01402 3.083653,-4.6739723 -2.6793545,-0.052582 z m 5.0093296,0.00934 1.4278987,0.00234 -1.3239029,2.1184782 C 6.3940996,6.0016823 6.3057785,5.598246 6.3050014,5.1838775 6.304403,4.8595347 6.3610112,4.5519343 6.4545684,4.2595994 Z"
     id="path3452-5-5"
     inkscape:connector-curvature="0" /></svg>