<?xml version="1.0" encoding="UTF-8" standalone="no"?>
<!-- Generado por Andres Lacquaniti  -->

<svg
   xmlns:dc="http://purl.org/dc/elements/1.1/"
   xmlns:cc="http://creativecommons.org/ns#"
   xmlns:rdf="http://www.w3.org/1999/02/22-rdf-syntax-ns#"
   xmlns:svg="http://www.w3.org/2000/svg"
   xmlns="http://www.w3.org/2000/svg"
   xmlns:sodipodi="http://sodipodi.sourceforge.net/DTD/sodipodi-0.dtd"
   xmlns:inkscape="http://www.inkscape.org/namespaces/inkscape"
   version="1.1"
   id="Layer_1"
   x="0px"
   y="0px"
   width="15px"
   height="15px"
   viewBox="0 0 15 15"
   style="enable-background:new 0 0 15 15;"
   xml:space="preserve"
   sodipodi:docname="saac-lis-nacional.svg"
   inkscape:version="0.92.0 r15299"><metadata
     id="metadata9"><rdf:RDF><cc:Work
         rdf:about=""><dc:format>image/svg+xml</dc:format><dc:type
           rdf:resource="http://purl.org/dc/dcmitype/StillImage" /><dc:title></dc:title></cc:Work></rdf:RDF></metadata><defs
     id="defs7" /><sodipodi:namedview
     pagecolor="#ffffff"
     bordercolor="#666666"
     borderopacity="1"
     objecttolerance="10"
     gridtolerance="10"
     guidetolerance="10"
     inkscape:pageopacity="0"
     inkscape:pageshadow="2"
     inkscape:window-width="1920"
     inkscape:window-height="996"
     id="namedview5"
     showgrid="false"
     inkscape:zoom="15.733333"
     inkscape:cx="24.763909"
     inkscape:cy="-0.38088559"
     inkscape:window-x="-8"
     inkscape:window-y="-8"
     inkscape:window-maximized="1"
     inkscape:current-layer="Layer_1" /><path
     style="fill:#1a1a1a;stroke:#fff200;stroke-width:0.00366491"
     d="M 11.566406 0.11914062 C 11.352377 0.29505655 11.174965 0.50962506 10.966797 0.69140625 C 10.688264 0.60931146 10.439664 0.45417225 10.164062 0.36328125 C 10.272545 0.63008771 10.448159 0.8611262 10.556641 1.125 C 10.37486 1.3390295 10.170052 1.5320583 10 1.7519531 C 10.284398 1.7255653 10.565211 1.6621288 10.849609 1.6386719 C 11.025525 1.8702952 11.147326 2.1394724 11.320312 2.3710938 C 11.364293 2.0925611 11.39352 1.8136892 11.4375 1.5351562 C 11.721898 1.4618572 12.010524 1.418013 12.294922 1.359375 C 12.042774 1.2069139 11.758979 1.107543 11.509766 0.94921875 C 11.506826 0.67361643 11.569406 0.39767341 11.566406 0.11914062 z M 6.4121094 0.4453125 C 6.192215 0.61829572 6.0187153 0.83775011 5.8105469 1.0195312 C 5.5290814 0.92570806 5.2648567 0.78524076 4.9921875 0.67382812 C 5.1153289 0.93770205 5.2821395 1.1843656 5.3964844 1.4511719 C 5.2176389 1.6652015 5.0157619 1.858228 4.8398438 2.078125 C 5.10665 2.0546678 5.3669848 1.9990493 5.6308594 1.9667969 C 5.6601743 1.9667969 5.7011571 1.9550516 5.71875 1.9902344 C 5.8741417 2.2189251 5.9949888 2.4715114 6.1621094 2.6914062 C 6.2148831 2.4158039 6.2235794 2.1281383 6.2910156 1.8554688 C 6.5724812 1.7938982 6.8542804 1.7432107 7.1328125 1.6816406 C 6.9539659 1.5760911 6.7608835 1.4951912 6.5761719 1.3984375 C 6.5028747 1.357389 6.4111843 1.3340356 6.3496094 1.2695312 C 6.3584059 0.99393116 6.409184 0.72091481 6.4121094 0.4453125 z M 9.6074219 1.9316406 C 9.1500384 1.9580281 8.6985821 2.0663156 8.2558594 2.1835938 C 7.9040282 2.2950063 7.5490841 2.4061287 7.2148438 2.5644531 C 6.4202902 2.9280133 5.6879751 3.4321431 5.0664062 4.0507812 C 4.4800181 4.6078466 3.9837342 5.2524113 3.546875 5.9296875 C 3.4823723 6.0411022 3.4023882 6.1444408 3.3496094 6.2617188 C 3.4287715 6.3760641 3.5243459 6.4823372 3.609375 6.59375 C 4.0784846 7.2182512 4.5095061 7.8705532 4.8496094 8.5742188 C 5.1603948 9.2163119 5.385664 9.9037592 5.4882812 10.607422 C 5.5088092 10.859568 5.554704 11.111136 5.53125 11.363281 C 5.551779 11.565584 5.511732 11.767423 5.5 11.966797 C 5.37979 12.987109 4.9096576 13.93493 4.2851562 14.738281 L 4.3535156 14.738281 C 4.9399016 14.515455 5.5298835 14.280564 6.0371094 13.902344 C 6.2335479 13.749883 6.4315252 13.59781 6.5839844 13.398438 C 6.7364457 13.210794 6.8895936 13.011898 6.9628906 12.777344 C 6.801633 12.51347 6.6202181 12.259982 6.4882812 11.978516 C 6.0484913 11.142915 5.8163969 10.199942 5.8105469 9.2558594 C 5.792956 8.3088467 5.9802092 7.364934 6.3203125 6.4824219 C 6.9448159 4.8434717 8.0293073 3.4110756 9.2929688 2.2089844 C 9.386792 2.103435 9.5077354 2.0283947 9.6074219 1.9316406 z M 9.6835938 3.7734375 C 9.3053744 4.025585 8.9572874 4.3152001 8.6230469 4.6171875 C 8.4823146 4.7080781 8.3965892 4.8641834 8.2617188 4.9609375 C 8.1532388 5.066487 8.0616035 5.192299 7.9589844 5.3007812 C 7.3227561 6.0337647 6.8215019 6.8869828 6.5429688 7.8164062 C 6.4579438 8.1125302 6.3886898 8.4099213 6.359375 8.7148438 C 6.2948642 9.0784017 6.2909664 9.4548012 6.3613281 9.8183594 C 6.3994413 10.240557 6.5340467 10.645214 6.7070312 11.029297 C 6.8800159 11.392857 7.1218576 11.721454 7.4003906 12.011719 C 7.3622743 11.882711 7.281282 11.771578 7.234375 11.648438 C 7.1317561 11.393359 7.0361711 11.131065 6.9863281 10.861328 C 6.9335491 10.553474 6.8622812 10.243403 6.8945312 9.9296875 C 6.8974673 9.8622528 6.8828125 9.7979047 6.8828125 9.7304688 C 6.9091999 9.3610444 6.9764378 8.9856104 7.140625 8.6484375 C 7.2754943 8.3728349 7.496852 8.1299801 7.78125 8.0039062 C 7.9278453 7.9364701 8.0907018 7.9277507 8.2460938 7.9042969 C 8.4014853 7.9013634 8.5545694 7.9306441 8.7070312 7.9570312 C 9.3080781 6.992424 9.568302 5.8592571 9.65625 4.7363281 C 9.68851 4.6014586 9.6630714 4.4649477 9.6777344 4.3300781 C 9.6865444 4.1453664 9.6865338 3.9610818 9.6835938 3.7734375 z M 11.378906 5.0546875 C 11.161942 5.233536 10.988451 5.4647091 10.765625 5.640625 C 10.495888 5.5350748 10.237513 5.3994939 9.9648438 5.296875 C 10.085052 5.5578182 10.244045 5.7976504 10.367188 6.0585938 C 10.194202 6.2843517 9.977673 6.4754139 9.8046875 6.7011719 C 10.086153 6.6659886 10.365997 6.6084123 10.650391 6.5820312 L 10.673828 6.5898438 C 10.832153 6.8243973 10.962771 7.0789236 11.126953 7.3105469 C 11.182663 7.0349446 11.194289 6.7550915 11.255859 6.4824219 C 11.52853 6.3944637 11.820103 6.3799489 12.095703 6.2949219 C 11.934449 6.2040334 11.764773 6.1299489 11.603516 6.0449219 C 11.509695 5.9892164 11.398496 5.9590415 11.316406 5.8828125 C 11.325206 5.6072103 11.375906 5.3332203 11.378906 5.0546875 z M 2.6757812 7.3398438 C 2.4910687 7.512827 2.4971103 7.7859547 2.4414062 8.0175781 L 2.4414062 8.6777344 C 2.4883142 8.8859008 2.4648126 9.1004273 2.5058594 9.3085938 C 2.5469062 9.5578078 2.5556253 9.8123116 2.6054688 10.058594 C 2.6318579 10.187598 2.6269087 10.326079 2.6796875 10.449219 C 2.9816754 10.496147 3.2888276 10.466768 3.59375 10.501953 C 3.8488283 10.534205 4.1102578 10.66193 4.2304688 10.896484 C 4.3213602 11.057741 4.3652486 11.244003 4.3535156 11.425781 C 4.3447026 11.607562 4.3740485 11.788927 4.3359375 11.964844 C 4.1805439 12.882538 3.826461 13.75326 3.4511719 14.597656 C 3.5596549 14.497972 3.6268904 14.366304 3.7089844 14.246094 C 4.3129624 13.316672 4.8367993 12.297729 4.9863281 11.183594 C 5.0391071 10.987155 4.9892376 10.783354 5.0097656 10.583984 C 5.0244236 10.452047 4.989279 10.320411 4.96875 10.191406 C 4.877859 9.5932937 4.5911149 9.0374631 4.2070312 8.5742188 C 3.9402261 8.2575683 3.6281883 7.9777243 3.2910156 7.734375 C 3.0916455 7.5936423 2.8986083 7.4424604 2.6757812 7.3398438 z M 3.6914062 8.1816406 C 3.6972563 8.3692846 3.6386544 8.557476 3.6621094 8.7421875 C 3.8028417 8.8184205 3.9481342 8.8856852 4.0917969 8.9589844 C 4.1181869 8.9677644 4.1357342 8.9853298 4.1445312 9.0117188 C 3.9656844 9.0557005 3.7794271 9.0683121 3.609375 9.1269531 C 3.568327 9.3087318 3.5644845 9.4930263 3.5234375 9.671875 C 3.4032275 9.5223472 3.3350617 9.3282323 3.203125 9.1875 C 3.0184134 9.2109539 2.8370553 9.2499952 2.6523438 9.2675781 C 2.7608236 9.1151168 2.9042126 8.9952309 3.015625 8.8457031 C 2.9423279 8.6727195 2.8311096 8.5196661 2.7578125 8.34375 C 2.9395916 8.40239 3.1072833 8.5009288 3.2890625 8.5625 C 3.4327284 8.4452216 3.5477404 8.298919 3.6914062 8.1816406 z "
     id="path2223" /></svg>