<?xml version="1.0" encoding="UTF-8" standalone="no"?>
<!-- Generado por Andres Lacquaniti  -->

<svg
   xmlns:dc="http://purl.org/dc/elements/1.1/"
   xmlns:cc="http://creativecommons.org/ns#"
   xmlns:rdf="http://www.w3.org/1999/02/22-rdf-syntax-ns#"
   xmlns:svg="http://www.w3.org/2000/svg"
   xmlns="http://www.w3.org/2000/svg"
   xmlns:sodipodi="http://sodipodi.sourceforge.net/DTD/sodipodi-0.dtd"
   xmlns:inkscape="http://www.inkscape.org/namespaces/inkscape"
   version="1.1"
   id="Layer_1"
   x="0px"
   y="0px"
   width="15px"
   height="15px"
   viewBox="0 0 15 15"
   style="enable-background:new 0 0 15 15;"
   xml:space="preserve"
   sodipodi:docname="saac-insignia-rover.svg"
   inkscape:version="0.92.0 r15299"><metadata
     id="metadata9"><rdf:RDF><cc:Work
         rdf:about=""><dc:format>image/svg+xml</dc:format><dc:type
           rdf:resource="http://purl.org/dc/dcmitype/StillImage" /><dc:title></dc:title></cc:Work></rdf:RDF></metadata><defs
     id="defs7" /><sodipodi:namedview
     pagecolor="#ffffff"
     bordercolor="#666666"
     borderopacity="1"
     objecttolerance="10"
     gridtolerance="10"
     guidetolerance="10"
     inkscape:pageopacity="0"
     inkscape:pageshadow="2"
     inkscape:window-width="1920"
     inkscape:window-height="996"
     id="namedview5"
     showgrid="false"
     inkscape:zoom="22.250293"
     inkscape:cx="6.9684353"
     inkscape:cy="5.9012907"
     inkscape:window-x="-8"
     inkscape:window-y="-8"
     inkscape:window-maximized="1"
     inkscape:current-layer="Layer_1" /><path
     style="fill:#000000;fill-rule:evenodd;stroke:none;stroke-width:0.11109877"
     d="M 10.492188 0.109375 C 9.1142289 0.109375 7.0029865 0.81427232 6.5214844 1.640625 C 6.2538475 2.0999073 5.990687 3.1071445 5.8457031 3.7050781 C 5.7897093 3.9361636 5.3382749 5.8946447 5.3125 5.9316406 C 5.1919579 5.4140314 5.1196977 5.0579783 4.9609375 4.5820312 C 4.8935006 4.3794983 4.8088511 4.1519052 4.71875 3.9707031 C 4.6683111 3.8692699 4.459691 3.4596529 4.4433594 3.3984375 C 4.2039416 3.5586419 3.7033175 4.0995372 3.5136719 4.3398438 C 3.393352 4.4922712 2.7988281 5.3402 2.7988281 5.515625 C 2.7988281 5.522405 3.1406452 5.7914803 3.1816406 5.8320312 C 3.3064045 5.955573 3.4229287 6.0610118 3.53125 6.1992188 C 3.7671127 6.5002965 3.9139123 6.683253 4.125 7.0234375 C 4.340976 7.3715099 4.8942647 8.575103 4.9335938 9.0488281 C 5.054247 9.0387181 5.1459852 8.9746094 5.2929688 8.9746094 L 5.3300781 8.9746094 C 5.5529422 8.9746094 5.7460936 9.2032258 5.7460938 9.4082031 L 5.7480469 9.8476562 L 6.0683594 9.8242188 L 6.03125 9.0683594 C 5.9288169 7.2480061 6.9229645 5.0112273 7.5878906 3.9160156 C 7.9805137 3.2694207 8.4693654 2.4802286 8.9453125 1.9277344 C 9.2001731 1.6317673 9.4327573 1.2799223 9.7011719 1.0019531 C 9.8378234 0.86041336 9.9541915 0.69568964 10.089844 0.55859375 C 10.204609 0.44271774 10.408085 0.23502771 10.492188 0.109375 z M 10.416016 2.2265625 C 9.5167776 2.8287214 8.4439921 3.8751972 7.8261719 4.7597656 C 7.2079072 5.6450006 6.4648438 7.0282525 6.4648438 8.5195312 L 6.4570312 8.9550781 L 6.5039062 9.6542969 C 6.5800092 9.6365209 6.5981698 9.5976563 6.6738281 9.5976562 C 6.8665844 9.5976562 6.9941406 9.7879168 6.9941406 9.9765625 C 6.9941406 10.243866 6.7424741 10.373692 6.7441406 10.429688 L 6.7871094 10.832031 L 7.296875 10.75 L 7.2597656 10.050781 L 7.2597656 9.8808594 C 7.2597656 8.3871365 7.9246502 7.4433594 9.4335938 7.4433594 C 9.9245349 6.5156847 10.585937 5.0407095 10.585938 3.6445312 L 10.585938 3.4160156 L 10.605469 3.4140625 L 10.416016 2.2265625 z M 2.0976562 6.4980469 L 2.0976562 6.6113281 L 2.0410156 7.9335938 L 2.0410156 8.2753906 C 2.0410156 8.8637697 2.1603259 9.7816612 2.34375 10.164062 C 2.9547932 10.164062 3.2774211 10.143798 3.6601562 10.398438 C 3.820694 10.505314 3.9310966 10.636362 4.0195312 10.814453 C 4.0723033 10.920664 4.097577 10.972641 4.1289062 11.103516 C 4.1589032 11.229169 4.2122224 11.263924 4.2734375 11.355469 L 4.421875 11.28125 L 4.3671875 10.789062 L 4.3671875 10.75 C 4.3671875 10.546245 4.3829441 10.364329 4.4238281 10.203125 C 4.4456031 10.117245 4.495001 10.047888 4.5 9.9765625 C 4.50578 9.8946825 4.4804687 9.7898153 4.4804688 9.6738281 L 4.4804688 9.5214844 C 4.4804688 9.3003979 4.6558641 9.1483527 4.8398438 9.1054688 C 4.8092923 8.7389539 3.9902643 7.7573784 3.7285156 7.5527344 C 3.483765 7.3615334 3.2369891 7.1283522 2.9667969 6.9707031 C 2.8219241 6.886268 2.2437511 6.5102678 2.0976562 6.4980469 z M 3.328125 7.9335938 L 3.2832031 8.3496094 L 3.6445312 8.5097656 L 3.6484375 8.5390625 L 3.2519531 8.6152344 L 3.2285156 9.03125 L 3.0039062 8.6738281 L 2.5917969 8.7695312 C 2.6285709 8.7103154 2.8554687 8.4890855 2.8554688 8.4453125 C 2.8554688 8.3718765 2.6911239 8.1800382 2.6660156 8.0859375 C 2.7624496 8.1083795 2.9625332 8.2363281 3.0429688 8.2363281 C 3.0745208 8.2363281 3.2740199 7.9698119 3.328125 7.9335938 z M 10.453125 8.9921875 C 10.321807 8.9921875 10.173184 9.1283113 10.154297 9.2421875 C 10.135077 9.3570636 10.150391 9.6533465 10.150391 9.7871094 C 9.9047504 10.153957 8.7015872 10.513209 8.1582031 10.667969 C 7.819463 10.764399 7.3402801 10.864084 7.0332031 10.978516 C 6.9134386 11.023066 6.5879234 11.103003 6.4609375 11.125 C 6.3711695 11.14067 5.9083228 11.239166 5.8613281 11.261719 C 5.8493291 11.11829 5.8662743 11.007537 5.7285156 10.996094 L 5.7285156 10.839844 L 5.9550781 10.865234 C 6.0347361 10.874234 6.0964057 10.844813 6.2011719 10.845703 L 6.1445312 10.958984 L 6.2324219 10.957031 L 6.2949219 10.826172 L 6.4082031 10.826172 C 6.4497541 10.764182 6.5605469 10.72602 6.5605469 10.65625 L 6.5605469 10.580078 C 6.5605469 10.534638 6.529219 10.525145 6.5 10.484375 L 6.6914062 10.146484 C 6.7752862 10.146484 6.8613281 10.129331 6.8613281 10.050781 L 6.8613281 9.9375 C 6.8613281 9.872396 6.848639 9.8657452 6.84375 9.8066406 L 6.6738281 9.8066406 C 6.6158341 9.8066406 6.590901 9.8525076 6.578125 9.9003906 L 6.125 9.9003906 C 5.8739168 9.9003906 5.7676422 10.013672 5.671875 10.013672 L 5.5585938 10.013672 L 5.5585938 9.5605469 C 5.5585938 9.5207739 5.6022364 9.4070008 5.6152344 9.3515625 C 5.5710176 9.2681273 5.4695961 9.1640625 5.3496094 9.1640625 L 5.1992188 9.1640625 C 5.021905 9.1640625 4.8401078 9.3506342 4.7636719 9.4648438 L 4.6308594 9.4648438 C 4.6079734 9.4989507 4.59375 9.4986876 4.59375 9.5410156 L 4.59375 9.6347656 L 4.7265625 9.6347656 C 4.8261065 9.6347656 4.725639 9.7543597 4.9140625 9.8046875 L 4.8964844 9.9765625 C 4.6916185 10.024336 4.5 10.186492 4.5 10.429688 L 4.5 10.619141 C 4.5 11.10431 4.8779309 11.201917 4.8964844 11.425781 L 4.3476562 11.46875 L 4.2910156 11.46875 C 4.0367105 11.46875 3.85795 11.401151 3.7050781 11.298828 C 3.7050781 10.98253 3.8023468 10.599609 3.4980469 10.599609 L 3.3457031 10.599609 C 3.2762661 10.599609 3.2558394 10.62892 3.2148438 10.65625 C 3.2148438 11.316399 2.5527344 11.590776 2.5527344 11.904297 L 2.5527344 12.054688 C 2.5527344 12.282439 2.7219724 12.538702 2.8164062 12.679688 C 2.6764219 12.753787 2.4846186 12.849609 2.2695312 12.849609 L 1.75 12.855469 L 1.9101562 13.095703 C 2.3229992 12.999493 3.5393803 12.695737 3.5722656 12.300781 L 3.6308594 12.296875 L 3.8085938 12.330078 L 3.5722656 12.509766 C 3.8293481 12.503966 4.4043757 12.366932 4.6289062 12.298828 C 4.7864442 12.250948 4.942469 12.199029 5.1015625 12.146484 C 5.1572225 12.128154 5.5570383 11.960937 5.5585938 11.960938 C 5.6046997 11.960938 6.2500601 12.165503 6.2753906 12.1875 C 6.174513 12.1875 6.0754871 12.187611 5.9746094 12.1875 C 5.8300699 12.1875 5.746958 12.145682 5.7285156 12.263672 C 5.7084066 12.39188 5.6281835 12.327221 5.4824219 12.337891 C 5.3915429 12.344591 5.3022072 12.373953 5.1992188 12.376953 C 4.8607008 12.386753 4.403729 12.503882 4.1210938 12.583984 C 3.8446801 12.662304 3.4622275 12.828737 3.2441406 12.974609 C 3.0973791 13.072819 2.6039533 13.436043 2.5898438 13.605469 C 2.6675018 13.611869 2.6319112 13.625 2.703125 13.625 C 2.735344 13.625 2.9346605 13.419586 2.9726562 13.382812 C 3.0344273 13.323154 3.1967149 13.212806 3.2714844 13.169922 C 3.5139019 13.030716 3.7008442 12.961153 3.9707031 12.849609 C 4.3422174 12.696182 5.1646225 12.509766 5.6894531 12.509766 L 5.7285156 12.509766 C 6.1518019 12.509766 6.469009 12.597415 6.7695312 12.714844 C 6.9187369 12.773174 7.0549414 12.847725 7.1835938 12.923828 C 7.2571407 12.967268 7.5191715 13.158257 7.5625 13.169922 L 7.5625 13.019531 C 7.5625 12.825663 8.5386237 12.454171 8.8085938 12.414062 C 9.3373127 12.335623 9.8826129 12.244141 10.509766 12.244141 C 10.8985 12.244141 11.222798 12.264442 11.607422 12.263672 C 11.951939 12.263006 12.338275 12.319753 12.666016 12.283203 C 13.062528 12.238983 13.24657 12.180032 13.570312 12.072266 C 13.703297 12.028046 13.848801 11.973149 13.976562 11.910156 C 14.062883 11.867716 14.290552 11.730065 14.347656 11.714844 L 14.347656 11.525391 L 14.271484 11.525391 C 14.11639 11.525391 14.075018 11.490377 13.957031 11.460938 C 13.888261 11.443827 13.766309 11.508517 13.671875 11.529297 C 13.441567 11.579737 13.320491 11.638672 13.005859 11.638672 L 12.96875 11.638672 C 12.226943 11.638672 11.740392 11.052734 11.738281 11.052734 C 11.673061 11.052734 11.623129 11.128906 11.53125 11.128906 L 11.474609 11.128906 C 11.490609 10.936372 11.587891 10.808072 11.587891 10.523438 L 11.587891 10.449219 C 11.587891 9.9970469 11.076154 9.5480567 10.71875 9.4648438 L 10.71875 9.03125 C 10.65276 9.015807 10.654597 8.9921875 10.585938 8.9921875 L 10.453125 8.9921875 z M 10.509766 9.1640625 C 10.560756 9.1640625 10.563149 9.1717536 10.605469 9.1816406 L 10.605469 9.5976562 C 10.928433 9.6728704 11.341797 10.102483 11.341797 10.523438 L 11.341797 10.542969 C 11.341797 10.740503 11.271307 11.123305 11.195312 11.228516 C 11.155314 11.284066 10.747426 11.454145 10.648438 11.494141 C 10.299587 11.635014 9.7950375 11.808594 9.3203125 11.808594 L 9.3007812 11.808594 C 9.1442432 11.808594 8.904634 11.781784 8.7832031 11.740234 C 8.7152111 11.716904 8.3663565 11.582031 8.3554688 11.582031 C 8.3537986 11.582031 7.731928 11.818326 7.5996094 11.847656 C 7.3261953 11.908096 7.078208 11.998047 6.7304688 11.998047 L 6.5039062 11.998047 C 6.1503901 11.998047 5.8507662 11.847656 5.6523438 11.847656 L 5.5390625 11.847656 C 5.5147315 11.847656 5.0652838 12.047859 4.9785156 12.080078 C 4.851863 12.127188 4.4909491 12.207031 4.3300781 12.207031 L 4.1582031 12.207031 L 3.7050781 12.148438 L 3.6484375 12.150391 C 3.5987765 12.150391 3.433169 12.308391 3.3769531 12.349609 C 3.2857411 12.416379 3.1802426 12.457772 3.0820312 12.509766 C 2.964822 12.334785 2.8164063 12.175956 2.8164062 11.884766 C 2.8164062 11.678345 3.0186852 11.383597 3.1386719 11.298828 C 3.3065421 11.180286 3.2944472 10.732422 3.4589844 10.732422 C 3.5099784 10.732422 3.5122475 10.74011 3.5546875 10.75 L 3.5546875 11.298828 C 3.5546875 11.525914 3.8956522 11.601563 4.140625 11.601562 L 4.59375 11.601562 C 5.1837955 11.601562 5.9018794 11.421903 6.4101562 11.318359 C 6.9924248 11.199706 7.5181405 11.036253 8.0800781 10.910156 C 8.4842554 10.819496 9.3174607 10.53083 9.6210938 10.353516 C 9.8715103 10.207199 10.016591 10.11584 10.203125 9.8945312 C 10.415768 9.6422261 10.163913 9.1640625 10.509766 9.1640625 z M 5.3691406 9.2949219 L 5.4257812 9.2949219 C 5.4699982 9.2949219 5.5019525 9.3268761 5.5019531 9.3710938 L 5.5019531 9.9375 C 5.3226397 9.9375 5.0097656 9.7992587 5.0097656 9.6738281 L 5.0097656 9.5976562 C 5.0097656 9.5259973 5.0750057 9.5204592 5.125 9.5039062 C 5.2292106 9.4695763 5.1601563 9.4871695 5.1601562 9.390625 L 5.1601562 9.3339844 C 5.2315933 9.3173184 5.2793728 9.2949219 5.3691406 9.2949219 z M 4.9921875 9.8632812 C 5.0592915 9.8811682 5.1922194 9.9286814 5.1992188 10.013672 L 4.9511719 10.013672 L 4.9921875 9.8632812 z M 6.7480469 9.8632812 C 6.7923749 9.8632812 6.8242188 9.893283 6.8242188 9.9375 L 6.8242188 9.9570312 C 6.8242188 10.039022 6.7383991 10.013672 6.6542969 10.013672 C 6.4613183 10.14288 6.0789235 10.296875 5.765625 10.296875 L 5.765625 10.050781 L 6.4453125 10.005859 C 6.4846415 9.9880848 6.4955766 9.9570312 6.5410156 9.9570312 L 6.6542969 9.9570312 C 6.6670729 9.9091474 6.6900529 9.8632812 6.7480469 9.8632812 z M 4.953125 10.107422 L 5.3125 10.107422 C 5.356051 10.107422 5.3691406 10.120514 5.3691406 10.164062 L 5.3691406 10.392578 L 5.1230469 10.392578 C 4.9957277 10.392578 4.8007813 10.481952 4.8007812 10.599609 C 4.8007812 10.792921 4.9909086 10.996094 5.1992188 10.996094 L 5.2734375 10.996094 C 5.2691075 10.801893 5.0292969 10.858028 5.0292969 10.636719 C 5.0292969 10.599839 5.1175831 10.542969 5.1796875 10.542969 L 5.2363281 10.542969 C 5.3862003 10.542969 5.5761719 10.657388 5.5761719 10.808594 L 5.5761719 10.882812 C 5.5761719 10.967473 5.4851077 10.923171 5.4257812 11.035156 C 5.5112163 11.076156 5.765625 11.079467 5.765625 11.166016 L 5.765625 11.261719 L 4.9921875 11.378906 C 4.8315387 11.072273 4.6132812 11.035336 4.6132812 10.5625 C 4.6132812 10.311306 4.7018195 10.107422 4.953125 10.107422 z M 5.4453125 10.126953 L 5.6152344 10.126953 L 5.6152344 10.296875 C 5.6152344 10.340425 5.6021438 10.353516 5.5585938 10.353516 L 5.4453125 10.353516 L 5.4453125 10.126953 z M 6.5214844 10.164062 L 6.578125 10.164062 L 6.4003906 10.519531 L 6.1640625 10.5 L 5.9355469 10.505859 L 5.765625 10.525391 L 5.765625 10.449219 C 6.0454828 10.425889 6.408497 10.164063 6.5214844 10.164062 z M 10.169922 10.203125 C 10.04127 10.297445 10.063173 10.313196 9.8808594 10.404297 C 9.7616505 10.463957 9.6852285 10.498452 9.5546875 10.550781 C 9.3340453 10.639331 9.0870452 10.726374 8.8535156 10.794922 C 8.3563486 10.940795 7.8945089 11.078835 7.3652344 11.197266 C 6.419895 11.408576 5.2014159 11.714844 4.0839844 11.714844 C 3.9315569 11.714844 3.7698174 11.658522 3.6738281 11.59375 C 3.5435092 11.50587 3.4902899 11.334602 3.4414062 11.298828 C 3.4414062 11.754222 3.6915638 11.828125 4.140625 11.828125 L 4.2539062 11.828125 C 4.62031 11.828125 5.6020794 11.682407 5.9101562 11.59375 C 6.1181332 11.53387 6.4769101 11.484559 6.6992188 11.439453 C 6.9838537 11.381793 7.2081012 11.334921 7.4785156 11.271484 C 8.0358982 11.140609 8.477198 11.055975 8.9941406 10.898438 C 9.3521008 10.789227 10.160479 10.626189 10.169922 10.203125 z M 6.3320312 10.5625 L 6.390625 10.5625 C 6.434176 10.5625 6.4472656 10.575591 6.4472656 10.619141 L 6.4472656 10.65625 C 6.4472656 10.760016 6.2320992 10.726799 6.125 10.730469 C 5.9942368 10.735069 5.9394725 10.789063 5.7851562 10.789062 L 5.7851562 10.619141 L 6.3320312 10.619141 L 6.3320312 10.5625 z M 11.53125 11.298828 L 11.625 11.298828 C 11.64711 11.298828 12.173234 11.908229 12.835938 11.865234 L 13.251953 11.841797 L 13.273438 11.960938 C 13.058904 11.966238 12.874013 12.017578 12.609375 12.017578 L 11.910156 12.017578 C 11.466428 12.017578 10.982936 11.998047 10.509766 11.998047 C 9.8242857 11.998047 9.3574794 12.113546 8.796875 12.232422 C 8.5878982 12.276752 8.2536611 12.408881 8.078125 12.496094 C 8.000911 12.534424 7.4502652 12.830078 7.4472656 12.830078 C 7.3860506 12.830078 6.1411093 12.342534 6.125 12.320312 C 6.477072 12.320312 6.9620965 12.192237 7.2519531 12.105469 C 7.3940485 12.062809 8.2426097 11.771484 8.2617188 11.771484 C 8.3289336 11.771484 8.5820312 11.89659 8.5820312 11.980469 C 8.5820312 12.066679 8.229695 12.09375 8.109375 12.09375 L 7.7324219 12.09375 L 7.6367188 12.244141 C 7.9837913 12.244141 8.3795123 12.1584 8.7070312 12.103516 C 9.0686577 12.042966 9.3852382 11.98474 9.7324219 11.917969 C 10.022057 11.862309 10.393192 11.743603 10.673828 11.650391 C 10.805035 11.606731 11.520029 11.298828 11.53125 11.298828 z M 5.7285156 12.660156 C 5.4998743 12.660156 5.3938883 12.739126 5.2167969 12.753906 L 5.2167969 12.810547 C 5.2167969 13.17384 5.0453014 13.814232 4.9453125 14.107422 C 4.8849855 14.284735 4.7681265 14.487564 4.65625 14.611328 C 4.5474843 14.731759 4.2645048 14.899026 4.2148438 14.966797 C 4.7742261 14.966797 5.678876 14.633507 6.0625 14.431641 C 6.2996959 14.306877 6.5840496 14.123633 6.78125 13.958984 C 6.859575 13.893544 7.390625 13.432678 7.390625 13.378906 C 7.390625 13.149154 6.3411265 12.660156 6.0117188 12.660156 L 5.7285156 12.660156 z M 4.6503906 12.773438 C 4.3376476 12.773438 4.2062349 12.916674 4.0078125 12.962891 C 4.0047025 13.105431 3.8125553 13.630471 3.7636719 13.777344 C 3.6845699 14.01454 3.5288434 14.334916 3.4785156 14.550781 C 3.6023908 14.467791 4.014439 13.877622 4.1210938 13.71875 C 4.3281818 13.410118 4.4724104 13.109845 4.6503906 12.773438 z "
     id="path286" /></svg>