<?xml version="1.0" encoding="UTF-8" standalone="no"?>
<!-- Generado por Andres Lacquaniti  -->

<svg
   xmlns:dc="http://purl.org/dc/elements/1.1/"
   xmlns:cc="http://creativecommons.org/ns#"
   xmlns:rdf="http://www.w3.org/1999/02/22-rdf-syntax-ns#"
   xmlns:svg="http://www.w3.org/2000/svg"
   xmlns="http://www.w3.org/2000/svg"
   xmlns:sodipodi="http://sodipodi.sourceforge.net/DTD/sodipodi-0.dtd"
   xmlns:inkscape="http://www.inkscape.org/namespaces/inkscape"
   version="1.1"
   id="Layer_1"
   x="0px"
   y="0px"
   width="15px"
   height="15px"
   viewBox="0 0 15 15"
   style="enable-background:new 0 0 15 15;"
   xml:space="preserve"
   sodipodi:docname="saac-insignia-lyl.svg"
   inkscape:version="0.92.0 r15299"><metadata
     id="metadata9"><rdf:RDF><cc:Work
         rdf:about=""><dc:format>image/svg+xml</dc:format><dc:type
           rdf:resource="http://purl.org/dc/dcmitype/StillImage" /><dc:title></dc:title></cc:Work></rdf:RDF></metadata><defs
     id="defs7" /><sodipodi:namedview
     pagecolor="#ffffff"
     bordercolor="#666666"
     borderopacity="1"
     objecttolerance="10"
     gridtolerance="10"
     guidetolerance="10"
     inkscape:pageopacity="0"
     inkscape:pageshadow="2"
     inkscape:window-width="1920"
     inkscape:window-height="996"
     id="namedview5"
     showgrid="false"
     inkscape:zoom="22.250293"
     inkscape:cx="-6.6147826"
     inkscape:cy="5.8810399"
     inkscape:window-x="-8"
     inkscape:window-y="-8"
     inkscape:window-maximized="1"
     inkscape:current-layer="Layer_1" /><path
     style="color:#000000;font-style:normal;font-variant:normal;font-weight:normal;font-stretch:normal;font-size:medium;line-height:normal;font-family:sans-serif;font-variant-ligatures:normal;font-variant-position:normal;font-variant-caps:normal;font-variant-numeric:normal;font-variant-alternates:normal;font-feature-settings:normal;text-indent:0;text-align:start;text-decoration:none;text-decoration-line:none;text-decoration-style:solid;text-decoration-color:#000000;letter-spacing:normal;word-spacing:normal;text-transform:none;writing-mode:lr-tb;direction:ltr;text-orientation:mixed;dominant-baseline:auto;baseline-shift:baseline;text-anchor:start;white-space:normal;shape-padding:0;clip-rule:nonzero;display:inline;overflow:visible;visibility:visible;opacity:1;isolation:auto;mix-blend-mode:normal;color-interpolation:sRGB;color-interpolation-filters:linearRGB;solid-color:#000000;solid-opacity:1;vector-effect:none;fill:#000000;fill-opacity:1;fill-rule:evenodd;stroke:none;stroke-width:0.09566337;stroke-linecap:butt;stroke-linejoin:miter;stroke-miterlimit:4;stroke-dasharray:none;stroke-dashoffset:0;stroke-opacity:1;color-rendering:auto;image-rendering:auto;shape-rendering:auto;text-rendering:auto;enable-background:accumulate"
     d="M 8.4788939,0.25965761 8.1721136,0.66394891 7.7001422,0.53510887 7.9904046,0.92385059 7.7237417,1.3348061 8.1933521,1.194859 l 0.30914,0.3554211 v -0.46649 l 0.4554511,-0.15993951 -0.00236,-0.028878 -0.4483719,-0.1310614 z m 4.7810571,0.40873412 -0.31622,0.34431407 -0.46017,-0.1554967 0.235984,0.4087341 -0.30914,0.3842989 0.493209,-0.097741 0.269022,0.390963 c 0,-0.066729 0.02959,-0.4542415 0.06373,-0.4753754 0.01884,-0.011687 0.410707,-0.1147235 0.448372,-0.1155119 l -0.0024,-0.0311 -0.415334,-0.1643821 z M 10.857624,1.9612354 C 10.525835,2.0340142 10.49667,2.6141819 10.317217,2.8653377 10.194066,3.0375081 9.9591047,2.990282 9.8900838,3.1607818 9.8228462,3.3268265 9.6586688,3.4553433 9.6422997,3.6406001 L 9.337879,3.9982423 8.8281512,4.3536633 8.8446704,4.3780981 9.0145796,4.3558845 C 8.8847236,4.5385436 8.4269769,4.9918334 8.4269769,5.2311084 v 0.1599395 c 0,0.048349 0.00891,0.050972 0.018878,0.091077 C 8.3150138,5.665989 7.6854887,6.0074365 7.4381999,6.1241033 7.0942829,6.2864358 6.5774458,6.4344922 6.1497203,6.51951 5.8848806,6.5720441 5.6969032,6.5797906 5.4559251,6.6705633 5.1396661,6.7896447 5.1640992,6.8166135 4.9367573,6.9859998 4.7806643,7.1023879 4.5428034,7.1465648 4.3680334,7.2547867 4.1709918,7.3768366 4.0572985,7.5612961 3.9267417,7.6435285 2.8424892,7.8813194 1.8451373,8.2695346 1.3828223,9.0918685 L 0.851856,8.8763946 C 0.857135,9.0983184 1.1012326,9.2488792 1.2247127,9.373984 l -0.00472,0.033321 -0.2100265,1.41502 v 0.199925 c 0,0.254456 0.051012,0.457595 0.1769896,0.599773 0.1259758,0.142178 0.3248189,0.213253 0.5946813,0.213253 h 0.018879 c 0.2993447,0 0.5688906,-0.07593 0.7929099,-0.146613 0.075309,-0.02377 0.2196418,-0.06228 0.361057,-0.102179 0.1185625,-0.03346 0.2163638,-0.06626 0.2926221,-0.09552 -0.069214,0.143751 -0.2312663,0.282217 -0.2312663,0.51314 l -0.00472,0.03554 0.023599,0.197703 c -0.1897257,0.08576 -0.5839841,0.123917 -0.6725568,0.297665 -0.2074445,0.406807 0.018724,0.397627 -0.5238871,0.397627 -0.1599594,0.224796 -0.2643033,0.467027 -0.2643033,0.841904 0.03365,0.04734 0.066675,0.08886 0.1510304,0.08886 H 1.74388 c 0.1897463,0 0.1699093,-0.245697 0.1699093,-0.428726 0.019139,0.01318 0.128713,0.143747 0.1557498,0.175489 0.06255,0.07341 0.06718,0.199925 0.129792,0.199925 0.013799,0 0.1028013,-0.09028 0.1321517,-0.108845 -0.017834,0.07201 -0.056637,0.08484 -0.056637,0.126618 v 0.142169 c 0,0.143212 0.1132729,0.345684 0.1132729,0.553124 h 0.1722682 c 0,-0.144419 -0.075515,-0.237733 -0.075515,-0.355421 v -0.03776 c 0,-0.08196 0.056637,-0.100201 0.056637,-0.213253 0,-0.174305 -0.079853,-0.239766 -0.1132728,-0.357642 0.1190724,0.02989 0.1090899,0.133148 0.1699092,0.215474 0,-0.315477 0.1321517,-0.507707 0.1321517,-0.697514 v -0.126618 c 0,-0.06479 -0.015731,-0.09891 -0.037758,-0.142168 0.1799341,0.0452 0.172269,0.610938 0.172269,0.857452 0.2265627,-0.14284 0.093824,-0.575997 0.5120887,-0.839683 l -0.1911489,0.310995 0.028319,0.02888 0.3162202,-0.117734 c -0.032563,0.09764 -0.076533,0.07312 -0.099115,0.239908 -0.013629,0.100701 -0.016518,0.181253 -0.016518,0.306552 l 0.2359844,-0.275452 c 0.00761,0.13588 -0.066077,0.194879 -0.066077,0.346536 v 0.126619 c 0,0.0735 0.094383,0.17771 0.1533913,0.17771 0.074476,0 0.094394,-0.08745 0.094394,-0.159941 0,-0.335338 -0.172269,-0.658238 -0.1722701,-1.037383 0.1024841,0.0646 0.2231022,0.339872 0.3233006,0.339872 0.053609,0 0.045545,-0.277272 0.056637,-0.322102 l 0.096754,0.03332 V 12.37953 c 0.1085607,0.03694 0.085681,0.197704 0.188788,0.197703 0.072144,0 0.1057262,-0.207436 0.1510305,-0.268787 0,0.115832 0.00877,0.257164 -0.014159,0.344315 -0.024201,0.09198 -0.099114,0.204019 -0.099114,0.262123 v 0.01776 c 0,0.151103 0.1518376,0.44872 0.3044207,0.44872 0.029034,0 0.1003663,-0.153801 0.1699092,-0.197702 0.1144569,0.224611 -0.069768,0.314376 0.2289054,0.697513 0.1680836,0.215608 0.2643033,0.25151 0.2643033,0.641979 h 0.1345113 v -0.213252 c 0,-0.370052 -0.3988146,-0.453241 -0.3988146,-0.892995 v -0.03554 l 0.066075,-0.697515 c 0.2167637,0.243826 0.1087213,0.766314 0.4082547,1.0907 v -0.46649 c 0.049296,0.06674 0.1887881,0.478069 0.1887881,0.608658 v 0.606437 h 0.077875 c 0.1200027,0 0.1510304,-0.362539 0.1510304,-0.49981 0,-0.298677 -0.084898,-0.45251 -0.1415905,-0.688629 -0.071287,-0.296635 -0.1799619,-0.270442 -0.3138605,-0.508697 0.3142387,0.07908 0.5580115,0.966302 0.6631179,0.966302 0.049791,0 0.077875,-0.134126 0.077875,-0.197703 0.1244334,0.03128 0.1132728,0.157125 0.1132728,0.304329 0.055809,-0.06043 0.027526,-0.08876 0.099115,-0.157718 0.053138,-0.05133 0.069384,-0.06074 0.1179923,-0.122177 0.04891,-0.06182 0.069414,-0.05486 0.1061925,-0.13106 0.030955,-0.06413 0.027296,-0.110005 0.075515,-0.162161 v 0.233245 l 0.3327394,-0.41762 c -0.021881,0.349354 -0.2761019,0.474936 -0.2761019,0.935202 v 0.304329 h 0.037758 c 0.00387,-0.164191 0.1662085,-0.316033 0.1887881,-0.502033 0.026326,-0.215793 -0.024895,-0.462046 0.2289054,-0.462046 0.085677,-0.120381 0.1510304,-0.160363 0.1510304,-0.375413 h 0.018878 l 0.023599,0.0022 -0.1628302,1.032942 0.00708,0.09108 c 0.095053,-0.02386 0.5645434,-0.514985 0.6182801,-0.617544 0.074839,-0.142843 0.3606245,-0.718639 0.4460123,-0.777483 -0.016855,0.06775 -0.1866882,0.428726 -0.056637,0.428726 0.083018,0 0.2172712,-0.271237 0.2643034,-0.3221 v 0.144389 c -0.2228365,0.313155 -0.4808834,0.534475 -0.4932087,1.052935 0.176592,-0.04428 0.2775576,-0.649207 0.5687238,-0.713063 -0.0058,0.06544 -0.2224835,0.40407 -0.2690226,0.584224 -0.047424,0.183215 -0.1434451,0.480221 -0.1486708,0.701956 0.1175259,-0.07407 0.3190537,-0.371674 0.3610571,-0.519804 0.0423,0.01069 0.056636,0.0061 0.056636,0.05553 v 0.195481 c 0.069413,-0.02367 0.1088206,-0.106581 0.1557499,-0.157717 0.060146,-0.06572 0.1058687,-0.07098 0.1864284,-0.111074 -0.047726,0.168178 -0.14334,0.159409 -0.1510305,0.484261 0.1357727,-0.147018 0.2286638,-0.174266 0.3162203,-0.382077 0.073655,-0.175049 0.1051728,-0.331354 0.1887882,-0.499812 0.1164504,-0.234263 0.363274,-0.713187 0.5569242,-0.835238 0,0.184607 -0.2268478,0.551299 -0.2949807,0.74194 -0.077303,0.21635 -0.1604705,0.573652 -0.1604705,0.848568 0.075237,-0.05197 0.1315536,-0.236891 0.1345114,-0.357642 l 0.1250725,0.131061 0.044837,-0.219916 0.068436,0.06221 0.00708,-0.473155 h 0.037757 c 0.00737,0.08382 0.063948,0.142596 0.087315,0.222138 0.031354,0.106638 -0.033055,0.204492 0.047197,0.259902 0.01864,-0.07517 0.03261,-0.175248 0.113272,-0.195481 0.01538,0.06246 0.03776,0.05942 0.03776,0.124397 v 0.126618 c 0.08923,-0.0019 0.113275,-0.02707 0.113273,-0.108843 v -0.446498 c 0.130647,0.03285 0.222045,0.392932 0.285543,0.517582 0.14366,-0.0361 0.09245,-0.217882 0.188789,-0.284337 l -0.03775,0.928537 h 0.436572 l -0.207667,-0.946308 c 0.07553,0.04762 0.210955,0.231024 0.302061,0.231024 0.04378,0 0.05899,-0.01218 0.05899,-0.0533 l 0.0024,-0.15994 -0.136871,-0.857452 c 0.04427,0.03054 0.208857,0.360025 0.240704,0.43539 0.103229,0.244659 0.04409,0.33201 0.101472,0.564231 0.06872,-0.01727 0.291906,-0.274945 0.302061,-0.324322 0.03323,-0.162053 0.02124,-0.397474 0.02124,-0.586444 0.05197,0.03267 0.226546,0.221353 0.226546,0.304329 v 0.464268 c 0.134589,-0.03387 0.130642,-0.203315 0.285542,-0.215473 0,0.188412 -0.09439,0.286993 -0.09439,0.464268 v 0.162161 c 0,0.06831 -0.0059,0.0062 0.01888,0.0533 0.07603,-0.05235 0.03262,-0.06639 0.07551,-0.124397 0.03026,-0.04093 0.08995,-0.05545 0.13687,-0.08664 0.09002,-0.05996 0.167551,-0.132436 0.167551,-0.271007 v -0.09108 c 0,-0.19092 -0.196342,-0.07718 -0.273743,-0.348758 -0.05808,-0.203912 -0.05141,-0.298713 -0.16283,-0.455382 0.227667,0.01782 0.347136,0.375414 0.47433,0.375414 0.07809,0 0.166314,-0.340518 0.151031,-0.375414 -0.06459,-0.260901 -0.06998,-0.574846 -0.153391,-0.81969 -0.104815,-0.307772 -0.270004,-0.333226 -0.554564,-0.459826 -0.226778,-0.100985 -0.15538,-0.542475 -0.46725,-0.544238 -0.267111,-0.0015 -0.624846,-0.06096 -0.771672,-0.182153 0.01518,-0.0073 0.03381,-0.01528 0.06607,-0.02666 0.04173,-0.01471 0.09127,-0.0299 0.14395,-0.04665 0.105347,-0.03349 0.214947,-0.06728 0.276103,-0.0933 0.160592,-0.06854 0.323348,-0.131275 0.47669,-0.222137 0.313924,-0.186055 0.559957,-0.3161 0.790549,-0.6019939 0.370236,-0.4586482 0.736274,-1.1879401 0.736274,-1.9881366 v -0.088935 c 0,-0.3076865 -0.111461,-0.6168175 -0.309139,-0.8507891 C 12.866445,6.7563777 12.580678,6.597165 12.242901,6.597165 c -0.343935,0 -0.532392,0.1226766 -0.757512,0.1754893 l 0.03304,-0.8952162 0.03068,-0.017773 c 0.227165,-0.143146 0.494816,-0.4902178 0.714982,-0.8906799 0.220166,-0.4004623 0.389375,-0.8525237 0.389375,-1.2039878 V 3.5339738 c 0,-0.1391897 -0.06395,-0.2885666 -0.146311,-0.4176202 C 12.42478,2.9872999 12.324169,2.8782375 12.228697,2.8186882 11.940542,2.6390522 11.75688,2.5943294 11.294196,2.5943294 h -0.0048 L 11.25641,2.3366486 c -0.07986,0.050396 -0.120796,0.1599395 -0.210026,0.1599395 -0.11842,0 -0.105325,-0.4061546 -0.134511,-0.5153604 z m -3.7592427,0.024435 c -0.1112189,0 -0.2432134,0.04877 -0.3893759,0.1199549 C 6.562843,2.1768116 6.4020608,2.2725648 6.2464753,2.374412 5.9353006,2.5781063 5.6409362,2.805172 5.5078409,2.903101 5.0617465,3.2313849 4.5992985,3.7481522 4.5992985,4.4980529 v 0.1066263 c 0,0.2959604 0.1929541,0.6341723 0.4578108,0.901881 0.2648578,0.2677076 0.6034693,0.468711 0.9203421,0.468711 h 0.2265457 c 0.1621402,0 0.3179493,-0.087394 0.448372,-0.1932603 C 6.7827917,5.6761467 6.8885142,5.5484874 6.9497105,5.4510258 7.0595278,5.2763248 7.1087336,5.1741147 7.1668162,5.0822763 7.2248965,4.9904355 7.2933653,4.907664 7.4499984,4.7601762 7.6902721,4.5340465 7.8948325,4.3610867 8.0399608,4.1270822 8.1850901,3.8930775 8.2665065,3.6005563 8.2665065,3.1407895 V 2.8897724 C 8.2665076,2.3689266 7.7566928,1.9856702 7.2116542,1.9856702 Z m 0,0.093299 h 0.1132729 c 0.4959779,0 0.9557388,0.3474459 0.9557388,0.8108034 v 0.2510171 c 0,0.4495319 -0.077098,0.7215034 -0.2123863,0.9396432 C 7.8197173,4.298574 7.6238368,4.4655229 7.3815634,4.6935348 7.221691,4.8440725 7.1439236,4.9374988 7.0818622,5.0356268 7.0198068,5.1337571 6.9724437,5.2330635 6.8647553,5.4043764 6.8100944,5.491429 6.7093402,5.6151894 6.5886536,5.7131479 6.4679621,5.8111077 6.3276004,5.8819735 6.2039971,5.8819735 H 5.9774514 c -0.271177,0 -0.5969412,-0.1845096 -0.8495463,-0.4398337 C 4.8753,5.1868155 4.698412,4.8616139 4.6984131,4.6046792 V 4.4980529 c 0,-0.7141516 0.4356975,-1.2032006 0.8684251,-1.5216465 C 5.7024274,2.8766383 5.9961623,2.6508693 6.3031105,2.4499398 6.4565865,2.3494779 6.613843,2.2560051 6.7538421,2.1878166 6.8938414,2.1196326 7.0198418,2.078969 7.0983813,2.0789694 Z m 4.2430107,0.6175427 c 0.401606,0.00386 0.568603,0.035087 0.833029,0.1999252 0.07491,0.046722 0.173969,0.1494462 0.250143,0.2687869 0.07618,0.1193408 0.129792,0.2564116 0.129792,0.3687496 v 0.2310236 c 0,0.3229236 -0.16198,0.7674114 -0.377576,1.1595607 -0.193267,0.351537 -0.426282,0.6197018 -0.613562,0.7685976 l -0.06607,-1.3239426 -0.134513,-0.019992 -0.0024,-0.4398337 z M 2.5415085,4.4514035 c -1.0552001,0 -2.06250924,0.8276429 -2.06250924,1.8348605 v 0.2665669 c 0,0.1473694 0.0771706,0.3089046 0.16754956,0.4553823 0.0903766,0.1464779 0.19605928,0.2786899 0.2595839,0.3598635 C 0.97592087,7.4572564 1.0814561,7.5832458 1.2105533,7.690178 1.3396505,7.7971114 1.4952723,7.8856607 1.668364,7.8856584 2.1589858,7.8856595 2.6215087,7.503412 2.9662823,7.0082132 3.3110546,6.5130146 3.5397256,5.8998901 3.5397256,5.4088189 V 5.1955663 c 0,-0.2461082 -0.1033047,-0.4380037 -0.2737421,-0.5620087 C 3.0955402,4.5095514 2.8622102,4.4514035 2.598145,4.4514035 Z m 0,0.093298 h 0.056637 c 0.2485055,0 0.4612833,0.057027 0.6088412,0.1643831 0.1475616,0.1073541 0.2336259,0.2639714 0.2336259,0.486482 v 0.2132526 c 0,0.4637112 -0.219452,1.0669783 -0.5545644,1.5483025 -0.3351149,0.4813242 -0.782728,0.8374605 -1.2176837,0.8374605 -0.1365906,0 -0.2744609,-0.074178 -0.3940952,-0.1732668 C 1.1546406,7.522218 1.0547914,7.3999861 0.98636735,7.3125423 0.92227002,7.230642 0.81805659,7.1018363 0.73150284,6.9615639 0.64494427,6.8212937 0.5781127,6.6680294 0.5781127,6.5528309 V 6.286264 c 0,-0.948568 0.9631828,-1.7415616 1.9633958,-1.7415625 z M 2.864808,4.6913132 2.779854,4.7468472 c -0.027295,0.017208 -0.05352,0.043331 -0.087315,0.077748 -0.033794,0.034416 -0.070784,0.073654 -0.1085523,0.1132911 -0.037782,0.039636 -0.076906,0.079546 -0.1061937,0.1066264 -0.014644,0.013546 -0.026808,0.022713 -0.035397,0.028877 0,0 -0.00236,0.00222 -0.00236,0.00222 C 2.4157171,5.0710586 2.098506,4.9275084 2.0129056,4.9045624 L 1.906713,4.8779053 2.1615763,5.3688309 1.7745614,5.8086647 2.3574447,5.7153658 2.6595056,6.2062914 2.758619,5.6353966 3.3367818,5.4998919 2.8152555,5.2577622 Z M 13.890032,4.8712449 13.562012,5.2555432 13.097121,5.08894 c 0.02801,0.098665 0.245425,0.3569803 0.245425,0.4287264 0,0.00238 -0.256861,0.3375215 -0.280823,0.3842994 l 0.48141,-0.1110688 0.294983,0.3865194 -0.0048,-0.1421683 0.0236,-0.3354276 0.474329,-0.1288409 -0.0048,-0.026656 -0.431853,-0.1710468 z M 2.7468158,4.906787 2.7114178,5.3110787 3.0512364,5.4710182 2.6713005,5.5598734 2.6052253,5.9352867 2.4093569,5.6131865 2.0199822,5.6753846 2.2772052,5.3821629 2.1002169,5.0400693 c 0.1290163,0.050134 0.3357745,0.1310622 0.3468976,0.1310622 7.491e-4,0 0.00617,-0.00165 0.00944,-0.00222 0.00327,-5.63e-4 0.00678,-0.0013 0.00944,-0.00222 0.00544,-0.0016 0.010025,-0.0024 0.014159,-0.00445 0.00822,-0.0041 0.016433,-0.00819 0.023599,-0.013329 0.01433,-0.010236 0.028575,-0.024937 0.044838,-0.039985 0.032526,-0.030083 0.070384,-0.068813 0.1085522,-0.1088476 0.031475,-0.033029 0.061281,-0.063897 0.089674,-0.093298 z m 9.4960402,1.7815474 c 0.304996,0 0.560664,0.143639 0.743352,0.3598635 0.182691,0.2162244 0.287903,0.506894 0.287903,0.7930335 v 0.088855 c 0,0.7733778 -0.356422,1.488353 -0.715035,1.9326025 -0.219024,0.2715491 -0.448661,0.3925361 -0.764592,0.5797791 -0.143639,0.08512 -0.301878,0.14591 -0.464891,0.215474 -0.04877,0.02075 -0.160763,0.05519 -0.266662,0.08885 -0.05295,0.01683 -0.104887,0.03345 -0.148671,0.04887 -0.03284,0.01157 -0.05545,0.0226 -0.07788,0.03332 -0.186475,-0.09681 -0.36959,-0.230138 -0.658396,-0.266563 -0.06102,-0.22905 -0.16519,-0.349892 -0.16519,-0.6664126 V 9.5939015 l 0.04248,-0.33765 c 0.09459,-0.032972 0.18744,-0.090567 0.257224,-0.1777105 0.07938,-0.099142 0.133759,-0.222514 0.136871,-0.3443148 0.0034,-0.1316547 0.04311,-0.2318697 0.08496,-0.3376499 0.03928,-0.09929 0.07769,-0.2068481 0.08259,-0.3376499 0.09515,-0.065795 0.174944,-0.1568061 0.276104,-0.22658 0.07971,-0.05498 0.121259,-0.1038739 0.15339,-0.1488333 0.03212,-0.044959 0.05643,-0.083822 0.108554,-0.1377258 0.09184,-0.094957 0.173818,-0.1887361 0.238344,-0.3109929 0.03854,-0.073063 0.05072,-0.1251047 0.08023,-0.1977027 0.01493,-0.036691 0.02525,-0.076589 0.03304,-0.1132912 0.0062,-0.028752 0.01123,-0.048883 0.01652,-0.06442 0.238945,-0.058221 0.406708,-0.1710468 0.719754,-0.1710464 z M 7.5160748,8.7808757 h 0.075515 c 0.1821912,0 0.3242975,0.1264422 0.4247726,0.313214 0.100478,0.186774 0.1510305,0.4272763 0.1510305,0.6219879 0,0.1183186 -0.025218,0.2547388 -0.047196,0.3754134 -0.025626,0.14001 -0.010753,0.281661 -0.030678,0.399847 -0.017761,0.105024 -0.00688,0.18074 0.028319,0.235466 0.035232,0.05474 0.090497,0.08216 0.1392308,0.102185 0.048728,0.02003 0.092878,0.03645 0.1227117,0.05776 0.012978,0.0092 0.014888,0.03153 0.0236,0.04443 L 8.2617876,10.917852 C 7.8933844,10.879482 7.5330378,11.053661 7.1573779,11.228847 6.7817181,11.404031 6.3901094,11.582048 5.9585731,11.582045 H 5.654152 c -0.013532,0 -0.011357,-4.2e-5 -0.016519,-0.0089 -0.0052,-0.0089 -0.00944,-0.02835 -0.00944,-0.05109 v -0.01778 c 0,-0.05152 0.014157,-0.156037 0.035398,-0.251015 0.010633,-0.04749 0.022952,-0.09152 0.035396,-0.12884 0.012446,-0.03732 0.026623,-0.06924 0.033038,-0.07775 0.022123,-0.02936 0.081424,-0.07804 0.1439513,-0.124397 0.062527,-0.04636 0.1296966,-0.09171 0.1769884,-0.124398 0.095499,-0.06589 0.199115,-0.178149 0.2997012,-0.297663 0.1005865,-0.119517 0.1966912,-0.245851 0.266663,-0.330987 0.09086,-0.110471 0.1677055,-0.2508671 0.2194666,-0.3842996 0.034701,-0.089395 0.042239,-0.1647045 0.051917,-0.2354657 0.00966,-0.070766 0.019841,-0.1378237 0.061356,-0.2243588 C 7.0035801,9.2177478 7.0751383,9.0774469 7.1691784,8.9674814 7.263216,8.8575113 7.3762133,8.7808859 7.5160772,8.7808859 Z m 1.479626,0.1666031 h 0.018878 c 0.2012426,0 0.1357799,0.2082608 0.1746287,0.3731921 0.028587,0.1213072 0.1141536,0.2477062 0.188788,0.3398712 0.1380406,0.1706854 0.080731,0.6208579 0.1486708,0.8952169 -0.2538943,0 -0.4854132,0.162161 -0.5309663,0.162161 H 8.976822 c -0.065572,0 -0.081768,-0.05576 -0.094395,-0.106627 L 8.976822,9.6627633 8.9815452,9.28735 8.9390681,8.983021 c 0.021785,-0.028036 0.00314,-0.035543 0.056636,-0.035543 z m -4.8353343,0.09552 c 3.745e-4,0.00455 0.00236,0.00523 0.00236,0.013328 V 9.234037 c 0,0.1133138 -0.068096,0.2881241 -0.1557498,0.4464986 -0.087646,0.1583719 -0.1963227,0.3054511 -0.2619437,0.3665274 -0.063578,0.05915 -0.1172479,0.07346 -0.1793479,0.108847 -0.062093,0.03538 -0.1222985,0.09229 -0.1675496,0.217695 -0.012083,0.03351 -0.013386,0.07363 -0.014159,0.124399 -7.661e-4,0.05076 0.00207,0.10964 0.00472,0.171045 0.00544,0.122821 0.014159,0.254229 0.014159,0.317658 v 0.03554 c 0,0.05459 -0.0225,0.14162 -0.054277,0.217695 -0.031439,0.07527 -0.079125,0.14038 -0.096754,0.153276 0,0 0,0.0022 0,0.0022 -0.057597,0.02483 -0.189275,0.06369 -0.3256591,0.102179 -0.1405394,0.03965 -0.2852373,0.07676 -0.3657776,0.102179 -0.2218904,0.07002 -0.4785419,0.14439 -0.7598718,0.14439 H 1.781637 c -0.2517013,0 -0.4148165,-0.06439 -0.5191665,-0.182154 C 1.1581156,11.444319 1.1090802,11.265043 1.1090802,11.022293 V 10.828989 L 1.3073083,9.4917176 c 0.1578993,0.095048 0.3230118,0.1806847 0.4648898,0.2798944 0.169177,0.1183555 0.3744902,0.2243585 0.6749176,0.2243585 0.4029758,0 0.8097021,-0.2117928 1.0454147,-0.3731918 0.1412437,-0.096731 0.2670762,-0.1914633 0.3893746,-0.3065503 0.034943,-0.032903 0.1045615,-0.106433 0.1746299,-0.1754892 0.035038,-0.03453 0.067961,-0.06889 0.096754,-0.093298 0.00387,-0.00318 0.00321,-0.00161 0.00708,-0.00445 z M 5.3591701,10.07372 v 0.108847 c 0,0.223679 -0.089374,0.381189 -0.179348,0.488703 -0.044983,0.05376 -0.09092,0.09408 -0.1250726,0.122176 -0.017073,0.01405 -0.031602,0.02477 -0.042477,0.03332 -0.00544,0.0043 -0.00955,0.0091 -0.014159,0.01333 -0.00229,0.002 -0.0037,0.0049 -0.00708,0.0089 -0.00169,0.0019 -0.00684,0.0063 -0.00708,0.0067 -9.19e-5,1.7e-4 -0.00223,0.0088 -0.00236,0.0089 -4.47e-5,1.45e-4 -0.00236,0.0132 -0.00236,0.01333 0,0.115465 0.042297,0.201176 0.080236,0.277672 0.037927,0.0765 0.070795,0.145397 0.070795,0.24213 v 0.14217 c 0,0.0691 -0.035227,0.152468 -0.087314,0.224359 -0.052087,0.0719 -0.1199665,0.132061 -0.1746299,0.157719 -0.1012738,0.04754 -0.3907749,0.105113 -0.5474842,0.119953 -0.03057,-0.256641 -0.2048009,-0.441267 -0.3940952,-0.54868 0.017386,-0.02081 0.033442,-0.03728 0.051915,-0.05553 0.024371,-0.02408 0.052861,-0.05617 0.082596,-0.115511 0.04305,-0.08593 0.053705,-0.16137 0.082594,-0.231024 0.061597,-0.148503 0.1035224,-0.301242 0.2076669,-0.368749 0.1646486,-0.004 0.2808321,-0.02883 0.3657765,-0.07774 0.09103,-0.05242 0.1551759,-0.120532 0.250145,-0.191039 0.061633,-0.04581 0.1618781,-0.117666 0.2525036,-0.197703 0.063565,-0.05614 0.1008521,-0.119188 0.1392308,-0.182153 z m -1.5126642,1.452782 c 0.2003389,0.0998 0.4106143,0.292762 0.4106143,0.566453 v 0.0067 l -0.6937963,0.08664 c 0.00205,-0.208423 0.1748739,-0.500986 0.283182,-0.65975 z m 9.0594681,1.497211 c 0.0078,0.08668 0.03775,0.11079 0.03775,0.213253 l -0.0071,0.213253 -0.07551,0.706399 0.31858,-0.237688 0.01184,0.01555 c -0.0076,0.08576 -0.09157,0.221355 -0.117998,0.370971 -0.02692,0.152215 -0.03303,0.258722 -0.03303,0.45094 v 0.01778 h 0.245424 l 0.01888,-0.01778 c 0.07671,-0.150452 -0.132244,-1.24952 -0.134511,-1.552745 z m -8.54266,0.248795 C 4.2101196,13.378133 4.2500411,13.537264 4.2500411,13.75677 v 0.0533 l 0.1699093,0.03554 0.096754,-0.07108 -0.1486707,-0.253237 z m -0.3232994,0.715284 v 0.197704 c 0,0.101258 0.00858,0.173298 0.096754,0.195481 0.016384,-0.185442 0.2043925,-0.255634 0.2076668,-0.393185 z"
     id="path28"
     inkscape:connector-curvature="0" /></svg>