<?xml version="1.0" encoding="UTF-8" standalone="no"?>
<!-- Generado por Andres Lacquaniti  -->

<svg
   xmlns:dc="http://purl.org/dc/elements/1.1/"
   xmlns:cc="http://creativecommons.org/ns#"
   xmlns:rdf="http://www.w3.org/1999/02/22-rdf-syntax-ns#"
   xmlns:svg="http://www.w3.org/2000/svg"
   xmlns="http://www.w3.org/2000/svg"
   xmlns:sodipodi="http://sodipodi.sourceforge.net/DTD/sodipodi-0.dtd"
   xmlns:inkscape="http://www.inkscape.org/namespaces/inkscape"
   version="1.1"
   id="Layer_1"
   x="0px"
   y="0px"
   width="15px"
   height="15px"
   viewBox="0 0 15 15"
   style="enable-background:new 0 0 15 15;"
   xml:space="preserve"
   sodipodi:docname="saac-lis.svg"
   inkscape:version="0.92.0 r15299"><metadata
     id="metadata9"><rdf:RDF><cc:Work
         rdf:about=""><dc:format>image/svg+xml</dc:format><dc:type
           rdf:resource="http://purl.org/dc/dcmitype/StillImage" /><dc:title></dc:title></cc:Work></rdf:RDF></metadata><defs
     id="defs7" /><sodipodi:namedview
     pagecolor="#ffffff"
     bordercolor="#666666"
     borderopacity="1"
     objecttolerance="10"
     gridtolerance="10"
     guidetolerance="10"
     inkscape:pageopacity="0"
     inkscape:pageshadow="2"
     inkscape:window-width="1920"
     inkscape:window-height="996"
     id="namedview5"
     showgrid="false"
     inkscape:zoom="15.733333"
     inkscape:cx="7.337977"
     inkscape:cy="6.2154669"
     inkscape:window-x="-8"
     inkscape:window-y="-8"
     inkscape:window-maximized="1"
     inkscape:current-layer="Layer_1" /><path
     style="fill:#000000;fill-rule:evenodd;stroke-width:1.64865971"
     d="M 7.4960938 0.11132812 C 7.0938207 0.54822295 6.429503 1.0568997 6.2910156 1.1640625 C 5.2639006 1.9372839 4.7813763 2.9956327 4.7714844 3.9238281 C 4.7615924 5.6417315 6.2050617 7.142783 6.3847656 9.2167969 C 6.6765784 9.1805264 6.9893627 9.1693129 7.3125 9.1660156 C 7.2745809 7.0705691 7.3562622 4.2209809 7.4980469 2.1601562 C 7.6398317 4.2209809 7.7179111 7.0705691 7.6816406 9.1660156 C 8.0064266 9.1693129 8.3178667 9.1805264 8.6113281 9.2167969 C 8.7926807 7.142783 10.233892 5.6417315 10.220703 3.9238281 C 10.215757 2.9956327 9.7318886 1.9372839 8.703125 1.1640625 C 8.5662862 1.0568997 7.8983665 0.54822295 7.4960938 0.11132812 z M 2.5761719 4.7148438 C 0.98686392 4.7148438 -0.10933328 6.2350081 0.21875 7.7402344 C 0.4396704 8.7541601 1.3542042 9.6399581 2.4472656 9.4882812 C 2.2642643 8.7859523 2.5849357 7.9994366 3.3515625 7.890625 C 4.2434874 7.7620296 4.7620068 8.6782776 4.9433594 9.4003906 C 5.3274971 9.3130116 5.7438783 9.2810174 6.0703125 9.2480469 L 6.0859375 9.2460938 C 6.0100992 7.665029 4.8068085 4.7181437 2.5761719 4.7148438 z M 12.421875 4.71875 C 10.189589 4.71875 8.9879478 7.6686309 8.9121094 9.2480469 L 8.9335938 9.2480469 C 9.2534337 9.2810201 9.6705496 9.3189974 10.054688 9.3964844 C 10.23604 8.685912 10.754865 7.762334 11.648438 7.8925781 C 12.413415 8.0013896 12.733782 8.7925469 12.550781 9.4882812 C 13.640545 9.6383093 14.560329 8.7567221 14.78125 7.7460938 C 15.107684 6.2392188 14.011183 4.7154526 12.421875 4.71875 z M 1.5332031 5.9453125 L 1.9804688 6.390625 L 2.5410156 6.0996094 L 2.2597656 6.6582031 L 2.7070312 7.1113281 L 2.0859375 7.0097656 L 1.8007812 7.5742188 L 1.6992188 6.9570312 L 1.0761719 6.8574219 L 1.6347656 6.5703125 L 1.5332031 5.9453125 z M 13.462891 5.9472656 L 13.361328 6.5683594 L 13.919922 6.8613281 L 13.296875 6.9550781 L 13.191406 7.578125 L 12.914062 7.0136719 L 12.287109 7.1113281 L 12.736328 6.6660156 L 12.455078 6.1035156 L 13.015625 6.3886719 L 13.462891 5.9472656 z M 7.4960938 9.4824219 C 5.8292987 9.4824219 4.4765625 9.7321077 4.4765625 10.037109 C 4.4765625 10.342111 5.8292987 10.585937 7.4960938 10.585938 C 9.16124 10.585936 10.515625 10.342111 10.515625 10.037109 C 10.515625 9.7321077 9.1628886 9.4824219 7.4960938 9.4824219 z M 7.4941406 9.7988281 C 8.9367178 9.7988281 10.103516 9.9428314 10.103516 10.035156 C 10.103516 10.125833 8.9445303 10.259766 7.5019531 10.259766 C 6.0626732 10.259766 4.8847656 10.125836 4.8847656 10.035156 C 4.8847656 9.9428318 6.053212 9.7988281 7.4941406 9.7988281 z M 5.0449219 10.681641 C 4.8866506 11.66754 4.0591875 12.073718 3.2480469 11.679688 C 3.3024529 12.337502 3.8378995 12.947266 4.5253906 12.947266 C 5.4693872 12.947266 6.0161407 11.503831 6.0859375 10.84375 C 5.7026137 10.805845 5.349364 10.752911 5.0449219 10.695312 L 5.0449219 10.681641 z M 6.0859375 10.84375 L 6.0878906 10.84375 L 6.0878906 10.837891 C 6.0877239 10.839513 6.0861101 10.842118 6.0859375 10.84375 z M 9.9433594 10.6875 C 9.9436209 10.688995 9.9450478 10.689914 9.9453125 10.691406 C 9.9469872 10.691074 9.9495001 10.691739 9.9511719 10.691406 L 9.9433594 10.6875 z M 9.9453125 10.691406 C 9.6403559 10.751856 9.2881579 10.804428 8.9003906 10.84375 C 8.9773713 11.509289 9.5225874 12.929688 10.460938 12.929688 C 11.148427 12.929688 11.683875 12.325785 11.738281 11.667969 C 10.93334 12.053156 10.11524 11.649358 9.9453125 10.691406 z M 8.9003906 10.84375 C 8.9001416 10.841597 8.8986767 10.838073 8.8984375 10.835938 L 8.8984375 10.84375 L 8.9003906 10.84375 z M 6.3652344 10.869141 C 6.2844504 11.490686 6.0231078 12.260131 5.5136719 12.970703 C 5.8631878 13.740627 6.6915478 14.493498 7.4960938 14.849609 C 8.3006397 14.493498 9.1296087 13.740627 9.4824219 12.970703 C 8.9729861 12.258482 8.7135968 11.490686 8.6328125 10.869141 C 8.3360538 10.893871 8.0243092 10.904297 7.7011719 10.904297 C 7.6599559 11.463193 7.6596161 12.648039 7.4980469 13.291016 C 7.3381269 12.64639 7.3383959 11.463193 7.2988281 10.904297 C 6.9740421 10.904297 6.6586958 10.893861 6.3652344 10.869141 z "
     id="line7" /></svg>