<?xml version="1.0" encoding="UTF-8" standalone="no"?>
<!-- Generado por Andres Lacquaniti  -->

<svg
   xmlns:dc="http://purl.org/dc/elements/1.1/"
   xmlns:cc="http://creativecommons.org/ns#"
   xmlns:rdf="http://www.w3.org/1999/02/22-rdf-syntax-ns#"
   xmlns:svg="http://www.w3.org/2000/svg"
   xmlns="http://www.w3.org/2000/svg"
   xmlns:sodipodi="http://sodipodi.sourceforge.net/DTD/sodipodi-0.dtd"
   xmlns:inkscape="http://www.inkscape.org/namespaces/inkscape"
   version="1.1"
   id="Layer_1"
   x="0px"
   y="0px"
   width="15px"
   height="15px"
   viewBox="0 0 15 15"
   style="enable-background:new 0 0 15 15;"
   xml:space="preserve"
   sodipodi:docname="saac-isologo.svg"
   inkscape:version="0.92.0 r15299"><metadata
     id="metadata9"><rdf:RDF><cc:Work
         rdf:about=""><dc:format>image/svg+xml</dc:format><dc:type
           rdf:resource="http://purl.org/dc/dcmitype/StillImage" /><dc:title></dc:title></cc:Work></rdf:RDF></metadata><defs
     id="defs7" /><sodipodi:namedview
     pagecolor="#ffffff"
     bordercolor="#666666"
     borderopacity="1"
     objecttolerance="10"
     gridtolerance="10"
     guidetolerance="10"
     inkscape:pageopacity="0"
     inkscape:pageshadow="2"
     inkscape:window-width="1920"
     inkscape:window-height="996"
     id="namedview5"
     showgrid="false"
     inkscape:zoom="15.733333"
     inkscape:cx="20.83138"
     inkscape:cy="1.3886454"
     inkscape:window-x="-8"
     inkscape:window-y="-8"
     inkscape:window-maximized="1"
     inkscape:current-layer="Layer_1" /><path
     style="stroke-width:0.19337878"
     d="M 7.3671875 1.3671875 L 7.0449219 1.6035156 L 6.6289062 1.4628906 L 6.8046875 1.8417969 L 6.5722656 2.1523438 L 6.9765625 2.1679688 L 7.2011719 2.4726562 L 7.2949219 2.1191406 L 7.6933594 1.9960938 L 7.3710938 1.7695312 L 7.3671875 1.3671875 z M 3.765625 1.3691406 L 3.4785156 1.6484375 L 3.046875 1.5683594 L 3.2734375 1.9179688 L 3.0878906 2.2578125 L 3.4902344 2.2167969 L 3.7558594 2.4863281 L 3.7988281 2.1230469 L 4.1757812 1.9472656 L 3.8261719 1.765625 L 3.765625 1.3691406 z M 6.0800781 2.1816406 C 5.7024094 2.1534073 5.3103149 2.2648901 4.9550781 2.3867188 C 4.6870551 2.4789603 4.4448679 2.5621519 4.1855469 2.703125 C 3.3619468 3.14983 2.6962602 3.6493075 2.2246094 4.1660156 C 1.3426089 5.1315558 0.89741259 5.9085707 0.91210938 5.9257812 L 1.328125 6.3847656 C 1.4549815 6.566735 1.5998994 6.7496712 1.7265625 6.9316406 L 2.0117188 7.421875 L 2.21875 7.84375 L 2.4785156 8.4863281 L 2.6152344 8.9589844 L 2.7363281 9.515625 C 2.8639581 10.704517 2.8049198 11.749825 1.9296875 12.689453 C 2.9000622 12.445022 3.5788984 12.047127 4.046875 11.408203 C 3.4158801 10.171159 2.8780553 9.0146005 3.0078125 7.5644531 C 3.0211556 7.4151647 3.0511293 7.2105702 3.0859375 7.0371094 C 3.1574877 6.6814859 3.2342202 6.3681933 3.4335938 5.9023438 C 3.5768875 5.5679919 3.8094059 5.0358526 4.0273438 4.7148438 C 4.3930231 4.1755103 4.7272392 3.6633858 5.0878906 3.2441406 C 5.6510096 2.5901336 6.1804417 2.1891823 6.0800781 2.1816406 z M 6.2402344 4.1015625 C 6.2162554 4.0292388 5.793665 4.4117033 5.6679688 4.5273438 C 5.0841581 5.0668705 5.01636 5.1378015 4.484375 5.734375 C 3.9754021 6.3054225 3.5111967 7.2388225 3.3808594 8.0742188 C 3.2389194 8.9836791 3.6313813 9.8170825 4.1132812 10.431641 C 3.8164448 9.3471721 3.6330057 8.2687966 4.7070312 7.6484375 C 4.8497448 7.5662515 5.08586 7.455929 5.2929688 7.4433594 C 5.3730275 7.4383315 5.5566792 7.4217396 5.6582031 7.4472656 C 5.6713528 7.4509398 5.749033 7.2554532 5.7890625 7.1757812 C 5.8331528 7.088374 5.8510016 6.998395 5.8925781 6.8964844 C 5.9519453 6.75029 5.9894609 6.6332767 6.0292969 6.484375 C 6.2418202 5.684367 6.2046527 4.5902306 6.2402344 4.1015625 z M 7.2890625 5.0664062 L 6.9707031 5.3066406 L 6.5527344 5.1757812 L 6.734375 5.5507812 L 6.5078125 5.8652344 L 6.9121094 5.8730469 L 7.1425781 6.1738281 L 7.2304688 5.8183594 L 7.6269531 5.6894531 L 7.3007812 5.46875 L 7.2890625 5.0664062 z M 0.6015625 6.8925781 C 0.25502774 7.3955563 0.28910115 8.1019104 0.37109375 8.703125 C 0.41247681 9.0071164 0.47764542 9.2296179 0.48828125 9.4960938 C 2.9430314 8.6734604 1.7250156 12.196106 1.4921875 12.509766 C 1.4803914 12.525043 1.9480971 11.939742 2.3046875 11.148438 C 2.662825 10.352683 2.6156213 9.1660158 2.1855469 8.5214844 C 1.718924 7.8226135 1.2447403 7.3100829 0.6015625 6.8925781 z M 1.2617188 7.6914062 L 1.3222656 8.0878906 L 1.6738281 8.2695312 L 1.2949219 8.4453125 L 1.2519531 8.8085938 L 0.98632812 8.5390625 L 0.58398438 8.5800781 L 0.77148438 8.2402344 L 0.54296875 7.890625 L 0.9765625 7.9707031 L 1.2617188 7.6914062 z M 5.4980469 8.6289062 C 5.3008006 8.6289062 5.134379 8.6990254 4.9980469 8.8359375 C 4.8615219 8.9726563 4.7910156 9.1404509 4.7910156 9.3378906 C 4.7910156 9.6320197 4.9584622 10.031772 5.296875 10.533203 C 5.4736232 10.791364 5.5780862 10.953594 5.6132812 11.019531 C 5.7347227 11.237276 5.796875 11.415088 5.796875 11.556641 C 5.796875 11.643082 5.7666305 11.713841 5.7109375 11.769531 C 5.6502165 11.825031 5.5788789 11.855469 5.4980469 11.855469 C 5.4118 11.855469 5.3408492 11.825031 5.2851562 11.769531 C 5.2296563 11.713644 5.1992188 11.642891 5.1992188 11.556641 L 5.1992188 11.449219 L 4.7910156 11.359375 L 4.7910156 11.556641 C 4.7910156 11.754468 4.8615215 11.921875 4.9980469 12.058594 C 5.1343789 12.195123 5.3008006 12.265625 5.4980469 12.265625 C 5.6949065 12.265625 5.8615215 12.19512 5.9980469 12.058594 C 6.1343785 11.921875 6.2050781 11.754274 6.2050781 11.556641 C 6.205078 11.273341 6.0543394 10.902421 5.7460938 10.441406 C 5.5337638 10.11711 5.4176208 9.9393955 5.4023438 9.9140625 C 5.2658183 9.6812345 5.1992188 9.4898863 5.1992188 9.3378906 C 5.1992188 9.2516437 5.2296562 9.180693 5.2851562 9.125 C 5.3408492 9.069113 5.4119939 9.0390625 5.4980469 9.0390625 C 5.5788793 9.0390625 5.6504095 9.069114 5.7109375 9.125 C 5.7666305 9.180693 5.796875 9.2518366 5.796875 9.3378906 L 5.796875 9.4433594 L 6.2050781 9.5351562 L 6.2050781 9.3378906 C 6.2050781 9.1402575 6.1345724 8.9726563 5.9980469 8.8359375 C 5.8615215 8.6990254 5.6949065 8.6289062 5.4980469 8.6289062 z M 7.2558594 8.6289062 C 7.0588064 8.6289062 6.8923848 8.6990253 6.7558594 8.8359375 C 6.6195278 8.9726563 6.5488281 9.1404508 6.5488281 9.3378906 L 6.5488281 11.556641 C 6.5488281 11.754468 6.6195274 11.921875 6.7558594 12.058594 C 6.8923848 12.195123 7.0588064 12.265625 7.2558594 12.265625 C 7.452719 12.265625 7.6195274 12.19512 7.7558594 12.058594 C 7.8921915 11.921875 7.9628906 11.754274 7.9628906 11.556641 L 7.9628906 11.375 L 7.5546875 11.511719 L 7.5546875 11.556641 C 7.5546875 11.643081 7.524443 11.713841 7.46875 11.769531 C 7.4084159 11.825031 7.3364984 11.855469 7.2558594 11.855469 C 7.1699992 11.855469 7.1006149 11.825031 7.0449219 11.769531 C 6.9896159 11.713645 6.9589844 11.642891 6.9589844 11.556641 L 6.9589844 9.3378906 C 6.9589844 9.2516436 6.9894219 9.180693 7.0449219 9.125 C 7.100615 9.069114 7.1699994 9.0390625 7.2558594 9.0390625 C 7.336305 9.0390625 7.408222 9.069114 7.46875 9.125 C 7.524249 9.1806931 7.5546875 9.2518366 7.5546875 9.3378906 L 7.5546875 9.453125 L 7.9628906 9.453125 L 7.9628906 9.3378906 C 7.9628906 9.1402575 7.8921915 8.9726563 7.7558594 8.8359375 C 7.6195274 8.6990253 7.452719 8.6289062 7.2558594 8.6289062 z M 9.015625 8.6289062 C 8.818572 8.6289062 8.651957 8.6990253 8.515625 8.8359375 C 8.3792929 8.9726563 8.3066406 9.1404508 8.3066406 9.3378906 L 8.3066406 11.556641 C 8.3066406 11.754468 8.3792929 11.921875 8.515625 12.058594 C 8.651957 12.195123 8.818572 12.265625 9.015625 12.265625 C 9.2128713 12.265625 9.3794863 12.19512 9.515625 12.058594 C 9.6521506 11.921875 9.7226562 11.754274 9.7226562 11.556641 L 9.7226562 9.3378906 C 9.7226564 9.1402575 9.6521504 8.9726563 9.515625 8.8359375 C 9.3794863 8.6990253 9.2128713 8.6289062 9.015625 8.6289062 z M 10.066406 8.6289062 L 10.066406 11.556641 C 10.066406 11.754468 10.137105 11.921875 10.273438 12.058594 C 10.409769 12.195123 10.576386 12.265625 10.773438 12.265625 C 10.970491 12.265625 11.137105 12.19512 11.273438 12.058594 C 11.409966 11.921875 11.480469 11.754274 11.480469 11.556641 L 11.480469 8.6289062 L 11.072266 8.6289062 L 11.072266 11.556641 C 11.072266 11.643081 11.041828 11.713841 10.986328 11.769531 C 10.925414 11.825031 10.854077 11.855469 10.773438 11.855469 C 10.687383 11.855469 10.616047 11.825031 10.560547 11.769531 C 10.504857 11.713645 10.474609 11.642891 10.474609 11.556641 L 10.474609 8.6289062 L 10.066406 8.6289062 z M 11.722656 8.6289062 L 11.722656 9.0390625 L 12.087891 9.0390625 L 12.087891 12.265625 L 12.496094 12.265625 L 12.496094 9.0390625 L 12.865234 9.0390625 L 12.865234 8.6289062 L 11.722656 8.6289062 z M 13.804688 8.6289062 C 13.607634 8.6289064 13.441018 8.6990254 13.304688 8.8359375 C 13.168159 8.9726563 13.097656 9.1404509 13.097656 9.3378906 C 13.097656 9.6320197 13.26491 10.031772 13.603516 10.533203 C 13.780458 10.791364 13.886485 10.953591 13.921875 11.019531 C 14.043125 11.237276 14.103516 11.415088 14.103516 11.556641 C 14.103516 11.643082 14.073268 11.713841 14.017578 11.769531 C 13.956857 11.825031 13.885517 11.855469 13.804688 11.855469 C 13.718633 11.855469 13.64925 11.825031 13.59375 11.769531 C 13.53825 11.713644 13.507812 11.642891 13.507812 11.556641 L 13.507812 11.449219 L 13.097656 11.359375 L 13.097656 11.556641 C 13.097656 11.754468 13.168162 11.921875 13.304688 12.058594 C 13.441019 12.195123 13.607633 12.265625 13.804688 12.265625 C 14.001739 12.265625 14.168743 12.19512 14.304688 12.058594 C 14.441022 11.921875 14.511719 11.754274 14.511719 11.556641 C 14.511719 11.273341 14.360786 10.902421 14.052734 10.441406 C 13.840791 10.11711 13.724064 9.9393955 13.708984 9.9140625 C 13.57246 9.6812345 13.507812 9.4898863 13.507812 9.3378906 C 13.507812 9.2516437 13.53825 9.180693 13.59375 9.125 C 13.64925 9.069113 13.718826 9.0390625 13.804688 9.0390625 C 13.885518 9.0390625 13.957048 9.069114 14.017578 9.125 C 14.073268 9.180693 14.103516 9.2518366 14.103516 9.3378906 L 14.103516 9.4433594 L 14.511719 9.5351562 L 14.511719 9.3378906 C 14.511719 9.1402575 14.441018 8.9726563 14.304688 8.8359375 C 14.168742 8.6990254 14.001741 8.6289062 13.804688 8.6289062 z M 9.015625 9.0390625 C 9.0964573 9.0390625 9.1658415 9.069114 9.2265625 9.125 C 9.2820625 9.1806931 9.3125 9.2518366 9.3125 9.3378906 L 9.3125 11.556641 C 9.3125 11.643082 9.2820625 11.713641 9.2265625 11.769531 C 9.1656482 11.825031 9.096457 11.855469 9.015625 11.855469 C 8.9297648 11.855469 8.8582344 11.825031 8.8027344 11.769531 C 8.7472344 11.713645 8.7167969 11.642891 8.7167969 11.556641 L 8.7167969 9.3378906 C 8.7167969 9.2516436 8.7472344 9.180693 8.8027344 9.125 C 8.8582341 9.069114 8.929958 9.0390625 9.015625 9.0390625 z M 10.851562 12.695312 L 10.660156 12.751953 L 10.658203 13.691406 L 10.824219 13.691406 L 10.824219 13.181641 C 10.824219 13.180141 10.824672 13.178681 10.826172 13.175781 L 10.826172 13.167969 C 10.826172 13.165069 10.825719 13.158144 10.824219 13.152344 L 10.824219 13.138672 C 10.824219 13.072154 10.823666 13.023317 10.822266 12.992188 C 10.820716 12.959696 10.8169 12.931367 10.8125 12.904297 C 10.83107 12.945487 10.844249 12.97757 10.855469 13 C 10.866879 13.02262 10.878772 13.041574 10.888672 13.058594 L 11.285156 13.714844 L 11.470703 13.660156 L 11.474609 12.716797 L 11.304688 12.716797 L 11.304688 13.257812 L 11.304688 13.271484 C 11.303286 13.278654 11.304688 13.283009 11.304688 13.287109 C 11.304688 13.311279 11.305494 13.34097 11.308594 13.375 C 11.311314 13.408841 11.312759 13.448891 11.318359 13.494141 C 11.310049 13.471521 11.301824 13.447205 11.289062 13.421875 C 11.275143 13.397895 11.256805 13.368558 11.234375 13.330078 L 10.851562 12.695312 z M 13.046875 12.695312 L 12.857422 12.751953 L 12.853516 13.691406 L 13.021484 13.691406 L 13.021484 13.181641 C 13.021484 13.180141 13.019984 13.178681 13.021484 13.175781 L 13.021484 13.167969 C 13.021484 13.165069 13.022984 13.158144 13.021484 13.152344 L 13.021484 13.138672 C 13.021484 13.072154 13.019078 13.023317 13.017578 12.992188 C 13.015978 12.959696 13.011913 12.931367 13.007812 12.904297 C 13.026183 12.945487 13.041324 12.97757 13.052734 13 C 13.063954 13.02262 13.074084 13.041574 13.083984 13.058594 L 13.480469 13.714844 L 13.666016 13.660156 L 13.669922 12.716797 L 13.5 12.716797 L 13.5 13.257812 L 13.5 13.271484 C 13.4988 13.278654 13.5 13.283009 13.5 13.287109 C 13.5 13.311279 13.500806 13.34116 13.503906 13.375 C 13.507016 13.408841 13.509825 13.448891 13.515625 13.494141 C 13.507305 13.471521 13.496755 13.447205 13.484375 13.421875 C 13.470255 13.397895 13.452306 13.368558 13.429688 13.330078 L 13.046875 12.695312 z M 9.4179688 12.699219 C 9.3576346 12.699219 9.3002589 12.705423 9.2480469 12.720703 C 9.1958348 12.736553 9.150178 12.757719 9.109375 12.787109 C 9.0360843 12.839128 8.9818615 12.901663 8.9453125 12.970703 C 8.9103105 13.040126 8.890625 13.119834 8.890625 13.208984 C 8.890625 13.290977 8.906366 13.365714 8.9375 13.433594 C 8.9672804 13.50147 9.0124925 13.559059 9.0703125 13.605469 C 9.1138227 13.640859 9.1642361 13.664821 9.2207031 13.681641 C 9.2754292 13.698671 9.3411585 13.708984 9.4140625 13.708984 C 9.4689821 13.708984 9.5227989 13.703059 9.5761719 13.693359 C 9.6297378 13.683499 9.6835553 13.668357 9.7382812 13.648438 L 9.7480469 13.160156 L 9.5703125 13.160156 L 9.5664062 13.53125 C 9.5343053 13.53976 9.5061877 13.544428 9.4804688 13.548828 C 9.4539767 13.552928 9.4312342 13.556641 9.4101562 13.556641 C 9.3186881 13.556641 9.2410076 13.522414 9.1816406 13.458984 C 9.1211136 13.395556 9.0898437 13.314067 9.0898438 13.216797 C 9.0898436 13.108119 9.1255216 13.020212 9.1972656 12.951172 C 9.2678488 12.882131 9.3597037 12.847656 9.4707031 12.847656 C 9.5002901 12.847656 9.5308243 12.850675 9.5664062 12.859375 C 9.6016014 12.868085 9.6392906 12.881416 9.6816406 12.898438 L 9.7226562 12.757812 C 9.6746983 12.738093 9.6250777 12.722941 9.5742188 12.712891 C 9.5235534 12.703071 9.4711478 12.699219 9.4179688 12.699219 z M 4.8964844 12.716797 L 4.8789062 13.691406 L 5.1777344 13.691406 C 5.3535158 13.691406 5.4906216 13.647957 5.5878906 13.560547 C 5.6845797 13.472947 5.7324219 13.34959 5.7324219 13.191406 C 5.7324219 13.040378 5.6864172 12.923787 5.5976562 12.841797 C 5.5077351 12.758644 5.3821551 12.716797 5.21875 12.716797 L 4.8964844 12.716797 z M 5.9296875 12.716797 L 5.9121094 13.691406 L 6.4589844 13.691406 L 6.4628906 13.537109 L 6.0957031 13.537109 L 6.0996094 13.265625 L 6.4472656 13.265625 L 6.4511719 13.117188 L 6.1015625 13.117188 L 6.1054688 12.869141 L 6.4628906 12.869141 L 6.4648438 12.716797 L 5.9296875 12.716797 z M 7.3457031 12.716797 L 6.9511719 13.65625 L 7.1269531 13.710938 L 7.2363281 13.433594 L 7.6308594 13.433594 L 7.734375 13.71875 L 7.9082031 13.654297 L 7.5488281 12.716797 L 7.3457031 12.716797 z M 8.0507812 12.716797 L 8.0351562 13.691406 L 8.2148438 13.691406 L 8.2226562 13.302734 L 8.2675781 13.302734 C 8.3041261 13.302734 8.3332296 13.309886 8.3554688 13.322266 C 8.3769337 13.336386 8.3974899 13.358951 8.4199219 13.394531 L 8.6289062 13.71875 L 8.7832031 13.628906 L 8.6230469 13.380859 C 8.5979079 13.341219 8.5747985 13.312699 8.5546875 13.292969 C 8.5338025 13.272849 8.5105204 13.2587 8.4882812 13.25 C 8.5557705 13.23453 8.6083884 13.205016 8.6464844 13.160156 C 8.6830324 13.114712 8.7011719 13.057914 8.7011719 12.990234 C 8.7011719 12.898379 8.6711013 12.830406 8.6132812 12.785156 C 8.555461 12.739906 8.4691561 12.716797 8.3535156 12.716797 L 8.0507812 12.716797 z M 9.9570312 12.716797 L 9.9394531 13.691406 L 10.488281 13.691406 L 10.490234 13.537109 L 10.123047 13.537109 L 10.126953 13.265625 L 10.476562 13.265625 L 10.478516 13.117188 L 10.130859 13.117188 L 10.134766 12.869141 L 10.492188 12.869141 L 10.494141 12.716797 L 9.9570312 12.716797 z M 11.611328 12.716797 L 11.605469 12.873047 L 11.871094 12.873047 L 11.857422 13.691406 L 12.041016 13.691406 L 12.054688 12.873047 L 12.318359 12.873047 L 12.320312 12.716797 L 11.611328 12.716797 z M 12.462891 12.716797 L 12.445312 13.691406 L 12.625 13.691406 L 12.640625 12.716797 L 12.462891 12.716797 z M 14.183594 12.716797 L 13.789062 13.65625 L 13.964844 13.710938 L 14.074219 13.433594 L 14.466797 13.433594 L 14.572266 13.71875 L 14.746094 13.654297 L 14.386719 12.716797 L 14.183594 12.716797 z M 5.0683594 12.859375 L 5.1835938 12.859375 C 5.3019416 12.859375 5.3931971 12.888096 5.4550781 12.947266 C 5.5169591 13.00528 5.5488281 13.091739 5.5488281 13.203125 C 5.5488281 13.306196 5.5171139 13.387742 5.4511719 13.451172 C 5.384843 13.513242 5.2971457 13.544922 5.1875 13.544922 L 5.0585938 13.544922 L 5.0683594 12.859375 z M 8.2265625 12.863281 L 8.3476562 12.863281 C 8.4035427 12.863281 8.4469755 12.874457 8.4765625 12.898438 C 8.5061495 12.922416 8.5195312 12.959854 8.5195312 13.007812 C 8.5195312 13.055769 8.502398 13.093811 8.46875 13.119141 C 8.4362624 13.144671 8.3878599 13.15625 8.3261719 13.15625 L 8.2226562 13.15625 L 8.2265625 12.863281 z M 7.4375 12.871094 C 7.444461 12.898164 7.4500713 12.921899 7.4570312 12.943359 C 7.4626393 12.964439 7.4686194 12.982577 7.4746094 12.998047 L 7.578125 13.292969 L 7.2910156 13.292969 L 7.4023438 12.996094 C 7.4122057 12.970574 7.4201713 12.948614 7.4257812 12.927734 C 7.4313873 12.907814 7.4346 12.888304 7.4375 12.871094 z M 14.275391 12.871094 C 14.282351 12.898164 14.287722 12.921899 14.294922 12.943359 C 14.300332 12.964439 14.3069 12.982577 14.3125 12.998047 L 14.416016 13.292969 L 14.128906 13.292969 L 14.240234 12.996094 C 14.250104 12.970574 14.258072 12.948614 14.263672 12.927734 C 14.269482 12.907814 14.272491 12.888304 14.275391 12.871094 z "
     id="path2" /></svg>