<?xml version="1.0" encoding="UTF-8" standalone="no"?>
<!-- Generado por Andres Lacquaniti  -->

<svg
   xmlns:dc="http://purl.org/dc/elements/1.1/"
   xmlns:cc="http://creativecommons.org/ns#"
   xmlns:rdf="http://www.w3.org/1999/02/22-rdf-syntax-ns#"
   xmlns:svg="http://www.w3.org/2000/svg"
   xmlns="http://www.w3.org/2000/svg"
   xmlns:sodipodi="http://sodipodi.sourceforge.net/DTD/sodipodi-0.dtd"
   xmlns:inkscape="http://www.inkscape.org/namespaces/inkscape"
   version="1.1"
   id="Layer_1"
   x="0px"
   y="0px"
   width="15px"
   height="15px"
   viewBox="0 0 15 15"
   style="enable-background:new 0 0 15 15;"
   xml:space="preserve"
   sodipodi:docname="saac-dirigente.svg"
   inkscape:version="0.92.4 (5da689c313, 2019-01-14)"><metadata
     id="metadata9"><rdf:RDF><cc:Work
         rdf:about=""><dc:format>image/svg+xml</dc:format><dc:type
           rdf:resource="http://purl.org/dc/dcmitype/StillImage" /></cc:Work></rdf:RDF></metadata><defs
     id="defs7" /><sodipodi:namedview
     pagecolor="#ffffff"
     bordercolor="#666666"
     borderopacity="1"
     objecttolerance="10"
     gridtolerance="10"
     guidetolerance="10"
     inkscape:pageopacity="0"
     inkscape:pageshadow="2"
     inkscape:window-width="1169"
     inkscape:window-height="725"
     id="namedview5"
     showgrid="false"
     inkscape:zoom="11.125147"
     inkscape:cx="-5.3636215"
     inkscape:cy="4.5285423"
     inkscape:window-x="663"
     inkscape:window-y="83"
     inkscape:window-maximized="0"
     inkscape:current-layer="Layer_1" /><g
     style="clip-rule:evenodd;fill-rule:evenodd"
     transform="matrix(0.03011585,0,0,-0.03011585,-14.323265,-6.8330439)"
     id="g5219" /><g
     transform="matrix(0.33364513,0,0,-0.33364513,9.4990215,3.4121914)"
     id="g5634"
     style="clip-rule:evenodd;fill:#000000;fill-rule:evenodd"><path
       id="path5636"
       style="fill:#000000;fill-opacity:1;fill-rule:nonzero;stroke:none"
       d="M 0,0 C 1.762,-0.131 3.294,1.191 3.427,2.951 3.558,4.711 2.236,6.244 0.476,6.375 -1.284,6.506 -2.818,5.186 -2.949,3.427 -3.08,1.667 -1.76,0.133 0,0"
       inkscape:connector-curvature="0" /></g><g
     transform="matrix(0.33364513,0,0,-0.33364513,14.6852,4.0520884)"
     id="g5638"
     style="clip-rule:evenodd;fill:#000000;fill-rule:evenodd"><path
       id="path5640"
       style="fill:#000000;fill-opacity:1;fill-rule:nonzero;stroke:none"
       d="m 0,0 -13.25,0.52 -0.002,-0.079 c -0.144,-0.007 -0.28,-0.022 -0.42,-0.033 -0.199,0.017 -0.4,0.002 -0.603,-0.049 -6.632,-0.802 -9.368,-5.637 -9.496,-5.871 -0.495,-0.894 -0.173,-2.014 0.717,-2.516 0.288,-0.162 0.6,-0.239 0.908,-0.239 0.649,0 1.281,0.339 1.625,0.939 0.082,0.144 1.681,2.813 5.467,3.75 1.072,-3.548 3.107,-13.238 -2.927,-22.515 -0.562,-0.861 -0.317,-2.015 0.546,-2.576 0.314,-0.203 0.664,-0.301 1.012,-0.301 0.608,0 1.207,0.298 1.563,0.847 6.494,9.982 4.887,20.192 3.607,24.838 l 11.106,-0.436 z"
       inkscape:connector-curvature="0" /></g><g
     transform="matrix(0.33364513,0,0,-0.33364513,3.2646954,7.2741664)"
     id="g5642"
     style="clip-rule:evenodd;fill:#000000;fill-rule:evenodd"><path
       id="path5644"
       style="fill:#000000;fill-opacity:1;fill-rule:nonzero;stroke:none"
       d="M 0,0 C 1.76,0.131 3.081,1.667 2.95,3.425 2.819,5.185 1.285,6.507 -0.476,6.376 -2.236,6.245 -3.557,4.709 -3.426,2.951 -3.294,1.191 -1.762,-0.131 0,0"
       inkscape:connector-curvature="0" /></g><g
     transform="matrix(0.33364513,0,0,-0.33364513,5.4118677,6.7960181)"
     id="g5646"
     style="clip-rule:evenodd;fill:#000000;fill-rule:evenodd"><path
       id="path5648"
       style="fill:#000000;fill-opacity:1;fill-rule:nonzero;stroke:none"
       d="m 0,0 c -0.037,-0.032 -3.718,-3.285 -7.941,-4.183 -0.002,0 -0.003,-0.001 -0.005,-0.001 l -5.839,-1.237 0.771,-3.642 5.845,1.237 h 0.003 c 0.003,10e-4 0.007,0.002 0.01,0.002 l 0.501,0.107 c 0.457,-2.629 0.734,-6.883 -0.845,-9.834 -0.485,-0.906 -0.143,-2.034 0.764,-2.52 0.279,-0.149 0.58,-0.22 0.876,-0.22 0.665,0 1.308,0.357 1.644,0.984 2.379,4.447 1.632,10.236 1.1,12.891 3.209,1.525 5.473,3.527 5.602,3.644 0.765,0.686 0.827,1.861 0.142,2.626 C 1.941,0.619 0.766,0.684 0,0"
       inkscape:connector-curvature="0" /></g></svg>