<?xml version="1.0" encoding="UTF-8" standalone="no"?>
<!-- Generado por Andres Lacquaniti  -->

<svg
   xmlns:dc="http://purl.org/dc/elements/1.1/"
   xmlns:cc="http://creativecommons.org/ns#"
   xmlns:rdf="http://www.w3.org/1999/02/22-rdf-syntax-ns#"
   xmlns:svg="http://www.w3.org/2000/svg"
   xmlns="http://www.w3.org/2000/svg"
   xmlns:sodipodi="http://sodipodi.sourceforge.net/DTD/sodipodi-0.dtd"
   xmlns:inkscape="http://www.inkscape.org/namespaces/inkscape"
   version="1.1"
   id="Layer_1"
   x="0px"
   y="0px"
   width="15px"
   height="15px"
   viewBox="0 0 15 15"
   style="enable-background:new 0 0 15 15;"
   xml:space="preserve"
   sodipodi:docname="llano-2.svg"
   inkscape:version="0.92.0 r15299"><metadata
     id="metadata9"><rdf:RDF><cc:Work
         rdf:about=""><dc:format>image/svg+xml</dc:format><dc:type
           rdf:resource="http://purl.org/dc/dcmitype/StillImage" /><dc:title></dc:title></cc:Work></rdf:RDF></metadata><defs
     id="defs7" /><sodipodi:namedview
     pagecolor="#ffffff"
     bordercolor="#666666"
     borderopacity="1"
     objecttolerance="10"
     gridtolerance="10"
     guidetolerance="10"
     inkscape:pageopacity="0"
     inkscape:pageshadow="2"
     inkscape:window-width="1920"
     inkscape:window-height="996"
     id="namedview5"
     showgrid="false"
     inkscape:zoom="22.250293"
     inkscape:cx="19.378839"
     inkscape:cy="2.0855828"
     inkscape:window-x="-8"
     inkscape:window-y="-8"
     inkscape:window-maximized="1"
     inkscape:current-layer="Layer_1" /><path
     style="display:inline;fill:#000000;stroke-width:0.08969053"
     d="m 14.931233,0.10134091 c -0.245912,-0.0086039 -1.009896,0.22927927 -1.580975,0.50487124 -0.357646,0.17258016 -0.650256,0.32856796 -0.650256,0.34667186 0,0.018089 0.29261,0.31437969 0.650256,0.65831039 0.357645,0.3439225 0.67057,0.6165883 0.695451,0.6059368 0.02492,-0.010608 0.233298,-0.094273 0.463172,-0.185684 L 14.92685,1.8652016 14.99027,1.0185703 C 15.02516,0.55284101 15.03095,0.14882709 15.00289,0.12078694 14.99099,0.10888924 14.9664,0.10261604 14.93127,0.10133234 Z M 10.816498,1.0317139 c -0.8172733,0 -0.8842613,0.015517 -1.6401813,0.3787319 C 8.2786945,1.8417034 7.6039528,2.4539265 7.2043519,3.2000546 6.9322006,3.7082054 6.6386584,4.7477718 6.5882619,5.381523 l -0.032072,0.4034352 0.6278348,-0.02484 C 8.3914681,5.7121257 8.4694783,5.6840698 8.5759866,5.2619277 8.8611361,4.1316666 9.2872411,3.5290579 10.054126,3.1711878 c 0.545508,-0.25457 0.931675,-0.2660014 1.371286,-0.040274 0.743,0.3814649 0.867942,1.2810963 0.3211,2.3107584 -0.43305,0.815384 -0.541922,1.1439684 -0.619602,1.8693155 l -0.0652,0.6094334 0.345973,-0.056032 C 11.598013,7.8335181 12.008708,7.6826928 12.320354,7.5292775 13.25043,7.0714025 13.836493,6.148546 14.066866,4.7788196 14.300345,3.3906843 13.493547,1.903525 12.161821,1.267402 11.736358,1.0641934 11.55135,1.0317962 10.816461,1.0317962 Z m -0.04381,2.3906342 C 10.511149,3.4151094 10.239714,3.5032197 10.033442,3.6965009 9.4831749,4.2121035 8.9332699,5.5278161 8.7630528,6.7361762 8.3300906,9.8097844 8.2494599,10.102097 7.6780186,10.669591 7.3706169,10.974854 5.7041165,13.12542 5.7041165,13.216832 c 0,0.02443 0.070662,0.06455 0.1569603,0.08918 0.2587177,0.07372 1.0814571,-0.03529 1.5923572,-0.211096 0.963783,-0.331605 1.9619242,-1.16346 2.3824017,-1.985629 C 10.081033,10.62986 10.332877,9.5605982 10.583146,7.9361337 10.834324,6.3057918 10.97642,5.8177953 11.408756,5.1008887 11.749254,4.5362802 11.777133,4.3324362 11.572541,3.9012749 11.428804,3.598375 11.108951,3.4316149 10.772689,3.4223461 Z M 8.2648547,6.1176185 C 7.8710337,6.1224652 6.3963752,6.2910988 5.7342544,6.4154216 4.574763,6.6331167 3.8644407,7.1705537 3.3796993,8.1966218 2.8941458,9.2243871 2.8265467,10.123665 3.1582742,11.144316 c 0.076129,0.234319 0.1539783,0.426032 0.1727248,0.426032 0.044137,0 0.8277879,-1.067517 1.583249,-2.1567803 C 5.2408874,8.9425975 5.6117889,8.5100856 5.7384585,8.4523738 5.8651206,8.3946514 6.4114642,8.2992794 6.9526066,8.2405875 7.4937492,8.1819032 7.9777672,8.1084746 8.0281959,8.0773241 8.1196313,8.0208089 8.4319122,6.1962074 8.3620777,6.1263729 c -0.00644,-0.00644 -0.040917,-0.00941 -0.097223,-0.00877 z M 8.0697009,8.5485515 C 7.8332428,8.5453429 6.1831177,8.7675731 5.973719,8.835486 5.8993587,8.859602 5.7381529,9.0307366 5.6154868,9.2157936 4.5377997,10.841584 3.4702258,12.133172 2.9536664,12.435895 2.6098393,12.6374 2.4808862,12.664017 2.0418714,12.624216 1.7606521,12.598735 1.2302419,12.473365 0.86310282,12.345682 0.11754547,12.086401 0.0998355,12.093934 0.01664832,12.706366 c -0.0290178,0.213828 -0.0772596,0.567815 -0.10702883,0.786724 l -0.054103,0.398001 0.83892143,0.27433 C 1.4575448,14.414918 1.61059,14.435691 2.3855935,14.395255 3.2688751,14.349195 3.74532,14.25229 4.2505285,14.016162 4.5190617,13.890674 5.7898122,12.28752 7.3798862,10.068036 7.7279174,9.5822337 8.177528,8.6325107 8.0974037,8.5524022 c -0.00239,-0.00239 -0.011898,-0.00321 -0.027657,-0.00402 z"
     id="path4035"
     inkscape:connector-curvature="0" /></svg>