<?xml version="1.0" encoding="UTF-8" standalone="no"?>
<!-- Generado por Andres Lacquaniti  -->

<svg
   xmlns:dc="http://purl.org/dc/elements/1.1/"
   xmlns:cc="http://creativecommons.org/ns#"
   xmlns:rdf="http://www.w3.org/1999/02/22-rdf-syntax-ns#"
   xmlns:svg="http://www.w3.org/2000/svg"
   xmlns="http://www.w3.org/2000/svg"
   xmlns:sodipodi="http://sodipodi.sourceforge.net/DTD/sodipodi-0.dtd"
   xmlns:inkscape="http://www.inkscape.org/namespaces/inkscape"
   version="1.1"
   id="Layer_1"
   x="0px"
   y="0px"
   width="15px"
   height="15px"
   viewBox="0 0 15 15"
   style="enable-background:new 0 0 15 15;"
   xml:space="preserve"
   sodipodi:docname="canoa2.svg"
   inkscape:version="0.92.0 r15299"><metadata
     id="metadata9"><rdf:RDF><cc:Work
         rdf:about=""><dc:format>image/svg+xml</dc:format><dc:type
           rdf:resource="http://purl.org/dc/dcmitype/StillImage" /></cc:Work></rdf:RDF></metadata><defs
     id="defs7" /><sodipodi:namedview
     pagecolor="#ffffff"
     bordercolor="#666666"
     borderopacity="1"
     objecttolerance="10"
     gridtolerance="10"
     guidetolerance="10"
     inkscape:pageopacity="0"
     inkscape:pageshadow="2"
     inkscape:window-width="1920"
     inkscape:window-height="996"
     id="namedview5"
     showgrid="false"
     inkscape:zoom="15.733333"
     inkscape:cx="22.579348"
     inkscape:cy="-4.9303759"
     inkscape:window-x="-8"
     inkscape:window-y="-8"
     inkscape:window-maximized="1"
     inkscape:current-layer="Layer_1" /><path
     inkscape:connector-curvature="0"
     style="clip-rule:evenodd;fill:#010101;fill-rule:evenodd;stroke-width:0.03654545;stroke-miterlimit:4;stroke-dasharray:none"
     d="m 2.5680379,0.34931268 c -0.2114083,2.194e-4 -0.3254273,0.0440754 -0.3969258,0.15251328 -0.041813,0.0634163 -0.04654,0.0886447 -0.037688,0.20138699 0.012442,0.15849607 0.083213,0.33127465 0.2242818,0.54757505 l 0.1052039,0.1613062 0.016578,0.8700101 c 0.00909,0.4785026 0.00924,1.1128767 2.194e-4,1.409723 -0.031427,1.0411543 0.016118,1.2085386 0.4370647,1.5389347 0.2138722,0.1678592 0.7449496,0.604494 1.0733664,0.8824727 L 4.1800999,6.2740303 V 6.948999 c 0,0.5990541 -0.00362,0.6760562 -0.032305,0.6846943 -0.01777,0.00545 -0.1455262,-0.00324 -0.2839051,-0.018859 C 3.4449141,7.5672101 3.3210712,7.6042814 3.1282475,7.8347142 3.0208683,7.9630681 2.946652,8.071683 2.4857214,8.774913 2.2015038,9.2085386 2.0199794,9.4811694 2.0029855,9.4999127 1.9536864,9.5542941 1.7094716,10.009698 1.6573993,10.144364 c -0.1644568,0.425304 -0.1936826,0.925364 -0.077498,1.326121 0.1500998,0.517711 0.5202958,1.027203 1.0379325,1.4285 0.091172,0.07069 0.1657572,0.137613 0.1657572,0.148728 0,0.01107 -0.020784,0.02355 -0.046198,0.02767 -0.025413,0.004 -0.1201499,0.01927 -0.2105122,0.03368 -0.3589381,0.05728 -0.8581698,0.191141 -1.0111432,0.271111 -0.090608,0.04737 -0.1378498,0.14129 -0.1074286,0.21361 0.050421,0.119861 0.2060503,0.151843 0.3875891,0.07967 0.1672327,-0.06649 0.5607594,-0.1658 0.8272109,-0.208768 0.3450927,-0.05564 0.77502,-0.08017 1.1886272,-0.06783 0.5411218,0.01617 0.8408569,0.05268 1.4260042,0.173832 0.6833914,0.141477 0.7697261,0.158208 1.0165714,0.196861 0.2354594,0.03688 0.6726043,0.08419 0.872822,0.09445 h 8.98e-5 c 0.3436368,0.01762 0.8226002,-0.03701 1.2277295,-0.13998 0.1556655,-0.03958 0.3682244,-0.08385 0.4723484,-0.09836 0.1041175,-0.01446 0.2909731,-0.04082 0.4152207,-0.05844 0.5835009,-0.08272 1.1714833,-0.109717 1.7148243,-0.07872 0.491389,0.02806 0.93252,0.09591 1.390345,0.213881 0.223899,0.05768 0.304818,0.05321 0.384855,-0.02143 0.09424,-0.08786 0.06203,-0.219526 -0.06636,-0.271141 -0.0608,-0.02445 -0.311515,-0.08718 -0.558789,-0.139827 -0.107302,-0.02284 -0.203489,-0.04777 -0.213743,-0.05539 -0.01084,-0.008 0.05788,-0.07697 0.164282,-0.164694 0.287453,-0.236994 0.451014,-0.48243 0.593743,-0.890981 0.145791,-0.417318 0.210428,-0.997666 0.175876,-1.579163 -0.01101,-0.185219 -0.03004,-0.394772 -0.04232,-0.465659 -0.02519,-0.14546 0.0068,-0.1133243 -0.375696,-0.3774724 -0.252475,-0.174356 -0.238454,-0.1415109 -0.200125,-0.468365 0.01733,-0.1477746 0.03749,-0.3915807 0.07458,-0.902227 0.0054,-0.075317 0.0188,-0.2130665 0.02962,-0.3061091 0.01081,-0.093036 0.01968,-0.2162953 0.01968,-0.273892 0,-0.084117 0.02014,-0.1498853 0.102303,-0.3342666 0.251579,-0.564616 0.256269,-0.9664585 0.014,-1.200624 C 12.306273,6.1106065 12.218056,6.0832371 11.788025,6.043919 11.585293,6.025384 11.389578,6.006643 11.353095,6.002286 11.296695,5.995476 11.274035,5.977555 11.20186,5.8822383 l -0.0849,-0.1120991 h -0.152348 c -0.164054,0 -0.29479,-0.031369 -0.29479,-0.070738 0,-0.013276 0.05743,-0.04805 0.127603,-0.07736 0.19264,-0.080475 0.393852,-0.2472731 0.492117,-0.4079291 0.04768,-0.077956 0.08822,-0.1731476 0.09886,-0.2321911 0.02017,-0.1119458 0.0401,-0.1384643 0.115261,-0.1532554 0.06713,-0.013276 0.5687,-0.2302251 0.771557,-0.3338172 0.163561,-0.083521 0.197559,-0.1157755 0.159715,-0.1515533 -0.03876,-0.036638 -0.298334,-0.071888 -0.652557,-0.08862 C 11.226048,4.228412 11.221649,4.2263859 11.100385,3.9373524 11.026873,3.7621351 11.00335,3.7246111 10.939603,3.6809136 10.770542,3.5650358 10.431374,3.4672701 10.196113,3.4665381 9.8148648,3.4654012 9.4318503,3.6384365 9.2805358,3.8801795 c -0.048732,0.077853 -0.05975,0.1184138 -0.065636,0.241481 -0.00543,0.1135969 -0.015132,0.1536469 -0.041898,0.1726438 -0.02067,0.014638 -0.1065248,0.031115 -0.2111132,0.040441 -0.1923543,0.01714 -0.520397,0.073649 -0.6231177,0.1073162 -0.221615,0.072645 -0.095664,0.1649826 0.3953319,0.2898286 0.1201976,0.03057 0.2258626,0.064611 0.2348067,0.075658 0.00894,0.011064 0.01651,0.049122 0.016578,0.084594 3.291e-4,0.072917 0.060465,0.2501276 0.1106761,0.3263008 0.068368,0.1037077 0.031393,0.1081163 -0.251748,0.029991 C 8.0126062,5.0189432 7.8643019,4.9765085 7.8408487,4.9612357 7.7996328,4.934411 7.2498355,4.3797556 7.2358462,4.3508969 7.2203573,4.3189487 7.2342005,4.3033066 7.3120501,4.2646694 7.5033148,4.1697613 7.6778348,4.0178949 7.7833309,3.8545735 7.8476389,3.7550187 7.9178787,3.5517664 7.9178787,3.4652548 V 3.4049671 L 8.2516044,3.2636433 C 8.6079918,3.1127028 8.9372555,2.9533591 8.9934845,2.9046166 9.0767963,2.8323973 8.9588081,2.7913432 8.5483325,2.7497272 8.4150341,2.7362808 8.2440723,2.7249279 8.1684095,2.7246215 7.9235441,2.7236343 7.7587736,2.6998733 7.682817,2.6544107 7.6222007,2.6181393 7.60134,2.5839276 7.5173593,2.3830581 7.4071173,2.1193837 7.3815265,2.093975 7.1169462,1.985607 6.8868807,1.8913798 6.7518032,1.8647252 6.5008341,1.8641976 6.3272292,1.8637584 6.2553885,1.8713463 6.1322159,1.9027667 5.8362008,1.9783221 5.5889022,2.1442171 5.4695605,2.3472872 5.4288876,2.4164939 5.4227175,2.4522716 5.4236638,2.6164151 l 9.856e-4,0.1893004 h -0.09659 c -0.1197941,0 -0.6476547,0.074994 -0.7934007,0.1127118 -0.080467,0.020833 -0.1149584,0.023352 -0.135826,0.010045 C 4.383446,2.9185972 4.3002138,2.8030975 4.2138781,2.6718074 L 4.0569005,2.4330891 4.0699895,2.2995608 C 4.0866358,2.1297442 4.0508189,1.9347028 3.9768125,1.7920344 3.8864694,1.6178775 3.7381586,1.4589542 3.4774194,1.2568781 3.2413719,1.0739299 3.2354576,1.0676169 3.2354576,0.99845454 3.2354576,0.84121119 3.1127904,0.59043288 2.9834081,0.48315532 2.8627356,0.38310358 2.757296,0.34918451 2.5680081,0.34939046 Z m -0.011387,0.1548281 c 0.1921139,6.5699e-4 0.385894,0.12834031 0.4735209,0.32814806 0.084558,0.19280316 0.072517,0.32784286 -0.035148,0.39428026 -0.033647,0.020765 -0.083504,0.032476 -0.1382464,0.032476 -0.1017134,0 -0.1501423,-0.034842 -0.324631,-0.2336038 C 2.2770517,0.73485982 2.244805,0.58377959 2.4252459,0.52463436 2.4680784,0.51059188 2.512318,0.50398797 2.5566517,0.50414513 Z M 3.1379457,1.3760016 c 0.2245307,1.089e-4 0.5692177,0.3117411 0.7053055,0.6472757 0.087623,0.2160367 0.06155,0.2666225 -0.206724,0.401029 -0.062437,0.031285 -0.1262502,0.081972 -0.1642985,0.1305156 -0.060858,0.0777 -0.062162,0.083623 -0.060584,0.2819344 8.781e-4,0.1152649 0.016544,0.2662548 0.036274,0.3503223 0.031655,0.1348899 0.048046,0.2860143 0.1175305,1.0839362 0.012697,0.1457491 0.017124,0.2941825 0.00985,0.3298308 -0.014807,0.072611 -0.1366654,0.2100232 -0.2420216,0.2729168 -0.091519,0.05462 -0.157456,0.064271 -0.2313182,0.033837 C 3.0107765,4.8700178 2.8669619,4.7548891 2.8333327,4.692518 2.7762772,4.5867167 2.7643423,4.3317229 2.7555953,3.0312701 l -0.00884,-1.3130583 0.069349,-0.1148394 c 0.079334,-0.1313667 0.1789836,-0.2088267 0.2896174,-0.2251105 0.010417,-0.00152 0.021175,-0.00221 0.032217,-0.00221 z M 3.824039,2.567996 c 0.016884,-4.391e-4 0.032911,0.00562 0.05911,0.019131 0.029691,0.015319 0.06781,0.054382 0.084698,0.086925 0.105565,0.203402 0.9668125,1.6287178 1.8708415,3.0961208 0.084619,0.1373409 0.1885002,0.3077261 0.2308519,0.3786142 0.042352,0.070892 0.1567157,0.2574347 0.2541395,0.4145453 0.09742,0.157102 0.1771231,0.2942251 0.1771231,0.3046963 0,0.031471 -0.1230995,0.1719834 -0.1885035,0.2151567 C 6.1898219,7.1640348 6.1440325,7.1374994 6.0064594,6.9060044 5.8912081,6.7120592 5.5419419,6.1283934 5.2834,5.6976666 5.1929804,5.5470325 5.0844823,5.365783 5.0422798,5.294893 5.0000784,5.2240013 4.7784733,4.854243 4.5498329,4.4732152 4.3211916,4.0921857 4.015097,3.5817623 3.8696186,3.3389485 3.7172909,3.0846967 3.6051211,2.8772846 3.6051211,2.8498675 c 0,-0.069071 0.1120377,-0.2434606 0.1728084,-0.2689748 0.019334,-0.00817 0.032979,-0.012595 0.046107,-0.012936 z m 2.6736228,0.2545752 c 0.2069598,-9.2e-5 0.4404874,0.015659 0.7527493,0.048986 0.2993851,0.03188 0.315597,0.042875 0.4235648,0.2871053 0.049205,0.111299 0.052075,0.3460909 0.00576,0.4698373 C 7.5751038,3.9079388 7.3049346,4.123698 6.9371413,4.2215523 6.6716717,4.2921886 6.3262446,4.2585726 6.0592687,4.1361419 5.9296451,4.0766882 5.743787,3.9291501 5.6725507,3.8291597 5.488015,3.5701336 5.489145,3.185128 5.6750697,2.97543 5.7421402,2.8997895 5.8535905,2.8673989 6.1425472,2.8396039 6.2588674,2.8283702 6.3734892,2.8225831 6.4976655,2.8225661 Z M 4.6222347,3.2120243 c 0.038851,6.332e-4 0.1248833,0.020952 0.313821,0.067794 0.127719,0.031675 0.2590771,0.057581 0.2919176,0.057581 0.07572,0 0.093182,0.026892 0.1097433,0.1691528 0.032219,0.2767601 0.1951394,0.5099401 0.4844044,0.6932932 0.080418,0.050977 0.1429782,0.1002523 0.1390447,0.1095119 -0.00393,0.0092 -0.034292,0.02388 -0.067471,0.032459 C 5.860513,4.3503225 5.7439613,4.3961644 5.6347002,4.4435164 5.4267027,4.5336577 5.3890123,4.5425937 5.3566138,4.5094712 5.3367352,4.4891484 5.211605,4.2888356 5.0521725,4.0221212 5.0045006,3.9423787 4.881206,3.7407349 4.7781901,3.5740501 4.6751733,3.4073653 4.59089,3.2561117 4.59089,3.2379214 c 0,-0.015319 0.00319,-0.024493 0.024189,-0.02577 0.00218,-1.088e-4 0.00457,-2.178e-4 0.00715,-1.088e-4 z m 5.5221133,1.1277732 c 0.01491,-4.59e-5 0.03016,-4.59e-5 0.04569,3.07e-5 0.26911,0.00126 0.622411,0.020782 0.757005,0.044645 0.10586,0.018774 0.159435,0.069036 0.216224,0.2029204 0.11461,0.2701814 0.01704,0.5580459 -0.262227,0.7736621 -0.112836,0.087113 -0.200963,0.1301412 -0.364739,0.1780701 -0.120884,0.035387 -0.363748,0.050619 -0.467207,0.029309 C 10.021082,5.5585595 9.9001103,5.5293044 9.8002638,5.5034664 9.5703621,5.443963 9.4185771,5.3435573 9.3096965,5.1789591 9.205427,5.0213295 9.1862837,4.9621958 9.1866786,4.8006139 c 4.388e-4,-0.1311283 0.00555,-0.149664 0.058044,-0.209099 0.1496112,-0.169357 0.3501584,-0.2338268 0.7761712,-0.2494944 0.03706,-0.00139 0.07873,-0.00204 0.123456,-0.00221 z m -3.4030717,0.076934 c 0.3796587,7.591e-4 0.3402822,0.01651 0.1439161,0.2221198 -0.082268,0.086126 -0.1797559,0.1910314 -0.2166313,0.2331221 -0.041791,0.047693 -0.082318,0.076525 -0.1075936,0.076525 -0.028369,0 -0.1081843,-0.071386 -0.2656846,-0.2376309 C 6.17146,4.5801654 6.0699798,4.4605397 6.0698426,4.4450337 c -3.292e-4,-0.026059 0.036254,-0.028187 0.4823158,-0.028187 0.072104,0 0.1348815,-2.196e-4 0.189119,-1.055e-4 z M 5.7092218,4.6907156 c 0.019926,0 0.090891,0.048101 0.4490914,0.304395 0.1561318,0.1117075 0.2913504,0.2052523 0.3004864,0.2078513 0.015625,0.00443 0.6923914,-0.3308709 0.7624175,-0.3777581 0.063628,-0.042603 0.115677,-0.024034 0.2431946,0.086824 0.06867,0.059692 0.1248528,0.1233327 0.1248528,0.1414258 0,0.018094 -0.025419,0.054586 -0.056482,0.081138 -0.080622,0.068883 -0.6352277,0.5328552 -0.7403169,0.6193294 -0.083155,0.068424 -0.087618,0.076815 -0.07685,0.1443024 0.00628,0.039404 0.017254,0.1414089 0.024368,0.2266746 l 0.012953,0.1550256 -0.092244,0.059317 C 6.5402991,6.4166341 6.5021708,6.415 6.443009,6.329879 6.1971169,5.9763024 5.475941,4.8342997 5.4858053,4.8141267 5.4977709,4.7896507 5.6768958,4.6907088 5.7092162,4.6907088 Z m 3.9057864,1.082537 c 0.041322,5.481e-4 0.1324219,0.013617 0.346263,0.04422 0.1242488,0.017736 0.2916118,0.032442 0.3719258,0.032748 0.22702,7.575e-4 0.336582,0.01634 0.336582,0.047676 0,0.034024 -0.152553,0.1500214 -0.246442,0.1873752 -0.03953,0.01566 -0.127317,0.038007 -0.195088,0.049514 v 0 c -0.06777,0.011575 -0.137075,0.020119 -0.154016,0.019285 C 9.9076027,6.1452252 9.7303308,6.1232121 9.6420535,6.1001999 L 9.5347901,6.0722508 9.5482368,5.9457861 c 0.00739,-0.069547 0.019254,-0.138328 0.026353,-0.1528468 0.00627,-0.012766 0.00829,-0.020102 0.040426,-0.01971 z m 1.1467588,0.2909112 c 0.04337,-3.303e-4 0.07884,0.030042 0.127799,0.095878 0.123555,0.166157 0.122782,0.1683357 -0.110434,0.3134892 -0.111656,0.069496 -0.305961,0.1879917 -0.431788,0.2633104 -0.211564,0.1266348 -0.229684,0.1417834 -0.240909,0.2013869 -0.01283,0.068151 -0.05269,0.7717864 -0.05275,0.9323846 v 0.094602 L 9.8857446,8.1002065 h -7.68e-5 C 9.7184861,8.2345858 9.6563516,8.2612063 9.6380687,8.206365 c -0.00528,-0.01583 -0.00217,-0.1010179 0.00692,-0.1893003 0.00909,-0.08827 0.03574,-0.4746949 0.05923,-0.8587049 0.02349,-0.3840115 0.049692,-0.7247698 0.058238,-0.7572302 0.01343,-0.051028 0.025166,-0.060509 0.086592,-0.069904 C 10.322501,6.2587 10.480127,6.2146836 10.654795,6.106176 c 0.04392,-0.027284 0.07729,-0.041821 0.106962,-0.042024 z m -4.0332237,1.172121 c 0.1190469,0 0.2991131,0.051352 0.5013174,0.1429748 0.3160795,0.14323 0.4401176,0.1622253 0.9754998,0.1493916 0.1664176,-0.00392 0.4746433,0.045786 0.6311302,0.1019375 0.2120799,0.0761 0.3044347,0.1713962 0.2816497,0.2905947 C 9.0917666,8.059137 8.9245202,8.173961 8.6761751,8.2246031 8.5211615,8.2562107 8.1574711,8.2672062 7.876776,8.2487556 7.74688,8.2402452 7.4497171,8.2370113 7.2164056,8.2417771 L 6.7921947,8.2502875 6.6596912,8.1339843 C 6.2966021,7.8153224 6.1373517,7.5848863 6.1916872,7.4567842 6.2312622,7.3634932 6.5409407,7.2363051 6.7285436,7.2363051 Z M 3.6827096,7.8253664 c 0.00718,0 0.013685,8.851e-4 0.019332,0.00255 0.022772,0.00681 0.2555087,0.2116146 0.5803789,0.5106225 0.304633,0.2803804 1.0930249,0.9169399 1.4704577,1.1872593 0.7751385,0.5551598 1.3554722,0.8595578 1.8077011,0.9482138 0.085734,0.01685 0.1587719,0.03289 0.1623002,0.03572 0.00353,0.0029 0.063845,0.128405 0.1340372,0.279049 0.2608478,0.5598 0.707981,1.329873 1.0135788,1.745642 0.1632244,0.222074 0.2561536,0.328675 0.4009102,0.459887 0.091195,0.08267 0.097117,0.0946 0.058359,0.117886 -0.074123,0.04453 -0.4825966,0.140983 -0.8368779,0.197584 -0.220258,0.0352 -0.46979,0.08354 -0.5545055,0.107453 -0.1454836,0.04107 -0.1767994,0.0437 -0.564758,0.0473 -0.7665095,0.0071 -1.1787716,-0.0489 -2.320669,-0.315506 C 4.7153668,13.070216 4.485061,13.036311 4.2856971,13.03609 4.0524262,13.035868 3.9817527,13.021962 3.8441071,12.949215 3.6200973,12.830886 3.2964438,12.4459 3.2257549,12.213678 3.1365064,11.920491 2.9911841,11.139823 2.94851,10.724322 2.9178742,10.426017 2.8862462,9.7738082 2.8973352,9.6690417 2.9024925,9.6203111 2.916676,9.4644209 2.9288458,9.3226444 2.9645027,8.9072329 3.0539369,8.5911173 3.2214548,8.2884073 3.3280306,8.0958253 3.3983914,7.9980493 3.4879962,7.9179869 3.5483418,7.8640649 3.6323889,7.8251214 3.6827079,7.8253425 Z m 6.8709364,0.2083926 0.206964,6.315e-4 c 0.238081,6.315e-4 0.369339,0.035319 0.483096,0.1273837 0.132501,0.1072481 0.119164,0.2488561 -0.04187,0.4443112 -0.1534,0.1861923 -0.468419,0.4141877 -0.645067,0.4668757 -0.102892,0.030689 -0.455413,0.081547 -0.783944,0.1131032 v 0 C 9.1953874,9.2415011 9.0286334,9.2255526 8.6840673,9.0818459 8.4656392,8.9907506 8.4107311,8.9441306 8.4107311,8.8497484 c 0,-0.037939 0.023636,-0.064628 0.1117279,-0.1262263 0.098087,-0.068577 0.142585,-0.0857 0.3645286,-0.1402003 0.3565071,-0.087555 0.9586332,-0.2597869 1.1763154,-0.3364759 0.101301,-0.035692 0.253079,-0.09821 0.337273,-0.138975 z M 7.5932022,8.4395231 c 0.00418,9.37e-5 0.00709,3.303e-4 0.00853,6.333e-4 0.01251,0.00341 0.034164,0.03651 0.048137,0.0737 0.074323,0.1978669 0.3952858,0.5104609 1.1198658,1.0906849 0.1825851,0.1462087 0.3969564,0.3274566 0.4763766,0.4027747 0.5423701,0.51437 0.9046244,1.007821 1.4134214,1.925292 0.133469,0.240669 0.182341,0.349417 0.235301,0.523612 0.04959,0.163093 0.05222,0.240908 0.01176,0.347497 -0.05638,0.148522 -0.190631,0.224493 -0.481668,0.272523 -0.08141,0.01344 -0.228293,0.02442 -0.326388,0.02441 -0.2453491,0 -0.3892675,-0.0528 -0.5777481,-0.211865 -0.074006,-0.06244 -0.208624,-0.172617 -0.2991482,-0.24484 C 9.1311126,12.571729 9.0074832,12.454625 8.9469055,12.383737 8.8182981,12.233238 8.5581987,11.819095 8.4258188,11.554016 8.2796135,11.26126 8.0327852,10.686363 7.9174058,10.369854 7.6799717,9.7185177 7.5244579,9.4053451 7.1370839,8.798446 7.0454965,8.6549606 6.9752857,8.5278935 6.9810524,8.5161049 c 0.00577,-0.011745 0.040989,-0.025906 0.078294,-0.031403 0.1163815,-0.017106 0.4709639,-0.046671 0.5338496,-0.045241 z M 12.433251,11.02496 c 0.06011,-0.0014 0.06772,0.01051 0.0754,0.03452 0.01967,0.06146 -0.02716,0.553978 -0.07212,0.758508 -0.138444,0.629774 -0.429885,0.951733 -0.95728,1.057552 -0.08736,0.01753 -0.194528,0.03187 -0.238144,0.03187 -0.09693,0 -0.106933,-0.01549 -0.139868,-0.217503 -0.04601,-0.28206 -0.198547,-0.70013 -0.445897,-1.22207 -0.130217,-0.274772 -0.127969,-0.292397 0.03411,-0.26863 0.05034,0.0075 0.119643,0.01051 0.154018,0.007 0.622796,-0.06466 0.9031,-0.09647 1.199376,-0.13608 0.217702,-0.02911 0.330308,-0.04374 0.390416,-0.04511 z m -8.7411302,2.672977 c -0.2442662,-1.01e-4 -0.4920737,0.0048 -0.6222904,0.0148 -0.5535215,0.04226 -1.4022865,0.243123 -1.5426331,0.36507 -0.094837,0.0824 -0.08681,0.19847 0.018221,0.26328 0.078629,0.04853 0.1805622,0.04056 0.389183,-0.03043 0.5096197,-0.1734 1.0498242,-0.253889 1.7335876,-0.258303 0.5979847,-0.0039 0.9400232,0.03814 1.8820255,0.231049 0.6813124,0.139519 1.0526029,0.197726 1.4434579,0.226236 v 1.08e-4 c 0.1524945,0.01107 0.3142366,0.01794 0.3594175,0.01515 0.045181,-0.0028 0.1801738,-0.0088 0.2999752,-0.01344 0.2228668,-0.0085 0.4527566,-0.04863 0.8626295,-0.150549 0.2080262,-0.05175 0.8455433,-0.14849 1.2607421,-0.191345 0.1412199,-0.01463 0.4481144,-0.02771 0.7187904,-0.03074 0.685576,-0.0076 1.199601,0.0495 1.828568,0.203433 0.142982,0.03499 0.283046,0.06364 0.31125,0.06364 0.06926,0 0.162121,-0.04512 0.18936,-0.09204 0.05371,-0.09247 0.01212,-0.201703 -0.0928,-0.243721 -0.1535,-0.06148 -0.736048,-0.181533 -1.15674,-0.238384 -0.247612,-0.03346 -0.391365,-0.0419 -0.833195,-0.04904 -0.657666,-0.01051 -0.9575194,0.01051 -1.7559709,0.123674 -0.384739,0.05452 -0.466002,0.07014 -0.8008714,0.153953 -0.3758368,0.09406 -0.5185968,0.109518 -0.9135501,0.09898 C 6.7953244,14.146557 6.409541,14.092448 5.6793365,13.935717 5.1237736,13.81647 4.6991919,13.748316 4.293095,13.713223 4.1770982,13.703181 3.9363882,13.698075 3.6921219,13.697904 Z"
     id="path4231" /></svg>