<?xml version="1.0" encoding="UTF-8" standalone="no"?>
<!-- Generado por Andres Lacquaniti  -->

<svg
   xmlns:dc="http://purl.org/dc/elements/1.1/"
   xmlns:cc="http://creativecommons.org/ns#"
   xmlns:rdf="http://www.w3.org/1999/02/22-rdf-syntax-ns#"
   xmlns:svg="http://www.w3.org/2000/svg"
   xmlns="http://www.w3.org/2000/svg"
   xmlns:sodipodi="http://sodipodi.sourceforge.net/DTD/sodipodi-0.dtd"
   xmlns:inkscape="http://www.inkscape.org/namespaces/inkscape"
   version="1.1"
   id="Layer_1"
   x="0px"
   y="0px"
   width="15px"
   height="15px"
   viewBox="0 0 15 15"
   style="enable-background:new 0 0 15 15;"
   xml:space="preserve"
   sodipodi:docname="cayado.svg"
   inkscape:version="0.92.0 r15299"><metadata
     id="metadata9"><rdf:RDF><cc:Work
         rdf:about=""><dc:format>image/svg+xml</dc:format><dc:type
           rdf:resource="http://purl.org/dc/dcmitype/StillImage" /></cc:Work></rdf:RDF></metadata><defs
     id="defs7" /><sodipodi:namedview
     pagecolor="#ffffff"
     bordercolor="#666666"
     borderopacity="1"
     objecttolerance="10"
     gridtolerance="10"
     guidetolerance="10"
     inkscape:pageopacity="0"
     inkscape:pageshadow="2"
     inkscape:window-width="1920"
     inkscape:window-height="996"
     id="namedview5"
     showgrid="false"
     inkscape:zoom="31.466667"
     inkscape:cx="18.117286"
     inkscape:cy="2.7685531"
     inkscape:window-x="-8"
     inkscape:window-y="-8"
     inkscape:window-maximized="1"
     inkscape:current-layer="Layer_1" /><path
     style="clip-rule:evenodd;fill:#000000;fill-rule:evenodd;stroke-width:0.08601971"
     d="m 12.801282,14.417372 -0.21347,-0.314295 -0.2193,0.155018 c -0.134043,0.09475 -0.207032,0.216353 -0.187755,0.312765 0.01735,0.08676 -0.0011,0.154806 -0.04112,0.151214 C 12.001862,14.709634 11.350479,13.992973 10.853003,13.30643 10.388307,12.665079 8.0528367,10.176202 7.445254,9.6748705 6.9986137,9.3062652 6.6298616,9.0618438 6.366021,8.9594688 6.2206208,8.9030518 6.0715407,8.790356 6.0347258,8.7090401 5.9979129,8.6277238 5.7080958,8.4046078 5.3907154,8.2132094 3.9930269,7.3704047 3.6808284,7.1901874 3.2932688,7.0024592 3.0669401,6.8928234 2.7268214,6.6913123 2.537448,6.5546499 2.3480786,6.4179901 2.1162169,6.251953 2.0221996,6.185676 1.9281835,6.1193999 1.5975526,5.9963367 1.2874616,5.9122034 0.64389246,5.7375934 0.58995025,5.694578 0.41295116,5.2148274 0.15422707,4.5135723 0.24384805,4.0248515 0.65712275,3.8833135 0.80524379,3.8325845 1.5224045,3.9560224 2.8380941,4.2586986 c 0.180033,0.041424 0.534831,0.24109 0.8247696,0.464167 C 4.5003102,5.3671897 5.181975,5.8139574 5.6940043,6.0540932 5.9599541,6.178814 6.2844773,6.3331987 6.4151757,6.397168 6.5458741,6.46114 6.6842025,6.491286 6.7225609,6.464172 6.8333928,6.3858274 6.6541028,5.8985157 6.3301818,5.3976384 6.1661645,5.1440128 5.8510238,4.5759485 5.6298726,4.1352728 4.7471411,2.3762797 4.5152723,1.9307093 4.4415918,1.8518532 4.3992997,1.8065902 4.3488213,1.6087836 4.329446,1.4122786 4.3022416,1.1364864 4.3589276,0.9726658 4.5780153,0.69393523 4.8446268,0.3547457 4.8792786,0.33217257 5.1497225,0.3215365 c 0.1583341,-0.006231 0.452821,0.0306252 0.654411,0.0818949 0.3358999,0.085436 0.4073501,0.14210392 0.855132,0.67822632 0.3351041,0.4011948 0.5590192,0.7625983 0.7126966,1.1502376 0.218257,0.5505615 0.2934306,0.6920012 0.6789587,1.2774568 0.1621715,0.2462743 0.3166044,0.7279162 0.8646907,2.6968192 0.1141531,0.4100822 0.3694731,0.8827448 0.8052847,1.4908083 1.0451988,1.4582923 3.2991118,4.1318834 4.1873718,4.9670574 0.437313,0.41118 0.591297,0.596404 0.560319,0.673884 -0.02351,0.05878 -0.06577,0.104807 -0.09392,0.102255 -0.112325,-0.01008 -1.547589,-1.524722 -2.481861,-2.619065 C 9.3294717,7.8185027 8.7504616,6.988199 8.5494867,6.0267329 8.4836555,5.7117954 8.3939375,5.4508934 8.3501147,5.446959 8.2142116,5.4347451 8.0395886,5.8298189 8.1355072,5.9324753 8.2613262,6.0671318 8.4184821,6.726299 8.3828107,6.9697587 8.3248317,7.3654985 8.8519788,8.132747 9.1838974,8.1357194 c 0.209208,0.00187 1.1688646,0.9780463 1.1992006,1.2198404 0.01249,0.099553 -0.10534,0.011677 -0.3913951,-0.2919002 C 9.4869775,8.5280466 9.2554203,8.3755811 9.1361682,8.5004234 c -0.074606,0.078092 0.01506,0.2039667 0.5044362,0.7080417 0.3272971,0.3372111 0.8754706,0.8568479 1.2180506,1.1548279 0.57271,0.498134 2.02539,2.175551 2.486464,2.871344 0.24797,0.374115 0.01099,0.282173 -0.329099,-0.127663 -0.315139,-0.379826 -0.354121,-0.382524 -0.138829,-0.0097 0.225505,0.390608 -0.0089,0.282469 -0.376101,-0.173492 -0.257128,-0.31932 -0.396334,-0.443477 -0.452549,-0.40374 -0.04545,0.03214 0.02104,0.178502 0.151076,0.332558 0.127797,0.151305 0.318718,0.376871 0.424389,0.501173 0.453179,0.533046 0.651344,0.909541 0.545123,1.035576 -0.05792,0.06866 -0.08212,0.149628 -0.05385,0.179872 0.02827,0.03024 0.0172,0.07918 -0.02458,0.108695 -0.04946,0.03497 -0.150418,-0.05594 -0.289427,-0.260606 z M 12.202149,13.51034 c -0.279475,-0.387219 -0.415068,-0.338177 -0.202855,0.07338 0.106063,0.205699 0.196261,0.303164 0.288133,0.311486 0.184814,0.01661 0.176152,-0.02244 -0.08537,-0.384795 z m -0.161439,-1.525354 -0.379028,-0.276857 0.431724,0.470146 c 0.347545,0.378599 0.421401,0.432529 0.379029,0.276857 -0.03675,-0.134817 -0.167367,-0.277055 -0.431725,-0.470146 z m -1.315673,-0.473722 c -0.188848,-0.207716 -0.31727,-0.300388 -0.339419,-0.245009 -0.0196,0.04898 0.141779,0.274931 0.358618,0.502081 0.474167,0.496681 0.456954,0.266544 -0.0192,-0.257072 z m 0.619735,-0.258793 c -0.11509,-0.150323 -0.248053,-0.269005 -0.295674,-0.263597 -0.04754,0.0054 -0.229872,-0.176295 -0.405137,-0.403685 -0.175279,-0.227381 -0.428234,-0.475542 -0.562081,-0.551498 L 9.8384793,9.8956163 9.9888222,10.067524 c 0.082704,0.09454 0.1338618,0.213195 0.1136638,0.263687 -0.0202,0.0505 0.06388,0.168253 0.18685,0.261686 0.12295,0.09343 0.42097,0.355973 0.662251,0.583419 0.241263,0.227451 0.446686,0.419509 0.456461,0.426816 0.0099,0.0071 0.0466,-0.0071 0.08183,-0.03202 0.03522,-0.0249 -0.03009,-0.168286 -0.14515,-0.318626 z m -1.273385,-0.410196 c -0.07399,-0.0472 -0.04291,0.01227 0.06905,0.132093 0.111978,0.119843 0.172527,0.158452 0.134539,0.08581 -0.03799,-0.07264 -0.129603,-0.170701 -0.203597,-0.217899 z M 7.6899827,6.7509759 c 0.039331,-0.1306865 0.075915,-0.1526232 0.1894797,-0.1136145 0.077403,0.026591 0.146526,0.08718 0.153582,0.1346673 0.00707,0.047473 0.055918,0.081475 0.1085526,0.075535 C 8.1942253,6.8416207 8.1298875,6.6228432 7.9986216,6.3613605 7.8673536,6.0998811 7.7632671,5.8138227 7.7673146,5.7256768 7.7713703,5.6375249 7.6887844,5.4051561 7.5838111,5.2092836 7.4788431,5.0134167 7.4176313,4.8357146 7.4477914,4.814395 7.5450627,4.7456364 6.846422,3.2907767 6.5768349,3.0007103 6.4686405,2.8845065 6.4628971,2.8870723 6.4903799,3.0398852 c 0.016232,0.090187 0.1667669,0.4489696 0.3345037,0.7973106 0.470008,0.9760794 0.7847886,1.8434558 0.6967722,1.9199628 -0.043738,0.038086 -0.1106914,0.097002 -0.1487369,0.1309563 -0.03799,0.034024 -4.314e-4,0.1010182 0.083519,0.1489783 0.1124117,0.064202 0.1281007,0.2142322 0.059495,0.5691334 -0.08087,0.4183533 -0.06548,0.5010828 0.1166229,0.6270113 0.397892,0.2751484 0.4742345,0.266854 0.2418009,-0.026279 C 7.7336011,7.0294767 7.6605284,6.8487322 7.6899428,6.7509685 Z M 6.7656914,7.6997803 C 6.6160002,7.686324 6.6787412,7.8287702 6.8673357,7.9305311 L 7.0601886,8.0345995 6.9506335,7.8705629 C 6.8903614,7.7803608 6.8071424,7.7035012 6.7657147,7.6997638 Z M 7.1406642,7.3316089 C 7.0790083,7.2188361 7.0207352,7.0446526 7.0112121,6.9445088 6.9962927,6.7875403 6.9478782,6.7576027 6.6602228,6.7274256 6.4766979,6.7081686 6.1383754,6.5928314 5.9083997,6.4711114 5.0136656,5.9975614 4.8981969,5.9396916 4.7531669,5.8921333 4.6707483,5.865108 4.2802246,5.7114071 3.8853296,5.5505744 3.4904321,5.3897432 3.1445496,5.273717 3.1166961,5.2927353 3.0602585,5.3316327 3.5332505,5.607658 3.7219042,5.646058 3.8719702,5.6766033 5.8320841,6.6347681 6.4279206,6.968851 6.7310573,7.1388092 6.8537928,7.243909 6.8271119,7.3106277 6.7839852,7.4184663 7.0943943,7.648598 7.1909297,7.5803595 7.2249536,7.5563086 7.2023382,7.4443664 7.1406599,7.3316111 Z M 5.7522378,7.0725362 C 5.6668968,6.9851444 5.0361886,6.6747341 5.1054427,6.7544155 5.2168926,6.8826186 5.071786,6.927555 4.8451835,6.8350118 4.6387856,6.750716 4.6381824,6.7515853 4.787003,6.9193704 5.0038263,7.1638785 5.1865387,7.2355695 5.2702174,7.109023 5.3168184,7.03857 5.4018431,7.036559 5.5067294,7.103433 5.6586841,7.200325 5.8528424,7.175884 5.7522444,7.07253 Z M 7.7544608,4.7090006 C 7.5728785,4.1973722 7.4589758,3.9823514 7.4425898,4.1202663 c -0.0043,0.036208 0.00756,0.070466 0.026354,0.076132 0.018832,0.00563 0.063665,0.1590304 0.099682,0.3408256 0.0707,0.3567791 0.3489326,0.9701911 0.3646336,0.8038951 0.00527,-0.05574 -0.075198,-0.3401901 -0.1788076,-0.6321139 z M 7.400935,5.5279028 C 7.38754,5.5135668 7.354756,5.4437328 7.328045,5.3726769 7.296175,5.2879009 7.239886,5.2714753 7.1644566,5.3247949 c -0.0673,0.047573 -0.06676,0.1329646 0.00132,0.2058222 0.063989,0.068483 0.1485533,0.1017421 0.1879156,0.073919 0.039373,-0.027833 0.060629,-0.062311 0.047248,-0.076631 z M 4.7238882,6.4633123 c -0.2023023,-0.066565 -0.1849381,-0.011756 0.030418,0.095968 0.076529,0.038294 0.1419776,0.045842 0.1454303,0.016783 0.00346,-0.029057 -0.075575,-0.079864 -0.1758482,-0.1127491 z M 8.0272532,4.1205341 C 7.9938017,3.9878192 7.8691723,3.7386537 7.7502982,3.5668271 7.3370578,2.9694847 7.2124272,2.7575952 7.2130317,2.6533475 7.2142115,2.4485157 6.5837025,1.3460266 6.2786957,1.0195948 6.008405,0.7303177 5.9111659,0.68058932 5.5169429,0.62997429 5.0110033,0.56502392 4.8590831,0.6788236 4.9676947,1.0413857 c 0.066404,0.2216599 0.1660059,0.2560654 0.4677304,0.1615816 0.048724,-0.015251 0.090829,0.1015681 0.093836,0.2594238 0.00289,0.1579363 0.086973,0.3746161 0.1868498,0.481508 0.099879,0.1068935 0.2400865,0.3136382 0.3115768,0.4594367 0.071488,0.1457961 0.1780811,0.2694039 0.2368366,0.2747072 0.058787,0.00528 -0.00325,-0.1815933 -0.1378447,-0.4152755 C 5.9920786,2.0290839 5.8658031,1.7678987 5.8460549,1.6823592 5.8040483,1.5004275 6.0554532,1.2895116 6.1692001,1.4112486 6.4638766,1.7266247 7.5073053,3.4198671 7.9181187,4.2493406 8.0362467,4.4878744 8.1006433,4.4118492 8.0272162,4.1205314 Z M 3.5219185,6.4644497 C 3.493654,6.4341999 3.3924249,6.440338 3.2969534,6.4780878 3.1263532,6.5455402 3.1258407,6.6313155 3.2959363,6.6465949 3.4218079,6.6579091 3.5820217,6.528774 3.5219209,6.4644514 Z M 3.1601551,6.032857 C 3.0296703,5.967584 2.7997126,6.073137 2.8815586,6.1607315 c 0.07425,0.079465 0.3448244,0.083736 0.3759401,0.00594 0.015599,-0.03901 -0.028204,-0.099221 -0.097361,-0.1338033 z M 3.3816547,4.8450368 C 2.9546561,4.5062498 0.94996981,4.0320084 0.69794138,4.2101612 0.53777726,4.3233777 0.57441913,4.7627346 0.78081131,5.2038154 0.90241006,5.4636718 0.9573679,5.5021314 1.3869839,5.6279996 1.9399859,5.790015 2.1726666,5.7213819 1.7817703,5.5115562 1.6446165,5.4379335 1.5109943,5.3921189 1.484829,5.409742 1.4586917,5.42739 1.371737,5.448519 1.2916564,5.4567454 1.1809439,5.4681084 1.1585979,5.348997 1.1984029,4.959739 1.2271952,4.678156 1.285326,4.450883 1.3275888,4.4546792 1.4189625,4.4628892 1.483589,4.7139284 1.455399,4.9511995 1.444307,5.0445305 1.497042,5.1518081 1.5725789,5.1895975 1.6975023,5.2520945 1.7090343,5.2434025 1.700207,5.0933925 1.691697,4.9486346 1.754579,4.9480082 2.215063,5.0882325 2.7391516,5.2478201 2.964833,5.2322479 2.7930106,5.0483565 2.6735989,4.9205535 2.3544839,4.8016215 2.0096896,4.7564109 1.5901968,4.7014054 1.69584,4.5624541 2.1334986,4.5935611 2.3439456,4.6085205 2.6566721,4.7097063 2.8284484,4.8184136 3.2570116,5.0896261 3.7771881,5.3003843 3.7258542,5.1820095 3.7026229,5.1284397 3.5477037,4.9768151 3.381647,4.845008 Z"
     id="path4522"
     inkscape:connector-curvature="0" /></svg>