<?xml version="1.0" encoding="UTF-8" standalone="no"?>
<!-- Generado por Andres Lacquaniti  -->

<svg
   xmlns:dc="http://purl.org/dc/elements/1.1/"
   xmlns:cc="http://creativecommons.org/ns#"
   xmlns:rdf="http://www.w3.org/1999/02/22-rdf-syntax-ns#"
   xmlns:svg="http://www.w3.org/2000/svg"
   xmlns="http://www.w3.org/2000/svg"
   xmlns:sodipodi="http://sodipodi.sourceforge.net/DTD/sodipodi-0.dtd"
   xmlns:inkscape="http://www.inkscape.org/namespaces/inkscape"
   version="1.1"
   id="Layer_1"
   x="0px"
   y="0px"
   width="15px"
   height="15px"
   viewBox="0 0 15 15"
   style="enable-background:new 0 0 15 15;"
   xml:space="preserve"
   sodipodi:docname="panuelo.svg"
   inkscape:version="0.92.0 r15299"><metadata
     id="metadata9"><rdf:RDF><cc:Work
         rdf:about=""><dc:format>image/svg+xml</dc:format><dc:type
           rdf:resource="http://purl.org/dc/dcmitype/StillImage" /></cc:Work></rdf:RDF></metadata><defs
     id="defs7" /><sodipodi:namedview
     pagecolor="#ffffff"
     bordercolor="#666666"
     borderopacity="1"
     objecttolerance="10"
     gridtolerance="10"
     guidetolerance="10"
     inkscape:pageopacity="0"
     inkscape:pageshadow="2"
     inkscape:window-width="1920"
     inkscape:window-height="996"
     id="namedview5"
     showgrid="false"
     inkscape:zoom="15.733333"
     inkscape:cx="13.347574"
     inkscape:cy="-7.7048872"
     inkscape:window-x="-8"
     inkscape:window-y="-8"
     inkscape:window-maximized="1"
     inkscape:current-layer="Layer_1" /><path
     style="display:inline;fill:#000000;stroke-width:0.04660599"
     d="m 7.1824689,0.75999105 v 0 c -0.4244223,-0.001082 -0.808698,0.00898 -1.027021,0.0333781 C 5.6405206,0.85090754 4.9402283,1.0253893 4.6421773,1.1704038 4.5251843,1.2273255 4.3406424,1.3403843 4.2320957,1.4216175 3.8384239,1.7289954 3.5641191,2.1749611 3.5530398,2.6081272 c -0.00319,0.1841921 0.1266428,0.459831 0.3778333,0.6518401 0.1790272,0.1224611 0.3735492,0.2014329 1.2183227,0.494383 0.2277651,0.079367 0.5216495,0.1696236 0.7165199,0.3208376 0.078167,0.079661 0.1169566,0.1879299 0.640261,0.641498 l 0.015018,0.9398128 C 6.0633833,7.2151474 6.1176364,6.9776744 5.8809947,7.7693025 5.7920918,8.1278304 5.7045235,8.5219765 5.6863373,8.6452209 5.668145,8.7684663 5.6409866,8.9334923 5.6260763,9.0119225 c -0.014918,0.078422 -0.040671,0.4451277 -0.057257,0.8148636 -0.025514,0.5685349 -0.013071,0.7476739 0.080497,1.1611549 0.2475443,1.073173 0.9179866,2.120015 1.2134591,3.246474 0.033529,0.04124 0.08131,0.04121 0.1669165,-4.53e-4 0.074429,-0.03614 0.340229,-1.001935 0.5177045,-1.881385 0.095386,-0.472657 0.2317779,-0.914655 0.2378671,-0.770773 0.00244,0.05782 0.088409,0.422978 0.1910383,0.811504 0.1026292,0.38853 0.1866187,0.712461 0.1866181,0.719878 0.2107005,0.04122 0.2546745,0.01433 0.2668481,-0.180076 4.517e-4,-0.181374 0.059953,-0.51123 0.1344875,-0.743472 C 8.7190958,11.702267 8.9567634,11.22573 9.1781861,10.733094 9.4879493,9.9783167 9.1374701,8.6802208 8.8165304,7.5857638 8.5950265,7.071695 8.5054856,6.9959033 8.4532781,5.9080521 8.4948194,5.8352871 8.527527,5.5945392 8.5341276,5.3131171 8.5450044,4.8494889 8.5486903,4.8365595 8.7242795,4.6408663 8.8227395,4.531121 8.9226249,4.4230253 8.9462443,4.4006126 9.0480887,4.303985 9.2541805,4.0478629 9.2541813,4.0180113 9.2541829,3.9345802 9.5228393,3.7634546 9.8006946,3.669779 10.388532,3.4732852 10.90525,3.1825262 11.231613,2.7810446 11.568572,2.1969408 11.31242,1.4938054 10.49477,1.146893 10.326149,1.080255 9.7174286,0.95497018 9.0580213,0.85123793 8.7088522,0.79630716 7.8897582,0.76195467 7.1823804,0.75978582 Z M 7.0274826,1.0315242 C 8.1166199,1.0282811 9.259377,1.2007363 10.412683,1.4195186 10.401418,1.4453228 10.271691,1.5308674 10.124449,1.6095853 9.9772046,1.6882977 9.8155001,1.7847647 9.7650842,1.8239424 9.6065865,1.9471176 9.4197825,1.9524568 8.832168,1.8505581 8.3637659,1.76932 8.1233928,1.752744 7.4150341,1.7527441 c -0.8910361,-2e-7 -0.8901498,3e-7 -1.9725738,0.2486444 C 5.2078823,2.0553239 4.998286,2.0993053 4.9767107,2.0992079 4.8868078,2.0987535 4.6546003,1.7613459 4.6301611,1.5956392 L 4.6037396,1.416792 C 5.3656775,1.1421429 6.1803749,1.0338446 7.0274821,1.03154 Z M 10.68174,1.597035 c 0.118874,0.00108 0.221684,0.083933 0.309004,0.2973334 0.239325,0.4501077 0.141924,0.7748837 -0.323582,1.0788051 -0.155948,0.1018123 -0.308012,0.1851115 -0.337894,0.1851116 -0.02989,1.7e-6 -0.08673,0.022989 -0.126357,0.05096 C 10.132766,3.2588522 9.3390054,3.5656362 8.69459,3.7922513 8.5186529,3.8541226 8.2667742,3.9604194 8.1348203,4.0284476 8.002876,4.0964643 7.8288837,4.2055311 7.748242,4.2707295 7.5599222,4.4229823 7.5627996,4.3616841 7.7584014,4.0530997 7.8446173,3.9170925 7.9421242,3.7434011 7.9750644,3.667134 8.0079988,3.590867 8.1533632,3.4043649 8.2981115,3.2526318 8.5997868,2.9352187 8.8685937,2.6592332 9.3587111,2.3434864 9.6387516,2.181101 9.8571068,2.0329218 10.142472,1.8954978 10.349504,1.7297152 10.528893,1.5957529 10.681739,1.5971055 Z m -6.3695903,0.041762 0.097991,0.2006756 c 0.053875,0.1103701 0.1812165,0.2681354 0.2830173,0.3506132 0.484222,0.3801556 1.1012031,0.3509213 1.6276121,0.7073336 0.20595,0.1421797 0.5113208,0.4709862 0.5440389,0.58583 0.05974,0.192588 0.1909711,0.4251975 0.2755081,0.6833844 0.034681,0.1108083 0.00293,0.1135517 -0.2050858,0.017581 C 6.8472656,4.1436432 6.5473783,4.0421234 6.2688165,3.9586343 5.5256134,3.7353729 4.75142,3.527459 4.0843527,3.0614178 3.8803755,2.904188 3.8022762,2.6560091 3.8703409,2.3817443 3.9184555,2.1929431 4.0219477,2.0038066 4.1463829,1.8229471 Z m 2.6599316,0.318636 c 0.6271054,-0.00163 1.2651917,0.051394 1.7506074,0.067152 0.015472,0.01623 0.1234242,0.038299 0.2398994,0.049067 0.1164891,0.010765 0.2219742,0.020881 0.2343337,0.022451 0.012361,0.00163 -0.088836,0.059263 -0.2248789,0.1281253 -0.2126908,0.1076592 -0.3889677,0.2471072 -0.783938,0.6202898 -0.043981,0.041553 -0.2043341,0.175006 -0.3563625,0.2965415 -0.1520231,0.1215361 -0.2858809,0.220995 -0.2974231,0.220995 -0.072696,0 -0.5347045,-0.274486 -0.7590183,-0.4509095 C 6.5116965,2.7038207 6.1227022,2.5262394 5.709047,2.4243625 5.4365701,2.3572652 5.248151,2.2637517 5.2874788,2.2151233 5.7288803,2.0143881 6.3449746,1.9588515 6.972081,1.9574665 Z m 0.5605612,1.5743259 c 0.082586,-5.433e-4 0.1504002,0.037488 0.1206729,0.1143707 -9.16e-4,0.034244 -0.057579,0.1317117 -0.1259146,0.2166614 L 7.4031945,4.0172167 7.3165987,3.7288973 C 7.2958577,3.5982512 7.4264624,3.5327659 7.5326425,3.5317589 Z m 1.4961286,0.3598964 c 0.066208,1.8e-6 0.065008,0.015362 -0.00813,0.1018805 -0.04735,0.056025 -0.1278158,0.152211 -0.1787479,0.2138333 C 8.7909512,4.2689897 8.7250044,4.3398499 8.6952969,4.3647373 8.4596899,4.5621525 8.3480352,4.6704344 8.3480356,4.701752 8.3480374,4.744221 8.2393237,4.781055 8.1614191,4.764924 8.1320991,4.758864 8.0163901,4.742204 7.9042022,4.727812 L 7.7001723,4.7016835 7.791894,4.5920278 C 7.8423294,4.5317424 7.922148,4.4543396 7.9692337,4.4199866 8.1491294,4.2887559 8.5794424,4.0546157 8.6407757,4.0546157 c 0.035282,1.7e-6 0.1194447,-0.036625 0.1870622,-0.081465 0.067614,-0.044843 0.1580662,-0.081471 0.2009324,-0.081471 z m -2.7328283,0.27162 0.2930024,0.1245925 c 0.161157,0.068526 0.3114833,0.1258745 0.3340945,0.1274163 0.085161,0.00601 0.1850626,0.070803 0.2764809,0.1791986 l 0.094548,0.1120372 -0.2327465,-0.00216 C 6.8148099,4.7021836 6.8382219,4.716686 6.4523401,4.3229897 Z m 1.082066,0.765034 c 0.2719835,4.977e-4 0.5643796,0.030403 0.6345211,0.072545 0.03537,0.021261 0.092029,0.025535 0.1259142,0.00952 0.033886,-0.016013 0.082476,-0.00378 0.1080669,0.027049 C 8.310073,5.1140973 8.306777,5.307144 8.241361,5.338023 8.212035,5.351875 8.18808,5.4628962 8.18808,5.5848166 8.1880797,5.8204288 8.18515,5.8222416 7.8948107,5.7657801 7.8068476,5.7486834 7.5370213,5.7325552 7.2951098,5.7299057 L 6.8552463,5.7250864 V 5.3436761 4.9623091 L 7.121836,4.9381811 c 0.077158,-0.00697 0.1655,-0.010058 0.2561582,-0.0099 z m -0.025355,0.9994499 0.2710919,0.025909 c 0.1491231,0.014286 0.2938032,0.041929 0.3214542,0.061419 0.02765,0.019481 0.052735,0.1592637 0.055759,0.3106714 0.00525,0.2635653 0.085265,0.6605452 0.2032306,1.0086482 0.5143031,1.516164 0.8784645,3.1035812 0.067065,4.8556122 -0.035907,0.155459 -0.043286,0.163574 -0.048562,0.05358 -0.00345,-0.07138 -0.029022,-0.175478 -0.056818,-0.231328 -0.027788,-0.05587 -0.064998,-0.198408 -0.082705,-0.316776 -0.01771,-0.118368 -0.052718,-0.234264 -0.077761,-0.257574 -0.025057,-0.02331 -0.046332,-0.106505 -0.047362,-0.184938 C 7.957067,11.174557 7.8822224,10.846832 7.7916647,10.524707 7.6949776,10.177459 7.6693216,9.7798369 7.5366215,9.3889808 7.4527632,8.8482036 7.4347387,8.7536558 7.2853222,8.0750542 7.2560979,7.1208839 7.2852995,8.0750541 7.2331013,6.8250991 7.2201933,6.5160007 7.3393637,6.1969374 7.3440818,6.1014229 Z m -0.3423105,0.00109 h 4.522e-4 c -0.053157,1.2519787 -0.1866232,1.365502 10e-8,2.2128243 0.1269686,0.5656783 0.2429387,1.2157329 0.3991282,1.8502782 0.08736,0.3259943 0.1750188,0.7022383 0.1948348,0.8360763 0.042958,0.290169 -0.042046,0.759781 -0.224436,1.239791 -0.1180828,0.312019 -0.2361889,0.701343 -0.3114745,1.059358 -0.049017,0.235286 -0.09767,0.434533 -0.1080665,0.442778 -0.010399,0.0082 -0.034317,-0.03759 -0.053098,-0.101881 C 6.8697433,13.338341 6.7107984,12.961161 6.3088612,12.047488 6.0376304,11.430939 5.9777498,11.235386 5.8645799,10.597039 5.8027119,10.248081 5.821814,9.74395 5.9224553,9.0732572 5.9493528,8.8939876 5.982925,8.6553408 5.9970312,8.5429102 6.0111281,8.4304803 6.0864267,8.1005246 6.1643856,7.8096038 6.5026469,6.8589279 6.4675173,6.8509698 6.8853255,6.1987839 6.9126607,5.9889282 6.9404971,5.9288421 7.0104438,5.9288421 Z"
     id="path4618"
     inkscape:connector-curvature="0" /></svg>