<?xml version="1.0" encoding="UTF-8" standalone="no"?>
<!-- Generado por Andres Lacquaniti  -->

<svg
   xmlns:dc="http://purl.org/dc/elements/1.1/"
   xmlns:cc="http://creativecommons.org/ns#"
   xmlns:rdf="http://www.w3.org/1999/02/22-rdf-syntax-ns#"
   xmlns:svg="http://www.w3.org/2000/svg"
   xmlns="http://www.w3.org/2000/svg"
   xmlns:sodipodi="http://sodipodi.sourceforge.net/DTD/sodipodi-0.dtd"
   xmlns:inkscape="http://www.inkscape.org/namespaces/inkscape"
   version="1.1"
   id="Layer_1"
   x="0px"
   y="0px"
   width="15px"
   height="15px"
   viewBox="0 0 15 15"
   style="enable-background:new 0 0 15 15;"
   xml:space="preserve"
   sodipodi:docname="scout-caminando.svg"
   inkscape:version="0.92.0 r15299"><metadata
     id="metadata9"><rdf:RDF><cc:Work
         rdf:about=""><dc:format>image/svg+xml</dc:format><dc:type
           rdf:resource="http://purl.org/dc/dcmitype/StillImage" /><dc:title></dc:title></cc:Work></rdf:RDF></metadata><defs
     id="defs7" /><sodipodi:namedview
     pagecolor="#ffffff"
     bordercolor="#666666"
     borderopacity="1"
     objecttolerance="10"
     gridtolerance="10"
     guidetolerance="10"
     inkscape:pageopacity="0"
     inkscape:pageshadow="2"
     inkscape:window-width="1920"
     inkscape:window-height="996"
     id="namedview5"
     showgrid="false"
     inkscape:zoom="22.250293"
     inkscape:cx="19.378839"
     inkscape:cy="2.0855828"
     inkscape:window-x="-8"
     inkscape:window-y="-8"
     inkscape:window-maximized="1"
     inkscape:current-layer="Layer_1" /><path
     style="display:inline;fill:#000000;stroke-width:0.08830437"
     d="m 7.8585457,0.1146019 c -0.00983,0 -0.019659,0.001596 -0.025553,0.005899 C 7.7789327,0.1539183 7.605514,0.1723967 7.4473497,0.1617816 7.1966969,0.14408992 7.1199343,0.1967723 6.850607,0.56448535 6.6805695,0.79660094 6.5083306,1.1454625 6.4677182,1.3397376 6.4091389,1.6197979 6.3582263,1.6878326 6.2221174,1.6679392 6.1277611,1.6541789 5.8062631,1.6191885 5.5077639,1.590292 5.011766,1.5423277 4.9560173,1.5545154 4.8613468,1.7314328 4.6873779,2.056332 4.9718219,2.2487199 5.8411355,2.3940675 6.112468,2.4394765 6.1700447,2.4897992 6.2166133,2.7224459 6.3060548,3.1696917 6.603532,3.5626843 7.0018519,3.7598491 7.4688354,3.990982 7.8589976,3.9942255 8.2974578,3.7696811 8.7360954,3.5458971 8.9966949,3.2104025 9.0652799,2.781417 9.1097073,2.5038334 9.1629774,2.4315921 9.3512376,2.3933582 10.237988,2.2132956 10.479892,2.0596329 10.378637,1.740572 10.331458,1.592158 10.246932,1.5597231 9.9072696,1.5597231 c -0.227732,0 -0.5449058,0.037349 -0.7047018,0.083348 C 8.9349308,1.7199316 8.9045801,1.707744 8.8184799,1.4885629 8.5688297,0.8532521 8.4706408,0.67348426 8.2113779,0.37818926 8.0747583,0.22269857 7.9293517,0.11564375 7.8585061,0.11397288 Z M 4.1897878,3.2426799 C 3.9271243,3.2418937 3.6634779,3.4802015 3.3755545,3.9598248 3.1954918,4.2598376 2.8761361,4.6946221 2.6658599,4.9259909 2.256807,5.3760494 2.0327115,5.9437186 2.0327115,6.5295905 c 0,0.2902824 0.056024,0.4014262 0.3311306,0.656423 C 2.7191709,7.515375 3.3177222,7.9481738 3.5337188,8.0318165 3.9615053,8.1975292 4.1802146,7.8590273 4.5074726,6.5249517 4.6537243,5.9285628 4.8723747,5.178059 4.9931505,4.85717 L 5.212705,4.2737158 4.898814,3.8007957 C 4.6526039,3.4298784 4.4215496,3.2432501 4.1897878,3.2426799 Z M 6.4786282,3.9413665 C 5.9592378,3.9492321 5.5387246,4.1882449 5.3646574,4.6307156 5.0945044,5.3174304 4.5711629,8.2760805 4.455911,9.7675539 4.3865199,10.666885 4.3031722,10.892592 3.3060652,12.89286 2.9253782,13.656357 2.8472396,13.88356 2.9190484,14.017722 3.1243513,14.401299 3.912106,14.304937 4.4531589,13.829796 5.0379105,13.316381 5.8919306,11.340252 5.9801927,10.2964 l 0.049144,-0.5799947 0.4046104,0.4475427 c 0.222621,0.24617 0.503684,0.557368 0.6244989,0.691609 0.2012338,0.223624 0.2314476,0.372805 0.3623664,1.779378 0.1598158,1.717121 0.2573562,1.99443 0.7005737,1.99443 0.5735667,0 0.6664288,-0.351025 0.6664288,-2.516671 V 10.523208 L 8.2722967,9.7548555 C 7.9887372,9.3322779 7.7006762,8.9400914 7.6320911,8.8832024 7.4322331,8.7172931 7.4671648,7.5027744 7.6889011,6.910317 L 7.8703401,6.425504 8.2695839,6.7304315 C 8.7537675,7.1000122 8.9468241,7.105791 9.7814615,6.7764295 10.133567,6.6374507 10.420291,6.5495619 10.420291,6.5808373 c -7.8e-4,0.031253 0.162961,1.7854709 0.363742,3.8981607 0.245424,2.581049 0.405908,3.906417 0.489118,4.03991 0.141534,0.226947 0.281712,0.249376 0.511194,0.08158 0.172199,-0.126005 0.151952,-0.48678 -0.260265,-4.6513188 C 11.165703,6.3288478 11.162578,6.2504145 11.376058,6.1008599 11.66695,5.8970902 11.635301,5.4385598 11.304308,5.0615682 11.15845,4.8954628 11.0144,4.6344308 10.983695,4.4813776 10.916466,4.1450771 10.672477,3.9866966 10.425579,4.1188343 10.287976,4.19255 10.247875,4.3224467 10.2269,4.7621457 L 10.200755,5.3131846 9.692471,5.4338819 9.1842263,5.5543823 8.5866188,4.9922957 C 8.257907,4.6831029 7.7639143,4.3207758 7.488847,4.1872031 7.1378229,4.0167727 6.7905141,3.9370221 6.4788444,3.9410913 Z"
     id="path4037"
     inkscape:connector-curvature="0" /></svg>