<?xml version="1.0" encoding="UTF-8" standalone="no"?>
<!-- Generado por Andres Lacquaniti  -->

<svg
   xmlns:dc="http://purl.org/dc/elements/1.1/"
   xmlns:cc="http://creativecommons.org/ns#"
   xmlns:rdf="http://www.w3.org/1999/02/22-rdf-syntax-ns#"
   xmlns:svg="http://www.w3.org/2000/svg"
   xmlns="http://www.w3.org/2000/svg"
   xmlns:sodipodi="http://sodipodi.sourceforge.net/DTD/sodipodi-0.dtd"
   xmlns:inkscape="http://www.inkscape.org/namespaces/inkscape"
   version="1.1"
   id="Layer_1"
   x="0px"
   y="0px"
   width="15px"
   height="15px"
   viewBox="0 0 15 15"
   style="enable-background:new 0 0 15 15;"
   xml:space="preserve"
   sodipodi:docname="saludo_mano.svg"
   inkscape:version="0.92.0 r15299"><metadata
     id="metadata9"><rdf:RDF><cc:Work
         rdf:about=""><dc:format>image/svg+xml</dc:format><dc:type
           rdf:resource="http://purl.org/dc/dcmitype/StillImage" /></cc:Work></rdf:RDF></metadata><defs
     id="defs7" /><sodipodi:namedview
     pagecolor="#ffffff"
     bordercolor="#666666"
     borderopacity="1"
     objecttolerance="10"
     gridtolerance="10"
     guidetolerance="10"
     inkscape:pageopacity="0"
     inkscape:pageshadow="2"
     inkscape:window-width="1920"
     inkscape:window-height="996"
     id="namedview5"
     showgrid="false"
     inkscape:zoom="22.250293"
     inkscape:cx="23.608876"
     inkscape:cy="-1.0077982"
     inkscape:window-x="-8"
     inkscape:window-y="-8"
     inkscape:window-maximized="1"
     inkscape:current-layer="Layer_1" /><path
     style="clip-rule:evenodd;fill:#000000;fill-rule:evenodd;stroke-width:0.05528779"
     d="m 7.4477244,13.256194 c -0.3299162,-0.160016 -0.5690269,-0.396419 -0.5690269,-0.56259 0,-0.154177 -0.077758,-0.152763 -0.2209549,0.004 -0.1709083,0.187122 -0.9566988,0.509957 -1.3356107,0.548728 -0.199823,0.02044 -0.3078988,-0.0021 -0.4837674,-0.100957 -0.1245566,-0.07 -0.2264663,-0.144718 -0.2264663,-0.16603 0,-0.110745 -0.3184095,-0.235172 -0.5721782,-0.223595 C 3.6277828,12.77456 3.2154267,12.552825 2.9855139,12.188911 2.8868809,12.032793 2.7906441,11.86242 2.7716511,11.810305 c -0.028931,-0.07937 -0.061272,-0.08543 -0.1993295,-0.0373 -0.1320633,0.04603 -0.213379,0.03596 -0.4093359,-0.05073 C 1.8799446,11.597094 1.6764613,11.354165 1.5336878,10.971004 1.4782287,10.822169 1.3955303,10.680248 1.3499188,10.655623 1.2120376,10.581187 0.0317573,10.231295 -0.55751016,10.090168 -1.0292669,9.9771864 -1.1129784,9.9404017 -1.1280544,9.8394801 -1.1490748,9.6988086 -1.1349317,9.6975536 -0.77866108,9.8083944 0.13338782,10.092121 1.1846664,10.382051 1.3084518,10.384 c 0.022808,4.31e-4 0.041466,-0.139465 0.041466,-0.310725 0,-0.3290325 0.06515,-0.4740159 0.4279126,-0.952222 C 1.8782851,8.9886283 2.0611925,8.6692609 2.1842885,8.4113522 2.346581,8.0713109 2.4539639,7.9171448 2.5749762,7.8504561 3.2055719,7.5029203 3.6634856,7.2323812 4.6598863,6.6186828 4.9447491,6.4432284 5.408293,6.198597 5.6899823,6.07506 6.2142811,5.8451209 6.676124,5.7645049 7.7080111,5.7228119 L 8.067383,5.7082802 V 5.5084636 c 0,-0.2941942 0.065771,-0.3107164 0.1727247,-0.043391 l 0.094427,0.235989 0.6804115,-0.036374 c 0.8046465,-0.043016 0.959867,-0.088155 0.959867,-0.27913 0,-0.2046878 -0.2141777,-0.4027499 -0.5348186,-0.4945797 C 9.2826809,4.8459222 9.0998481,4.7549408 9.0336981,4.6887908 8.898943,4.5540347 8.8614228,4.5558417 7.8462307,4.7459469 7.5421489,4.8028896 6.9948006,4.8889066 6.6299024,4.9370859 6.2650009,4.9852733 5.7922916,5.083856 5.5794315,5.1561732 5.3665762,5.2284873 4.9737926,5.3384133 4.7065802,5.4004528 3.9113437,5.5850882 3.4347502,5.867161 3.2304003,6.2741328 3.1036504,6.526562 3.0550801,6.575938 2.9873937,6.52118 2.9083166,6.4572116 2.4520999,6.3690891 1.8198636,6.2956772 0.9397317,6.1934815 -1.1380321,5.6275617 -1.1380321,5.4900405 c 0,-0.1270899 0.099742,-0.1450136 0.28212688,-0.050696 0.0961402,0.049713 0.40164466,0.1490098 0.67890043,0.2206549 0.27725343,0.071642 0.79021373,0.2076758 1.13990964,0.3022947 0.41877025,0.113314 0.87156015,0.1903065 1.32644135,0.2255563 0.6349325,0.049204 0.6962545,0.04558 0.760301,-0.044883 C 3.3502065,5.7184438 3.8287765,5.4473937 4.6811247,5.2189558 4.840701,5.1761873 5.1933784,5.0758255 5.4648464,4.995936 5.7363138,4.9160472 6.1343865,4.8281489 6.349452,4.8006137 6.8937333,4.7309231 7.7765089,4.5910557 8.2128947,4.5053634 8.7556259,4.3987888 9.1098283,4.4168077 9.265553,4.5589207 c 0.070805,0.064615 0.2164862,0.1455206 0.3237339,0.1797944 0.2882575,0.092119 0.6066761,0.374275 0.6066761,0.5375877 0,0.180352 0.09976,0.2097238 0.352994,0.1039131 0.114913,-0.048016 0.495343,-0.1596295 0.845398,-0.2480376 0.514028,-0.1298198 0.829573,-0.2584406 1.640288,-0.6686061 1.530461,-0.7743056 2.215438,-1.1370116 2.449477,-1.2970412 0.117137,-0.080094 0.354222,-0.2173484 0.526852,-0.3050132 0.172636,-0.087661 0.329597,-0.1848223 0.348813,-0.2159121 0.0572,-0.092545 0.194278,-0.064141 0.194172,0.040235 -7.5e-5,0.1322057 -0.890421,0.667834 -2.376476,1.4297747 C 13.857755,4.279547 13.397125,4.52094 13.153859,4.652044 12.910592,4.7831452 12.610716,4.9448005 12.487465,5.0112774 12.203948,5.1641959 10.014306,5.7184739 9.4084241,5.7906969 9.1573828,5.8206189 8.5539165,5.8593879 8.067383,5.8768379 7.1604907,5.9093749 7.0551826,5.9189579 6.4363951,6.0252862 5.9693088,6.1055522 5.0077469,6.5602425 4.5226734,6.9302258 c -0.098911,0.075446 -0.195674,0.1371688 -0.2150309,0.1371688 -0.01935,0 -0.139195,0.070805 -0.2663051,0.1573422 C 3.9142242,7.3112743 3.5489883,7.524493 3.2297019,7.6985573 2.5777176,8.0539951 2.4779946,8.1463825 2.3960611,8.4708773 2.3644664,8.5960069 2.240854,8.8352247 2.121369,9.0024707 1.7358005,9.5421621 1.6621059,9.7169895 1.6552754,10.108223 c -0.00624,0.357408 0.055172,0.684388 0.1529885,0.814561 0.028177,0.03749 0.1915887,0.110553 0.3631398,0.162348 0.3694514,0.111546 0.3977408,0.131343 0.4094261,0.286469 0.00492,0.06535 0.040972,0.11882 0.080118,0.11882 0.079495,0 0.079095,0.0021 0.099373,-0.497592 C 2.7959334,10.115675 2.8349552,9.9742329 3.1403906,9.6152146 3.2959435,9.4323779 3.7093264,9.0533702 4.0590225,8.7729738 5.072333,7.9604717 5.2615488,7.7051944 5.2923107,7.1091088 c 0.015076,-0.2919802 0.093617,-0.2591384 0.093617,0.039144 0,0.3578244 -0.1910972,0.813649 -0.4721723,1.1262758 C 4.7789581,8.4244515 4.4233175,8.7498588 4.1234354,8.9976568 3.5232885,9.4935706 3.119236,9.9488394 3.118936,10.129491 c -1.008e-4,0.06432 -0.016066,0.403067 -0.03548,0.752763 -0.055704,1.003798 -0.028323,1.150025 0.265396,1.417191 0.2990696,0.272037 0.8311312,0.400806 0.7691605,0.186155 -0.046049,-0.159512 -0.069985,-1.060878 -0.034464,-1.297768 0.0555,-0.370087 0.328032,-0.719727 0.9396268,-1.2054647 0.5732404,-0.4552752 0.6891477,-0.5886638 0.6925188,-0.7969497 0.00107,-0.066622 0.026841,-0.1365102 0.057247,-0.1553043 0.032094,-0.019831 0.055286,0.034433 0.055286,0.1294037 0,0.217598 -0.2904257,0.5940464 -0.9068963,1.175513 -0.2707311,0.255361 -0.5261657,0.54536 -0.5676365,0.644443 -0.076495,0.182773 -0.053089,0.419887 0.054943,0.556626 0.041481,0.0525 0.037079,0.08621 -0.015503,0.118707 -0.054443,0.03365 -0.063459,0.120578 -0.034857,0.336158 0.048753,0.367542 0.1517762,0.57212 0.4370089,0.867829 0.248472,0.257594 0.4465127,0.303056 0.6021062,0.138218 0.050229,-0.05321 0.1301031,-0.128557 0.1774903,-0.167423 0.047383,-0.03887 0.101675,-0.132487 0.1206361,-0.208041 0.047877,-0.190763 -0.023414,-0.615899 -0.1193734,-0.711861 -0.1088262,-0.108824 -0.1026366,-0.123997 0.075986,-0.186264 0.1148797,-0.04005 0.2104074,-0.158494 0.3648319,-0.452367 L 6.2261656,10.872943 6.0878969,10.559694 C 5.8364286,9.9899836 5.8056444,9.556182 5.9949471,9.2498824 6.3805976,8.6258864 7.0775695,8.8452222 7.3169975,9.6659243 c 0.057664,0.1976525 0.1734008,0.5335267 0.2571955,0.7463827 0.1276008,0.32413 0.1530972,0.474899 0.1569108,0.927885 l 0.00451,0.540864 -0.2830665,0.260807 c -0.3391088,0.312445 -0.3822717,0.414908 -0.2611464,0.619952 0.2093317,0.354373 0.8660165,0.519379 1.1685351,0.293622 0.1455035,-0.108583 0.1499828,-0.128636 0.1594498,-0.713973 0.00533,-0.331237 0.022987,-0.668625 0.03917,-0.749749 0.019315,-0.09674 -0.00656,-0.19331 -0.07529,-0.280632 -0.1619519,-0.205886 -0.3882845,-0.755438 -0.3882845,-0.942778 0,-0.127579 0.060615,-0.226537 0.2497657,-0.4077773 C 8.6132395,9.7032652 8.7145193,9.6782799 9.0019748,9.7983831 l 0.1847037,0.077175 0.067421,-0.2292145 c 0.1247196,-0.4240279 0.519751,-0.6952501 0.9039485,-0.6206335 0.182046,0.035354 0.258026,0.1098034 0.794495,0.778432 0.170788,0.2128559 0.331916,0.4109199 0.358068,0.4401389 0.02909,0.0325 0.10827,-0.01335 0.203951,-0.118113 0.388868,-0.4257544 0.95203,-0.5998724 1.121089,-0.3466147 0.06426,0.096251 0.111161,0.107952 0.306746,0.076519 0.355649,-0.057169 0.567422,-0.2149718 0.695586,-0.5183292 0.106296,-0.2515957 0.1376,-0.2778096 0.533115,-0.4463964 0.231107,-0.098507 0.743625,-0.3418711 1.138931,-0.5408037 1.287272,-0.6478066 1.214358,-0.616643 1.234827,-0.527724 0.04412,0.1916602 0.0369,0.1965233 -1.041319,0.7007963 -0.802825,0.3754719 -1.376866,0.730772 -1.71392,1.0608173 -0.206064,0.2017786 -0.503272,0.4228584 -0.696686,0.5182314 l -0.337319,0.166332 -0.03481,0.375739 c -0.03123,0.33714 -0.05324,0.390837 -0.214206,0.522708 -0.21078,0.172682 -0.481683,0.226893 -0.892553,0.178604 -0.286031,-0.03362 -0.298355,-0.02959 -0.333139,0.109004 -0.08913,0.355109 -0.491341,0.628721 -0.87343,0.594168 -0.126415,-0.01142 -0.163415,0.02192 -0.255646,0.230422 -0.1632388,0.369031 -0.6406193,0.647918 -1.1100887,0.648517 -0.1424162,1.79e-4 -0.2483557,0.0448 -0.366242,0.154242 -0.4341659,0.40308 -0.6825903,0.438246 -1.2278258,0.173799 z M 6.0574482,12.811727 c 0.4237945,-0.121065 0.580298,-0.345192 0.2543866,-0.364303 -0.098738,-0.0058 -0.2258391,-0.01822 -0.2824458,-0.02764 -0.056607,-0.0094 -0.1208342,0.0202 -0.142723,0.06581 -0.021889,0.04561 -0.081791,0.166635 -0.1331046,0.268938 -0.074347,0.148203 -0.077404,0.179903 -0.015076,0.155982 0.043032,-0.01651 0.1865628,-0.06097 0.3189612,-0.09879 z m 3.326465,-0.13764 c 0.329993,-0.112442 0.5954298,-0.474788 0.6342088,-0.865767 0.02875,-0.289857 0.01469,-0.303155 -0.1834742,-0.173325 -0.1726742,0.113139 -0.1713434,0.07464 0.00721,-0.208163 C 10.006422,11.166155 9.9944132,11.116262 9.685857,10.778547 9.4732485,10.545854 9.3441564,10.526061 9.2835934,10.716875 9.2341434,10.872663 8.9779941,10.939039 8.7676088,10.85058 8.5416704,10.755578 8.4955219,10.632516 8.6281152,10.478602 8.8247698,10.250326 8.9737819,10.010193 8.9398409,9.9762514 8.8485362,9.8849467 8.64467,9.9591165 8.4840005,10.14212 c -0.1571712,0.179008 -0.1714483,0.22353 -0.1374097,0.428482 0.020888,0.125792 0.073766,0.298624 0.1175064,0.384062 0.1257533,0.245654 0.4631021,0.591039 0.5772911,0.591039 0.05728,0 0.1041423,0.02222 0.1041423,0.04938 0,0.07297 -0.1387968,0.113217 -0.2711082,0.07862 -0.1117093,-0.02921 -0.1159075,-0.01117 -0.1159075,0.497701 v 0.528011 l 0.1520404,0.02304 c 0.083623,0.01267 0.1662691,0.02676 0.1836585,0.03132 0.017387,0.0046 0.1477664,-0.03129 0.2897297,-0.07967 z m -2.449928,-0.444078 c 0.076019,-0.04081 0.2377359,-0.144161 0.3593704,-0.229662 l 0.2211497,-0.155453 0.016746,-0.439857 c 0.00922,-0.241919 -0.013426,-0.551814 -0.050317,-0.68865 C 7.4002179,10.416981 7.0987766,9.7205 7.0509704,9.7229638 7.032223,9.7238246 6.968612,9.7612531 6.9095858,9.8058991 6.6670804,9.9893206 6.3378628,9.8715753 6.2454368,9.568362 6.2244416,9.4995018 6.1841823,9.4574338 6.155966,9.4748737 6.079242,9.5222917 6.098679,10.052883 6.185241,10.274087 c 0.2698621,0.689626 0.2660959,0.66806 0.1400985,0.802179 -0.084822,0.09029 -0.106054,0.162217 -0.079332,0.26872 0.02748,0.10949 0.01562,0.145431 -0.047918,0.145431 -0.046426,0 -0.1379148,0.08656 -0.2033023,0.192364 -0.1155131,0.186903 -0.1161017,0.197079 -0.020715,0.35858 0.1725362,0.292082 0.6078596,0.377639 0.9598831,0.188649 z m 3.9627088,-0.561061 c 0.119642,-0.147337 0.270841,-0.662873 0.211744,-0.72197 -0.01634,-0.01634 -0.05721,-0.0022 -0.09082,0.03139 -0.03361,0.03361 -0.09557,0.04788 -0.137697,0.03171 -0.05722,-0.02196 -0.03454,-0.07729 0.08967,-0.218756 0.09144,-0.104148 0.166261,-0.223355 0.166261,-0.264908 0,-0.07955 -0.66501,-0.9656102 -0.727302,-0.9690656 -0.01991,-8.606e-4 -0.02278,0.098069 -0.0064,0.2203853 0.03819,0.2847673 -0.08784,0.4410613 -0.355655,0.4410613 -0.1353443,0 -0.2248625,-0.04235 -0.3214122,-0.15204 C 9.651492,9.983131 9.5904864,9.8855443 9.5895272,9.8498912 9.5884615,9.8142383 9.7168238,9.672184 9.8745448,9.5342148 10.107887,9.3300911 10.143749,9.2766224 10.067058,9.2471925 9.9358727,9.1968488 9.6653056,9.3196581 9.5628306,9.4760576 c -0.050237,0.076676 -0.085626,0.2523996 -0.085626,0.4252007 0,0.2770857 0.014979,0.3091067 0.2532292,0.5409997 0.3361582,0.327207 0.4111612,0.485033 0.4498602,0.946631 0.02718,0.324191 0.05152,0.395796 0.148478,0.436739 0.182825,0.07721 0.434318,0.0079 0.567901,-0.156679 z M 2.4556757,11.355924 c 0,-0.07767 -0.042663,-0.0982 -0.3421597,-0.164655 -0.1946286,-0.04319 -0.2457003,0.04722 -0.088766,0.157144 0.1576647,0.110431 0.430926,0.115194 0.430926,0.0075 z m 9.9192393,-0.367339 c 0.194998,-0.231741 0.179807,-0.281879 -0.05561,-0.183517 -0.179,0.07479 -0.212291,0.07416 -0.335161,-0.0064 -0.171269,-0.112221 -0.144158,-0.202581 0.07806,-0.26016 0.09485,-0.02458 0.223498,-0.112799 0.2859,-0.196047 0.0624,-0.08325 0.141043,-0.184025 0.174765,-0.223946 0.04598,-0.05443 0.03708,-0.09937 -0.03561,-0.1796857 -0.122092,-0.1349094 -0.152126,-0.1339556 -0.448842,0.014221 -0.25144,0.1255727 -0.570839,0.5267497 -0.570839,0.7169927 0,0.05535 0.04976,0.131704 0.110573,0.169687 0.06082,0.03798 0.110577,0.108678 0.110577,0.157117 0,0.134052 0.05284,0.161777 0.308384,0.161777 0.194167,0 0.259369,-0.02936 0.377798,-0.170104 z m -0.907331,0.03515 c 0,-0.01342 -0.02488,-0.03976 -0.05529,-0.05855 -0.03041,-0.01877 -0.05529,-0.0078 -0.05529,0.02438 0,0.0322 0.02488,0.05855 0.05529,0.05855 0.03041,0 0.05529,-0.01098 0.05529,-0.02438 z M 9.198616,10.647874 C 9.278612,10.505351 9.27562,10.489652 9.1431,10.357133 L 9.0030175,10.21705 8.8192483,10.406653 c -0.1921867,0.198287 -0.1889427,0.283039 0.01401,0.366052 0.1790159,0.07322 0.2720396,0.04144 0.3653647,-0.12483 z m 3.151627,0.01688 c 0.08972,-0.167637 0.0694,-0.182936 -0.105624,-0.07955 -0.162438,0.09596 -0.176677,0.186489 -0.02933,0.186489 0.04274,0 0.103478,-0.04812 0.134956,-0.10694 z m -2.124631,-0.594068 c 0.06795,-0.06795 0.085,-0.1512496 0.0636,-0.3107767 C 10.238262,9.380068 10.092956,9.3623815 9.832173,9.7042849 L 9.6837363,9.8988983 9.843097,10.029221 c 0.191223,0.156376 0.260134,0.163844 0.382515,0.04147 z M 6.8228015,9.6670646 C 6.9589057,9.4127528 6.7354872,9.1484351 6.4937709,9.2777972 6.2856081,9.3892014 6.3913323,9.776505 6.6299042,9.776505 c 0.077282,0 0.1592013,-0.046478 0.1928973,-0.1094404 z"
     id="path4509"
     inkscape:connector-curvature="0" /></svg>