<?xml version="1.0" encoding="UTF-8" standalone="no"?>
<!-- Generado por Andres Lacquaniti  -->

<svg
   xmlns:dc="http://purl.org/dc/elements/1.1/"
   xmlns:cc="http://creativecommons.org/ns#"
   xmlns:rdf="http://www.w3.org/1999/02/22-rdf-syntax-ns#"
   xmlns:svg="http://www.w3.org/2000/svg"
   xmlns="http://www.w3.org/2000/svg"
   xmlns:sodipodi="http://sodipodi.sourceforge.net/DTD/sodipodi-0.dtd"
   xmlns:inkscape="http://www.inkscape.org/namespaces/inkscape"
   version="1.1"
   id="Layer_1"
   x="0px"
   y="0px"
   width="15px"
   height="15px"
   viewBox="0 0 15 15"
   style="enable-background:new 0 0 15 15;"
   xml:space="preserve"
   sodipodi:docname="scout-bp.svg"
   inkscape:version="0.92.0 r15299"><metadata
     id="metadata9"><rdf:RDF><cc:Work
         rdf:about=""><dc:format>image/svg+xml</dc:format><dc:type
           rdf:resource="http://purl.org/dc/dcmitype/StillImage" /><dc:title></dc:title></cc:Work></rdf:RDF></metadata><defs
     id="defs7" /><sodipodi:namedview
     pagecolor="#ffffff"
     bordercolor="#666666"
     borderopacity="1"
     objecttolerance="10"
     gridtolerance="10"
     guidetolerance="10"
     inkscape:pageopacity="0"
     inkscape:pageshadow="2"
     inkscape:window-width="1920"
     inkscape:window-height="996"
     id="namedview5"
     showgrid="false"
     inkscape:zoom="31.466668"
     inkscape:cx="7.2309982"
     inkscape:cy="2.3096152"
     inkscape:window-x="-8"
     inkscape:window-y="-8"
     inkscape:window-maximized="1"
     inkscape:current-layer="Layer_1" /><path
     style="fill:#000000;stroke-width:0.01226792"
     d="M 6.5097656 0.109375 C 6.4850896 0.109375 6.4488054 0.1197541 6.4277344 0.1328125 C 6.3660323 0.17107475 6.0897525 0.47066779 6.0097656 0.5859375 C 5.894568 0.75190829 5.8682883 0.78396093 5.7871094 0.86914062 C 5.7021072 0.95831634 5.5744871 1.1633028 5.4589844 1.3964844 C 5.3889232 1.5379285 5.3730591 1.5612759 5.2480469 1.6914062 C 5.0480882 1.8995349 5.0214122 1.9368464 4.953125 2.125 C 4.9380425 2.1665765 4.9054105 2.2127097 4.84375 2.2753906 C 4.7950373 2.3248996 4.7333704 2.3964408 4.7070312 2.4355469 C 4.6807481 2.47465 4.6427194 2.5294419 4.6210938 2.5566406 C 4.5690371 2.6222968 4.552002 2.6686384 4.5683594 2.6992188 C 4.5865466 2.7332128 4.6065403 2.7286798 4.6914062 2.6738281 C 4.7328279 2.6470592 4.7978707 2.6139428 4.8359375 2.5996094 C 4.9592058 2.5532754 5.0328726 2.5810484 5.1210938 2.7109375 C 5.148403 2.7511556 5.1932554 2.8003504 5.2207031 2.8203125 C 5.2857183 2.8673876 5.3372357 2.8676405 5.3789062 2.8222656 C 5.438127 2.7578021 5.4609909 2.7159831 5.5 2.5878906 C 5.7005243 1.9290506 5.8397692 1.5393002 5.9375 1.3730469 C 6.1068613 1.0849531 6.2213331 0.93588678 6.359375 0.8203125 L 6.4199219 0.76953125 L 6.6015625 0.77148438 L 6.7851562 0.77148438 L 6.8183594 0.73242188 C 6.8492764 0.69584141 6.8523664 0.68627466 6.8476562 0.60742188 C 6.8430544 0.5268556 6.8399564 0.51994737 6.8007812 0.49023438 C 6.7239837 0.43199789 6.6942461 0.3943198 6.6582031 0.3046875 C 6.6384631 0.25567524 6.6084197 0.19145628 6.5898438 0.16210938 C 6.5599847 0.11503716 6.5493016 0.109375 6.5097656 0.109375 z M 7.1484375 0.99804688 C 7.1176315 1.0080806 7.0900004 1.0347672 7.0664062 1.078125 C 7.0359052 1.1341878 7.0335465 1.1398946 7.0429688 1.2695312 C 7.0536984 1.4167458 7.0591534 1.4319468 7.1425781 1.5390625 C 7.2441904 1.66954 7.2559311 1.6897326 7.2890625 1.8242188 C 7.3150104 1.9301062 7.319154 1.9713057 7.3125 2.03125 C 7.2968631 2.171452 7.2121859 2.3382611 7.1191406 2.4082031 C 7.0930513 2.4278075 7.0422193 2.4790483 7.0078125 2.5214844 C 6.9078914 2.6445808 6.9049367 2.7057264 6.9921875 2.7929688 C 7.0460292 2.8468047 7.0490581 2.8469769 7.1113281 2.8417969 C 7.1494502 2.8386329 7.2110377 2.821218 7.2617188 2.796875 C 7.340458 2.759139 7.3549473 2.7558725 7.4570312 2.7578125 C 7.5576449 2.7597055 7.572488 2.7555834 7.625 2.7246094 C 7.6566897 2.7059144 7.7377585 2.6443295 7.8046875 2.5859375 C 7.9008377 2.5020331 7.9389741 2.4582022 7.9863281 2.3789062 C 8.0192927 2.3237256 8.0662899 2.251956 8.0917969 2.21875 C 8.1491869 2.1440315 8.1642769 2.1020486 8.1542969 2.0566406 C 8.150055 2.0372829 8.0912245 1.9579004 8.0234375 1.8789062 C 7.955622 1.799912 7.8597589 1.6820335 7.8105469 1.6171875 C 7.7613349 1.552344 7.6678255 1.4482346 7.6015625 1.3867188 C 7.5352997 1.3251995 7.4367935 1.2235473 7.3828125 1.1601562 C 7.3288314 1.0967661 7.2688409 1.0319401 7.2480469 1.0175781 C 7.2130994 0.99328957 7.1792435 0.98801318 7.1484375 0.99804688 z M 8.375 1.1777344 C 8.3368295 1.170387 8.3114056 1.1842907 8.2753906 1.2148438 C 8.2498546 1.2365198 8.2268494 1.2564525 8.2246094 1.2578125 C 8.2062554 1.2691232 8.3154833 1.4062415 8.4902344 1.5917969 C 8.5689736 1.6754019 8.6406746 1.752665 8.6484375 1.7636719 C 8.6561728 1.7746843 8.6815118 1.8332782 8.7050781 1.8945312 C 8.7287276 1.9557843 8.7592974 2.0289156 8.7734375 2.0566406 C 8.7917315 2.0924419 8.8007812 2.131138 8.8007812 2.1875 C 8.8007812 2.2605334 8.8030803 2.2691452 8.8398438 2.3066406 C 8.9396871 2.4085109 9.3330003 2.6962773 9.40625 2.7207031 C 9.4420237 2.7326221 9.6008294 2.7289276 9.6914062 2.7148438 C 9.7248424 2.7096577 9.7338806 2.7024255 9.7441406 2.6640625 C 9.7728636 2.5571352 9.7940362 2.4353544 9.7851562 2.4277344 C 9.7799439 2.4232134 9.7289731 2.385183 9.6738281 2.34375 C 9.6186552 2.3023148 9.5432202 2.2310169 9.5039062 2.1855469 C 9.2994562 1.9490622 9.173781 1.8378906 9.109375 1.8378906 C 9.0660685 1.8378906 9.03971 1.8084826 8.953125 1.6601562 C 8.8745882 1.5256226 8.7185332 1.3748299 8.5488281 1.2675781 C 8.463546 1.2136766 8.4131705 1.1850818 8.375 1.1777344 z M 10.986328 2.3417969 C 10.953973 2.3413461 10.927024 2.3541714 10.912109 2.3808594 C 10.896519 2.4089374 10.896286 2.4237258 10.910156 2.4960938 C 10.919086 2.5422754 10.940124 2.6162973 10.958984 2.6601562 C 11.010044 2.7784761 11.022917 2.8379625 11.054688 3.1542969 C 11.060427 3.2115576 11.059711 3.213024 11.025391 3.2128906 C 11.006171 3.2128106 10.982909 3.208305 10.974609 3.203125 C 10.966299 3.1979154 10.954166 3.1441894 10.947266 3.0839844 C 10.936787 2.9917914 10.883663 2.7824558 10.820312 2.5820312 C 10.811974 2.5556563 10.790344 2.5217865 10.771484 2.5078125 C 10.739844 2.4843925 10.733735 2.4848461 10.703125 2.5019531 C 10.678555 2.5157271 10.66789 2.5371764 10.65625 2.5839844 L 10.640625 2.6464844 L 10.732422 2.8027344 C 10.783142 2.8890932 10.824219 2.9649831 10.824219 2.9707031 C 10.824219 2.9951341 10.797024 3.0292969 10.777344 3.0292969 C 10.747623 3.0292969 10.634058 2.9099017 10.611328 2.8554688 C 10.593918 2.8136977 10.592774 2.8079839 10.615234 2.7792969 C 10.649114 2.7363627 10.647146 2.7121629 10.597656 2.6386719 C 10.551361 2.5699279 10.519975 2.5558274 10.453125 2.5683594 C 10.417165 2.5750824 10.408912 2.5830051 10.388672 2.6425781 C 10.351472 2.7520258 10.358959 2.7759521 10.443359 2.8613281 C 10.501248 2.9198999 10.528814 2.9650266 10.576172 3.0664062 C 10.609407 3.1375321 10.660048 3.2324905 10.6875 3.2773438 C 10.716281 3.3243375 10.755462 3.4183549 10.78125 3.5 C 10.811225 3.5951691 10.844502 3.6692553 10.880859 3.7246094 C 10.931079 3.8012807 10.935547 3.8124169 10.935547 3.8886719 C 10.935547 3.9632989 10.93148 3.9717856 10.90625 3.9785156 C 10.844199 3.9951506 10.742365 3.9824563 10.582031 3.9414062 C 10.413216 3.8981885 10.411705 3.8975608 10.234375 3.7792969 C 9.9591403 3.5957353 9.8418335 3.503807 9.5761719 3.2597656 C 9.5267659 3.2143658 9.4208288 3.1310539 9.3398438 3.0761719 C 9.1740645 2.9638158 9.1124139 2.9008575 8.9238281 2.6484375 C 8.7066583 2.3577268 8.6888269 2.3404595 8.6386719 2.3671875 C 8.5755697 2.4008153 8.522835 2.4918411 8.515625 2.5800781 L 8.5097656 2.6523438 L 8.4003906 2.7539062 C 8.2992219 2.8480217 8.2834349 2.8594844 8.1796875 2.8945312 C 8.1180824 2.9153419 8.0119087 2.963791 7.9453125 3.0039062 C 7.8787169 3.0440239 7.7830201 3.0915205 7.7324219 3.109375 C 7.6818154 3.127235 7.5496879 3.1772296 7.4394531 3.2207031 C 7.163123 3.3296846 6.9657947 3.3720158 6.6835938 3.3808594 L 6.4746094 3.3867188 L 6.4257812 3.4257812 C 6.3687038 3.4708064 6.3508137 3.4724517 5.9960938 3.4492188 C 5.7755821 3.4347666 5.7757275 3.4343347 5.6796875 3.4648438 C 5.5873409 3.4941806 5.5752824 3.4952413 5.3613281 3.4882812 C 4.9835963 3.4759963 4.9466389 3.4663389 4.7695312 3.3476562 C 4.7222877 3.3160054 4.6374421 3.2649249 4.5800781 3.2324219 C 4.4404822 3.1533194 4.4008212 3.121957 4.3632812 3.0625 L 4.3320312 3.0117188 L 4.2890625 3.0976562 C 4.2655803 3.1443314 4.2169343 3.2128878 4.1816406 3.25 C 4.0811927 3.3556159 4.0548286 3.4033354 4.0332031 3.5195312 C 3.9927799 3.7375036 3.9435861 3.8998014 3.9003906 3.953125 C 3.7998318 4.0771766 3.7412322 4.2308756 3.7226562 4.4238281 C 3.7123704 4.5292721 3.7136183 4.5443958 3.7402344 4.609375 C 3.798263 4.7504631 3.7714624 4.8240334 3.6367188 4.8925781 C 3.5377124 4.9429268 3.5171182 4.9676436 3.484375 5.0742188 C 3.4588678 5.1579705 3.4556821 5.1840387 3.4628906 5.2871094 C 3.4703764 5.3925755 3.4763651 5.4082575 3.5117188 5.4570312 L 3.5507812 5.5117188 L 3.5488281 5.703125 C 3.5477196 5.8319256 3.5533759 5.9265459 3.5664062 5.9960938 C 3.5772185 6.0527418 3.5861267 6.100033 3.5878906 6.1015625 C 3.5897204 6.1030875 3.6205283 6.1099198 3.6542969 6.1171875 C 3.6880106 6.1244581 3.7664491 6.12825 3.8300781 6.125 C 3.9331876 6.119746 3.9602161 6.1127081 4.0703125 6.0644531 C 4.1675498 6.0218301 4.2308174 6.0036066 4.3730469 5.9785156 C 4.4761288 5.9603236 4.5822106 5.9348807 4.6191406 5.9179688 C 4.6800886 5.8900686 4.7742746 5.8741547 4.984375 5.8554688 C 5.0298712 5.8514257 5.0782361 5.8383709 5.0957031 5.8261719 C 5.1674832 5.7760789 5.2175111 5.7611715 5.4433594 5.7265625 C 5.5743992 5.7064805 5.7365264 5.6798776 5.8027344 5.6660156 C 5.8689612 5.6521536 5.9943093 5.6346263 6.0820312 5.6289062 C 6.1697534 5.6231682 6.259624 5.6141519 6.28125 5.6074219 C 6.302793 5.6006879 6.3425246 5.5979525 6.3691406 5.6015625 C 6.4122246 5.6073245 6.4194144 5.603827 6.4277344 5.578125 C 6.4404834 5.5392351 6.4337839 5.2019543 6.4199219 5.1757812 C 6.4006253 5.1397603 6.3189864 5.1081025 6.2246094 5.1015625 L 6.1347656 5.0957031 L 6.2324219 5.0136719 C 6.3592113 4.9076873 6.5055451 4.8445763 6.6269531 4.84375 C 6.735541 4.8430292 6.7840323 4.8319737 6.9316406 4.7695312 C 7.0584522 4.7158776 7.0734537 4.7042651 7.2773438 4.5136719 C 7.3417768 4.4534447 7.4249818 4.347456 7.4746094 4.2636719 C 7.5203003 4.1865102 7.5799486 4.1420565 7.6953125 4.0957031 C 7.752038 4.0729041 7.7951075 4.06751 7.9609375 4.0625 C 8.0977613 4.058339 8.1650178 4.0604425 8.1835938 4.0703125 C 8.221521 4.0906095 8.2567653 4.0683744 8.2851562 4.0058594 C 8.3206444 3.9276811 8.315514 3.9084851 8.25 3.8613281 L 8.1914062 3.8203125 L 8.0273438 3.8203125 C 7.9150129 3.8207555 7.8110276 3.8295232 7.7070312 3.8476562 C 7.6227028 3.8623562 7.4797759 3.8823521 7.3886719 3.8925781 C 7.297584 3.9028121 7.1209119 3.9336845 6.9960938 3.9609375 C 6.8712616 3.9881745 6.7133442 4.0168375 6.6445312 4.0234375 C 6.5757177 4.0300465 6.4645615 4.0491613 6.3984375 4.0664062 C 5.9773299 4.1762363 5.9243835 4.1835483 5.3164062 4.2070312 C 5.14435 4.2136852 4.9704006 4.2226025 4.9316406 4.2265625 C 4.8504896 4.2348485 4.8327255 4.2166825 4.8671875 4.1640625 C 4.9110263 4.0971568 4.916362 4.0946193 5.4316406 4.0507812 C 5.5530929 4.0404482 5.760995 4.0287675 5.8925781 4.0234375 C 6.1542861 4.0128835 6.3146225 3.9859786 6.4375 3.9316406 C 6.5658282 3.8748841 6.6617535 3.8520299 6.8886719 3.8261719 C 7.0122425 3.8120909 7.1197564 3.7981119 7.1289062 3.7949219 C 7.1380278 3.7917069 7.2185157 3.7837736 7.3085938 3.7773438 C 7.4174979 3.7695616 7.5086031 3.755085 7.5800781 3.734375 C 7.6649167 3.709763 7.7162486 3.7031262 7.8183594 3.703125 C 7.889502 3.703097 7.9884645 3.6950269 8.0390625 3.6855469 C 8.0896608 3.6760659 8.1938814 3.6647562 8.2714844 3.6601562 C 8.3490868 3.6555712 8.4469714 3.6413553 8.4882812 3.6289062 C 8.5472247 3.6111334 8.5874334 3.6083112 8.6777344 3.6132812 C 8.7819807 3.6190064 8.8043267 3.6163473 8.9140625 3.5820312 C 9.0254785 3.5471622 9.0495375 3.5429074 9.2089844 3.5429688 C 9.4388703 3.5430597 9.5138246 3.5667973 9.4941406 3.6289062 C 9.4765074 3.6845393 9.430308 3.6962787 9.234375 3.6992188 C 9.0007221 3.7027168 8.6923844 3.7259965 8.6621094 3.7421875 C 8.6312794 3.7586175 8.6390546 3.7865594 8.6816406 3.8183594 C 8.7259841 3.8514884 8.8545856 3.8519555 9.0136719 3.8203125 C 9.1608366 3.7910395 9.3419013 3.7992386 9.4414062 3.8378906 C 9.5263573 3.8708273 9.5375524 3.8897624 9.5195312 3.9570312 C 9.5081692 4.0000472 9.510456 4.0133101 9.53125 4.0488281 C 9.54453 4.0715711 9.5784209 4.1066301 9.6074219 4.1269531 L 9.6601562 4.1640625 L 10.03125 4.1601562 L 10.404297 4.15625 L 10.412109 4.2128906 C 10.416809 4.2440296 10.417363 4.2720906 10.414062 4.2753906 C 10.405187 4.2842746 9.9140171 4.3088969 9.7011719 4.3105469 C 9.5392303 4.3117979 9.5114646 4.3144626 9.4628906 4.3378906 L 9.40625 4.3652344 L 9.3886719 4.5644531 C 9.3665193 4.7968222 9.3701251 4.8430265 9.4238281 4.8984375 C 9.4717927 4.9478077 9.4775745 4.9889253 9.4394531 5.015625 C 9.3521188 5.0768615 9.3351677 5.0968429 9.3339844 5.1503906 C 9.3323486 5.2208316 9.3725008 5.2525042 9.4726562 5.2597656 C 9.533069 5.2641376 9.5577214 5.2586595 9.6308594 5.2265625 C 9.7369355 5.1800125 9.7901614 5.1790831 9.8925781 5.2207031 C 9.9937191 5.2618031 10.046788 5.2546684 10.142578 5.1933594 C 10.226233 5.1398164 10.252186 5.1380994 10.4375 5.1621094 C 10.505372 5.1708634 10.633806 5.1760681 10.722656 5.1738281 C 10.876548 5.1699331 10.886343 5.1678829 10.914062 5.1386719 C 10.930003 5.1218038 10.95406 5.065984 10.96875 5.015625 C 11.00249 4.899673 11.014588 4.8884869 11.048828 4.9355469 C 11.119064 5.0320809 11.150531 5.0437626 11.207031 4.9941406 C 11.246261 4.9596894 11.231826 4.9096173 11.160156 4.8320312 C 11.045092 4.7074679 11.008463 4.6388766 11.007812 4.5410156 C 11.007237 4.4610319 11.158307 4.2750908 11.367188 4.1015625 C 11.5014 3.9900741 11.564535 3.9610683 11.669922 3.9609375 C 11.71988 3.9608765 11.733516 3.9666274 11.791016 4.0214844 C 11.865396 4.0924694 11.912778 4.1262644 11.923828 4.1152344 C 11.940468 4.0986605 11.930421 4.0002079 11.900391 3.8945312 C 11.883011 3.8338051 11.865428 3.7395249 11.861328 3.6855469 C 11.857288 3.631569 11.840016 3.5253877 11.822266 3.4492188 C 11.790386 3.3113557 11.788914 3.3097656 11.808594 3.1972656 C 11.819684 3.1351116 11.831837 3.0473861 11.835938 3.0019531 L 11.84375 2.9179688 L 11.748047 2.8300781 C 11.695516 2.7810515 11.632079 2.716173 11.605469 2.6875 C 11.578859 2.658818 11.546516 2.6367188 11.535156 2.6367188 C 11.481816 2.6367186 11.477384 2.7880367 11.527344 2.8867188 C 11.543454 2.9185055 11.554994 2.969668 11.558594 3.03125 C 11.564104 3.124788 11.561893 3.1270152 11.533203 3.1269531 C 11.479521 3.1268321 11.413701 3.1012069 11.400391 3.0761719 C 11.392091 3.0603076 11.388625 2.9690809 11.390625 2.8222656 C 11.393935 2.5820348 11.390327 2.5636363 11.335938 2.5039062 C 11.301443 2.4660454 11.273585 2.469047 11.234375 2.515625 C 11.203815 2.5518868 11.202284 2.5611212 11.208984 2.6289062 C 11.212894 2.6695677 11.226364 2.7474113 11.240234 2.8007812 C 11.254134 2.8548536 11.265625 2.9369471 11.265625 2.9863281 C 11.265625 3.0685021 11.263791 3.0752181 11.238281 3.0800781 C 11.214721 3.0845531 11.210784 3.079993 11.208984 3.046875 C 11.207854 3.025571 11.182747 2.9585065 11.154297 2.8984375 L 11.103516 2.7890625 L 11.109375 2.6015625 L 11.117188 2.4121094 L 11.085938 2.3828125 C 11.056464 2.3555075 11.018683 2.3422476 10.986328 2.3417969 z M 11.03125 4.1269531 C 11.06785 4.1349751 11.069361 4.1341479 11.050781 4.1699219 C 11.040491 4.1898059 11.009592 4.2268061 10.982422 4.2519531 C 10.909284 4.319594 10.873047 4.3976393 10.873047 4.4882812 C 10.873047 4.5816425 10.853286 4.6620225 10.822266 4.6953125 C 10.791766 4.7280555 10.736029 4.7289745 10.693359 4.6953125 C 10.682459 4.6866435 10.685414 4.676628 10.708984 4.65625 C 10.739314 4.6299887 10.7427 4.620843 10.75 4.4628906 C 10.75704 4.3114757 10.759356 4.2922952 10.791016 4.2382812 C 10.843084 4.1494081 10.93746 4.1063531 11.03125 4.1269531 z M 11.541016 4.1933594 C 11.524546 4.1796904 11.51224 4.1820111 11.46875 4.2050781 C 11.44036 4.2201271 11.400819 4.2368575 11.380859 4.2421875 C 11.355349 4.2489325 11.344797 4.260456 11.341797 4.28125 C 11.335817 4.3225955 11.373759 4.3863346 11.412109 4.4003906 C 11.475458 4.4236406 11.511486 4.4106266 11.541016 4.3535156 C 11.565706 4.3055096 11.566246 4.2143194 11.541016 4.1933594 z M 11.681641 4.2363281 C 11.657857 4.2432111 11.638438 4.2596193 11.626953 4.2871094 C 11.587053 4.3825475 11.615017 4.5058211 11.685547 4.5488281 C 11.757937 4.5929671 11.853509 4.5759657 11.886719 4.5117188 C 11.907849 4.4714149 11.907815 4.4489718 11.890625 4.3867188 C 11.860952 4.2798559 11.752992 4.2156791 11.681641 4.2363281 z M 10.357422 4.4023438 L 10.382812 4.4414062 C 10.410793 4.4875957 10.413085 4.529214 10.390625 4.546875 C 10.380965 4.5534833 10.330464 4.5625115 10.277344 4.5664062 C 10.195835 4.5723943 10.171393 4.5687341 10.126953 4.5488281 C 10.081733 4.5286021 10.075141 4.5233115 10.087891 4.5078125 C 10.098321 4.4952495 10.127104 4.4882812 10.177734 4.4882812 C 10.244245 4.4882813 10.256807 4.4845385 10.304688 4.4453125 L 10.357422 4.4023438 z M 11.224609 4.4941406 C 11.20446 4.4867346 11.18732 4.4959678 11.171875 4.5195312 C 11.156894 4.5425213 11.154303 4.5680764 11.158203 4.6152344 C 11.164805 4.6946978 11.202974 4.7527292 11.271484 4.7851562 C 11.335388 4.8154043 11.406306 4.8080601 11.441406 4.7675781 C 11.455556 4.7512681 11.492484 4.7232931 11.521484 4.7050781 C 11.550484 4.6868551 11.576178 4.6626816 11.580078 4.6523438 C 11.590448 4.6253197 11.559029 4.5984636 11.505859 4.5898438 C 11.470239 4.5840778 11.451278 4.588997 11.423828 4.609375 C 11.404288 4.62382 11.380994 4.6367188 11.371094 4.6367188 C 11.361194 4.6367187 11.328268 4.6032491 11.298828 4.5644531 C 11.268056 4.5238996 11.244759 4.5015466 11.224609 4.4941406 z M 11.724609 4.7402344 C 11.679139 4.7311402 11.634487 4.7630675 11.591797 4.8359375 C 11.534127 4.9343503 11.541085 5.027949 11.609375 5.0625 C 11.647585 5.081833 11.682631 5.081797 11.707031 5.0625 C 11.733202 5.0418698 11.830078 4.8639405 11.830078 4.8359375 C 11.830078 4.8044675 11.768829 4.7490744 11.724609 4.7402344 z M 6.8046875 4.9960938 C 6.7452765 5.0269246 6.7341475 5.0464104 6.7421875 5.1152344 C 6.7512815 5.1921014 6.7325183 5.2043366 6.6601562 5.1660156 C 6.5982734 5.1332366 6.5856565 5.1330525 6.5546875 5.1640625 C 6.4915294 5.2272119 6.559369 5.3676347 6.6640625 5.390625 L 6.6992188 5.3984375 L 6.6816406 5.4472656 C 6.664696 5.4961286 6.6689618 5.5339856 6.6933594 5.5644531 C 6.7123514 5.5882051 6.7805302 5.5828955 6.8164062 5.5546875 C 6.8393133 5.5365795 6.8496094 5.5185134 6.8496094 5.4902344 C 6.8496094 5.4379674 6.8283214 5.4121241 6.7714844 5.3925781 L 6.7246094 5.375 L 6.7558594 5.3378906 C 6.7729934 5.3175156 6.8182897 5.285088 6.8554688 5.265625 C 6.9417548 5.2204088 6.9583555 5.1848251 6.9296875 5.1113281 C 6.9185435 5.0827761 6.893853 5.0403121 6.875 5.0175781 C 6.841231 4.9770161 6.8408685 4.9773796 6.8046875 4.9960938 z M 12.019531 5.1621094 C 11.579588 5.1856843 11.279736 5.2192457 10.830078 5.2929688 C 10.656169 5.3214838 10.581425 5.3267875 10.173828 5.3359375 C 9.6033927 5.3487493 9.1498945 5.3910468 8.453125 5.4960938 C 7.9440375 5.5728535 7.8481053 5.5803181 7.4375 5.5917969 C 6.9265798 5.6060891 6.9021761 5.6105259 6.359375 5.7324219 C 5.9865034 5.8161572 5.5294844 5.9056148 5.0585938 5.9863281 C 4.5121939 6.0799822 4.1278499 6.1687337 3.0761719 6.4511719 C 2.8467609 6.5127797 2.4909595 6.6073349 2.2851562 6.6601562 C 1.8624906 6.7686355 1.7917831 6.7924631 1.4394531 6.9394531 C 1.3011355 6.99716 1.0882604 7.0771079 0.96679688 7.1171875 C 0.64578505 7.2231225 0.43369128 7.3380956 0.26953125 7.4941406 C 0.05322022 7.6997753 0.08746765 7.8699523 0.37304688 8.0078125 C 0.50803734 8.0729804 0.70433011 8.1376687 0.84960938 8.1640625 C 1.1508033 8.2188115 2.840441 8.1875632 3.3066406 8.1191406 C 3.4388611 8.0997444 3.4722408 8.1031014 3.5078125 8.1386719 C 3.5356374 8.166422 3.5398676 8.1785197 3.5351562 8.234375 C 3.5283637 8.3116348 3.4508504 8.4935874 3.4003906 8.5507812 C 3.3802631 8.5735523 3.3551254 8.6090953 3.3457031 8.6308594 C 3.3216932 8.6856523 3.3429081 8.7452365 3.4296875 8.859375 C 3.4798699 8.9253607 3.5065623 8.9743242 3.5292969 9.046875 C 3.5710509 9.1811261 3.6069168 9.3795575 3.6152344 9.5136719 C 3.6311458 9.7733603 3.7889359 10.203353 3.9003906 10.291016 C 3.9164711 10.303651 3.9696692 10.322228 4.0175781 10.333984 C 4.173282 10.372142 4.2537168 10.456587 4.2675781 10.595703 C 4.2825497 10.744853 4.2402717 10.823294 4.1367188 10.839844 C 4.0785517 10.849164 4.0466606 10.881725 4.0566406 10.921875 C 4.0687841 10.970211 4.1626493 11.050395 4.2382812 11.078125 L 4.3066406 11.103516 L 4.3144531 11.166016 C 4.3183331 11.200852 4.3219939 11.254786 4.3222656 11.285156 C 4.3228206 11.337646 4.3234979 11.339746 4.3417969 11.316406 C 4.3706579 11.279803 4.4079369 11.195696 4.4082031 11.166016 C 4.4085091 11.139006 4.3872389 11.118303 4.3417969 11.095703 C 4.3122979 11.081042 4.3126499 11.085099 4.2792969 10.617188 C 4.2566169 10.298954 4.2210106 10.011446 4.1816406 9.8398438 C 4.1358106 9.6398954 4.0898438 9.3456815 4.0898438 9.2578125 C 4.0898438 9.1574063 4.1176114 9.0614966 4.1621094 9.0117188 C 4.1926614 8.9775336 4.1987759 8.9753184 4.2167969 8.9902344 C 4.2583849 9.0248435 4.2657981 9.0588556 4.2675781 9.2675781 C 4.2698792 9.5079852 4.2818527 9.5738519 4.3632812 9.7460938 C 4.4290449 9.8852015 4.4983749 9.9542707 4.5585938 9.9414062 C 4.6301577 9.926114 4.7657521 9.8219569 4.9257812 9.6601562 C 5.0129488 9.5720155 5.1180019 9.4553306 5.1582031 9.4003906 C 5.2396039 9.2890413 5.2909999 9.2484384 5.4023438 9.2109375 C 5.473783 9.1868721 5.4936224 9.1875218 5.7734375 9.1953125 C 6.1799395 9.2066438 6.2928945 9.1862082 6.4082031 9.0820312 C 6.4772384 9.019652 6.5093605 8.9615927 6.5683594 8.7890625 C 6.6041248 8.6845065 6.6504389 8.5833988 6.7324219 8.4394531 C 6.8253286 8.2763403 6.8533744 8.2157108 6.875 8.1289062 C 6.8896943 8.069655 6.9127506 8.0068971 6.9257812 7.9902344 C 6.9581919 7.948985 7.0070341 7.9508923 7.046875 7.9941406 C 7.0992754 8.0509964 7.1706 8.1784844 7.1894531 8.2519531 C 7.2255511 8.3921144 7.2703801 8.4140521 7.3378906 8.3222656 C 7.4068151 8.2285936 7.4474976 8.2547334 7.4882812 8.4160156 C 7.5094603 8.4998701 7.5130803 8.5408911 7.5078125 8.6386719 C 7.4998831 8.7825012 7.510611 8.8267279 7.5644531 8.8789062 C 7.5886792 8.9023893 7.7670912 8.9986337 8.0058594 9.1191406 L 8.40625 9.3222656 L 8.5644531 9.3222656 C 8.7448851 9.3222656 8.7488456 9.3204764 8.9082031 9.203125 C 8.997117 9.137619 9.0185935 9.1278106 9.0859375 9.1191406 C 9.1281695 9.1137026 9.1502916 9.1062256 9.1347656 9.1035156 C 9.1193226 9.1008276 9.0787739 9.1060112 9.0449219 9.1132812 C 8.9641477 9.1306033 8.9029403 9.1144954 8.7382812 9.0371094 C 8.611442 8.9774921 8.492336 8.9078439 8.40625 8.8417969 C 8.3821291 8.8232959 8.3165746 8.7832812 8.2597656 8.7539062 C 8.1819136 8.7136563 8.1534112 8.6934478 8.1445312 8.6679688 C 8.1282004 8.6215981 8.1445356 8.5998845 8.2285156 8.5546875 C 8.2937246 8.5196085 8.302344 8.5176249 8.359375 8.5292969 C 8.4412415 8.5460689 8.5262288 8.5274146 8.6621094 8.4628906 C 8.7208032 8.4350296 8.8217466 8.395378 8.8847656 8.375 C 8.9575721 8.351442 9.0138446 8.3246522 9.0410156 8.3007812 C 9.0971314 8.2514918 9.1561141 8.1477854 9.15625 8.0976562 C 9.15625 8.0658073 9.1616786 8.0585938 9.1816406 8.0585938 C 9.195337 8.0585938 9.239274 8.0411573 9.28125 8.0195312 C 9.3526697 7.9827553 9.3684267 7.9796463 9.5234375 7.9726562 C 9.6596236 7.9665263 9.6983144 7.9612451 9.7402344 7.9394531 C 9.8547944 7.8798915 9.8766643 7.7837888 9.8007812 7.6660156 C 9.7348519 7.5637047 9.7465795 7.5058594 9.8359375 7.5058594 C 9.9011497 7.5058594 10.121177 7.5688864 10.216797 7.6152344 C 10.363857 7.6865155 10.502875 7.7818453 10.578125 7.8632812 C 10.6875 7.9816199 10.75968 8.0145839 10.8125 7.9667969 C 10.8452 7.937206 10.844131 7.8771397 10.806641 7.7597656 C 10.773371 7.6556969 10.767443 7.5823911 10.789062 7.5175781 C 10.818702 7.4293316 10.8764 7.3957434 11.056641 7.3652344 C 11.192272 7.3422694 11.385514 7.2841385 11.458984 7.2421875 C 11.539807 7.1960086 11.560813 7.1597516 11.560547 7.0722656 C 11.560287 6.9833345 11.534029 6.8493909 11.505859 6.7949219 C 11.451406 6.6895991 11.490411 6.6347656 11.623047 6.6347656 C 11.671363 6.6347656 11.890414 6.603744 12.128906 6.5625 C 12.359721 6.5225814 12.641161 6.4749134 12.755859 6.4570312 C 13.009981 6.4174374 13.204153 6.3765156 13.382812 6.3222656 C 13.580614 6.2622048 13.677482 6.2185129 13.826172 6.1230469 C 14.00484 6.0083343 14.068649 5.9772945 14.162109 5.9609375 C 14.318132 5.9336285 14.344668 5.9181853 14.466797 5.7832031 C 14.565745 5.6738288 14.615234 5.5732617 14.615234 5.4804688 C 14.615234 5.3870692 14.591172 5.3665285 14.449219 5.3359375 C 14.388917 5.3229425 14.286756 5.2925861 14.222656 5.2675781 C 14.072067 5.2087791 13.968183 5.2013628 13.628906 5.2304688 C 13.314359 5.2574527 13.128269 5.2508129 12.78125 5.2011719 C 12.44217 5.1526669 12.313705 5.1463334 12.019531 5.1621094 z M 11.492188 7.5605469 C 11.381287 7.5771791 11.329186 7.6421741 11.273438 7.8339844 C 11.239751 7.9498153 11.164648 8.0717823 11.050781 8.1933594 C 11.009436 8.2374726 10.955771 8.3036219 10.931641 8.3417969 C 10.89207 8.4041929 10.879616 8.4152239 10.816406 8.4355469 C 10.770776 8.4502159 10.737063 8.4682484 10.720703 8.4902344 C 10.696773 8.5223401 10.697934 8.5289331 10.714844 8.5957031 C 10.730044 8.6557341 10.737884 8.6687886 10.771484 8.6835938 C 10.805034 8.6983216 10.811459 8.7091284 10.818359 8.7558594 C 10.828839 8.8258042 10.816018 9.0006624 10.798828 9.0214844 C 10.757573 9.0712007 10.650931 9.3073153 10.644531 9.3632812 C 10.638121 9.4190981 10.641158 9.4318145 10.673828 9.4765625 C 10.71054 9.5268745 10.775954 9.5683594 10.820312 9.5683594 C 10.868839 9.5683594 10.921875 9.4644296 10.921875 9.3691406 C 10.921875 9.3093146 10.942146 9.310512 10.978516 9.375 C 11.007045 9.4255679 11.101671 9.53125 11.119141 9.53125 C 11.125491 9.53125 11.130945 9.5409224 11.130859 9.5527344 C 11.130589 9.5645426 11.140704 9.625088 11.152344 9.6875 L 11.171875 9.8007812 L 11.216797 9.8007812 C 11.290241 9.8007814 11.337951 9.7587396 11.369141 9.6660156 C 11.414609 9.530828 11.446834 9.4712151 11.527344 9.3671875 C 11.570011 9.3120562 11.615889 9.2377299 11.630859 9.2011719 C 11.645789 9.1646132 11.677322 9.1042694 11.701172 9.0683594 C 11.724992 9.032453 11.753402 8.9824003 11.763672 8.9570312 C 11.774012 8.9316629 11.808031 8.86003 11.837891 8.796875 C 11.927951 8.6060676 11.933995 8.5726617 11.933594 8.3222656 C 11.933234 8.0966164 11.910604 7.911431 11.871094 7.8125 C 11.861354 7.788161 11.825236 7.7441017 11.791016 7.7148438 C 11.756806 7.6855857 11.722644 7.6555575 11.714844 7.6484375 C 11.652408 7.5914925 11.552626 7.5514769 11.492188 7.5605469 z M 8.9375 7.8261719 C 8.9708914 7.8233675 8.9963036 7.8306263 9.0117188 7.8476562 C 9.0374187 7.8760552 9.0956506 8.0090914 9.0878906 8.0214844 C 9.0846468 8.0267334 9.0255831 8.058974 8.9550781 8.09375 C 8.8366641 8.152181 8.8196795 8.15743 8.7421875 8.15625 C 8.6960536 8.155529 8.6354519 8.1488781 8.6074219 8.1425781 C 8.547868 8.1292074 8.4921875 8.0794225 8.4921875 8.0390625 C 8.4921875 8.0016255 8.5307133 7.9781466 8.6347656 7.9472656 C 8.6820096 7.9332556 8.7257719 7.9174894 8.7324219 7.9121094 C 8.7391579 7.9067394 8.7790025 7.8842134 8.8203125 7.8632812 C 8.863716 7.8413047 8.9041086 7.8289763 8.9375 7.8261719 z M 9.7617188 8.1113281 C 9.7296962 8.0818931 9.6982103 8.0863166 9.53125 8.1347656 C 9.4851156 8.1481236 9.4295521 8.15767 9.4082031 8.15625 C 9.336922 8.151434 9.3165962 8.156057 9.2851562 8.1875 C 9.2419383 8.230676 9.2440336 8.2647904 9.2929688 8.2871094 C 9.323605 8.3010714 9.3628212 8.302315 9.4570312 8.296875 C 9.7038102 8.28271 9.7451268 8.2757242 9.7773438 8.2382812 C 9.8121946 8.1977114 9.8056357 8.1516931 9.7617188 8.1113281 z M 9.40625 8.4140625 L 9.3359375 8.4453125 C 9.2591665 8.4792725 9.245109 8.4966524 9.265625 8.5351562 C 9.2816501 8.5650988 9.3780821 8.6346295 9.4238281 8.6484375 C 9.4417661 8.6538655 9.48327 8.6576689 9.515625 8.6582031 C 9.562591 8.6590451 9.5793946 8.6529442 9.6035156 8.6289062 C 9.6635952 8.5688181 9.6303746 8.449675 9.5585938 8.46875 C 9.5407957 8.473491 9.507897 8.4630714 9.46875 8.4433594 L 9.40625 8.4140625 z M 11.292969 8.6875 C 11.300198 8.695796 11.300478 8.7170028 11.298828 8.7539062 L 11.296875 8.8261719 L 11.351562 8.8300781 C 11.381914 8.8322131 11.412369 8.83815 11.417969 8.84375 C 11.433829 8.859359 11.402905 8.9031545 11.359375 8.9296875 C 11.309194 8.9603015 11.291821 8.9595014 11.244141 8.9257812 C 11.203961 8.8973193 11.179601 8.8587876 11.179688 8.8222656 C 11.179736 8.7968397 11.224503 8.7200686 11.251953 8.6992188 C 11.272318 8.6837301 11.28574 8.679204 11.292969 8.6875 z M 4.1835938 8.9042969 C 4.2100718 8.9042969 4.2246094 8.910901 4.2246094 8.921875 C 4.2246094 8.95642 4.1932481 8.9663434 4.1582031 8.9433594 C 4.1185851 8.9174054 4.1277007 8.9042969 4.1835938 8.9042969 z M 11.240234 9.0390625 C 11.269154 9.0390625 11.320984 9.1012091 11.339844 9.1582031 C 11.369491 9.2480066 11.320977 9.3859051 11.242188 9.4394531 C 11.217738 9.4560891 11.195906 9.46875 11.191406 9.46875 C 11.187006 9.46875 11.186153 9.4453896 11.189453 9.4160156 C 11.192773 9.3850801 11.187141 9.3343609 11.175781 9.2949219 C 11.164901 9.2574709 11.154297 9.2134566 11.154297 9.1972656 C 11.154297 9.1501798 11.214444 9.0390625 11.240234 9.0390625 z M 6.1230469 9.6445312 C 6.0403652 9.6667806 5.8009429 9.8097758 5.7167969 9.8867188 C 5.6752841 9.9246855 5.5438623 10.021684 5.4257812 10.101562 C 5.3076919 10.181439 5.1454111 10.297445 5.0644531 10.359375 C 4.9834682 10.421304 4.8870104 10.491785 4.8496094 10.515625 C 4.7501794 10.579007 4.7469794 10.584427 4.7558594 10.6875 C 4.7838614 11.015471 4.7911146 11.090823 4.8066406 11.164062 C 4.8160666 11.209288 4.8273213 11.291213 4.8320312 11.345703 C 4.8398212 11.439083 4.8422466 11.445313 4.8691406 11.445312 C 4.8849426 11.445312 4.9175501 11.427923 4.9394531 11.408203 L 4.9785156 11.373047 L 4.9746094 11.263672 C 4.9715604 11.171678 4.9744556 11.15014 4.9941406 11.125 C 5.0069506 11.108593 5.0409114 11.047984 5.0683594 10.990234 C 5.1166121 10.888862 5.1265156 10.877059 5.3730469 10.640625 C 5.5134743 10.505939 5.647754 10.381081 5.671875 10.363281 C 5.695885 10.345487 5.7328353 10.297314 5.7539062 10.257812 C 5.7917231 10.186841 5.8152261 10.165787 5.9277344 10.091797 C 5.9593964 10.070987 5.9995561 10.039938 6.0175781 10.023438 C 6.0446101 9.998557 6.0586472 9.9957132 6.0976562 10.001953 C 6.1582625 10.011635 6.1991145 9.9903509 6.2265625 9.9355469 C 6.2633525 9.8621421 6.2516281 9.7103754 6.2050781 9.6601562 C 6.1791831 9.6321813 6.1733399 9.6310014 6.1230469 9.6445312 z M 10.683594 9.6679688 C 10.668665 9.6636623 10.651016 9.6735843 10.628906 9.6992188 C 10.611856 9.7189916 10.578541 9.7465256 10.556641 9.7617188 C 10.506261 9.7967077 10.506338 9.8345414 10.554688 9.8808594 C 10.581976 9.9070114 10.591667 9.9265634 10.591797 9.9589844 C 10.592057 10.02569 10.602712 10.051899 10.638672 10.074219 C 10.656557 10.084992 10.680398 10.095573 10.691406 10.095703 C 10.720118 10.096155 10.774441 10.019592 10.800781 9.9433594 C 10.822751 9.8801604 10.824045 9.8806158 10.796875 9.8554688 C 10.739565 9.8025161 10.721544 9.7744864 10.714844 9.7246094 C 10.710399 9.6913034 10.698523 9.6722751 10.683594 9.6679688 z M 7.8808594 9.7988281 C 7.8238564 9.8293257 7.8607355 9.9666886 7.9296875 9.9804688 C 7.9501475 9.9845707 7.9707194 9.9958798 7.9746094 10.005859 C 7.9784904 10.015849 7.9720235 10.063238 7.9609375 10.111328 C 7.9498745 10.15942 7.9377537 10.231401 7.9335938 10.269531 C 7.9265237 10.332331 7.9292941 10.340788 7.9550781 10.361328 C 7.9984401 10.395721 8.0508323 10.451382 8.1289062 10.544922 C 8.1677769 10.591511 8.2381623 10.672584 8.2851562 10.726562 C 8.38139 10.837086 8.4514969 10.964847 8.4980469 11.107422 C 8.532038 11.211528 8.5855924 11.307006 8.6152344 11.316406 C 8.6253544 11.319706 8.651636 11.318 8.671875 11.3125 C 8.706553 11.3032 8.7087569 11.297929 8.7167969 11.224609 C 8.7284689 11.119975 8.7304124 11.117022 8.7871094 11.107422 C 8.9105687 11.086565 8.9988804 11.241855 8.9589844 11.408203 C 8.9451184 11.465283 8.9460029 11.473901 8.9667969 11.494141 C 8.9794389 11.506431 9.0145629 11.520744 9.0449219 11.527344 C 9.1434838 11.548684 9.1518887 11.546724 9.1679688 11.496094 C 9.1871817 11.436142 9.2269639 11.394531 9.2636719 11.394531 C 9.3969458 11.394531 9.3523066 11.247411 9.1757812 11.099609 C 9.0771384 11.017015 8.8492992 10.844974 8.7480469 10.777344 C 8.6449097 10.708459 8.5757383 10.635176 8.4726562 10.482422 C 8.4225572 10.408202 8.3464695 10.295675 8.3046875 10.234375 C 8.2629054 10.173078 8.2005205 10.065882 8.1640625 9.9941406 C 8.1111905 9.8900548 8.0880031 9.8560011 8.0488281 9.8300781 C 7.9919917 9.7924711 7.9186214 9.7786171 7.8808594 9.7988281 z M 10.492188 10.132812 C 10.446322 10.132812 10.426365 10.160534 10.390625 10.279297 C 10.373355 10.336649 10.347001 10.418237 10.332031 10.460938 C 10.291186 10.576442 10.306943 10.604603 10.419922 10.626953 C 10.442782 10.631473 10.459425 10.652405 10.484375 10.703125 C 10.511585 10.758665 10.528283 10.775902 10.570312 10.794922 C 10.598864 10.807872 10.630355 10.8155 10.640625 10.8125 C 10.687287 10.79873 10.808216 10.770878 10.835938 10.767578 C 10.877786 10.762465 10.905526 10.700813 10.916016 10.589844 L 10.925781 10.5 L 10.882812 10.457031 C 10.822158 10.396351 10.794748 10.400496 10.767578 10.472656 C 10.743958 10.535646 10.731441 10.550316 10.707031 10.541016 C 10.687581 10.533555 10.639838 10.437778 10.648438 10.423828 C 10.660596 10.403908 10.655315 10.294155 10.640625 10.265625 C 10.61143 10.208721 10.526018 10.132813 10.492188 10.132812 z M 6.1054688 10.328125 C 6.0811538 10.328125 6.0713104 10.339283 6.0527344 10.382812 C 6.0301664 10.435383 6.0277061 10.437706 5.9707031 10.441406 C 5.9209641 10.444586 5.9093 10.448523 5.90625 10.470703 C 5.904005 10.486593 5.9186724 10.515316 5.9414062 10.541016 C 5.9730323 10.576918 5.9785156 10.592934 5.9785156 10.646484 L 5.9785156 10.710938 L 6.0527344 10.742188 C 6.1355204 10.777897 6.1415601 10.796654 6.0957031 10.851562 C 6.0234801 10.93806 6.0079594 11.023118 6.0527344 11.080078 C 6.0878344 11.124678 6.1075798 11.121603 6.1367188 11.064453 C 6.1537426 11.031133 6.1794387 11.007754 6.2148438 10.990234 C 6.2433998 10.976104 6.2785517 10.950644 6.2929688 10.933594 C 6.3479751 10.868152 6.4082031 10.948248 6.4082031 11.087891 C 6.4082031 11.167411 6.4165534 11.179601 6.4746094 11.179688 L 6.5117188 11.181641 L 6.5117188 11.257812 C 6.5117188 11.327765 6.515906 11.338584 6.546875 11.365234 C 6.565727 11.381514 6.5845737 11.394531 6.5898438 11.394531 C 6.6129938 11.394531 6.6379641 11.346443 6.6582031 11.257812 C 6.6701251 11.205399 6.6889588 11.152958 6.6992188 11.142578 C 6.7292167 11.112588 6.7771537 11.126958 6.8085938 11.173828 C 6.8424148 11.224236 6.8446984 11.289945 6.8183594 11.464844 C 6.8083804 11.531733 6.8008173 11.592663 6.8007812 11.601562 C 6.8006703 11.627053 6.731155 11.689453 6.703125 11.689453 C 6.666805 11.689453 6.6583516 11.64239 6.6816406 11.5625 C 6.7022136 11.491503 6.7003639 11.462872 6.6699219 11.451172 C 6.6406993 11.439962 6.6310333 11.451301 6.5664062 11.580078 C 6.5094871 11.6935 6.5034824 11.702864 6.4589844 11.714844 C 6.3556255 11.742678 6.3191486 11.715392 6.2285156 11.544922 C 6.1750618 11.444426 6.1413459 11.402773 6.1230469 11.414062 C 6.1163099 11.418213 6.0972671 11.451901 6.0800781 11.488281 C 6.0373814 11.578466 5.9937953 11.603516 5.8828125 11.603516 C 5.7647314 11.603516 5.7207031 11.587579 5.7207031 11.542969 C 5.7207031 11.491659 5.7085159 11.469159 5.6699219 11.449219 C 5.6319385 11.429639 5.5514526 11.426889 5.5253906 11.443359 C 5.5129206 11.451179 5.5112081 11.471247 5.5175781 11.523438 L 5.5273438 11.591797 L 5.4355469 11.685547 C 5.3382877 11.782834 5.3051819 11.835679 5.2949219 11.912109 C 5.2897919 11.950719 5.2931415 11.962944 5.3203125 11.990234 C 5.3461245 12.016014 5.3606577 12.022225 5.3867188 12.015625 C 5.4431427 12.001402 5.4508756 11.9861 5.4472656 11.90625 L 5.4453125 11.832031 L 5.5214844 11.816406 C 5.6078758 11.798616 5.6784836 11.766526 5.7128906 11.728516 C 5.7448021 11.693176 5.8087371 11.695305 5.8925781 11.734375 C 5.929702 11.751665 6.0070891 11.774799 6.0644531 11.787109 C 6.1218164 11.799399 6.1899039 11.819588 6.2167969 11.830078 C 6.24613 11.841458 6.3062914 11.849343 6.3652344 11.849609 C 6.431164 11.849959 6.4865141 11.856637 6.5332031 11.873047 C 6.594298 11.894487 6.6349715 11.898437 6.8554688 11.898438 C 7.064987 11.898438 7.1264381 11.894057 7.2207031 11.873047 C 7.3523916 11.843697 7.3987337 11.840896 7.6640625 11.853516 C 7.8140828 11.860656 7.879555 11.870665 7.9375 11.890625 C 8.0123847 11.916315 8.014694 11.916041 8.109375 11.894531 C 8.1623022 11.882501 8.2520469 11.848419 8.3105469 11.818359 C 8.3688537 11.788399 8.426414 11.763672 8.4375 11.763672 C 8.450254 11.763672 8.4601338 11.776821 8.4648438 11.800781 C 8.4733006 11.843071 8.5321206 11.888313 8.5722656 11.882812 C 8.5855466 11.881004 8.608919 11.861511 8.625 11.837891 C 8.660349 11.785996 8.6572263 11.718637 8.6132812 11.609375 C 8.5597164 11.476245 8.4724424 11.456721 8.4433594 11.572266 C 8.4330184 11.613376 8.419653 11.634404 8.390625 11.652344 C 8.3334837 11.687644 8.2183659 11.714844 8.1230469 11.714844 L 8.0390625 11.714844 L 8.0390625 11.660156 C 8.0390625 11.580075 7.9906249 11.480469 7.9511719 11.480469 C 7.9033169 11.480469 7.8499724 11.607073 7.8632812 11.689453 C 7.8730122 11.750323 7.8408469 11.773777 7.7792969 11.748047 C 7.7161669 11.72165 7.7069788 11.70065 7.6992188 11.572266 C 7.6942287 11.489449 7.6874263 11.451766 7.6757812 11.447266 C 7.6442029 11.435136 7.6028307 11.455637 7.5742188 11.498047 C 7.5484346 11.536247 7.5475159 11.546457 7.5605469 11.585938 C 7.5812289 11.648656 7.5712718 11.666016 7.5117188 11.666016 C 7.4474796 11.666016 7.4197603 11.648819 7.3945312 11.599609 C 7.3681368 11.547993 7.3054326 11.46875 7.2910156 11.46875 C 7.2846386 11.46875 7.2792969 11.488599 7.2792969 11.511719 C 7.2792969 11.574159 7.2188904 11.623615 7.1621094 11.609375 C 7.1281185 11.600841 6.9935946 11.434064 6.9648438 11.365234 C 6.9482088 11.325303 6.9501377 11.315832 6.9804688 11.232422 C 7.0213634 11.120099 7.0235312 11.118775 7.0820312 11.109375 C 7.1172412 11.103735 7.1393754 11.090437 7.1621094 11.060547 C 7.1792164 11.038017 7.1933594 11.013259 7.1933594 11.005859 C 7.1933594 10.979389 7.2197547 10.97616 7.2460938 11 C 7.2607598 11.01334 7.2847003 11.030763 7.3007812 11.039062 C 7.3258733 11.052043 7.3349649 11.049854 7.3574219 11.027344 C 7.3789559 11.005732 7.3831087 10.984107 7.3867188 10.898438 C 7.3914036 10.785935 7.3999948 10.771062 7.4648438 10.757812 C 7.5172158 10.747114 7.5336218 10.718644 7.5117188 10.677734 C 7.4855459 10.628784 7.5068694 10.619706 7.5996094 10.634766 C 7.7289745 10.655766 7.7640237 10.652024 7.7929688 10.615234 C 7.8261136 10.573073 7.8270269 10.488869 7.7949219 10.449219 C 7.7728809 10.421999 7.7684917 10.421217 7.7148438 10.435547 C 7.6837085 10.443887 7.6199806 10.451172 7.5722656 10.451172 C 7.4920016 10.451172 7.4762331 10.455652 7.3632812 10.513672 C 7.2950493 10.548732 7.2323481 10.589922 7.2207031 10.607422 C 7.1707619 10.681822 7.0055182 10.818244 6.9257812 10.851562 C 6.8222586 10.894813 6.6112771 10.842829 6.5332031 10.755859 C 6.5104131 10.730449 6.4758844 10.705066 6.4570312 10.697266 C 6.4382892 10.689506 6.4176462 10.67097 6.4101562 10.65625 C 6.3906932 10.617585 6.359375 10.484246 6.359375 10.441406 C 6.359375 10.385936 6.3289491 10.367531 6.2832031 10.394531 C 6.2469111 10.415951 6.2454796 10.416214 6.1972656 10.382812 C 6.1704276 10.364183 6.1461881 10.343491 6.1425781 10.337891 C 6.1390851 10.332261 6.1221036 10.328125 6.1054688 10.328125 z M 5.2519531 11.261719 C 5.1904527 11.261999 5.1291043 11.287982 5.1054688 11.339844 C 5.0827343 11.389711 5.1213366 11.455662 5.2382812 11.560547 C 5.3376756 11.649827 5.3430534 11.652853 5.3652344 11.632812 C 5.4128384 11.589825 5.4311964 11.422904 5.3964844 11.339844 C 5.3749031 11.288163 5.3134536 11.261439 5.2519531 11.261719 z M 9.2148438 13.162109 C 9.1587615 13.162109 8.9607596 13.221619 8.9023438 13.255859 C 8.8733155 13.272879 8.7981579 13.297317 8.7324219 13.310547 C 8.5914115 13.338927 8.5749144 13.345417 8.5351562 13.404297 C 8.5182714 13.429309 8.4808379 13.485437 8.4511719 13.529297 C 8.3565466 13.669205 8.3372698 13.688334 8.2617188 13.708984 C 8.2235967 13.719394 8.1521605 13.741424 8.1015625 13.757812 C 8.0047688 13.789164 7.8405082 13.817751 7.6777344 13.832031 C 7.6156583 13.837471 7.5654015 13.849624 7.5390625 13.865234 C 7.504545 13.885484 7.4854891 13.887859 7.4238281 13.880859 C 7.3458653 13.872039 7.265157 13.890527 7.1875 13.935547 C 7.1541744 13.954867 7.004892 14.007813 6.984375 14.007812 C 6.980145 14.007814 6.9793719 13.989807 6.9824219 13.966797 C 6.9863039 13.933227 6.9808874 13.921856 6.9589844 13.910156 C 6.9221378 13.890426 6.7864297 13.90601 6.7148438 13.9375 C 6.6844845 13.95086 6.6334185 13.96495 6.6015625 13.96875 C 6.5453918 13.97553 6.5399721 13.972887 6.4550781 13.904297 C 6.3816899 13.844997 6.3297436 13.817808 6.1328125 13.736328 C 5.8702507 13.627678 5.7819656 13.584288 5.6972656 13.523438 C 5.6654096 13.500557 5.5895429 13.464589 5.5292969 13.443359 C 5.3933193 13.39546 5.3855465 13.391539 5.1972656 13.271484 C 5.0550639 13.180834 5.0414464 13.173406 5.0214844 13.191406 C 5.0081484 13.203516 4.9968975 13.23751 4.9921875 13.28125 C 4.9881395 13.319855 4.9722671 13.411365 4.9550781 13.484375 C 4.9162671 13.648417 4.90219 13.785576 4.921875 13.822266 C 4.929721 13.836906 4.9672654 13.871651 5.0058594 13.900391 C 5.0444534 13.929131 5.0879775 13.964304 5.1015625 13.976562 C 5.1378824 14.009544 5.2056806 14.048316 5.2128906 14.041016 C 5.2162186 14.037567 5.2072214 13.973094 5.1933594 13.896484 C 5.1796074 13.81988 5.1648664 13.703632 5.1601562 13.638672 C 5.1476523 13.455777 5.1710976 13.410706 5.2285156 13.503906 C 5.245622 13.531666 5.3106132 13.591836 5.3867188 13.648438 C 5.5495121 13.769516 5.6858978 13.929572 5.7890625 14.121094 C 5.9030541 14.332769 6.0180692 14.497312 6.0996094 14.566406 C 6.1853907 14.639104 6.2212378 14.700554 6.265625 14.847656 C 6.3094583 14.992876 6.2906758 15.00601 6.1367188 14.9375 C 6.0362153 14.892782 5.9525096 14.822531 5.8691406 14.716797 C 5.8281351 14.664786 5.7677961 14.599024 5.7363281 14.570312 C 5.7048591 14.541593 5.6650725 14.502705 5.6484375 14.484375 C 5.6121177 14.444205 5.5553872 14.424375 5.4726562 14.421875 C 5.4215593 14.420355 5.4080789 14.425149 5.3886719 14.449219 C 5.3322237 14.518862 5.3792046 14.591891 5.4785156 14.587891 C 5.5643801 14.584467 5.6454667 14.656803 5.7265625 14.808594 C 5.7537331 14.85942 5.7995883 14.909153 5.8925781 14.992188 C 6.0192401 15.105278 6.12691 15.233877 6.2558594 15.425781 C 6.2921235 15.479761 6.3467324 15.550069 6.3769531 15.582031 C 6.4072008 15.613998 6.4590285 15.679518 6.4921875 15.728516 C 6.5253466 15.777514 6.5729935 15.836099 6.5996094 15.857422 C 6.629858 15.881563 6.6622578 15.924249 6.6855469 15.972656 C 6.7523199 16.111897 6.8951597 16.233141 7.015625 16.253906 C 7.042601 16.258406 7.0717581 16.262846 7.0800781 16.263672 C 7.1116293 16.266863 7.2408513 16.112251 7.2851562 16.019531 C 7.3093325 15.968928 7.3561779 15.886797 7.3886719 15.835938 C 7.5081946 15.648872 7.6823994 15.284785 7.7402344 15.099609 C 7.7518234 15.062499 7.7791552 14.994496 7.8007812 14.947266 C 7.8224612 14.900034 7.8578474 14.798303 7.8808594 14.720703 C 7.9166243 14.599481 7.933017 14.56362 8 14.46875 C 8.0428909 14.408024 8.0944293 14.328126 8.1132812 14.291016 C 8.1792891 14.161807 8.34232 14.049326 8.5644531 13.978516 C 8.6755198 13.943104 8.6991812 13.928081 8.8027344 13.832031 C 8.8452369 13.792611 8.9246186 13.731806 8.9785156 13.697266 C 9.0743059 13.635873 9.0767404 13.63155 9.1308594 13.521484 C 9.1613024 13.459553 9.1984736 13.396519 9.2128906 13.380859 C 9.3131976 13.272245 9.3137937 13.162109 9.2148438 13.162109 z "
     id="path3971" /></svg>