<?xml version="1.0" encoding="UTF-8" standalone="no"?>
<!-- Generado por Andres Lacquaniti  -->

<svg
   xmlns:dc="http://purl.org/dc/elements/1.1/"
   xmlns:cc="http://creativecommons.org/ns#"
   xmlns:rdf="http://www.w3.org/1999/02/22-rdf-syntax-ns#"
   xmlns:svg="http://www.w3.org/2000/svg"
   xmlns="http://www.w3.org/2000/svg"
   xmlns:sodipodi="http://sodipodi.sourceforge.net/DTD/sodipodi-0.dtd"
   xmlns:inkscape="http://www.inkscape.org/namespaces/inkscape"
   version="1.1"
   id="Layer_1"
   x="0px"
   y="0px"
   width="15px"
   height="15px"
   viewBox="0 0 15 15"
   style="enable-background:new 0 0 15 15;"
   xml:space="preserve"
   sodipodi:docname="saludo-scout.svg"
   inkscape:version="0.92.0 r15299"><metadata
     id="metadata9"><rdf:RDF><cc:Work
         rdf:about=""><dc:format>image/svg+xml</dc:format><dc:type
           rdf:resource="http://purl.org/dc/dcmitype/StillImage" /><dc:title></dc:title></cc:Work></rdf:RDF></metadata><defs
     id="defs7" /><sodipodi:namedview
     pagecolor="#ffffff"
     bordercolor="#666666"
     borderopacity="1"
     objecttolerance="10"
     gridtolerance="10"
     guidetolerance="10"
     inkscape:pageopacity="0"
     inkscape:pageshadow="2"
     inkscape:window-width="1920"
     inkscape:window-height="996"
     id="namedview5"
     showgrid="false"
     inkscape:zoom="22.250293"
     inkscape:cx="19.378839"
     inkscape:cy="2.0855828"
     inkscape:window-x="-8"
     inkscape:window-y="-8"
     inkscape:window-maximized="1"
     inkscape:current-layer="Layer_1" /><path
     style="display:inline;fill:#000000;stroke-width:0.08905371"
     d="M 7.3005072,0.13841358 C 6.9832984,0.15229056 6.6557412,0.31544477 6.5192113,0.5704448 6.4559719,0.68839949 6.424848,1.5190381 6.4298038,2.9460318 6.4397157,5.637004 6.3786569,6.4626272 6.1753386,6.4236523 6.0492561,6.3994669 6.0268546,6.105393 5.9876025,3.9631975 L 5.9429977,1.5300407 5.6521949,1.2703619 C 5.1843808,0.8526439 4.4350813,0.99256394 4.2088858,1.5397942 4.1474304,1.6888731 4.1228483,2.8206629 4.1383112,4.8114601 L 4.161902,7.8551064 4.5626306,7.6879876 C 4.7830374,7.5960027 5.4406098,7.3183039 6.0240394,7.0708766 6.6074292,6.8234491 7.2038833,6.6210827 7.3493938,6.6210827 c 0.664412,0 1.2725034,0.7651395 1.2008384,1.5109499 L 8.5093932,8.5571254 9.3047842,8.2240567 C 10.582521,7.689078 10.480188,7.9930442 10.510479,4.6422595 10.538431,1.5383867 10.51841,1.3685121 10.075831,1.1400963 9.6799396,0.93539064 9.3210999,0.97852834 8.9943161,1.2703421 L 8.7036716,1.5301992 8.6775036,4.0529223 C 8.6636246,5.4404853 8.6144621,6.6123797 8.5698576,6.6570441 8.5208939,6.7060078 8.4340608,6.6927271 8.3513936,6.6241359 8.2328446,6.525807 8.2120291,6.1124704 8.2120291,3.6044766 8.2100359,0.45367961 8.2136027,0.47820232 7.7077977,0.21957439 7.5866712,0.15772249 7.44463,0.13234739 7.3004477,0.13829472 Z m 0.07553,6.83885252 c -0.1752468,0 -2.491698,0.9255379 -3.6459686,1.4561752 -0.8088712,0.3719039 -0.8990322,0.5443561 -0.8150563,1.5631472 0.1867449,2.2659385 1.2662779,3.6900975 3.1414002,4.1446495 1.0926368,0.264852 2.4536949,0.103681 3.4049051,-0.403365 0.6313054,-0.336459 1.2305744,-0.949605 1.5561884,-1.59217 0.291497,-0.575242 0.580417,-1.67795 0.580417,-2.2148715 V 9.5288736 L 11.391988,9.7225567 C 11.278593,9.8290134 10.607222,10.151318 9.9001686,10.43881 9.1930948,10.726322 8.3654497,11.066923 8.0608094,11.195782 7.3046505,11.515567 6.8811834,11.505656 6.4858668,11.158509 6.1408642,10.855594 5.942304,10.375568 6.0252885,10.044997 c 0.029935,-0.1199375 0.037667,-0.217929 0.015859,-0.217929 -0.020816,0 -0.4220398,0.1546295 -0.891757,0.343675 C 4.4911443,10.435616 4.2746232,10.489399 4.2047623,10.405205 4.0733271,10.246809 4.1694748,10.193204 5.7193795,9.5626714 7.9024128,8.6745618 7.9461849,8.6541628 8.0829531,8.4588931 8.4340021,7.9576948 7.9657915,6.977541 7.375225,6.9773427 Z M 10.675557,7.956865 c -0.37135,0 -3.9125074,1.4925325 -4.1312687,1.7412486 -0.3437534,0.3907974 -0.214142,1.0752514 0.2546436,1.3448624 0.1171616,0.0672 0.3342379,0.105663 0.4826625,0.08544 0.236901,-0.03251 1.8242737,-0.655132 2.8469506,-1.116642 0.195864,-0.088417 0.513113,-0.2162044 0.704774,-0.2840231 C 11.537875,9.4784007 11.702476,8.6959349 11.154394,8.201834 11.004918,8.0670286 10.789567,7.9569243 10.675557,7.9569243 Z"
     id="path3985"
     inkscape:connector-curvature="0" /></svg>