<svg width="15px" height="15px" enable-background="new 0 0 15 15" version="1.1" viewBox="0 0 15 15" xmlns="http://www.w3.org/2000/svg">
 <path d="m6.9417 0.22993c-0.037766-0.001445-0.071056 0.001432-0.097547 0.008954-0.18491 0.048147-1.1467 1.1598-1.4929 1.7255-0.18525 0.30266-0.43869 0.9304-0.53062 1.3142-0.050295 0.2102-0.041345 0.21562 0.51617 0.30968 0.3121 0.052622 0.97219 0.12422 1.467 0.15912 0.49482 0.034902 1.1348 0.050473 1.4223 0.034544 1.5086-0.083406 2.0715-0.13334 2.1665-0.19207 0.08591-0.052979 0.08663-0.1439 0.0036-0.49607-0.12477-0.53019-0.24215-0.77008-0.69885-1.4279-0.52584-0.75748-1.081-1.3749-1.2816-1.4253-0.097009-0.024342-0.30748 0.017898-0.46781 0.093967-0.27635 0.13102-0.30789 0.13102-0.6049-0.0035802-0.13334-0.060139-0.28813-0.097904-0.40171-0.10131zm1.7211 1.2665c0.028996 0 0.16198 0.24422 0.29554 0.54272 0.1337 0.29849 0.33796 0.64221 0.45398 0.76382 0.18997 0.19912 0.1954 0.22088 0.055127 0.21875-0.24831-0.0035741-0.42688-0.1448-0.59076-0.46608-0.15643-0.30664-0.30841-1.0592-0.21389-1.0592zm-2.0878 0.074637c0.00895 0 0.016111 0.00895 0.021121 0.025594 0.0562 0.2328-0.21519 1.029-0.42101 1.2348-0.10596 0.10596-0.27347 0.19268-0.37218 0.19268-0.17863 0-0.17863-7.151e-4 0.028996-0.2211 0.11455-0.12153 0.32564-0.47438 0.46923-0.78393 0.13639-0.29407 0.23146-0.44875 0.27404-0.44802zm-4.7029 2.1867c-0.31639-0.0014321-0.56736 0.031143-0.70196 0.10059-0.31004 0.16037-0.42117 0.35113-0.42117 0.72285 0 0.22506 0.051906 0.31834 0.26021 0.46749 0.56831 0.40696 1.3405 0.63742 2.5195 0.75206 0.53729 0.052263 0.57373 0.06873 0.65954 0.296 0.083049 0.2201 0.070519 0.25749-0.14516 0.43907-0.12976 0.10918-0.27734 0.33714-0.32806 0.50645-0.078574 0.26196-0.069805 0.3531 0.058706 0.61197 0.20964 0.42212 0.49414 0.6093 0.92589 0.6093 0.34809 0 0.362 0.010735 0.57506 0.41709 0.44395 0.84799 1.154 1.4828 1.8664 1.669 0.33445 0.08734 0.87617 0.02041 1.2735-0.15769 0.45838-0.20542 1.1401-0.92238 1.403-1.4754 0.21696-0.45648 0.21938-0.45831 0.58197-0.46232 0.60425-0.00716 0.96263-0.3989 0.96263-1.0534 0-0.2715-0.05047-0.38399-0.27041-0.60397-0.26964-0.26962-0.27-0.27082-0.12941-0.50203 0.12493-0.20551 0.19908-0.23735 0.65234-0.27968 1.3478-0.12601 2.4986-0.51433 2.8243-0.95322 0.13621-0.18364 0.14498-0.25017 0.06497-0.49278-0.17182-0.52083-0.31374-0.58238-1.3214-0.57334-0.75392 0.00716-1.0678 0.053516-1.9813 0.29477-1.7585 0.46448-2.9966 0.58918-4.5811 0.46121-1.1034-0.089135-1.5155-0.16449-2.856-0.5212-0.65546-0.17451-1.3646-0.27061-1.892-0.27293zm3.6861 2.2208c0.056559-7.103e-4 0.11741 7.103e-4 0.1795 0.00537 0.43894 0.028281 0.44675 0.033111 0.41426 0.25425-0.0494 0.33714 0.10596 0.56548 0.38458 0.56548 0.2805 0 0.43386-0.2288 0.38347-0.57207l-0.034186-0.23195h1.3111l-0.034006 0.23195c-0.049757 0.33941 0.10327 0.57207 0.37642 0.57207 0.30188 0 0.43425-0.1754 0.39384-0.52151l-0.032932-0.28251h0.42618c0.23433 0 0.45319-7.104e-4 0.48635-0.00147 0.033112-7.104e-4 0.071237 0.17684 0.084302 0.39432 0.021121 0.34753 0.048863 0.40159 0.2288 0.44676 0.11294 0.028282 0.25389 0.010735 0.31424-0.039557 0.08484-0.07034 0.15572-0.044747 0.3139 0.11348 0.26092 0.25953 0.26053 0.48589 0 0.7464-0.20485 0.20485-0.332 0.21668-0.79915 0.074639-0.13639-0.041347-0.19688 0.032396-0.39715 0.48335-0.32448 0.73074-0.70085 1.1969-1.1952 1.4804h-0.00142c-0.75784 0.43463-1.4712 0.27961-2.1701-0.47127-0.35231-0.37852-0.86056-1.2753-0.8607-1.5188 0-0.13048-0.083228-0.12368-0.27671 0.022552-0.085913 0.064971-0.25768 0.11813-0.3819 0.11813-0.48863 1.73e-5 -0.73087-0.62693-0.37155-0.96168 0.20358-0.18965 0.25484-0.19756 0.45775-0.070878 0.25786 0.16109 0.40982 0.030071 0.41286-0.35194 7.15e-4 -0.18933 0.027743-0.38127 0.060318-0.42666 0.0247-0.034366 0.15715-0.056559 0.32693-0.058528zm0.83904 2.0963c-0.039557 0.00142-0.059781 0.024161-0.074995 0.063898-0.064435 0.16789 0.19873 0.41771 0.58481 0.55528 0.1729 0.061571 0.46926 0.11383 0.65861 0.11562 0.53747 0.00537 1.2235-0.33765 1.2235-0.61198 0-0.15679-0.14963-0.13352-0.59643 0.093071-0.51539 0.26148-0.81515 0.25321-1.3687-0.037946-0.24072-0.12672-0.36064-0.18092-0.42666-0.17791zm-1.3425 0.65782c-0.11258 0-0.46996 0.36946-0.59752 0.61778-0.049757 0.096652-0.090388 0.28305-0.090388 0.41426 0 0.35104 1.0106 1.2722 1.8646 1.6996 0.48655 0.24353 0.59324 0.32366 0.43123 0.32366-0.32826 0-1.0492 0.37488-1.3249 0.68891-0.13549 0.15428-0.31908 0.42305-0.40798 0.59736-0.16825 0.32994-0.40218 1.1346-0.40218 1.384 0 0.07912 0.022731 0.1439 0.050116 0.1439s0.45213-0.20805 0.94379-0.46232c0.67577-0.34952 1.028-0.59366 1.4433-1.0003l0.54932-0.53785 0.48131 0.47676c0.26472 0.26225 0.72337 0.62023 1.0193 0.79555 0.62555 0.37059 1.4276 0.73656 1.486 0.67806 0.06229-0.0621-0.16896-0.97765-0.35113-1.3905-0.29978-0.67937-1.1735-1.3619-1.7627-1.377-0.15536-0.0036-0.11151-0.041347 0.19191-0.16449 0.8292-0.3364 2.0776-1.3732 2.1577-1.7919 0.050653-0.26488-0.10524-0.60237-0.41111-0.89025-0.21765-0.20478-0.2667-0.22126-0.35851-0.12064-0.058528 0.064077-0.15088 0.27352-0.20526 0.46531-0.13048 0.46001-0.44462 0.78277-1.4116 1.4496l-0.80088 0.55229-0.83448-0.56924c-0.9796-0.66818-1.1554-0.85803-1.3901-1.5017-0.096294-0.26432-0.21782-0.48054-0.26994-0.48054zm2.4986 2.8141c0.36318 0 0.48099 0.46298 0.17272 0.67887-0.098263 0.06873-0.20682 0.12511-0.24122 0.12511-0.10363 0-0.38412-0.3139-0.38412-0.42981 0-0.15446 0.26592-0.37422 0.45258-0.37422z" stroke-width=".080402"/>
</svg>
