<?xml version="1.0" encoding="UTF-8" standalone="no"?>
<svg
   xmlns:dc="http://purl.org/dc/elements/1.1/"
   xmlns:cc="http://creativecommons.org/ns#"
   xmlns:rdf="http://www.w3.org/1999/02/22-rdf-syntax-ns#"
   xmlns:svg="http://www.w3.org/2000/svg"
   xmlns="http://www.w3.org/2000/svg"
   xmlns:sodipodi="http://sodipodi.sourceforge.net/DTD/sodipodi-0.dtd"
   xmlns:inkscape="http://www.inkscape.org/namespaces/inkscape"
   aria-hidden="true"
   focusable="false"
   data-prefix="fas"
   data-icon="user-plus"
   class="svg-inline--fa fa-user-plus fa-w-20"
   role="img"
   viewBox="0 0 640 512"
   version="1.1"
   id="svg4"
   sodipodi:docname="accion-im.svg"
   inkscape:version="0.92.4 (5da689c313, 2019-01-14)">
  <metadata
     id="metadata10">
    <rdf:RDF>
      <cc:Work
         rdf:about="">
        <dc:format>image/svg+xml</dc:format>
        <dc:type
           rdf:resource="http://purl.org/dc/dcmitype/StillImage" />
        <dc:title />
      </cc:Work>
    </rdf:RDF>
  </metadata>
  <defs
     id="defs8" />
  <sodipodi:namedview
     pagecolor="#ffffff"
     bordercolor="#666666"
     borderopacity="1"
     objecttolerance="10"
     gridtolerance="10"
     guidetolerance="10"
     inkscape:pageopacity="0"
     inkscape:pageshadow="2"
     inkscape:window-width="1920"
     inkscape:window-height="996"
     id="namedview6"
     showgrid="false"
     inkscape:zoom="0.65186406"
     inkscape:cx="163.64823"
     inkscape:cy="297.67064"
     inkscape:window-x="-8"
     inkscape:window-y="-8"
     inkscape:window-maximized="1"
     inkscape:current-layer="g879"
     showguides="true"
     inkscape:guide-bbox="true">
    <sodipodi:guide
       position="496.81356,329.76271"
       orientation="1,0"
       id="guide826"
       inkscape:locked="false" />
    <sodipodi:guide
       position="559.72881,54.237288"
       orientation="1,0"
       id="guide828"
       inkscape:locked="false" />
    <sodipodi:guide
       position="670.37288,303.72881"
       orientation="0,1"
       id="guide830"
       inkscape:locked="false" />
    <sodipodi:guide
       position="713.76271,242.98305"
       orientation="0,1"
       id="guide832"
       inkscape:locked="false" />
    <sodipodi:guide
       position="416.54237,242.98305"
       orientation="1,0"
       id="guide834"
       inkscape:locked="false" />
    <sodipodi:guide
       position="637.83051,242.98305"
       orientation="1,0"
       id="guide836"
       inkscape:locked="false" />
  </sodipodi:namedview>
  <g
     id="g879"
     transform="matrix(1.1638242,0,0,1.1638242,694.61911,8.339333)">
    <path
       sodipodi:nodetypes="sccsscccssccsscccss"
       inkscape:connector-curvature="0"
       id="rect828"
       d="m -521.90323,107.0327 49.36529,56.00989 c 3.55072,35.89112 13.94049,67.21508 63.68521,72.25734 l 44.76941,50.79545 c 3.20479,3.63613 2.55882,9.40674 -1.44839,12.93856 l -22.52561,19.85333 -20.92934,-11.33413 9.64151,21.28285 -22.3204,19.67247 c -4.00721,3.53181 -9.81324,3.44781 -13.01801,-0.18836 l -44.11289,-50.05053 c -2.89637,-53.70161 -10.20079,-63.99395 -66.96796,-75.98194 l -46.73907,-53.03021 c -3.20478,-3.63613 -2.55881,-9.40676 1.44839,-12.93856 l 22.71489,-20.02014 22.89511,13.98183 -9.83416,-25.49335 20.35801,-17.94286 c 4.00721,-3.53181 9.81324,-3.44781 13.01801,0.18836 z"
       style="opacity:1;fill:#000000;fill-opacity:1;stroke:none;stroke-width:1.44142652;stroke-linecap:round;stroke-linejoin:round;stroke-miterlimit:4;stroke-dasharray:none;stroke-dashoffset:0;stroke-opacity:1" />
    <path
       sodipodi:nodetypes="sccsscccssccsscccss"
       inkscape:connector-curvature="0"
       id="rect828-6"
       d="m -105.17072,201.56845 -73.67084,39.54346 c -17.72732,36.29337 -40.85275,65.12449 -95.04138,51.0143 l -66.81217,35.86202 c -4.78269,2.56714 -6.35545,8.87706 -3.52633,14.14782 l 15.90329,29.62836 26.39256,-3.73479 -18.42327,18.58188 15.7584,29.35842 c 2.82911,5.27075 8.95704,7.44727 13.73974,4.88011 l 65.83237,-35.3361 c 23.98758,-55.246 35.67037,-63.20167 99.94042,-53.64389 l 69.751598,-37.43979 c 4.782694,-2.56714 6.355451,-8.87707 3.526326,-14.14782 l -16.036903,-29.8773 -29.488993,5.74756 20.267848,-22.92688 -14.372924,-26.77725 c -2.829125,-5.27074 -8.957042,-7.44727 -13.739742,-4.88011 z"
       style="opacity:1;fill:#000000;fill-opacity:1;stroke:none;stroke-width:1.61428273;stroke-linecap:round;stroke-linejoin:round;stroke-miterlimit:4;stroke-dasharray:none;stroke-dashoffset:0;stroke-opacity:1" />
    <path
       inkscape:connector-curvature="0"
       d="m -503.18442,242.1557 c 7.01395,-3.99794 14.66404,-7.6274 22.65062,-10.94346 7.75827,-2.78711 14.70066,-6.19866 21.58365,-9.65585 8.46211,-4.14232 17.04484,-8.20258 25.54589,-12.3213 13.76019,-6.32595 24.91102,-14.25908 35.61046,-22.28053 15.81718,-12.14616 28.4176,-25.50038 40.06928,-39.10838 11.4754,-14.94158 21.24832,-30.32702 29.73137,-45.92934 8.49267,-15.032367 13.07997,-30.613768 16.85667,-46.241484 2.38407,-10.556834 3.34974,-21.196247 3.59391,-31.836073 0.11986,-4.732937 0.001,-9.466311 -0.14713,-14.1984898 -0.0441,-2.4394341 -0.12486,-4.8786876 -0.12194,-7.3183134 -0.008,-2.20057298 0.001,-4.4010947 -0.01,-6.6016736 0.0312,-1.0578044 0.004,-2.106699 -0.12696,-3.1614578 0,0 19.8068,-6.0240774 19.8068,-6.0240774 v 0 c 0.21843,1.091166 0.32202,2.169314 0.23369,3.269299 -0.0111,2.2004049 -0.003,4.4007408 0.001,6.601143 0.0198,2.450372 -0.0231,4.9007621 -0.008,7.3511591 -0.0483,4.7970162 -0.10496,9.5943439 -0.33741,14.3898159 -0.75134,10.771314 -1.89594,21.542872 -4.40942,32.230379 -3.86671,15.693137 -8.5308,31.354251 -16.91941,46.476026 -8.40006,15.660567 -18.30587,31.051967 -29.57271,46.088117 -11.45435,13.64914 -24.01971,26.99204 -39.55997,39.23279 -10.36901,8.00911 -21.12168,16.00803 -34.60485,22.33731 -4.31396,2.08135 -8.50358,4.24382 -12.85856,6.29584 -2.8493,1.34258 -5.82295,2.59445 -8.64985,3.95303 -1.34294,0.6454 -2.60953,1.34299 -3.91429,2.01448 -6.85197,3.47442 -13.59738,7.05005 -21.44211,9.76968 -7.96305,3.13541 -15.43782,6.70118 -22.42317,10.5476 0,0 -20.57756,5.06376 -20.57756,5.06376 z"
       id="path850"
       style="opacity:1;fill:#000000;fill-opacity:1;stroke:none;stroke-width:1.59440541;stroke-linecap:round;stroke-linejoin:round;stroke-miterlimit:4;stroke-dasharray:none;stroke-dashoffset:0;stroke-opacity:1" />
    <path
       sodipodi:nodetypes="cccccccssccccccccccccccscccccccc"
       inkscape:connector-curvature="0"
       d="m -296.79059,-0.24694842 c 0.79254,6.33626782 1.7574,12.64981842 2.62699,18.97597242 1.64077,11.578633 3.38732,23.141874 5.03704,34.719176 1.9278,15.656557 5.66126,30.983807 9.4401,46.269356 2.73253,10.915434 6.51398,21.499704 10.23835,32.097954 4.19352,11.55983 6.90985,23.58254 10.76602,35.24946 1.01605,3.07409 2.15166,6.10681 3.22748,9.16019 1.10453,3.07505 2.18858,6.1576 3.31361,9.22511 2.27454,6.20166 4.16779,11.23377 6.73666,17.30285 3.31412,7.82974 7.06518,15.46218 10.50575,23.23575 5.26141,11.48907 10.49205,22.99641 14.99995,34.81041 1.83957,5.65387 3.90289,11.22885 6.07427,16.7605 1.72182,5.01222 3.65003,9.94254 5.82331,14.77307 2.49131,5.30377 4.76843,10.70354 7.14049,16.06125 -5.3133,25.37025 0.085,-6.80584 -5.3133,25.37025 v 0 c -0.26293,-0.56988 -0.52586,-1.1398 -0.7888,-1.70969 -2.21201,-4.69163 -4.339,-9.41727 -6.18521,-14.26776 -2.40372,-5.33624 -4.68006,-10.72931 -7.14749,-16.03647 -2.24711,-4.81336 -4.19569,-9.76779 -5.98254,-14.77288 -2.13286,-5.60021 -4.03317,-11.29058 -5.76724,-17.02833 -4.18328,-11.95806 -9.31542,-23.52909 -14.47907,-35.08444 -3.41079,-7.81474 -7.12777,-15.49428 -10.41792,-23.36178 -2.71544,-6.49328 -4.26156,-10.77209 -6.68303,-17.41098 -1.11919,-3.06841 -2.21591,-6.14513 -3.32387,-9.21768 -1.11807,-3.04575 -2.29164,-6.07141 -3.35422,-9.13722 -3.99699,-11.53233 -6.94566,-23.40957 -11.1905,-34.86028 -3.88202,-10.63721 -7.50025,-21.35957 -10.11312,-32.39714 -3.56382,-15.367049 -7.36053,-30.706182 -9.54862,-46.350362 -1.82007,-11.487938 -3.54272,-22.991053 -5.37174,-34.477633 -1.01858,-6.225594 -1.94121,-12.467429 -3.03733,-18.6798328 z"
       id="path854"
       style="opacity:1;fill:#000000;fill-opacity:1;stroke:none;stroke-width:1.4763341;stroke-linecap:round;stroke-linejoin:round;stroke-miterlimit:4;stroke-dasharray:none;stroke-dashoffset:0;stroke-opacity:1" />
    <ellipse
       ry="11.932203"
       rx="24.949152"
       cy="43.389832"
       cx="-292.88135"
       id="path856"
       style="opacity:1;fill:#000000;fill-opacity:1;stroke:none;stroke-width:1.5;stroke-linecap:round;stroke-linejoin:round;stroke-miterlimit:4;stroke-dasharray:none;stroke-dashoffset:0;stroke-opacity:1" />
    <ellipse
       transform="rotate(-30)"
       ry="11.932203"
       rx="24.949152"
       cy="-100.24989"
       cx="-283.90585"
       id="path856-8"
       style="opacity:1;fill:#000000;fill-opacity:1;stroke:none;stroke-width:1.5;stroke-linecap:round;stroke-linejoin:round;stroke-miterlimit:4;stroke-dasharray:none;stroke-dashoffset:0;stroke-opacity:1" />
  </g>
</svg>
