<?xml version="1.0" encoding="UTF-8" standalone="no"?>
<svg
   xmlns:dc="http://purl.org/dc/elements/1.1/"
   xmlns:cc="http://creativecommons.org/ns#"
   xmlns:rdf="http://www.w3.org/1999/02/22-rdf-syntax-ns#"
   xmlns:svg="http://www.w3.org/2000/svg"
   xmlns="http://www.w3.org/2000/svg"
   xmlns:sodipodi="http://sodipodi.sourceforge.net/DTD/sodipodi-0.dtd"
   xmlns:inkscape="http://www.inkscape.org/namespaces/inkscape"
   aria-hidden="true"
   focusable="false"
   data-prefix="fas"
   data-icon="user-plus"
   class="svg-inline--fa fa-user-plus fa-w-20"
   role="img"
   viewBox="0 0 640 512"
   version="1.1"
   id="svg4"
   sodipodi:docname="accion-educador-add.svg"
   inkscape:version="0.92.4 (5da689c313, 2019-01-14)">
  <metadata
     id="metadata10">
    <rdf:RDF>
      <cc:Work
         rdf:about="">
        <dc:format>image/svg+xml</dc:format>
        <dc:type
           rdf:resource="http://purl.org/dc/dcmitype/StillImage" />
        <dc:title></dc:title>
      </cc:Work>
    </rdf:RDF>
  </metadata>
  <defs
     id="defs8" />
  <sodipodi:namedview
     pagecolor="#ffffff"
     bordercolor="#666666"
     borderopacity="1"
     objecttolerance="10"
     gridtolerance="10"
     guidetolerance="10"
     inkscape:pageopacity="0"
     inkscape:pageshadow="2"
     inkscape:window-width="1920"
     inkscape:window-height="996"
     id="namedview6"
     showgrid="false"
     inkscape:zoom="0.4609375"
     inkscape:cx="222.54262"
     inkscape:cy="156.63108"
     inkscape:window-x="-8"
     inkscape:window-y="-8"
     inkscape:window-maximized="1"
     inkscape:current-layer="svg4"
     showguides="true"
     inkscape:guide-bbox="true">
    <sodipodi:guide
       position="496.81356,329.76271"
       orientation="1,0"
       id="guide826"
       inkscape:locked="false" />
    <sodipodi:guide
       position="559.72881,54.237288"
       orientation="1,0"
       id="guide828"
       inkscape:locked="false" />
    <sodipodi:guide
       position="670.37288,303.72881"
       orientation="0,1"
       id="guide830"
       inkscape:locked="false" />
    <sodipodi:guide
       position="713.76271,242.98305"
       orientation="0,1"
       id="guide832"
       inkscape:locked="false" />
    <sodipodi:guide
       position="416.54237,242.98305"
       orientation="1,0"
       id="guide834"
       inkscape:locked="false" />
    <sodipodi:guide
       position="637.83051,242.98305"
       orientation="1,0"
       id="guide836"
       inkscape:locked="false" />
  </sodipodi:namedview>
  <path
     d="m 618.26635,102.15981 h -69.5787 V 32.581114 c 0,-9.56707 -7.8276,-17.394673 -17.39467,-17.394673 h -34.78934 c -9.56707,0 -17.39468,7.827603 -17.39468,17.394673 v 69.578696 h -69.57869 c -9.56707,0 -17.39467,7.8276 -17.39467,17.39467 v 34.78934 c 0,9.56707 7.8276,17.39468 17.39467,17.39468 h 69.57869 v 69.57869 c 0,9.56707 7.82761,17.39467 17.39468,17.39467 h 34.78934 c 9.56707,0 17.39467,-7.8276 17.39467,-17.39467 V 171.7385 h 69.5787 c 9.56707,0 17.39467,-7.82761 17.39467,-17.39468 v -34.78934 c 0,-9.56707 -7.8276,-17.39467 -17.39467,-17.39467 z"
     id="path2"
     inkscape:connector-curvature="0"
     style="fill:currentColor;stroke-width:1.08716714"
     sodipodi:nodetypes="scsssscsssscsssscssss" />
  <path
     style="fill:currentColor"
     d="M 228.86719 0 C 158.16719 0 100.86719 57.299998 100.86719 128 C 100.86719 198.7 158.16719 256 228.86719 256 C 299.56719 256 356.86719 198.7 356.86719 128 C 356.86719 57.299998 299.56719 1.8947806e-14 228.86719 0 z M 139.26758 288 C 65.067575 288 4.8671875 348.20039 4.8671875 422.40039 L 4.8671875 464 C 4.8671875 490.5 26.367188 512 52.867188 512 L 404.86719 512 C 431.36719 512 452.86719 490.5 452.86719 464 L 452.86719 422.40039 C 452.86719 348.20039 392.66875 288 318.46875 288 L 301.76758 288 C 279.56758 298.2 254.86719 304 228.86719 304 C 202.86719 304 178.26875 298.2 155.96875 288 L 139.26758 288 z M 147.33594 293.75586 L 147.33203 293.76562 C 149.03072 293.76562 152.99034 300.81314 156.12891 309.42773 C 163.77816 330.40592 169.50889 336.59375 201.43555 358.37109 L 228.63281 376.92383 L 254.73438 358.92383 C 286.24977 337.19049 296.48769 326.67017 300.74023 311.67773 C 302.51256 305.427 305.52309 298.60278 307.42969 296.51367 C 310.42193 293.2343 312.02165 293.77123 319.11523 300.44531 C 329.084 309.82777 334.16604 320.82614 332.51367 329.45898 C 329.90309 343.10537 289.21435 376.89754 262.18945 387.86133 C 252.3005 391.87627 250.8721 393.09017 255.93555 393.2207 C 275.13845 393.71284 303.61447 415.95787 313.38477 438.09961 C 319.32197 451.55502 326.85856 481.39401 324.82812 483.41797 C 322.92479 485.32456 296.78608 473.39843 276.39844 461.32031 C 266.75362 455.60638 251.80538 443.93775 243.17773 435.39062 L 227.49023 419.85352 L 209.58789 437.38281 C 196.05265 450.63584 184.57127 458.59296 162.54688 469.98438 C 146.52294 478.2714 132.68206 485.05078 131.78906 485.05078 C 130.89606 485.05078 130.15625 482.93934 130.15625 480.36133 C 130.15625 472.233 137.78015 446.00718 143.26367 435.25391 C 146.16106 429.57289 152.14474 420.81339 156.56055 415.78516 C 165.54605 405.55045 189.04171 393.33398 199.74023 393.33398 C 205.02039 393.33398 201.54297 390.72216 185.68555 382.78516 C 157.85239 368.85554 124.91602 338.8335 124.91602 327.39258 C 124.91602 323.11624 126.23829 317.04221 127.86133 313.89062 C 132.01872 305.7975 143.6668 293.75586 147.33594 293.75586 z M 228.76758 385.4707 C 222.68405 385.4707 214.01758 392.63191 214.01758 397.66602 C 214.01758 401.4437 223.15965 411.67578 226.53711 411.67578 C 227.65827 411.67578 231.19471 409.83671 234.39844 407.59766 C 244.44547 400.56149 240.60613 385.47266 228.76953 385.47266 L 228.76758 385.4707 z "
     id="path2-4" />
</svg>
