<?xml version="1.0" encoding="UTF-8" standalone="no"?>
<svg
   xmlns:dc="http://purl.org/dc/elements/1.1/"
   xmlns:cc="http://creativecommons.org/ns#"
   xmlns:rdf="http://www.w3.org/1999/02/22-rdf-syntax-ns#"
   xmlns:svg="http://www.w3.org/2000/svg"
   xmlns="http://www.w3.org/2000/svg"
   xmlns:sodipodi="http://sodipodi.sourceforge.net/DTD/sodipodi-0.dtd"
   xmlns:inkscape="http://www.inkscape.org/namespaces/inkscape"
   width="15px"
   height="15px"
   enable-background="new 0 0 15 15"
   version="1.1"
   viewBox="0 0 15 15"
   id="svg4"
   sodipodi:docname="accion-gestion.svg"
   inkscape:version="0.92.4 (5da689c313, 2019-01-14)">
  <metadata
     id="metadata10">
    <rdf:RDF>
      <cc:Work
         rdf:about="">
        <dc:format>image/svg+xml</dc:format>
        <dc:type
           rdf:resource="http://purl.org/dc/dcmitype/StillImage" />
      </cc:Work>
    </rdf:RDF>
  </metadata>
  <defs
     id="defs8" />
  <sodipodi:namedview
     pagecolor="#ffffff"
     bordercolor="#666666"
     borderopacity="1"
     objecttolerance="10"
     gridtolerance="10"
     guidetolerance="10"
     inkscape:pageopacity="0"
     inkscape:pageshadow="2"
     inkscape:window-width="1920"
     inkscape:window-height="996"
     id="namedview6"
     showgrid="false"
     inkscape:zoom="44.500587"
     inkscape:cx="11.976189"
     inkscape:cy="8.5142219"
     inkscape:window-x="-8"
     inkscape:window-y="-8"
     inkscape:window-maximized="1"
     inkscape:current-layer="svg4" />
  <g
     transform="matrix(0.02698731,0,0,0.02698731,0.10319662,0.10318314)"
     id="g16">
    <path
       id="path2-2"
       d="m 109.634,164.452 c 20.179,0 37.402,-7.135 51.674,-21.411 14.277,-14.275 21.416,-31.503 21.416,-51.678 0,-20.173 -7.139,-37.401 -21.416,-51.678 C 147.036,25.41 129.812,18.271 109.634,18.271 89.457,18.271 72.233,25.41 57.958,39.685 43.684,53.962 36.545,71.186 36.545,91.363 c 0,20.179 7.139,37.403 21.413,51.678 14.275,14.272 31.499,21.411 51.676,21.411 z"
       inkscape:connector-curvature="0" />
    <path
       id="path4"
       d="m 196.569,278.519 c 21.413,21.406 47.248,32.114 77.516,32.114 30.269,0 56.103,-10.708 77.515,-32.114 21.409,-21.42 32.117,-47.258 32.117,-77.52 0,-30.264 -10.708,-56.101 -32.117,-77.515 -21.412,-21.414 -47.246,-32.121 -77.515,-32.121 -30.268,0 -56.105,10.709 -77.516,32.121 -21.411,21.411 -32.12,47.248 -32.12,77.515 0,30.267 10.709,56.103 32.12,77.52 z"
       inkscape:connector-curvature="0" />
    <path
       id="path6"
       d="m 438.543,164.452 c 20.17,0 37.397,-7.135 51.671,-21.411 14.274,-14.275 21.409,-31.503 21.409,-51.678 0,-20.173 -7.135,-37.401 -21.409,-51.678 -14.273,-14.275 -31.501,-21.414 -51.671,-21.414 -20.184,0 -37.407,7.139 -51.682,21.414 -14.271,14.277 -21.409,31.501 -21.409,51.678 0,20.179 7.139,37.403 21.409,51.678 14.275,14.272 31.498,21.411 51.682,21.411 z"
       inkscape:connector-curvature="0" />
    <path
       id="path8"
       d="m 512.763,164.456 c -1.136,0 -5.276,1.999 -12.415,5.996 -7.132,3.999 -16.416,8.044 -27.833,12.137 -11.416,4.089 -22.747,6.136 -33.972,6.136 -12.758,0 -25.406,-2.187 -37.973,-6.567 0.945,7.039 1.424,13.322 1.424,18.842 0,26.457 -7.71,50.819 -23.134,73.089 30.841,0.955 56.056,13.134 75.668,36.552 h 38.256 c 15.605,0 28.739,-3.863 39.396,-11.57 10.657,-7.703 15.989,-18.986 15.989,-33.83 0.003,-67.194 -11.793,-100.789 -35.406,-100.785 z"
       inkscape:connector-curvature="0" />
    <path
       style="stroke-width:0.02698731"
       d="M 4.7421875 7.9941406 C 4.4288918 7.9941406 4.1422415 8.0437707 3.8828125 8.1464844 C 3.6233835 8.24936 3.4043718 8.3864417 3.2246094 8.5585938 C 3.044685 8.7305569 2.8848895 8.9397904 2.7460938 9.1835938 C 2.6074599 9.427613 2.4962658 9.6786007 2.4140625 9.9355469 C 2.3318861 10.192304 2.2649661 10.470954 2.2109375 10.771484 C 2.1569629 11.072015 2.1214892 11.351818 2.1035156 11.611328 C 2.0855151 11.870757 2.0761719 12.135955 2.0761719 12.408203 C 2.0761719 13.024485 2.2637102 13.51226 2.6386719 13.869141 C 3.0137685 14.225994 3.5114027 14.404297 4.1328125 14.404297 L 10.867188 14.404297 C 11.488651 14.404297 11.986151 14.225994 12.361328 13.869141 C 12.73629 13.51226 12.923828 13.024485 12.923828 12.408203 C 12.923828 12.135955 12.916168 11.870838 12.898438 11.611328 C 12.880194 11.351818 12.842794 11.071988 12.789062 10.771484 C 12.735115 10.470954 12.668141 10.192304 12.585938 9.9355469 C 12.503734 9.6786007 12.392405 9.427613 12.253906 9.1835938 C 12.115164 8.9397904 11.957133 8.7307458 11.777344 8.5585938 C 11.597419 8.3864417 11.376509 8.24936 11.117188 8.1464844 C 10.857866 8.0437707 10.571081 7.9941406 10.257812 7.9941406 C 10.206375 7.9941406 10.097269 8.0477441 9.9277344 8.1582031 C 9.7581731 8.2685542 9.5707967 8.3933618 9.3652344 8.5292969 C 9.159726 8.665232 8.8854007 8.7879784 8.5410156 8.8984375 C 8.1966036 9.0088966 7.8491078 9.0644531 7.5 9.0644531 C 7.1507572 9.0644531 6.8031535 9.0088966 6.4589844 8.8984375 C 6.1147342 8.7879784 5.840247 8.665232 5.6347656 8.5292969 C 5.4292303 8.3933618 5.2417459 8.2685542 5.0722656 8.1582031 C 5.0260584 8.1281019 5.0198439 8.135181 4.9824219 8.1132812 L 4.9824219 8.1152344 C 5.0345419 8.1152344 5.1556631 8.3313831 5.2519531 8.5957031 C 5.4866531 9.2393731 5.6629781 9.427524 6.6425781 10.095703 L 7.4765625 10.666016 L 8.2773438 10.113281 C 9.2443237 9.4464512 9.5589731 9.1240725 9.6894531 8.6640625 C 9.7438331 8.4722725 9.8360013 8.2632957 9.8945312 8.1992188 C 9.9863413 8.0985988 10.034303 8.1155325 10.251953 8.3203125 C 10.557823 8.6081925 10.714712 8.9441044 10.664062 9.2089844 C 10.583962 9.6276844 9.3350594 10.665553 8.5058594 11.001953 C 8.2024394 11.125093 8.1590931 11.162416 8.3144531 11.166016 C 8.9036531 11.181116 9.7763917 11.863599 10.076172 12.542969 C 10.258342 12.955819 10.490024 13.871494 10.427734 13.933594 C 10.369334 13.992094 9.5669563 13.626449 8.9414062 13.255859 C 8.6454762 13.080539 8.186595 12.721234 7.921875 12.458984 L 7.4414062 11.982422 L 6.8925781 12.521484 C 6.4772781 12.928124 6.1249887 13.171964 5.4492188 13.521484 C 4.9575587 13.775754 4.5312862 13.984375 4.5039062 13.984375 C 4.4765163 13.984375 4.4550781 13.918964 4.4550781 13.839844 C 4.4550781 13.590444 4.6891719 12.785018 4.8574219 12.455078 C 4.9463219 12.280768 5.130135 12.011702 5.265625 11.857422 C 5.541325 11.543392 6.2615837 11.169922 6.5898438 11.169922 C 6.7518537 11.169922 6.6447531 11.089233 6.1582031 10.845703 C 5.3042031 10.418303 4.2949219 9.4975244 4.2949219 9.1464844 C 4.2949219 9.0152744 4.3350056 8.8290739 4.3847656 8.7324219 C 4.5123256 8.4841019 4.8698419 8.1132812 4.9824219 8.1132812 C 4.8825206 8.0548179 4.779608 7.9941406 4.7421875 7.9941406 z M 7.4804688 10.927734 C 7.2938087 10.927734 7.0273438 11.148274 7.0273438 11.302734 C 7.0273438 11.418644 7.3084794 11.732422 7.4121094 11.732422 C 7.4465094 11.732422 7.5540838 11.676152 7.6523438 11.607422 C 7.9606138 11.391532 7.8436487 10.927734 7.4804688 10.927734 z "
       transform="matrix(37.054453,0,0,37.054453,-3.8238943,-3.8233948)"
       id="path10" />
    <path
       id="path12"
       d="m 169.303,274.088 c -15.418,-22.27 -23.125,-46.632 -23.122,-73.089 0,-5.52 0.477,-11.799 1.427,-18.842 -12.564,4.377 -25.221,6.567 -37.974,6.567 -11.23,0 -22.552,-2.046 -33.974,-6.136 C 64.243,178.495 54.961,174.45 47.826,170.451 40.688,166.454 36.545,164.455 35.404,164.455 11.801,164.456 0,198.051 0,265.24 c 0,14.844 5.33,26.127 15.987,33.83 10.66,7.707 23.794,11.563 39.397,11.563 h 38.26 c 19.607,-23.411 44.823,-35.591 75.659,-36.545 z"
       inkscape:connector-curvature="0" />
  </g>
</svg>
