<?xml version="1.0" encoding="UTF-8" standalone="no"?>
<svg
   xmlns:dc="http://purl.org/dc/elements/1.1/"
   xmlns:cc="http://creativecommons.org/ns#"
   xmlns:rdf="http://www.w3.org/1999/02/22-rdf-syntax-ns#"
   xmlns:svg="http://www.w3.org/2000/svg"
   xmlns="http://www.w3.org/2000/svg"
   xmlns:sodipodi="http://sodipodi.sourceforge.net/DTD/sodipodi-0.dtd"
   xmlns:inkscape="http://www.inkscape.org/namespaces/inkscape"
   aria-hidden="true"
   focusable="false"
   data-prefix="fas"
   data-icon="user-plus"
   class="svg-inline--fa fa-user-plus fa-w-20"
   role="img"
   viewBox="0 0 640 512"
   version="1.1"
   id="svg4"
   sodipodi:docname="accion-habilitacion.svg"
   inkscape:version="0.92.4 (5da689c313, 2019-01-14)">
  <metadata
     id="metadata10">
    <rdf:RDF>
      <cc:Work
         rdf:about="">
        <dc:format>image/svg+xml</dc:format>
        <dc:type
           rdf:resource="http://purl.org/dc/dcmitype/StillImage" />
        <dc:title></dc:title>
      </cc:Work>
    </rdf:RDF>
  </metadata>
  <defs
     id="defs8" />
  <sodipodi:namedview
     pagecolor="#ffffff"
     bordercolor="#666666"
     borderopacity="1"
     objecttolerance="10"
     gridtolerance="10"
     guidetolerance="10"
     inkscape:pageopacity="0"
     inkscape:pageshadow="2"
     inkscape:window-width="1920"
     inkscape:window-height="996"
     id="namedview6"
     showgrid="false"
     inkscape:zoom="0.65186406"
     inkscape:cx="414.81983"
     inkscape:cy="106.33218"
     inkscape:window-x="-8"
     inkscape:window-y="-8"
     inkscape:window-maximized="1"
     inkscape:current-layer="svg4"
     showguides="true"
     inkscape:guide-bbox="true">
    <sodipodi:guide
       position="496.81356,329.76271"
       orientation="1,0"
       id="guide826"
       inkscape:locked="false" />
    <sodipodi:guide
       position="559.72881,54.237288"
       orientation="1,0"
       id="guide828"
       inkscape:locked="false" />
    <sodipodi:guide
       position="670.37288,303.72881"
       orientation="0,1"
       id="guide830"
       inkscape:locked="false" />
    <sodipodi:guide
       position="713.76271,242.98305"
       orientation="0,1"
       id="guide832"
       inkscape:locked="false" />
    <sodipodi:guide
       position="416.54237,242.98305"
       orientation="1,0"
       id="guide834"
       inkscape:locked="false" />
    <sodipodi:guide
       position="637.83051,242.98305"
       orientation="1,0"
       id="guide836"
       inkscape:locked="false" />
  </sodipodi:namedview>
  <g
     transform="matrix(7.5755682,0,0,7.5755682,64.714715,0.71471501)"
     id="g6">
    <g
       id="g4">
      <path
         inkscape:connector-curvature="0"
         d="m 4.741,59.483 c 0.523,0.627 1.377,0.874 2.15,0.619 l 8.5,-2.753 2.443,8.595 c 0.223,0.784 0.9,1.354 1.711,1.441 0.071,0.008 0.143,0.012 0.214,0.012 0.731,0 1.413,-0.402 1.764,-1.059 L 31.828,47.032 c 0.709,0.064 1.426,0.103 2.15,0.103 0.543,0 1.079,-0.025 1.613,-0.062 l 10.283,19.265 c 0.351,0.656 1.032,1.059 1.764,1.059 0.071,0 0.143,-0.004 0.214,-0.012 0.812,-0.087 1.488,-0.657 1.711,-1.441 l 2.442,-8.595 8.501,2.753 c 0.774,0.255 1.627,0.008 2.15,-0.619 0.523,-0.625 0.614,-1.506 0.23,-2.225 L 52.6,37.987 c 3.097,-3.989 4.946,-8.99 4.946,-14.419 C 57.546,10.572 46.974,0 33.979,0 20.984,0 10.411,10.572 10.411,23.569 c 0,5.234 1.718,10.074 4.616,13.99 L 4.511,57.258 c -0.384,0.719 -0.293,1.6 0.23,2.225 z M 51.64,53.026 c -0.519,-0.169 -1.08,-0.119 -1.559,0.139 l -0.482,0.258 c -0.479,0.256 -0.833,0.695 -0.981,1.217 l -1.547,5.444 -7.297,-13.671 c 3.755,-0.953 7.152,-2.81 9.947,-5.324 l 7.305,13.682 z M 33.979,4 c 10.789,0 19.567,8.778 19.567,19.568 0,10.789 -8.778,19.566 -19.567,19.566 C 23.19,43.134 14.412,34.357 14.412,23.568 14.411,12.778 23.19,4 33.979,4 Z M 17.863,40.74 c 2.745,2.578 6.104,4.505 9.834,5.538 L 20.328,60.083 18.78,54.639 c -0.148,-0.521 -0.502,-0.96 -0.979,-1.216 L 17.32,53.165 c -0.479,-0.257 -1.042,-0.308 -1.561,-0.14 l -5.386,1.744 z"
         id="path2" />
    </g>
  </g>
  <g
     id="g904"
     transform="matrix(6.8698232,0,0,6.8698232,84.344049,22.156211)">
    <path
       id="path7"
       style="fill:#000000;stroke-width:0.30053681"
       d="m 21.81275,27.27939 c 0.180322,0.417746 -0.180322,0.865546 -0.625117,0.766369 -1.830269,-0.417747 -5.235352,-1.749125 -4.89274,-5.827409 0.414741,-4.922794 6.536676,-5.109126 8.300827,-4.733455 1.764152,0.375671 7.552491,1.652952 9.692313,10.819325 2.139822,9.166373 -4.622256,7.588555 -5.935603,7.17682 -0.321574,-0.102183 -2.779965,-1.42755 -2.479428,-3.681576 0.36966,-2.767944 3.564366,-2.794993 4.021183,-1.277282 0.225402,0.751343 -0.715278,1.277282 -0.186334,1.953489 0.528946,0.676209 1.689017,-0.703256 1.728088,-2.32916 0.03607,-1.577818 -2.440359,-7.438286 -7.062615,-7.13775 -3.753706,0.24043 -3.179681,2.834062 -2.560574,4.270629 z"
       inkscape:connector-curvature="0" />
    <path
       id="path14"
       style="fill:#000000;stroke-width:0.30053681"
       d="m 46.793369,27.27939 c -0.180322,0.417746 0.180323,0.865546 0.625117,0.766369 1.83027,-0.417747 5.235351,-1.749125 4.892739,-5.827409 -0.414739,-4.922794 -6.536675,-5.109126 -8.300826,-4.733455 -1.764152,0.375671 -7.549485,1.652952 -9.692312,10.819325 -2.142828,9.166373 4.622256,7.588555 5.935602,7.17682 0.321573,-0.102183 2.779965,-1.42755 2.479428,-3.681576 -0.369659,-2.767944 -3.564366,-2.794993 -4.021182,-1.277282 -0.225403,0.751343 0.715277,1.277282 0.186333,1.953489 -0.528945,0.676209 -1.689017,-0.703256 -1.728087,-2.32916 -0.03607,-1.577818 2.440358,-7.438286 7.062614,-7.13775 3.753705,0.24043 3.179679,2.834062 2.560574,4.270629 z"
       inkscape:connector-curvature="0" />
    <path
       id="path29"
       style="fill:#000000;stroke-width:0.30053681"
       d="M 39.281618,12.58915 C 37.908166,9.3223146 35.539936,6.13963 34.692422,4.8022407 c -0.180323,-0.2825041 -0.601075,-0.2825041 -0.781396,0 -0.847513,1.3373893 -3.251808,4.5952083 -4.589197,7.7869093 -1.18111,2.828052 -0.492881,7.266981 1.418533,11.234067 1.157067,2.404294 1.625905,3.044437 1.761146,5.130162 0.07513,1.130019 -0.159284,2.266049 -0.712272,3.263831 -1.099964,1.974527 -1.442576,4.934815 2.12179,8.2858 0.219392,0.204365 0.562004,0.204365 0.781396,0 3.567372,-3.34798 3.221754,-6.308269 2.121789,-8.2858 -0.552987,-0.994777 -0.787406,-2.130807 -0.712271,-3.263831 0.138246,-2.085725 0.604078,-2.725868 1.761146,-5.130162 1.911412,-3.967086 2.605652,-8.409021 1.418532,-11.234067 z"
       inkscape:connector-curvature="0" />
    <path
       id="path35"
       style="fill:#ffffff;fill-opacity:1;stroke:#000000;stroke-width:0.301;stroke-miterlimit:4;stroke-dasharray:none;stroke-opacity:1"
       d="m 37.308428,30.035312 h -6.010736 c -0.664187,0 -1.202148,-0.537961 -1.202148,-1.202147 v -0.399714 c 0,-0.664187 0.537961,-1.202147 1.202148,-1.202147 h 6.010736 c 0.664187,0 1.202147,0.53796 1.202147,1.202147 v 0.399714 c 0,0.664186 -0.53796,1.202147 -1.202147,1.202147 z"
       inkscape:connector-curvature="0" />
    <path
       style="fill:#ffffff;stroke:#ffffff;stroke-width:0.96144921px;stroke-linecap:butt;stroke-linejoin:bevel;stroke-opacity:1;paint-order:markers stroke fill"
       d="M 34.303059,9.2394571 V 25.386105"
       id="path906"
       inkscape:connector-curvature="0" />
  </g>
</svg>
