<svg width="15px" height="15px" enable-background="new 0 0 15 15" version="1.1" viewBox="0 0 15 15" xmlns="http://www.w3.org/2000/svg">
 <path d="m6.066 0.43243c-3.0842 2.123e-5 -5.5845 2.5003-5.5845 5.5845-5.616e-5 3.0843 2.5002 5.5846 5.5845 5.5847 1.0825-0.0017 2.1412-0.31792 3.0472-0.91025 0.026891 0.04172 0.057712 0.0818 0.094305 0.1184l3.374 3.485c0.27624 0.27624 0.72093 0.27624 0.99717 0l0.55409-0.55409c0.27623-0.27624 0.27623-0.72093 0-0.99717l-3.3738-3.4855c-0.03024-0.030245-0.06269-0.056473-0.09652-0.08009 0.64141-0.92952 0.98594-2.0317 0.98811-3.161-1.8e-5 -3.0842-2.5003-5.5845-5.5845-5.5845zm0 0.89744c2.5887-9.94e-5 4.6872 2.0984 4.6872 4.6871 9.8e-5 2.5887-2.0985 4.6873-4.6872 4.6872-2.5886-5.5e-5 -4.687-2.0986-4.6869-4.6872-2.07e-5 -2.5886 2.0984-4.687 4.6869-4.6871zm-0.41647 0.97251c-0.017719-8.932e-4 -0.035521 8.932e-4 -0.050144 0.00452-0.095346 0.026733-0.59132 0.59807-0.76985 0.88977-0.09535 0.15594-0.22634 0.47973-0.27356 0.67764-0.026738 0.10827-0.022246 0.11092 0.26604 0.15948 0.16084 0.026729 0.50131 0.06408 0.75648 0.081905 0.2553 0.017826 0.58512 0.026738 0.73336 0.017826 0.77789-0.044561 1.0681-0.06861 1.1171-0.098902 0.044554-0.026738 0.044621-0.073953 0.00193-0.25574-0.064166-0.27356-0.12479-0.39699-0.36049-0.73627-0.27134-0.39075-0.55742-0.70896-0.66079-0.73489-0.049903-0.013369-0.15868 0.0089302-0.24111 0.048607-0.14257 0.067719-0.1586 0.067691-0.31187-0.0018214-0.068517-0.031146-0.14806-0.050258-0.20684-0.052094h-1.425e-4zm0.88769 0.65299c0.013368 0 0.08377 0.12611 0.15238 0.27983 0.069054 0.15372 0.17416 0.33109 0.23387 0.39391 0.09802 0.10247 0.1007 0.11402 0.026749 0.11268-0.12787-0.0018241-0.22011-0.074836-0.30476-0.24013-0.080647-0.15817-0.15902-0.54615-0.11046-0.54615zm-1.08 0.040117h0.00349c0.00444 0 0.00891 0.00442 0.00891 0.013369 0.031189 0.11985-0.11097 0.53056-0.21701 0.63669-0.054804 0.054801-0.1407 0.099316-0.19194 0.099316-0.092229 0-0.092225-2.853e-4 0.013368-0.11394 0.059262-0.06282 0.16799-0.24471 0.24195-0.40422 0.070399-0.15149 0.11941-0.23122 0.14124-0.23122zm-2.4214 1.1275c-0.16308-8.049e-4 -0.29281 0.017816-0.36187 0.051672-0.15995 0.082876-0.21701 0.18087-0.21701 0.37246 0 0.11584 0.026771 0.16403 0.13414 0.24111 0.29318 0.20986 0.69124 0.32883 1.2991 0.38764 0.27713 0.026738 0.2959 0.035622 0.34 0.1528 0.044557 0.11362 0.035558 0.13278-0.074936 0.22634-0.066833 0.056136-0.14295 0.1737-0.16924 0.26103-0.040101 0.135-0.035631 0.18227 0.031202 0.31549 0.10827 0.21743 0.25479 0.3141 0.47734 0.3141 0.17956 0 0.18677 0.00442 0.29683 0.2152 0.22901 0.43709 0.59504 0.76469 0.96235 0.86067 0.17243 0.044996 0.4517 0.00893 0.65661-0.08107 0.23614-0.10604 0.58793-0.47564 0.72347-0.7608 0.11183-0.23525 0.11317-0.23609 0.30031-0.23832 0.31144-0.0037484 0.49643-0.2059 0.49643-0.54323 0-0.1399-0.026854-0.19784-0.13957-0.31145-0.13901-0.13901-0.1389-0.13939-0.066719-0.2588 0.064609-0.10604 0.10247-0.12261 0.33638-0.14444 0.69493-0.065049 1.2883-0.26512 1.4563-0.49155 0.070398-0.094457 0.074865-0.12872 0.035661-0.25392-0.088668-0.26867-0.16176-0.30033-0.6814-0.29543-0.38852 0.0037454-0.55065 0.026767-1.0217 0.15196-0.9067 0.23971-1.5452 0.30385-2.3622 0.23791-0.56897-0.045889-0.78134-0.084681-1.4726-0.26869-0.33773-0.090002-0.70366-0.13935-0.97558-0.14068zm1.9006 1.1451c0.031189-4.168e-4 0.060689 4.179e-4 0.092767 0.00268 0.22634 0.013369 0.23032 0.017902 0.21339 0.13107-0.026738 0.17376 0.054742 0.29139 0.19821 0.29139 0.14481 0 0.22363-0.11813 0.19779-0.29501l-0.017689-0.11936h0.67625l-0.017825 0.11937c-0.026738 0.1751 0.053074 0.29501 0.19431 0.29501 0.1555 0 0.22417-0.090473 0.20322-0.26869l-0.017825-0.1457h0.21966c0.12074 0 0.23393-4.167e-4 0.25086-8.344e-4 0.017817-4.169e-4 0.035526 0.091394 0.044429 0.20322 0.00893 0.17911 0.026786 0.20708 0.11812 0.23024 0.058364 0.013369 0.13094 0.00442 0.16213-0.022291 0.044553-0.035641 0.08032-0.022281 0.16185 0.058364 0.13456 0.13367 0.13411 0.25044 0 0.385-0.1056 0.1056-0.17111 0.11185-0.41216 0.040117-0.070389-0.022282-0.10166 0.017806-0.20503 0.24905-0.16708 0.37694-0.36127 0.61712-0.61621 0.7633h-8.378e-4c-0.39075 0.22411-0.75869 0.14441-1.119-0.24278-0.18179-0.19515-0.44377-0.65766-0.44377-0.78322 0-0.067278-0.044469-0.063714-0.14249 0.013369-0.044553 0.035641-0.13279 0.06115-0.19695 0.06115-0.25218 0-0.37687-0.32358-0.19152-0.49601 0.10515-0.09802 0.13139-0.10191 0.23609-0.035517 0.13277 0.082876 0.21119 0.013351 0.21297-0.18135 5.658e-4 -0.097577 0.013387-0.1966 0.031201-0.22022 0.013369-0.017817 0.081074-0.03106 0.1684-0.03106zm0.43263 1.081c-0.02229 6.55e-4 -0.031209 0.013244-0.040116 0.031059-0.031192 0.086439 0.10254 0.21523 0.3017 0.28652 0.089109 0.031194 0.24187 0.058865 0.33945 0.059758 0.27713 0.00268 0.63084-0.17425 0.63084-0.31549 0-0.080646-0.077065-0.068536-0.30741 0.048195-0.266 0.135-0.42013 0.13054-0.70578-0.017825-0.12431-0.065491-0.18577-0.093132-0.22008-0.091788zm-0.69227 0.33903c-0.057921 0-0.24233 0.19068-0.30783 0.31855-0.026741 0.049902-0.046803 0.14609-0.046803 0.21381 0 0.18089 0.52113 0.65599 0.96151 0.87641 0.25085 0.12565 0.30607 0.16701 0.22231 0.16701-0.16931 0-0.5409 0.19345-0.68307 0.35519-0.069951 0.079753-0.16443 0.21827-0.21033 0.30783-0.086885 0.1702-0.20726 0.58513-0.20726 0.71372 0 0.040097 0.013369 0.073962 0.026745 0.073962 0.013369 0 0.23307-0.10747 0.48668-0.23846 0.34842-0.18 0.53004-0.30606 0.74422-0.51579l0.28345-0.27719 0.24807 0.24598c0.13634 0.13545 0.37298 0.3199 0.52568 0.41035 0.32258 0.19114 0.73611 0.37961 0.76623 0.34975 0.031194-0.031185-0.086929-0.50404-0.18094-0.71692-0.15461-0.3502-0.60504-0.7023-0.90886-0.7101-0.080205-0.0018248-0.057491-0.022167 0.098895-0.084546 0.42773-0.17332 1.0712-0.70813 1.1125-0.92404 0.026738-0.13678-0.054418-0.31059-0.21214-0.4591-0.11228-0.1056-0.13761-0.11408-0.18484-0.062399-0.031185 0.031185-0.077929 0.14125-0.106 0.23972-0.067278 0.23703-0.22953 0.40378-0.72792 0.74756l-0.41299 0.28471-0.4304-0.29362c-0.50512-0.34441-0.59577-0.44242-0.71678-0.77431-0.0499-0.13634-0.11228-0.2478-0.13901-0.2478zm1.2884 1.451c0.18713 0 0.24821 0.23878 0.089147 0.35017-0.050796 0.035641-0.10656 0.064626-0.12438 0.064626-0.053467 0-0.19821-0.16177-0.19821-0.22147 0-0.079753 0.13721-0.19291 0.23345-0.19291z" stroke-width=".041458"/>
</svg>
