<?xml version="1.0" encoding="UTF-8" standalone="no"?>
<svg
   xmlns:dc="http://purl.org/dc/elements/1.1/"
   xmlns:cc="http://creativecommons.org/ns#"
   xmlns:rdf="http://www.w3.org/1999/02/22-rdf-syntax-ns#"
   xmlns:svg="http://www.w3.org/2000/svg"
   xmlns="http://www.w3.org/2000/svg"
   xmlns:sodipodi="http://sodipodi.sourceforge.net/DTD/sodipodi-0.dtd"
   xmlns:inkscape="http://www.inkscape.org/namespaces/inkscape"
   aria-hidden="true"
   focusable="false"
   data-prefix="fas"
   data-icon="user-plus"
   class="svg-inline--fa fa-user-plus fa-w-20"
   role="img"
   viewBox="0 0 640 512"
   version="1.1"
   id="svg4"
   sodipodi:docname="accion-trabajo-add.svg"
   inkscape:version="0.92.4 (5da689c313, 2019-01-14)">
  <metadata
     id="metadata10">
    <rdf:RDF>
      <cc:Work
         rdf:about="">
        <dc:format>image/svg+xml</dc:format>
        <dc:type
           rdf:resource="http://purl.org/dc/dcmitype/StillImage" />
        <dc:title></dc:title>
      </cc:Work>
    </rdf:RDF>
  </metadata>
  <defs
     id="defs8" />
  <sodipodi:namedview
     pagecolor="#ffffff"
     bordercolor="#666666"
     borderopacity="1"
     objecttolerance="10"
     gridtolerance="10"
     guidetolerance="10"
     inkscape:pageopacity="0"
     inkscape:pageshadow="2"
     inkscape:window-width="1920"
     inkscape:window-height="996"
     id="namedview6"
     showgrid="false"
     inkscape:zoom="0.4609375"
     inkscape:cx="-875.38983"
     inkscape:cy="469.25733"
     inkscape:window-x="-8"
     inkscape:window-y="-8"
     inkscape:window-maximized="1"
     inkscape:current-layer="svg4"
     showguides="true"
     inkscape:guide-bbox="true">
    <sodipodi:guide
       position="496.81356,329.76271"
       orientation="1,0"
       id="guide826"
       inkscape:locked="false" />
    <sodipodi:guide
       position="559.72881,54.237288"
       orientation="1,0"
       id="guide828"
       inkscape:locked="false" />
    <sodipodi:guide
       position="670.37288,303.72881"
       orientation="0,1"
       id="guide830"
       inkscape:locked="false" />
    <sodipodi:guide
       position="713.76271,242.98305"
       orientation="0,1"
       id="guide832"
       inkscape:locked="false" />
    <sodipodi:guide
       position="416.54237,242.98305"
       orientation="1,0"
       id="guide834"
       inkscape:locked="false" />
    <sodipodi:guide
       position="637.83051,242.98305"
       orientation="1,0"
       id="guide836"
       inkscape:locked="false" />
  </sodipodi:namedview>
  <path
     d="m 618.26635,102.15981 h -69.5787 V 32.581114 c 0,-9.56707 -7.8276,-17.394673 -17.39467,-17.394673 h -34.78934 c -9.56707,0 -17.39468,7.827603 -17.39468,17.394673 v 69.578696 h -69.57869 c -9.56707,0 -17.39467,7.8276 -17.39467,17.39467 v 34.78934 c 0,9.56707 7.8276,17.39468 17.39467,17.39468 h 69.57869 v 69.57869 c 0,9.56707 7.82761,17.39467 17.39468,17.39467 h 34.78934 c 9.56707,0 17.39467,-7.8276 17.39467,-17.39467 V 171.7385 h 69.5787 c 9.56707,0 17.39467,-7.82761 17.39467,-17.39468 v -34.78934 c 0,-9.56707 -7.8276,-17.39467 -17.39467,-17.39467 z"
     id="path2"
     inkscape:connector-curvature="0"
     style="fill:currentColor;stroke-width:1.08716714"
     sodipodi:nodetypes="scsssscsssscsssscssss" />
  <path
     style="fill:#000000;stroke-width:2.09807324"
     d="M 136.0194,507.28739 C 86.02273,501.00131 47.63416,480.23299 32.39253,451.22503 l -6.0322,-11.48055 v -43.83485 c 0,-41.99334 0.20877,-44.22946 4.96845,-53.22802 6.43307,-12.16212 18.16842,-24.29472 28.70089,-29.67242 4.59986,-2.34861 27.3752,-10.31649 50.61187,-17.70645 23.23667,-7.38993 56.62082,-18.06953 74.18701,-23.73247 34.5505,-11.13826 41.65978,-12.07683 52.58994,-6.94294 11.07619,5.20257 16.34405,15.36096 15.17872,29.27037 -1.59681,19.05901 -4.32648,20.73208 -71.34393,43.7265 -38.08276,13.06661 -59.56403,21.50505 -62.78922,24.66527 -2.80806,2.75151 -5.38186,8.3422 -6.02479,13.08676 -1.01349,7.47939 -0.2478,9.28252 7.89124,18.583 11.45488,13.08948 18.96244,29.28367 20.82517,44.92089 1.63936,13.76205 2.64157,15.52915 7.7146,13.60226 2.94359,-1.11806 3.35133,-3.369 2.40995,-13.30394 -1.61918,-17.08844 -8.53661,-33.48492 -19.481,-46.17616 -10.14742,-11.76707 -11.75016,-18.4233 -5.73378,-23.81265 3.29333,-2.95008 110.72735,-41.11963 115.73751,-41.11963 1.06116,0 5.65208,1.87863 10.20208,4.17474 14.38769,7.26068 33.69108,4.78142 45.99398,-5.90737 3.67442,-3.19238 3.79273,-1.17072 3.16324,54.00159 l -0.65415,57.31814 -5.87963,11.85121 c -15.06906,30.37353 -54.24118,51.6296 -106.88745,58.00065 -20.3365,2.46104 -30.73973,2.41647 -51.72163,-0.22157 z M 25.30592,293.26237 c 0,-34.71027 -0.9359,-43.947 -12.65297,-124.87643 C 5.69382,120.31944 0,77.830746 0,73.966636 c 0,-14.11688 10.62513,-25.95154 25.83501,-28.77588 11.81693,-2.19433 26.01517,5.31049 31.17438,16.47794 2.70758,5.86071 7.4193,33.60982 14.75319,86.887204 15.50162,112.61186 14.9504,109.58709 19.97143,109.58709 4.1555,0 4.23321,-1.73947 5.27208,-118.03027 0.97565,-109.213744 1.33865,-118.459524 4.85943,-123.776544 12.0496,-18.1968997 39.38679,-18.1971097 51.43716,-4.1e-4 3.52078,5.31658 3.88378,14.56118 4.85944,123.748714 0.96428,107.91503 1.3545,118.06004 4.56469,118.67126 1.9599,0.37316 4.02235,-0.99743 4.66971,-3.10325 0.63769,-2.07439 7.38839,-47.44991 15.00157,-100.83448 7.61321,-53.38456 14.90339,-99.703154 16.20041,-102.930204 2.94598,-7.32973 13.67543,-15.59488 22.51672,-17.34514 9.16488,-1.81434 24.45241,4.24931 29.93811,11.87467 7.06015,9.81419 6.94648,17.50902 -0.87579,59.347404 -16.75169,89.59896 -20.3152,112.09701 -20.3152,128.25587 v 16.81658 h -6.41829 c -8.99109,0 -160.53425,48.68294 -171.69362,55.15621 -5.03621,2.92141 -13.04651,9.68566 -17.80063,15.03169 l -8.64389,9.72004 z m 230.10467,29.81271 c -3.577,-1.9625 -4.27501,-3.2214 -2.41652,-4.35831 4.54222,-2.77866 10.51505,-18.47792 10.56313,-27.7647 0.0632,-12.29352 -4.0772,-20.98044 -14.39317,-30.19443 -8.15969,-7.28815 -8.75713,-8.5708 -8.74973,-18.78636 0.0211,-25.05033 21.19393,-39.26243 42.96063,-28.83265 15.61628,7.48286 18.18758,15.27586 18.18758,55.12361 0,36.56637 -1.52742,42.91528 -12.52812,52.07757 -5.49202,4.57433 -8.84062,5.62881 -17.68464,5.56884 -6.00025,-0.0407 -13.17279,-1.31578 -15.93916,-2.83357 z"
     id="path882"
     inkscape:connector-curvature="0" />
</svg>
