<svg width="15px" height="15px" enable-background="new 0 0 15 15" version="1.1" viewBox="0 0 15 15" xmlns="http://www.w3.org/2000/svg">
 <path d="m3.944 3.7227c-0.016958-8.116e-4 -0.033772 8.114e-4 -0.047695 0.00421-0.09034 0.025328-0.56017 0.56659-0.7293 0.84293-0.09034 0.14774-0.21443 0.45448-0.25917 0.64197-0.025329 0.10257-0.021098 0.1051 0.25199 0.15111 0.15237 0.025325 0.4749 0.060781 0.71664 0.077666 0.24186 0.016887 0.55434 0.025325 0.69478 0.016887 0.73694-0.042212 1.0119-0.065003 1.0583-0.093706 0.042215-0.025325 0.042215-0.070069 0.00178-0.24228-0.060775-0.25917-0.11818-0.37609-0.34147-0.69752-0.25706-0.37018-0.52809-0.67165-0.62601-0.69621-0.047285-0.012656-0.15026 0.0084431-0.22836 0.046009-0.13507 0.064161-0.15026 0.064161-0.29547-0.0016232-0.06501-0.029547-0.14055-0.047697-0.19628-0.049388zm0.84074 0.61867c0.012673 0 0.079344 0.11946 0.14435 0.26508 0.065421 0.14562 0.16504 0.31362 0.2216 0.37314 0.092857 0.097082 0.095391 0.10806 0.025329 0.10679-0.12115-0.0016228-0.20852-0.070913-0.28872-0.22751-0.076399-0.14985-0.15069-0.51741-0.10467-0.51741zm-1.0199 0.037988c0.00429 0 0.00839 0.00421 0.00839 0.012655 0.029542 0.11354-0.1051 0.50264-0.20556 0.60318-0.051926 0.051917-0.13338 0.094126-0.18193 0.094126-0.087377 0-0.087377-4.057e-4 0.012673-0.10806 0.056139-0.059513 0.15913-0.23173 0.2292-0.38284 0.066688-0.14351 0.11312-0.21907 0.1338-0.21907zm-2.2973 1.0682c-0.15449-8.113e-4 -0.27732 0.016887-0.34275 0.048963-0.15153 0.078511-0.20556 0.17137-0.20556 0.35287 0 0.10975 0.025329 0.15533 0.12706 0.22836 0.27774 0.19881 0.65484 0.31151 1.2308 0.36723 0.26255 0.025325 0.28027 0.033767 0.32206 0.14478 0.042215 0.10764 0.033772 0.12579-0.070919 0.21443-0.063315 0.053182-0.1355 0.16462-0.1604 0.24735-0.037985 0.1279-0.033772 0.17264 0.029542 0.29885 0.10257 0.20598 0.24144 0.29758 0.45228 0.29758 0.17011 0 0.17686 0.00421 0.28112 0.20387 0.21696 0.41408 0.56376 0.72437 0.91174 0.81529 0.16335 0.042631 0.42797 0.00845 0.62209-0.076823 0.22371-0.10046 0.55696-0.45055 0.68536-0.72069 0.10594-0.22287 0.10721-0.22371 0.28449-0.22582 0.29505-0.0035312 0.47022-0.19501 0.47022-0.51458 0-0.13254-0.02533-0.18741-0.13211-0.29505-0.1317-0.13169-0.1317-0.13212-0.063314-0.24524 0.061208-0.10046 0.097087-0.11608 0.31868-0.13676 0.65835-0.061628 1.2205-0.25115 1.3796-0.46566 0.066688-0.089485 0.070919-0.12199 0.033772-0.2406-0.084003-0.25452-0.15323-0.28449-0.64552-0.27985-0.36807 0.0035344-0.52163 0.025326-0.96788 0.14393-0.85897 0.22709-1.4638 0.28787-2.2378 0.2254-0.53902-0.043476-0.74032-0.080199-1.3952-0.25453-0.31995-0.085265-0.66658-0.13212-0.92419-0.13338zm1.8006 1.0848c0.029542-4.058e-4 0.057406 4.059e-4 0.087806 0.00254 0.21443 0.012655 0.21823 0.016887 0.20218 0.1241-0.025329 0.16462 0.051926 0.27605 0.18784 0.27605 0.13718 0 0.2119-0.11186 0.18741-0.27943l-0.016958-0.11313h0.64075l-0.016958 0.11312c-0.025329 0.16589 0.05023 0.27943 0.18404 0.27943 0.14732 0 0.21232-0.085686 0.19248-0.25453l-0.016957-0.13802h0.2081c0.11438 0 0.2216-4.057e-4 0.23764-8.116e-4 0.016958-4.057e-4 0.033772 0.08653 0.042215 0.19248 0.00839 0.16969 0.025329 0.19628 0.11185 0.21822 0.055299 0.012655 0.12409 0.00421 0.15364-0.021104 0.042215-0.033769 0.075971-0.021106 0.15323 0.055295 0.12747 0.12663 0.12706 0.23722 0 0.36469-0.10003 0.10004-0.16208 0.10595-0.39045 0.037993-0.066688-0.021107-0.09623 0.016885-0.19416 0.23595-0.1583 0.3571-0.34232 0.58465-0.58385 0.72314h-6.086e-4c-0.37018 0.21232-0.71871 0.13676-1.0601-0.23004-0.17222-0.18488-0.42041-0.62298-0.42041-0.74192 0-0.063737-0.042215-0.060362-0.13507 0.012656-0.042215 0.033769-0.12579 0.057828-0.18657 0.057828-0.23891 0-0.3571-0.30644-0.1815-0.4698 0.099621-0.09286 0.12452-0.096661 0.22371-0.033767 0.12579 0.078511 0.20008 0.012655 0.20176-0.1718 4.052e-4 -0.092439 0.012673-0.18615 0.029542-0.20852 0.012673-0.016887 0.076828-0.029545 0.15956-0.029545zm0.40986 1.024c-0.021098 6.087e-4 -0.029542 0.012655-0.037985 0.029545-0.029542 0.081888 0.097087 0.20388 0.28576 0.27141 0.084413 0.029547 0.2292 0.055717 0.32164 0.056564 0.26255 0.00254 0.59765-0.16504 0.59765-0.29885 0-0.076401-0.073026-0.065003-0.29125 0.045586-0.25199 0.1279-0.39804 0.12368-0.66865-0.016886-0.11776-0.062049-0.17602-0.088219-0.20852-0.08695zm-0.65581 0.32122c-0.054871 0-0.22962 0.18066-0.29167 0.3018-0.025329 0.047276-0.044322 0.13845-0.044322 0.20261 0 0.17137 0.49369 0.62142 0.91089 0.83023 0.23764 0.11903 0.28998 0.15829 0.21063 0.15829-0.1604 0-0.51251 0.18319-0.64721 0.33641-0.06626 0.075554-0.15576 0.20683-0.19923 0.29167-0.082308 0.16124-0.19628 0.55426-0.19628 0.67608 0 0.03798 0.012674 0.07006 0.025329 0.07006 0.012673 0 0.22076-0.10173 0.46101-0.22582 0.33008-0.17052 0.50217-0.28998 0.70508-0.48866l0.26846-0.26254 0.23511 0.233c0.12916 0.12832 0.3533 0.30307 0.49795 0.38875 0.3056 0.18108 0.69735 0.35963 0.72589 0.33135 0.029542-0.029547-0.082307-0.47756-0.17138-0.67924-0.14648-0.33177-0.57325-0.66527-0.86108-0.67266-0.07597-0.001623-0.054461-0.021106 0.093713-0.080199 0.40521-0.1642 1.0149-0.6708 1.054-0.87535 0.025329-0.12958-0.051498-0.2942-0.20092-0.43489-0.10637-0.10004-0.13043-0.10806-0.17516-0.059093-0.029542 0.029547-0.073864 0.13381-0.10046 0.22709-0.063743 0.22456-0.21738 0.38242-0.68954 0.70811l-0.39129 0.26972-0.40775-0.27816c-0.47853-0.32628-0.56439-0.41915-0.67903-0.73357-0.047285-0.12916-0.10637-0.23469-0.1317-0.23469zm1.2205 1.3747c0.17729 0 0.23511 0.22624 0.084413 0.33177-0.048124 0.033769-0.10089 0.061205-0.11776 0.061205-0.050659 0-0.18783-0.15322-0.18783-0.20978 0-0.075556 0.13-0.18277 0.22118-0.18277zm4.3542 0.34206h5.141c0.11603 0 0.20945 0.093415 0.20945 0.20945v0.34273c0 0.11603-0.09341 0.20945-0.20945 0.20945h-5.141c-0.11604 0-0.20945-0.09342-0.20945-0.20945v-0.34273c0-0.11603 0.09341-0.20945 0.20945-0.20945zm0.019046-1.7621h5.1029c0.12658 0 0.22849 0.10191 0.22849 0.22849v0.30465c0 0.12658-0.10191 0.22849-0.22849 0.22849h-5.1029c-0.12658 0-0.22849-0.1019-0.22849-0.22849v-0.30465c0-0.12658 0.10191-0.22849 0.22849-0.22849zm-0.076167-1.6943h5.2552c0.08438 0 0.15233 0.067937 0.15233 0.15232v0.45698c0 0.084387-0.06793 0.15233-0.15233 0.15233h-5.2552c-0.084396 0-0.15233-0.06794-0.15233-0.15233v-0.45698c0-0.084388 0.067938-0.15232 0.15233-0.15233zm0.00945-1.8298h5.2362c0.08966 0 0.16185 0.072185 0.16185 0.16185v0.43794c0 0.089664-0.07218 0.16185-0.16185 0.16185h-5.2362c-0.089662 0-0.16185-0.072183-0.16185-0.16185v-0.43794c0-0.089661 0.072186-0.16185 0.16185-0.16185zm-7.3168-1.1873c-0.6315 0-1.1468 0.63293-1.1468 1.4089v5.4838c0 0.77598 0.51526 1.409 1.1468 1.409h12.52c0.6315 0 1.1468-0.63299 1.1468-1.409v-5.4838c0-0.77598-0.51526-1.4089-1.1468-1.4089zm-5.35e-5 0.26652h12.52c0.51507 0 0.92974 0.50954 0.92974 1.1425v5.4837c0 0.63291-0.41466 1.1424-0.92974 1.1424h-12.52c-0.51507 0-0.92974-0.50954-0.92974-1.1424v-5.4837c0-0.63292 0.41467-1.1425 0.92974-1.1425z" stroke-width=".039276"/>
</svg>
