<?xml version="1.0" encoding="UTF-8" standalone="no"?>
<!-- Generado por Andres Lacquaniti  -->

<svg
   xmlns:dc="http://purl.org/dc/elements/1.1/"
   xmlns:cc="http://creativecommons.org/ns#"
   xmlns:rdf="http://www.w3.org/1999/02/22-rdf-syntax-ns#"
   xmlns:svg="http://www.w3.org/2000/svg"
   xmlns="http://www.w3.org/2000/svg"
   xmlns:sodipodi="http://sodipodi.sourceforge.net/DTD/sodipodi-0.dtd"
   xmlns:inkscape="http://www.inkscape.org/namespaces/inkscape"
   version="1.1"
   id="Layer_1"
   x="0px"
   y="0px"
   width="15px"
   height="15px"
   viewBox="0 0 15 15"
   style="enable-background:new 0 0 15 15;"
   xml:space="preserve"
   sodipodi:docname="mochila.svg"
   inkscape:version="0.92.0 r15299"><metadata
     id="metadata9"><rdf:RDF><cc:Work
         rdf:about=""><dc:format>image/svg+xml</dc:format><dc:type
           rdf:resource="http://purl.org/dc/dcmitype/StillImage" /><dc:title></dc:title></cc:Work></rdf:RDF></metadata><defs
     id="defs7" /><sodipodi:namedview
     pagecolor="#ffffff"
     bordercolor="#666666"
     borderopacity="1"
     objecttolerance="10"
     gridtolerance="10"
     guidetolerance="10"
     inkscape:pageopacity="0"
     inkscape:pageshadow="2"
     inkscape:window-width="1920"
     inkscape:window-height="996"
     id="namedview5"
     showgrid="false"
     inkscape:zoom="22.250293"
     inkscape:cx="19.378839"
     inkscape:cy="2.0855828"
     inkscape:window-x="-8"
     inkscape:window-y="-8"
     inkscape:window-maximized="1"
     inkscape:current-layer="Layer_1" /><path
     style="display:inline;fill:#000000;stroke-width:0.08880109"
     d="M 7.2341844,0.33389447 C 6.2450687,0.31076566 5.6218998,0.73101536 5.4231318,1.5595943 L 5.3155935,2.0077564 H 3.8623433 c -1.3344045,0 -1.4605644,0.013838 -1.5430764,0.167831 -0.1385742,0.2589816 -0.2651887,1.6088843 -0.1893782,2.0191905 0.1360044,0.7364399 0.7398006,1.3604984 1.5867836,1.6400388 0.2715541,0.08955 0.320994,0.082037 0.4011734,-0.061281 0.1745521,-0.3118811 0.4982544,-0.569044 0.7162963,-0.569044 0.2140092,0 0.7655583,0.3853787 0.7655583,0.5348843 0,0.041314 0.03914,0.1777153 0.086782,0.3029858 l 0.086584,0.2277279 1.356466,-0.00156 C 7.8755593,6.2677399 8.5326894,6.2374877 8.5898984,6.2011157 8.6470284,6.1647447 8.7213564,6.0253775 8.7549617,5.89135 8.8328477,5.580833 9.2768591,5.2043499 9.565097,5.2043499 c 0.2137327,0 0.671265,0.3676665 0.749428,0.602175 0.02926,0.087968 0.123551,0.082236 0.436381,-0.026492 0.602077,-0.2093634 1.07145,-0.5749543 1.309299,-1.0196373 C 12.256107,4.3943263 12.270834,4.282518 12.236931,3.428379 12.216575,2.9155461 12.1545,2.3860582 12.09895,2.2517539 L 11.997936,2.007539 H 10.537588 9.0772216 L 9.0149521,1.7189449 C 8.8271555,0.84897148 8.3288812,0.41492387 7.4368267,0.34409481 7.3676385,0.3381594 7.3002295,0.33420603 7.234244,0.33420603 Z M 7.1982055,1.4749474 c 0.414398,0 0.5723056,0.039537 0.7104055,0.1777151 0.097654,0.097655 0.1777148,0.2175477 0.1777148,0.2663945 0,0.053374 -0.3552125,0.088759 -0.8880214,0.088759 -0.532809,0 -0.8880219,-0.035582 -0.8880219,-0.088759 0,-0.048827 0.079863,-0.1686217 0.1775174,-0.2663945 C 6.6259784,1.5144836 6.7838066,1.4749474 7.1982055,1.4749474 Z m 4.1103565,4.9728577 c -0.264675,0 -1.077459,0.4384755 -1.132058,0.6105169 C 10.088733,7.3349366 9.715294,7.5929695 9.483612,7.5371841 9.3742945,7.5108913 9.1849558,7.397819 9.0628487,7.2858727 8.8488194,7.089773 8.7816874,7.0823402 7.1905746,7.0751449 5.614505,7.0672366 5.5323291,7.0759294 5.3699739,7.256616 5.2764725,7.360596 5.1200674,7.4761203 5.0224132,7.5133041 4.779424,7.6058188 4.3901707,7.3923236 4.2271829,7.077102 4.1352614,6.8991891 3.9677665,6.7781096 3.6770374,6.6790719 3.4471939,6.6007899 3.229488,6.5367417 3.1931346,6.5367417 c -0.036175,0 -0.047048,0.2897012 -0.024315,0.6438063 0.2170735,3.34375 0.2811417,4.908374 0.2067347,5.047424 -0.1326438,0.24795 -0.4358664,0.303122 -0.6176141,0.112479 C 2.6252965,12.201284 2.5851673,11.880053 2.4991763,10.266464 2.3347058,7.1838101 2.3123679,6.9808116 2.1358192,6.9808116 c -0.2451439,0 -0.6297912,0.3561612 -0.8077039,0.7478659 -0.2670667,0.588041 -0.1899712,1.9597478 0.1974831,3.5145865 0.511756,2.053488 1.495712,2.855993 3.920247,3.197012 0.9329939,0.131062 3.3760912,0.03479 4.2565611,-0.167831 C 11.078344,13.955682 12.127733,13.271232 12.567099,12.404163 13.128888,11.29559 13.414279,8.2332183 13.02291,7.5136797 12.830567,7.15995 12.636049,6.9877501 12.424372,6.9836579 c -0.200447,-0.00397 -0.253722,0.179297 -0.253407,0.8703095 7.85e-4,1.0516221 -0.181471,3.8679996 -0.271771,4.2054026 -0.109318,0.408783 -0.381583,0.523952 -0.636355,0.269161 -0.175935,-0.175738 -0.175935,-0.188983 -0.0099,-3.028608 0.129679,-2.2292851 0.141935,-2.8511294 0.05654,-2.8518611 z"
     id="path3981"
     inkscape:connector-curvature="0" /></svg>