<?xml version="1.0" encoding="UTF-8" standalone="no"?>
<!-- Generado por Andres Lacquaniti  -->

<svg
   xmlns:dc="http://purl.org/dc/elements/1.1/"
   xmlns:cc="http://creativecommons.org/ns#"
   xmlns:rdf="http://www.w3.org/1999/02/22-rdf-syntax-ns#"
   xmlns:svg="http://www.w3.org/2000/svg"
   xmlns="http://www.w3.org/2000/svg"
   xmlns:sodipodi="http://sodipodi.sourceforge.net/DTD/sodipodi-0.dtd"
   xmlns:inkscape="http://www.inkscape.org/namespaces/inkscape"
   version="1.1"
   id="Layer_1"
   x="0px"
   y="0px"
   width="15px"
   height="15px"
   viewBox="0 0 15 15"
   style="enable-background:new 0 0 15 15;"
   xml:space="preserve"
   sodipodi:docname="cantimplora.svg"
   inkscape:version="0.92.0 r15299"><metadata
     id="metadata9"><rdf:RDF><cc:Work
         rdf:about=""><dc:format>image/svg+xml</dc:format><dc:type
           rdf:resource="http://purl.org/dc/dcmitype/StillImage" /><dc:title></dc:title></cc:Work></rdf:RDF></metadata><defs
     id="defs7" /><sodipodi:namedview
     pagecolor="#ffffff"
     bordercolor="#666666"
     borderopacity="1"
     objecttolerance="10"
     gridtolerance="10"
     guidetolerance="10"
     inkscape:pageopacity="0"
     inkscape:pageshadow="2"
     inkscape:window-width="1920"
     inkscape:window-height="996"
     id="namedview5"
     showgrid="false"
     inkscape:zoom="22.250293"
     inkscape:cx="19.378839"
     inkscape:cy="2.0855828"
     inkscape:window-x="-8"
     inkscape:window-y="-8"
     inkscape:window-maximized="1"
     inkscape:current-layer="Layer_1" /><path
     style="display:inline;fill:#000000;stroke-width:0.15415831"
     d="m 7.635938,0.11019487 c -0.942146,-0.00343 -2.045241,0.053192 -2.204577,0.1516825 -0.12011,0.074469 -0.189431,0.3490756 -0.168155,0.6675057 0.03432,0.50473883 0.0014,0.54818443 -0.4941,0.64104703 C 3.610005,1.7880018 3.143084,3.0402399 3.959493,3.7425091 L 4.375006,4.0998894 3.783033,4.6349307 C 3.04401,5.3026414 2.4056396,6.4572134 2.2125705,7.4754074 2.0756445,8.1963794 2.1782535,10.347387 2.4514189,12.47022 l 0.094029,0.732229 h 4.744572 4.7445731 l 0.197324,-2.214495 C 12.340703,9.7699304 12.392179,8.3641904 12.34688,7.8641194 12.206179,6.3112964 11.653053,5.4222724 9.793638,3.7602511 9.324521,3.3409624 9.295695,3.3363296 7.180479,3.3363296 5.629784,3.3363296 4.964028,3.2793626 4.757885,3.1287099 4.159905,2.6914389 4.63949,2.565666 6.906456,2.565666 c 1.217509,0 2.323418,-0.04221 2.457496,-0.093686 C 9.66663,2.3556444 9.685848,1.7036158 9.391412,1.5900941 9.234239,1.5296951 9.196147,1.3378621 9.25483,0.90086557 9.32964,0.34355277 9.30322,0.28710077 8.921266,0.19121817 8.710557,0.13836917 8.20297,0.11297517 7.637696,0.11022917 Z M 4.687637,5.0321184 c 0.349453,0 0.410984,0.539366 0.07619,0.667815 -0.120797,0.04633 -0.415377,0.41795 -0.655186,0.825914 -0.425809,0.724438 -0.435452,0.790946 -0.410675,2.861239 0.02402,1.9384806 0.0014,2.1196766 -0.248801,2.1196766 -0.209335,0 -0.297187,-0.169185 -0.372171,-0.71507 C 2.903692,9.5263114 2.969581,7.5641174 3.208086,6.8874494 3.506304,6.0421804 4.311628,5.0321184 4.687367,5.0321184 Z M 2.670672,13.819165 v 0.46246 0.462459 h 4.531085 c 3.989625,0 4.542374,-0.02746 4.62477,-0.243995 0.266645,-0.694822 0.357895,-0.681061 -4.531119,-0.681061 z"
     id="path4306"
     inkscape:connector-curvature="0" /></svg>