<?xml version="1.0" encoding="UTF-8" standalone="no"?>
<!-- Generado por Andres Lacquaniti  -->

<svg
   xmlns:dc="http://purl.org/dc/elements/1.1/"
   xmlns:cc="http://creativecommons.org/ns#"
   xmlns:rdf="http://www.w3.org/1999/02/22-rdf-syntax-ns#"
   xmlns:svg="http://www.w3.org/2000/svg"
   xmlns="http://www.w3.org/2000/svg"
   xmlns:sodipodi="http://sodipodi.sourceforge.net/DTD/sodipodi-0.dtd"
   xmlns:inkscape="http://www.inkscape.org/namespaces/inkscape"
   version="1.1"
   id="Layer_1"
   x="0px"
   y="0px"
   width="15px"
   height="15px"
   viewBox="0 0 15 15"
   style="enable-background:new 0 0 15 15;"
   xml:space="preserve"
   sodipodi:docname="montania.svg"
   inkscape:version="0.92.0 r15299"><metadata
     id="metadata9"><rdf:RDF><cc:Work
         rdf:about=""><dc:format>image/svg+xml</dc:format><dc:type
           rdf:resource="http://purl.org/dc/dcmitype/StillImage" /><dc:title></dc:title></cc:Work></rdf:RDF></metadata><defs
     id="defs7" /><sodipodi:namedview
     pagecolor="#ffffff"
     bordercolor="#666666"
     borderopacity="1"
     objecttolerance="10"
     gridtolerance="10"
     guidetolerance="10"
     inkscape:pageopacity="0"
     inkscape:pageshadow="2"
     inkscape:window-width="1920"
     inkscape:window-height="996"
     id="namedview5"
     showgrid="false"
     inkscape:zoom="22.250293"
     inkscape:cx="19.378839"
     inkscape:cy="2.0855828"
     inkscape:window-x="-8"
     inkscape:window-y="-8"
     inkscape:window-maximized="1"
     inkscape:current-layer="Layer_1" /><path
     style="display:inline;fill:#000000;stroke-width:0.09367871"
     d="m 6.9143334,2.0739002 c -0.1983431,0 -0.6063151,1.0151289 -3.0013521,7.4680736 -0.3434474,0.9253772 -0.4727856,1.1753142 -0.6216199,1.2010322 -0.1032475,0.0181 -0.1878453,-0.01357 -0.1878453,-0.06785 0,-0.05519 0.213763,-0.660717 0.475016,-1.3454979 0.2612722,-0.684761 0.4750352,-1.3231065 0.4750352,-1.4187157 0,-0.3139262 -0.8298648,-2.3823866 -0.9557999,-2.3823866 -0.07556,0 -0.5969904,1.2584836 -1.3894975,3.3530008 -0.697777,1.8441744 -1.27173374,3.4101824 -1.27546369,3.4800514 -0.00577,0.100653 1.45406089,0.12712 7.02729779,0.12712 3.868689,0 7.050812,-0.03415 7.071307,-0.07623 0.02056,-0.04184 -0.128819,-0.510572 -0.331815,-1.041479 C 13.996677,10.840113 13.336624,9.0797873 12.732846,7.4591783 12.12905,5.8385387 11.581279,4.4459486 11.515582,4.3645212 c -0.07402,-0.091832 -0.1467,-0.1110591 -0.191691,-0.050892 -0.03981,0.053381 -0.39209,0.9470464 -0.782894,1.9856988 L 9.8304726,8.1877883 10.197377,9.1951131 c 0.201842,0.5540467 0.417739,1.1216409 0.479592,1.2613569 0.09633,0.217592 0.09325,0.258804 -0.02172,0.287959 -0.251525,0.06379 -0.358772,-0.06718 -0.581975,-0.711065 C 9.9506016,9.6793135 9.2337515,7.7435578 8.4805056,5.7317569 7.2574347,2.4651591 7.0899892,2.0739228 6.9143908,2.0739228 Z m -0.00576,0.9886874 c 0.00386,-9.274e-4 0.00961,-9.274e-4 0.01346,9.038e-4 0.067101,0.026237 0.4823032,1.0494868 0.7658588,1.8878504 0.069408,0.2049255 0.058065,0.2273635 -0.086905,0.1732595 -0.091524,-0.034154 -0.310132,0.00905 -0.4856722,0.094774 C 6.6911111,5.4279195 6.5065341,5.4170623 6.2981742,5.1718756 6.139746,4.9854968 6.1351314,4.939083 6.244916,4.6384574 6.6762293,3.456855 6.8325429,3.0821755 6.908027,3.0625425 Z m 4.4868296,2.3827707 c 0.05191,0.00905 0.229933,0.3802661 0.412607,0.8668404 0.350465,0.9335434 0.352253,0.9444 0.164581,1.0045435 -0.104396,0.033477 -0.313877,0.1363918 -0.465575,0.2286304 -0.151705,0.092279 -0.287561,0.1660214 -0.30179,0.1637591 -0.111707,-0.018093 -0.500837,-0.3257775 -0.500837,-0.3966871 0,-0.1253083 0.600644,-1.7664784 0.682165,-1.8638516 0.0018,-0.00227 0.0057,-0.00455 0.0096,-0.00227 z M 3.1076307,6.6969891 c 0.033262,0 0.1420856,0.2171396 0.2415648,0.4826382 L 3.5303114,7.6622664 3.3507336,7.8400494 C 3.1273958,8.0612606 2.7703166,8.0711217 2.7007735,7.8581449 2.6475155,7.6950634 2.997327,6.6971926 3.1076498,6.6971926 Z"
     id="path4214"
     inkscape:connector-curvature="0" /></svg>