<?xml version="1.0" encoding="UTF-8" standalone="no"?>
<!-- Generado por Andres Lacquaniti  -->

<svg
   xmlns:dc="http://purl.org/dc/elements/1.1/"
   xmlns:cc="http://creativecommons.org/ns#"
   xmlns:rdf="http://www.w3.org/1999/02/22-rdf-syntax-ns#"
   xmlns:svg="http://www.w3.org/2000/svg"
   xmlns="http://www.w3.org/2000/svg"
   xmlns:sodipodi="http://sodipodi.sourceforge.net/DTD/sodipodi-0.dtd"
   xmlns:inkscape="http://www.inkscape.org/namespaces/inkscape"
   version="1.1"
   id="Layer_1"
   x="0px"
   y="0px"
   width="15px"
   height="15px"
   viewBox="0 0 15 15"
   style="enable-background:new 0 0 15 15;"
   xml:space="preserve"
   sodipodi:docname="silbato.svg"
   inkscape:version="0.92.0 r15299"><metadata
     id="metadata9"><rdf:RDF><cc:Work
         rdf:about=""><dc:format>image/svg+xml</dc:format><dc:type
           rdf:resource="http://purl.org/dc/dcmitype/StillImage" /><dc:title></dc:title></cc:Work></rdf:RDF></metadata><defs
     id="defs7" /><sodipodi:namedview
     pagecolor="#ffffff"
     bordercolor="#666666"
     borderopacity="1"
     objecttolerance="10"
     gridtolerance="10"
     guidetolerance="10"
     inkscape:pageopacity="0"
     inkscape:pageshadow="2"
     inkscape:window-width="1920"
     inkscape:window-height="996"
     id="namedview5"
     showgrid="false"
     inkscape:zoom="22.250293"
     inkscape:cx="19.378839"
     inkscape:cy="2.0855828"
     inkscape:window-x="-8"
     inkscape:window-y="-8"
     inkscape:window-maximized="1"
     inkscape:current-layer="Layer_1" /><path
     style="display:inline;fill:#000000;stroke-width:0.08377451"
     d="m 12.364777,1.8170763 c -0.335366,-0.00746 -0.68845,0.069748 -1.037355,0.2449373 -0.350269,0.175861 -0.427886,0.1853721 -0.820897,0.1010782 C 9.5091521,1.9492052 8.1528217,2.1009902 7.3525514,2.5161939 6.856299,2.7736261 0.66203632,8.8767876 0.44507257,9.3220537 0.21794513,9.7882255 0.22712053,10.408755 0.46763757,10.85322 c 0.26636512,0.492168 2.20518193,2.434137 2.61730843,2.62156 0.1846261,0.08373 0.49698,0.153296 0.6942502,0.154229 0.6526627,0.0038 0.785724,-0.0869 3.057278,-2.07145 l 0.9864816,-0.861962 0.3120183,0.213197 c 0.1715718,0.117303 0.5520137,0.28783 0.8454388,0.37895 2.1550531,0.669241 4.0295681,-0.153668 5.0380741,-2.2118395 0.665493,-1.3581026 0.794507,-2.5749008 0.396461,-3.740078 -0.18388,-0.5383624 -0.203854,-0.6899237 -0.13763,-1.044555 0.256667,-1.3738422 -0.714597,-2.4508279 -1.912429,-2.4742884 z m 0.09306,0.803049 c 0.314759,-0.013055 0.748537,0.26823 0.938217,0.6350207 0.262207,0.5070318 0.09586,0.4984159 -0.583157,-0.030211 -0.592146,-0.4611364 -0.641958,-0.5213543 -0.48152,-0.5806958 0.03897,-0.014919 0.0815,-0.022192 0.126441,-0.024058 z M 11.83477,5.522448 c 0.585096,0.00373 1.115795,0.3286532 1.405192,0.9608018 0.287456,0.6278781 0.25014,1.5356795 -0.09175,2.2345728 -0.240149,0.4908447 -0.783267,1.0341303 -1.26005,1.2603811 C 11.493883,10.16531 10.693389,10.153878 10.373986,9.956572 9.7585652,9.5764099 9.4575315,8.9159892 9.5125275,8.0667278 9.5604538,7.3272906 9.7842824,6.8082489 10.287267,6.2704831 10.759929,5.7651848 11.318563,5.5189233 11.834807,5.5224108 Z M 4.3796594,6.044567 c 0.052404,-0.00149 0.103316,0.011189 0.1510579,0.037111 0.240592,0.1316626 2.3666271,2.3420664 2.3666271,2.4605626 0,0.06005 -0.2178774,0.3248858 -0.4841492,0.5883794 -0.266272,0.2634928 -0.5589697,0.4790955 -0.6503874,0.4790955 -0.225822,0 -2.4684888,-2.2487091 -2.4659712,-2.4724983 0.00186,-0.1734365 0.6382283,-0.895418 0.9233358,-1.048005 0.053336,-0.028533 0.1072323,-0.043452 0.1594498,-0.044759 z"
     id="path4097"
     inkscape:connector-curvature="0" /></svg>