<?xml version="1.0" encoding="UTF-8" standalone="no"?>
<!-- Generado por Andres Lacquaniti  -->

<svg
   xmlns:dc="http://purl.org/dc/elements/1.1/"
   xmlns:cc="http://creativecommons.org/ns#"
   xmlns:rdf="http://www.w3.org/1999/02/22-rdf-syntax-ns#"
   xmlns:svg="http://www.w3.org/2000/svg"
   xmlns="http://www.w3.org/2000/svg"
   xmlns:sodipodi="http://sodipodi.sourceforge.net/DTD/sodipodi-0.dtd"
   xmlns:inkscape="http://www.inkscape.org/namespaces/inkscape"
   version="1.1"
   id="Layer_1"
   x="0px"
   y="0px"
   width="15px"
   height="15px"
   viewBox="0 0 15 15"
   style="enable-background:new 0 0 15 15;"
   xml:space="preserve"
   sodipodi:docname="chuchillo.svg"
   inkscape:version="0.92.0 r15299"><metadata
     id="metadata9"><rdf:RDF><cc:Work
         rdf:about=""><dc:format>image/svg+xml</dc:format><dc:type
           rdf:resource="http://purl.org/dc/dcmitype/StillImage" /><dc:title></dc:title></cc:Work></rdf:RDF></metadata><defs
     id="defs7" /><sodipodi:namedview
     pagecolor="#ffffff"
     bordercolor="#666666"
     borderopacity="1"
     objecttolerance="10"
     gridtolerance="10"
     guidetolerance="10"
     inkscape:pageopacity="0"
     inkscape:pageshadow="2"
     inkscape:window-width="1920"
     inkscape:window-height="996"
     id="namedview5"
     showgrid="false"
     inkscape:zoom="22.250293"
     inkscape:cx="16.046636"
     inkscape:cy="-3.185246"
     inkscape:window-x="-8"
     inkscape:window-y="-8"
     inkscape:window-maximized="1"
     inkscape:current-layer="Layer_1" /><path
     style="display:inline;fill:#000000;stroke-width:0.1229156"
     d="M 11.703317,0.56777069 11.32335,0.84514909 C 11.083315,1.0203348 10.762209,1.4361741 10.451705,1.974116 9.9866861,2.7795518 9.9359413,2.973869 9.5133777,5.5583314 L 9.0666988,8.2909648 7.4886776,9.2150224 c -1.806725,1.0580046 -2.9134469,1.6944066 -4.2283207,2.4315366 -1.2546345,0.703367 -1.585471,1.282121 -1.1692043,2.044939 0.259733,0.475838 0.357263,0.540491 0.9227982,0.613182 0.3015797,0.03876 0.6665544,-0.07527 1.2070574,-0.377553 0.4261325,-0.238334 0.7866119,-0.454019 0.8011269,-0.47916 0.014487,-0.02509 0.7689976,-0.463082 1.6767987,-0.973188 4.2895412,-2.410393 4.4165932,-2.5058754 4.4427082,-3.3387071 0.0063,-0.2035475 0.136648,-0.9251951 0.289432,-1.6037076 0.339882,-1.5093565 0.47113,-3.5243562 0.35756,-5.4874262 z M 11.294354,1.5397294 c 0.09686,0.058473 0.120518,2.1805828 0.03907,3.5367267 -0.03296,0.5485937 -0.160721,1.4967406 -0.283728,2.1070853 L 10.82617,8.2933308 10.44874,8.1572105 C 10.241205,8.0824292 9.9561371,7.9974837 9.8151868,7.9682873 9.5816692,7.9198458 9.5980925,7.6891731 10.002086,5.3686922 10.376673,3.2170915 10.505138,2.7190071 10.830492,2.1573279 11.041752,1.791414 11.25089,1.5135645 11.29431,1.5397153 Z M 10.19785,8.6978793 c 0.02686,0.012954 0.05291,0.027998 0.07795,0.045004 0.09172,0.064431 0.168393,0.1585309 0.215769,0.2864563 0.117807,0.318307 -0.216779,0.822449 -0.5389515,0.812085 C 9.5547189,9.8286076 9.3909565,9.6981266 9.3118151,9.3303636 9.1957715,8.7910638 9.794731,8.5027328 10.198098,8.697452 Z M 7.8041363,9.8512106 c 0.013727,0.0066 0.022672,0.01692 0.026388,0.03163 0.030971,0.115576 -0.6746871,0.5899164 -2.1859782,1.4695204 -2.0574355,1.1975 -2.6744963,1.471146 -2.4534854,1.088344 0.046877,-0.08119 0.6390894,-0.462953 1.3159996,-0.848567 C 5.1839858,11.20652 6.1983796,10.625617 6.7613495,10.30147 7.3678572,9.9522606 7.7078372,9.8051766 7.8041342,9.8512326 Z"
     id="path4222"
     inkscape:connector-curvature="0" /></svg>