<?xml version="1.0" encoding="UTF-8" standalone="no"?>
<!-- Generado por Andres Lacquaniti  -->

<svg
   xmlns:dc="http://purl.org/dc/elements/1.1/"
   xmlns:cc="http://creativecommons.org/ns#"
   xmlns:rdf="http://www.w3.org/1999/02/22-rdf-syntax-ns#"
   xmlns:svg="http://www.w3.org/2000/svg"
   xmlns="http://www.w3.org/2000/svg"
   xmlns:sodipodi="http://sodipodi.sourceforge.net/DTD/sodipodi-0.dtd"
   xmlns:inkscape="http://www.inkscape.org/namespaces/inkscape"
   version="1.1"
   id="Layer_1"
   x="0px"
   y="0px"
   width="15px"
   height="15px"
   viewBox="0 0 15 15"
   style="enable-background:new 0 0 15 15;"
   xml:space="preserve"
   sodipodi:docname="objetos-botiquin.svg"
   inkscape:version="0.92.4 (5da689c313, 2019-01-14)"><metadata
     id="metadata9"><rdf:RDF><cc:Work
         rdf:about=""><dc:format>image/svg+xml</dc:format><dc:type
           rdf:resource="http://purl.org/dc/dcmitype/StillImage" /><dc:title /></cc:Work></rdf:RDF></metadata><defs
     id="defs7" /><sodipodi:namedview
     pagecolor="#ffffff"
     bordercolor="#666666"
     borderopacity="1"
     objecttolerance="10"
     gridtolerance="10"
     guidetolerance="10"
     inkscape:pageopacity="0"
     inkscape:pageshadow="2"
     inkscape:window-width="1920"
     inkscape:window-height="996"
     id="namedview5"
     showgrid="false"
     inkscape:zoom="22.250293"
     inkscape:cx="11.086813"
     inkscape:cy="2.0855828"
     inkscape:window-x="1912"
     inkscape:window-y="-8"
     inkscape:window-maximized="1"
     inkscape:current-layer="Layer_1" /><path
     style="display:inline;fill:#000000;stroke-width:0.08611242"
     d="m 8.3995794,1.4825416 c -0.2421499,0 -0.5520639,0.00383 -0.957826,0.00959 -1.5554751,0.023 -1.7141223,0.039486 -1.9321377,0.2025036 C 5.0902818,2.0080749 4.9304269,2.3015416 4.8918578,2.8290686 L 4.8554358,3.3253875 3.637575,3.3292175 C 2.8564349,3.3311375 2.2990033,3.3742655 2.0833459,3.447877 1.6373279,3.6004667 1.0358449,4.2113812 0.91965819,4.62991 c -0.058084,0.2097916 -0.0906718,1.5655583 -0.0906718,3.6900433 0.001528,3.0885977 0.013419,3.3860517 0.16121598,3.7028487 0.20626433,0.444522 0.65347083,0.866348 1.08666443,1.024938 0.4870217,0.178277 10.4175982,0.191504 10.9133992,0.01534 0.496069,-0.177127 0.887378,-0.519822 1.110376,-0.972644 0.20247,-0.411149 0.202661,-0.413392 0.202661,-3.8558983 0,-3.3649659 -0.0039,-3.4524365 -0.185944,-3.7889389 C 13.89942,4.0417537 13.561614,3.7102545 13.140862,3.4877727 12.895012,3.3578032 12.597404,3.3229146 11.526248,3.2979941 L 10.213019,3.2675146 V 2.8648582 c 0,-0.5588309 -0.2328528,-0.9606631 -0.6952799,-1.1998608 C 9.2439981,1.5233345 9.1261434,1.4838452 8.3996175,1.4830784 Z M 6.96562,2.522279 c 0.1932483,-7.658e-4 0.4179349,7.659e-4 0.6754582,0.00383 l 1.4955129,0.023579 0.026455,0.3659659 0.026455,0.3659851 H 7.5484894 5.9072884 V 2.990836 c 0,-0.1598741 0.053674,-0.335218 0.1190426,-0.3895253 0.061343,-0.050991 0.3593909,-0.07687 0.9391547,-0.079937 z M 2.8934318,3.8852726 H 3.3022993 3.7115117 L 3.6883168,8.1478337 3.6653134,12.410415 H 3.2793153 2.8934897 V 8.1478337 Z m 8.4388592,0 h 0.430721 0.430567 V 8.1478337 12.410415 H 11.763012 11.332291 V 8.1478337 Z M 6.8751396,6.3759727 7.5753078,6.4007017 8.275648,6.4256227 8.299993,6.9853544 C 8.329897,7.6683846 8.4259371,7.7603602 9.1098304,7.7603602 H 9.6101746 V 8.3631467 8.9659331 H 9.13084 c -0.7409794,0 -0.8125015,0.068436 -0.8125015,0.778054 V 10.343725 H 7.5863687 6.8542448 V 9.8462371 c 0,-0.7396001 -0.1313111,-0.8803045 -0.8227764,-0.8803045 H 5.476625 V 8.3631462 7.7603594 h 0.5001911 c 0.7031009,0 0.8166424,-0.1069658 0.8614607,-0.8110064 z"
     id="path4087"
     inkscape:connector-curvature="0" /></svg>