<?xml version="1.0" encoding="UTF-8" standalone="no"?>
<!-- Generado por Andres Lacquaniti  -->

<svg
   xmlns:dc="http://purl.org/dc/elements/1.1/"
   xmlns:cc="http://creativecommons.org/ns#"
   xmlns:rdf="http://www.w3.org/1999/02/22-rdf-syntax-ns#"
   xmlns:svg="http://www.w3.org/2000/svg"
   xmlns="http://www.w3.org/2000/svg"
   xmlns:sodipodi="http://sodipodi.sourceforge.net/DTD/sodipodi-0.dtd"
   xmlns:inkscape="http://www.inkscape.org/namespaces/inkscape"
   version="1.1"
   id="Layer_1"
   x="0px"
   y="0px"
   width="15px"
   height="15px"
   viewBox="0 0 15 15"
   style="enable-background:new 0 0 15 15;"
   xml:space="preserve"
   sodipodi:docname="carpa-2.svg"
   inkscape:version="0.92.0 r15299"><metadata
     id="metadata9"><rdf:RDF><cc:Work
         rdf:about=""><dc:format>image/svg+xml</dc:format><dc:type
           rdf:resource="http://purl.org/dc/dcmitype/StillImage" /><dc:title></dc:title></cc:Work></rdf:RDF></metadata><defs
     id="defs7" /><sodipodi:namedview
     pagecolor="#ffffff"
     bordercolor="#666666"
     borderopacity="1"
     objecttolerance="10"
     gridtolerance="10"
     guidetolerance="10"
     inkscape:pageopacity="0"
     inkscape:pageshadow="2"
     inkscape:window-width="1920"
     inkscape:window-height="996"
     id="namedview5"
     showgrid="false"
     inkscape:zoom="22.250293"
     inkscape:cx="19.378839"
     inkscape:cy="2.0855828"
     inkscape:window-x="-8"
     inkscape:window-y="-8"
     inkscape:window-maximized="1"
     inkscape:current-layer="Layer_1" /><path
     style="display:inline;fill:#000000;stroke-width:0.07261352"
     d="m 7.3912516,2.2170181 c -0.00325,1.62e-5 -0.00647,6.457e-4 -0.00808,0.00323 -0.027641,0.031683 -1.4269251,1.6659185 -3.109606,3.6316733 l -3.059416,3.5740792 -0.019559,1.6541014 -0.019397,1.65407 -0.45383583,0.0215 -0.45383597,0.02167 v 0.359937 0.359968 l 7.1705817,-0.0186 7.1705945,-0.01843 v -0.357255 -0.357253 l -0.453836,0.0081 -0.453835,0.0081 -0.0032,-1.611396 C 13.696067,10.020999 13.668802,9.4945196 13.6069,9.3898381 13.558404,9.3077223 12.942261,8.572477 12.23773,7.7560382 10.775624,6.0616594 8.7621191,3.7195616 7.9706054,2.7925569 7.6934322,2.4679404 7.4437544,2.2213179 7.3906862,2.2176 Z m -0.375551,3.327893 0.00325,3.3946852 0.00325,3.3946687 H 5.6052142 4.188262 L 4.3046468,12.061973 C 4.4299221,11.768553 4.6945032,11.132575 5.2637865,9.756488 5.4620446,9.2772412 5.822288,8.4113222 6.0642391,7.8322271 6.3061897,7.2531324 6.6195556,6.5015938 6.7605914,6.1621221 Z m 0.8672603,0.1074941 c 0.00133,-6.458e-4 0.00162,-6.458e-4 0.00325,0.00131 0.078883,0.1378837 2.7652691,6.5908038 2.7652691,6.6422878 0,0.02102 -0.637174,0.03815 -1.4159652,0.03815 h -1.415967 l 0.00162,-3.3946838 c 0.00133,-1.8649044 0.02748,-3.2580786 0.061264,-3.2871748 z"
     id="path4029"
     inkscape:connector-curvature="0" /></svg>