<?xml version="1.0" encoding="UTF-8" standalone="no"?>
<!-- Generado por Andres Lacquaniti  -->

<svg
   xmlns:dc="http://purl.org/dc/elements/1.1/"
   xmlns:cc="http://creativecommons.org/ns#"
   xmlns:rdf="http://www.w3.org/1999/02/22-rdf-syntax-ns#"
   xmlns:svg="http://www.w3.org/2000/svg"
   xmlns="http://www.w3.org/2000/svg"
   xmlns:sodipodi="http://sodipodi.sourceforge.net/DTD/sodipodi-0.dtd"
   xmlns:inkscape="http://www.inkscape.org/namespaces/inkscape"
   version="1.1"
   id="Layer_1"
   x="0px"
   y="0px"
   width="15px"
   height="15px"
   viewBox="0 0 15 15"
   style="enable-background:new 0 0 15 15;"
   xml:space="preserve"
   sodipodi:docname="trompeta.svg"
   inkscape:version="0.92.0 r15299"><metadata
     id="metadata9"><rdf:RDF><cc:Work
         rdf:about=""><dc:format>image/svg+xml</dc:format><dc:type
           rdf:resource="http://purl.org/dc/dcmitype/StillImage" /><dc:title></dc:title></cc:Work></rdf:RDF></metadata><defs
     id="defs7" /><sodipodi:namedview
     pagecolor="#ffffff"
     bordercolor="#666666"
     borderopacity="1"
     objecttolerance="10"
     gridtolerance="10"
     guidetolerance="10"
     inkscape:pageopacity="0"
     inkscape:pageshadow="2"
     inkscape:window-width="1920"
     inkscape:window-height="996"
     id="namedview5"
     showgrid="false"
     inkscape:zoom="11.125147"
     inkscape:cx="29.068375"
     inkscape:cy="-16.390789"
     inkscape:window-x="-8"
     inkscape:window-y="-8"
     inkscape:window-maximized="1"
     inkscape:current-layer="Layer_1" /><path
     style="display:inline;fill:#000000;stroke-width:0.09438881"
     d="m 10.80143,1.3185435 c -0.15243,0.1027415 -0.154499,0.3891206 -0.01178,0.885117 0.09498,0.3301499 0.174667,0.6993446 0.176933,0.8204437 0.0077,0.4135812 -0.358937,1.4146105 -0.697005,1.9031657 C 9.6330698,5.8471104 9.31129,6.0759737 5.4170509,8.3785584 3.4283486,9.5543764 1.6686506,10.568965 1.5065322,10.633122 c -0.1788299,0.07073 -0.4629168,0.06898 -0.72214536,-0.0045 -0.23502495,-0.06667 -0.45126701,-0.107512 -0.48043315,-0.09067 -0.0291672,0.01684 0.21246624,0.490406 0.53692783,1.05239 C 1.165343,12.152325 1.463347,12.593347 1.50313,12.570378 1.542914,12.547408 1.582535,12.403641 1.591158,12.250903 1.613903,11.848521 1.7518597,11.675009 2.4135657,11.216451 l 0.5911502,-0.409638 0.044032,0.450139 c 0.088102,0.899588 0.7393877,1.557215 1.6138285,1.629758 l 0.4722278,0.03921 1.8989417,-1.063149 C 9.1954468,10.652346 9.3975677,10.477213 9.5715318,9.6654586 9.7374427,8.8912894 9.4669235,8.2229147 8.767538,7.6792691 8.6233185,7.5671684 8.6487695,7.5453138 9.2367514,7.2789422 10.411069,6.7469217 11.632828,6.5866563 12.579333,6.8402718 c 0.665454,0.1783012 0.93832,0.3443995 1.38741,0.8449133 0.187788,0.2092787 0.404794,0.4051207 0.482452,0.4352163 0.186519,0.072268 0.421091,-0.069746 0.456352,-0.276247 0.02022,-0.1184819 -0.502438,-1.0705272 -1.846733,-3.3634602 -1.725749,-2.9436021 -1.890401,-3.1985754 -2.070007,-3.2055927 -0.06081,-0.00237 -0.112473,0.00586 -0.154926,0.025153 v 0 c -0.0115,0.00521 -0.02237,0.011273 -0.03272,0.017813 z M 5.844281,9.1900892 C 6.60744,8.7536255 7.3948457,8.3554577 7.6326272,8.3236237 8.4768373,8.2106023 8.9821929,9.0803723 8.5201055,9.8507724 8.3747049,10.093171 5.3414049,11.897623 4.9736409,11.960493 4.5496706,12.032957 4.3048692,11.926699 4.1072944,11.58449 3.8753763,11.182796 3.9129117,10.664279 4.2013862,10.285927 4.3422189,10.101218 5.0811606,9.6265462 5.8443047,9.1900755 Z"
     id="path4210"
     inkscape:connector-curvature="0" /></svg>