<?xml version="1.0" encoding="UTF-8" standalone="no"?>
<!-- Generado por Andres Lacquaniti  -->

<svg
   xmlns:dc="http://purl.org/dc/elements/1.1/"
   xmlns:cc="http://creativecommons.org/ns#"
   xmlns:rdf="http://www.w3.org/1999/02/22-rdf-syntax-ns#"
   xmlns:svg="http://www.w3.org/2000/svg"
   xmlns="http://www.w3.org/2000/svg"
   xmlns:sodipodi="http://sodipodi.sourceforge.net/DTD/sodipodi-0.dtd"
   xmlns:inkscape="http://www.inkscape.org/namespaces/inkscape"
   version="1.1"
   id="Layer_1"
   x="0px"
   y="0px"
   width="15px"
   height="15px"
   viewBox="0 0 15 15"
   style="enable-background:new 0 0 15 15;"
   xml:space="preserve"
   sodipodi:docname="fuego-2.svg"
   inkscape:version="0.92.0 r15299"><metadata
     id="metadata9"><rdf:RDF><cc:Work
         rdf:about=""><dc:format>image/svg+xml</dc:format><dc:type
           rdf:resource="http://purl.org/dc/dcmitype/StillImage" /><dc:title></dc:title></cc:Work></rdf:RDF></metadata><defs
     id="defs7" /><sodipodi:namedview
     pagecolor="#ffffff"
     bordercolor="#666666"
     borderopacity="1"
     objecttolerance="10"
     gridtolerance="10"
     guidetolerance="10"
     inkscape:pageopacity="0"
     inkscape:pageshadow="2"
     inkscape:window-width="1920"
     inkscape:window-height="996"
     id="namedview5"
     showgrid="false"
     inkscape:zoom="22.250293"
     inkscape:cx="19.378839"
     inkscape:cy="2.0855828"
     inkscape:window-x="-8"
     inkscape:window-y="-8"
     inkscape:window-maximized="1"
     inkscape:current-layer="Layer_1" /><path
     style="display:inline;fill:#000000;stroke-width:0.13387243"
     d="M 6.7303793,0.07730895 6.6475313,1.5949174 C 6.5599152,3.1952547 6.3933251,3.841171 5.8116308,4.8337079 5.3793014,5.5714126 5.1908967,5.7092441 5.1908967,5.2878819 5.1908967,5.1135431 5.1122205,4.8630324 5.0156642,4.7312208 4.8544385,4.5109881 4.7852991,4.551816 4.1561908,5.2402891 3.3461579,6.1266434 3.1198458,6.7127484 3.2298131,7.6410927 3.3880587,8.9770016 4.2998635,10.269281 5.5025005,10.86242 6.1024928,11.158348 6.1191519,11.143447 5.9009756,10.510226 5.7814717,10.163128 5.7370676,9.7339584 5.7862405,9.4052483 c 0.08851,-0.5893241 0.800109,-1.9419212 1.0218317,-1.9419212 0.076292,0 0.1019203,0.059604 0.056921,0.1326163 -0.096259,0.1558619 0.1123514,1.3660088 0.3346999,1.9424571 L 7.3546607,9.940005 7.6058868,9.4714675 C 7.7438675,9.2136852 7.8594973,8.8297829 7.8627752,8.6182817 c 0.00599,-0.3425976 0.029797,-0.3645013 0.227385,-0.2008612 0.3506734,0.289968 0.8461519,1.4735616 0.8477022,2.0245605 0.00118,0.544889 0.050361,0.576925 0.5004554,0.326832 C 10.625487,10.109157 11.524836,8.6046332 11.540243,7.2523029 11.549136,6.5322412 11.4714,6.2760674 10.89391,5.1129478 L 10.237859,3.7917602 9.7295663,4.3821564 9.2212731,4.9722848 9.230213,4.1763775 C 9.2361733,3.7385646 9.1718029,3.13291 9.0892528,2.8306043 8.8985234,2.1328632 8.1756599,1.1824954 7.3625275,0.56077767 Z M 11.732551,9.4714075 c -0.274472,0 -0.621122,0.2202322 -1.264446,0.8032375 -0.4874917,0.441778 -0.9827913,0.803209 -1.1005367,0.803209 -0.3951076,0 0.020864,0.244073 0.7765657,0.453935 0.880423,0.244968 1.740106,0.199968 2.22274,-0.116226 0.314644,-0.206225 0.34534,-0.294736 0.285498,-0.825201 C 12.57131,9.872296 12.241947,9.4712885 11.732521,9.4712885 Z M 2.7646722,9.8730109 c -0.7762976,0 -1.0955306,1.6277551 -0.385124,1.9638851 0.1841729,0.08702 1.388896,0.441271 2.6774208,0.787027 1.2885248,0.345786 3.065674,0.824278 3.9492267,1.063434 2.1033253,0.569238 2.0750443,0.568671 2.0750443,0.02981 0,-0.242286 0.119504,-0.674765 0.265531,-0.961425 0.146027,-0.286689 0.244372,-0.542326 0.218742,-0.568193 -0.06467,-0.06467 -4.9907567,-1.376887 -5.1692673,-1.376887 -0.1022184,0 -0.1025175,0.07718 0,0.267617 0.123974,0.231556 0.1019204,0.267318 -0.1627159,0.264935 -0.4047334,-0.003 -1.2783922,-0.409329 -1.77852,-0.825238 C 3.9927597,10.133595 3.3108134,9.8734578 2.7651193,9.8734578 Z m 5.842542,0.6871621 c -0.061093,-0.0149 -0.1797023,0.03815 -0.4105149,0.143345 -0.3162232,0.144239 -0.3277266,0.171358 -0.1069869,0.258378 0.4237167,0.166889 0.5817542,0.125762 0.5817542,-0.151689 0,-0.157054 -0.00299,-0.236326 -0.064373,-0.250034 z m 3.7277728,1.842296 c -0.234239,-0.0149 -0.518486,0.242882 -0.710676,0.78649 -0.152582,0.432001 -0.160331,0.619155 -0.03636,0.89136 0.346322,0.760116 1.14521,0.19818 1.15856,-0.815009 0.006,-0.556155 -0.177318,-0.846868 -0.411557,-0.862841 z m -8.9877562,0.09447 c -0.029801,-0.0024 -0.048278,-0.0024 -0.054834,0.0023 -0.053642,0.03308 0.050365,0.338276 0.2312591,0.678251 0.1808947,0.340005 0.32868,0.787383 0.32868,0.994116 v 0.376005 l 1.3052428,-0.46696 C 5.8754656,13.823762 6.5466834,13.58404 6.64926,13.547772 6.7517775,13.511416 6.8024394,13.448532 6.7613135,13.407704 6.6444916,13.290939 3.789782,12.538066 3.3472904,12.497595 Z m -0.8696656,0.323702 c -0.1421529,0.006 -0.2732792,0.09239 -0.3699552,0.27328 -0.1847689,0.34537 -0.059007,0.946494 0.2911601,1.39155 0.548287,0.697024 1.1825808,0.232748 0.9302818,-0.680875 -0.1713583,-0.621181 -0.538363,-0.997305 -0.8513377,-0.983895 z"
     id="path4300"
     inkscape:connector-curvature="0" /></svg>