<?xml version="1.0" encoding="UTF-8" standalone="no"?>
<!-- Generado por Andres Lacquaniti  -->

<svg
   xmlns:dc="http://purl.org/dc/elements/1.1/"
   xmlns:cc="http://creativecommons.org/ns#"
   xmlns:rdf="http://www.w3.org/1999/02/22-rdf-syntax-ns#"
   xmlns:svg="http://www.w3.org/2000/svg"
   xmlns="http://www.w3.org/2000/svg"
   xmlns:sodipodi="http://sodipodi.sourceforge.net/DTD/sodipodi-0.dtd"
   xmlns:inkscape="http://www.inkscape.org/namespaces/inkscape"
   version="1.1"
   id="Layer_1"
   x="0px"
   y="0px"
   width="15px"
   height="15px"
   viewBox="0 0 15 15"
   style="enable-background:new 0 0 15 15;"
   xml:space="preserve"
   sodipodi:docname="objetos-banderin.svg"
   inkscape:version="0.92.4 (5da689c313, 2019-01-14)"><metadata
     id="metadata9"><rdf:RDF><cc:Work
         rdf:about=""><dc:format>image/svg+xml</dc:format><dc:type
           rdf:resource="http://purl.org/dc/dcmitype/StillImage" /><dc:title /></cc:Work></rdf:RDF></metadata><defs
     id="defs7" /><sodipodi:namedview
     pagecolor="#ffffff"
     bordercolor="#666666"
     borderopacity="1"
     objecttolerance="10"
     gridtolerance="10"
     guidetolerance="10"
     inkscape:pageopacity="0"
     inkscape:pageshadow="2"
     inkscape:window-width="1920"
     inkscape:window-height="996"
     id="namedview5"
     showgrid="false"
     inkscape:zoom="22.250293"
     inkscape:cx="11.086813"
     inkscape:cy="2.0855828"
     inkscape:window-x="1912"
     inkscape:window-y="-8"
     inkscape:window-maximized="1"
     inkscape:current-layer="Layer_1" /><path
     style="display:inline;fill:#000000;stroke-width:0.08690528"
     d="M 5.0077516,0.48365264 C 4.6440847,0.48287972 4.4104425,0.52602029 4.0423065,0.63977525 3.1552515,0.91414098 2.542446,1.2937297 2.3372812,1.6958953 2.0634184,2.2327675 2.0655466,2.243079 2.9468172,4.603142 3.0360025,4.842143 3.3918729,5.8198154 3.7374516,6.7757806 4.0829912,7.7317268 4.4034197,8.5627558 4.4495022,8.6225159 4.577573,8.7883112 4.6835311,8.7596791 5.3261876,8.3840368 6.3818629,7.7671493 6.5034332,7.7433538 8.6401269,7.7346291 L 10.551884,7.7268891 11.147819,7.438169 C 12.619417,6.7249579 13.909004,4.5779334 13.931678,2.8038428 13.943288,1.8953136 13.880608,1.852675 13.167702,2.2825829 12.380685,2.7572188 11.654628,2.9430184 10.796302,2.8892169 9.9128069,2.833888 9.435308,2.6104605 8.1621446,1.6572613 6.9642564,0.76043654 6.4843196,0.55726435 5.4246203,0.4981429 5.2646285,0.48846983 5.1289934,0.48460059 5.0077516,0.48460059 Z M 0.97328802,1.4625239 C 0.8864235,1.4567184 0.80420355,1.536039 0.67640358,1.5863386 0.42045537,1.6869383 0.34067224,1.7664503 0.34067224,1.9207159 c 0,0.1683106 0.74043136,2.3276971 1.24774276,3.6384884 0.1064031,0.2750236 3.0757897,8.3706667 3.2273852,8.7991437 0.042174,0.119172 1.0461182,0.157863 1.1170217,0.04314 C 5.9550675,14.365504 5.2543558,12.380717 4.3755035,9.9910362 1.6538627,2.5906888 1.283618,1.4834177 0.97328802,1.4626206 Z"
     id="path4015"
     inkscape:connector-curvature="0" /></svg>