<?xml version="1.0" encoding="UTF-8" standalone="no"?>
<!-- Generado por Andres Lacquaniti  -->

<svg
   xmlns:dc="http://purl.org/dc/elements/1.1/"
   xmlns:cc="http://creativecommons.org/ns#"
   xmlns:rdf="http://www.w3.org/1999/02/22-rdf-syntax-ns#"
   xmlns:svg="http://www.w3.org/2000/svg"
   xmlns="http://www.w3.org/2000/svg"
   xmlns:sodipodi="http://sodipodi.sourceforge.net/DTD/sodipodi-0.dtd"
   xmlns:inkscape="http://www.inkscape.org/namespaces/inkscape"
   version="1.1"
   id="Layer_1"
   x="0px"
   y="0px"
   width="15px"
   height="15px"
   viewBox="0 0 15 15"
   style="enable-background:new 0 0 15 15;"
   xml:space="preserve"
   sodipodi:docname="pinos.svg"
   inkscape:version="0.92.0 r15299"><metadata
     id="metadata9"><rdf:RDF><cc:Work
         rdf:about=""><dc:format>image/svg+xml</dc:format><dc:type
           rdf:resource="http://purl.org/dc/dcmitype/StillImage" /><dc:title></dc:title></cc:Work></rdf:RDF></metadata><defs
     id="defs7" /><sodipodi:namedview
     pagecolor="#ffffff"
     bordercolor="#666666"
     borderopacity="1"
     objecttolerance="10"
     gridtolerance="10"
     guidetolerance="10"
     inkscape:pageopacity="0"
     inkscape:pageshadow="2"
     inkscape:window-width="1920"
     inkscape:window-height="996"
     id="namedview5"
     showgrid="false"
     inkscape:zoom="22.250293"
     inkscape:cx="19.378839"
     inkscape:cy="2.0855828"
     inkscape:window-x="-8"
     inkscape:window-y="-8"
     inkscape:window-maximized="1"
     inkscape:current-layer="Layer_1" /><path
     style="display:inline;fill:#000000;stroke-width:0.11732559"
     d="m 7.2943728,0.9154486 c -0.2468143,0 -2.1122096,3.153819 -1.9860602,3.3579831 0.047793,0.077048 0.2644178,0.1052555 0.534373,0.068952 0.2496878,-0.033433 0.4541911,-0.026114 0.4541911,0.018284 0,0.043356 -0.2170401,0.4473738 -0.4821373,0.8980397 C 4.9674217,6.698876 4.4199632,7.8020983 4.4934592,7.9209863 4.5349833,7.9881066 4.779921,8.0042995 5.0786838,7.95938 5.6403235,7.8752796 5.691646,7.9384779 5.3995166,8.3553532 5.1401656,8.725627 3.7755293,11.091469 3.6845343,11.328594 3.5265209,11.740369 3.886426,11.814205 5.1866292,11.63702 l 1.2275689,-0.167155 v 0.71242 c 0,0.39767 0.06216,0.774788 0.1407757,0.853376 0.1825645,0.182564 1.2958155,0.182564 1.4784849,0 0.077306,-0.07731 0.1407756,-0.447008 0.1407756,-0.821278 0,-0.791791 -0.092196,-0.759692 1.5499952,-0.541033 1.5448755,0.20581 1.5497855,0.171857 0.2882635,-1.9839967 C 8.8452302,7.6944656 8.9009391,7.8882082 9.5179762,7.9727782 9.9316055,8.0294599 10.061883,8.0062125 10.115842,7.8654334 10.156322,7.7596553 9.8187501,7.0558559 9.2968352,6.1579999 8.1444333,4.1755433 8.1782044,4.2949028 8.7730135,4.307622 9.0436742,4.3128755 9.2838284,4.2642664 9.3069426,4.1984492 9.3304522,4.1326308 8.9331955,3.3671138 8.4249408,2.4972297 7.7938003,1.4170959 7.435332,0.91560534 7.2945295,0.91560534 Z M 3.4895378,2.645997 C 3.4352128,2.643877 3.3853269,2.666892 3.3388373,2.712337 3.0797474,2.9714269 1.8346791,5.2666451 1.8658378,5.4277929 c 0.026117,0.1285002 0.1449547,0.1697664 0.4145441,0.1428649 0.2086822,-0.020893 0.3794674,-0.010446 0.3794674,0.0269 0,0.03578 -0.3431635,0.6645963 -0.7626177,1.3973623 -0.4194279,0.7327901 -0.7625915,1.4203448 -0.7625915,1.5277683 0,0.1501775 0.1102177,0.1951006 0.4773053,0.1951006 H 2.0892769 L 1.8693638,9.0404527 C 1.7484377,9.2177932 1.3672726,9.859067 1.0221762,10.465316 0.16636981,11.968795 0.21560208,12.038869 1.9853275,11.833112 l 0.7919481,-0.0922 v 0.576762 c 0,0.317281 0.065556,0.642658 0.1459992,0.722996 0.085666,0.08567 0.3649983,0.131635 0.6746264,0.111264 l 0.5286532,-0.03448 0.036045,-0.498644 c 0.029515,-0.408249 0,-0.498643 -0.1666325,-0.498643 -0.3010353,0 -0.6320018,-0.349563 -0.6320018,-0.667524 0,-0.153572 0.3491184,-0.887121 0.7758854,-1.6303855 C 4.5666436,9.0789796 4.8966176,8.4578686 4.8731374,8.4420671 4.8496286,8.4263929 4.6853499,8.350916 4.5078785,8.2749127 4.0857343,8.0936542 4.0749735,7.5772767 4.4791525,6.8878412 L 4.7729013,6.3864552 4.5234749,5.9636843 4.2737874,5.5408866 4.6945211,5.5690934 c 0.231405,0.015674 0.4545305,-0.00528 0.495667,-0.046226 C 5.2311956,5.4818594 5.0820592,5.1145915 4.8583591,4.7070734 4.6347832,4.2995758 4.2994291,3.689931 4.1131559,3.3523306 3.8548494,2.8843755 3.6528794,2.6539369 3.4896161,2.6463104 Z m 7.7476252,1.0265917 c -0.247859,0 -1.5845753,2.2899947 -1.4862933,2.5461072 0.047273,0.1230154 0.157491,0.1548788 0.3602183,0.1039492 0.315426,-0.079141 0.403313,0.1248434 0.159058,0.3691772 -0.09925,0.099248 -0.08802,0.2470757 0.0444,0.5808885 0.217824,0.5494172 0.09951,0.9388091 -0.3169148,1.0433331 -0.1640204,0.041267 -0.2983713,0.09742 -0.2983713,0.1248435 0,0.027428 0.3431891,0.6476472 0.7626181,1.3781396 0.895114,1.558901 0.976079,2.006171 0.402842,2.222532 -0.332036,0.125365 -0.353637,0.167154 -0.282544,0.546047 0.04232,0.22566 0.101862,0.450457 0.131896,0.499349 0.03029,0.04884 0.260918,0.08906 0.513087,0.08906 0.529567,0 0.701189,-0.213383 0.701189,-0.872155 0,-0.468426 -0.0079,-0.466179 0.982608,-0.304092 0.660601,0.108131 1.129262,0.02089 1.129262,-0.212338 0,-0.04936 -0.339273,-0.680844 -0.75392,-1.403082 l -0.753922,-1.3130538 0.368029,0.028466 C 13.470926,9.1441628 13.431644,8.841195 12.700603,7.5612338 12.34041,6.9306429 12.04567,6.3775162 12.04567,6.3320722 c 0,-0.045447 0.131374,-0.049628 0.292181,-0.010446 C 12.862144,6.453258 12.804031,6.0907409 12.102008,4.8509224 11.670591,4.0889577 11.364411,3.6715147 11.236982,3.6715147 Z M 8.8555729,11.887203 c -0.2938275,0.001 -0.3453837,0.02952 -0.2120783,0.11544 0.2280096,0.147306 0.4368492,0.147306 0.5279485,0 0.042834,-0.06922 -0.086447,-0.116225 -0.3157663,-0.11544 z"
     id="path4230"
     inkscape:connector-curvature="0" /></svg>