<?xml version="1.0" encoding="UTF-8" standalone="no"?>
<!-- Generado por Andres Lacquaniti  -->

<svg
   xmlns:dc="http://purl.org/dc/elements/1.1/"
   xmlns:cc="http://creativecommons.org/ns#"
   xmlns:rdf="http://www.w3.org/1999/02/22-rdf-syntax-ns#"
   xmlns:svg="http://www.w3.org/2000/svg"
   xmlns="http://www.w3.org/2000/svg"
   xmlns:sodipodi="http://sodipodi.sourceforge.net/DTD/sodipodi-0.dtd"
   xmlns:inkscape="http://www.inkscape.org/namespaces/inkscape"
   version="1.1"
   id="Layer_1"
   x="0px"
   y="0px"
   width="15px"
   height="15px"
   viewBox="0 0 15 15"
   style="enable-background:new 0 0 15 15;"
   xml:space="preserve"
   sodipodi:docname="brujula-2.svg"
   inkscape:version="0.92.0 r15299"><metadata
     id="metadata9"><rdf:RDF><cc:Work
         rdf:about=""><dc:format>image/svg+xml</dc:format><dc:type
           rdf:resource="http://purl.org/dc/dcmitype/StillImage" /><dc:title></dc:title></cc:Work></rdf:RDF></metadata><defs
     id="defs7" /><sodipodi:namedview
     pagecolor="#ffffff"
     bordercolor="#666666"
     borderopacity="1"
     objecttolerance="10"
     gridtolerance="10"
     guidetolerance="10"
     inkscape:pageopacity="0"
     inkscape:pageshadow="2"
     inkscape:window-width="1920"
     inkscape:window-height="996"
     id="namedview5"
     showgrid="false"
     inkscape:zoom="22.250293"
     inkscape:cx="19.378839"
     inkscape:cy="2.0855828"
     inkscape:window-x="-8"
     inkscape:window-y="-8"
     inkscape:window-maximized="1"
     inkscape:current-layer="Layer_1" /><path
     style="display:inline;fill:#000000;stroke-width:0.08649049"
     d="M 7.6237692,0.54069267 C 7.1187064,0.53491293 6.6070576,0.58439881 6.0953324,0.69010132 2.6959369,1.3922649 0.34761936,4.4843339 0.56383856,7.9733952 0.62949416,9.0329075 0.79418991,9.6485643 1.2741656,10.629579 2.2853705,12.69633 4.2597419,14.142707 6.5078439,14.463725 7.62995,14.623914 8.6446786,14.533425 9.7873867,14.170798 11.236884,13.710904 12.798205,12.454157 13.57979,11.118123 15.203628,8.3424885 14.756193,4.8204844 12.497828,2.6013403 11.148412,1.2753949 9.4275722,0.55986932 7.6237692,0.54061558 Z M 7.6122177,2.1375567 c 1.3985706,0.013478 2.7903643,0.5753588 3.8344733,1.6821584 0.646887,0.6857401 0.95768,1.1999489 1.240941,2.0529654 C 13.673671,8.8420839 11.895244,12.00695 8.8001134,12.791078 7.7881171,13.04746 6.3203686,12.911412 5.2731019,12.464034 4.4987752,12.133293 3.5192046,11.27348 3.0177417,10.48456 2.4319666,9.5629427 2.240373,8.9263193 2.1979571,7.7599487 2.1648407,6.8505767 2.186405,6.6198017 2.350639,6.0733619 2.6424868,5.1065367 3.021246,4.4702787 3.7368486,3.7447218 4.808202,2.6585238 6.2136455,2.1239252 7.6121972,2.1375567 Z M 4.195336,4.4773447 c -0.017329,0.017329 0.4517887,1.0208703 1.0405866,2.2320249 l 1.070659,2.2021433 2.196387,0.8312786 c 2.0009044,0.7573445 2.4126064,0.8967805 2.4126064,0.8166075 0,-0.0154 -0.102812,-0.238688 -0.228888,-0.497323 C 10.560769,9.8034212 10.094348,8.8328232 9.6503187,7.9052178 9.2063284,6.9775931 8.7937017,6.1888262 8.7333798,6.1522635 8.5485452,6.0402072 4.2273764,4.445345 4.1953386,4.4773447 Z M 8.5805055,6.8776278 C 8.6043784,6.8761024 8.9221052,7.5152916 9.2867894,8.2981475 9.6514737,9.080984 9.9239335,9.717704 9.892222,9.7130645 9.673308,9.6811028 7.0264807,8.6333161 7.0444639,8.5856438 7.0781581,8.4959217 8.5305035,6.8809009 8.5805055,6.8776278 Z"
     id="path4047"
     inkscape:connector-curvature="0" /></svg>