<?xml version="1.0" encoding="UTF-8" standalone="no"?>
<!-- Generado por Andres Lacquaniti  -->

<svg
   xmlns:dc="http://purl.org/dc/elements/1.1/"
   xmlns:cc="http://creativecommons.org/ns#"
   xmlns:rdf="http://www.w3.org/1999/02/22-rdf-syntax-ns#"
   xmlns:svg="http://www.w3.org/2000/svg"
   xmlns="http://www.w3.org/2000/svg"
   xmlns:sodipodi="http://sodipodi.sourceforge.net/DTD/sodipodi-0.dtd"
   xmlns:inkscape="http://www.inkscape.org/namespaces/inkscape"
   version="1.1"
   id="Layer_1"
   x="0px"
   y="0px"
   width="15px"
   height="15px"
   viewBox="0 0 15 15"
   style="enable-background:new 0 0 15 15;"
   xml:space="preserve"
   sodipodi:docname="prismatico.svg"
   inkscape:version="0.92.0 r15299"><metadata
     id="metadata9"><rdf:RDF><cc:Work
         rdf:about=""><dc:format>image/svg+xml</dc:format><dc:type
           rdf:resource="http://purl.org/dc/dcmitype/StillImage" /><dc:title></dc:title></cc:Work></rdf:RDF></metadata><defs
     id="defs7" /><sodipodi:namedview
     pagecolor="#ffffff"
     bordercolor="#666666"
     borderopacity="1"
     objecttolerance="10"
     gridtolerance="10"
     guidetolerance="10"
     inkscape:pageopacity="0"
     inkscape:pageshadow="2"
     inkscape:window-width="1920"
     inkscape:window-height="996"
     id="namedview5"
     showgrid="false"
     inkscape:zoom="22.250293"
     inkscape:cx="19.378839"
     inkscape:cy="2.0855828"
     inkscape:window-x="-8"
     inkscape:window-y="-8"
     inkscape:window-maximized="1"
     inkscape:current-layer="Layer_1" /><path
     style="display:inline;fill:#000000;stroke-width:0.09592615"
     d="M 9.8520223,3.5844313 C 9.3414007,3.5861376 8.8331284,3.7875096 8.4412362,4.1794445 8.2162484,4.4044536 8.0043511,4.7155201 7.970227,4.8708078 7.9123573,5.1347455 7.878831,5.1529393 7.456125,5.1522134 7.0101,5.1513601 7.0010459,5.1458068 6.7762073,4.6813961 6.1881557,3.4686061 4.5222298,3.2222002 3.5799121,4.2086784 3.0165671,4.7984598 1.0906967,7.4133445 0.89118453,7.8593266 0.61103891,8.4855171 0.56824512,9.2107695 0.76818446,9.9490908 1.0580676,11.019939 2.065003,11.918289 3.2150543,12.132151 4.0670652,12.290599 5.2458593,11.89702 5.8818725,11.241639 6.455916,10.650128 6.6725542,10.10267 6.7750117,8.9847568 6.8236972,8.4540835 6.8830637,7.9659267 6.9069802,7.8999639 6.9539595,7.7701306 7.6988581,7.7344686 7.8769303,7.8536231 c 0.05787,0.038867 0.1330369,0.5021223 0.1667767,1.0296989 0.05125,0.8000133 0.109974,1.0582285 0.3542872,1.554884 0.3212099,0.652947 0.8239516,1.14277 1.5188806,1.479909 0.3467932,0.168271 0.6137622,0.216041 1.2121922,0.216788 0.944923,0.0017 1.640685,-0.294666 2.252589,-0.958526 C 13.99055,10.515807 14.19145,9.9916475 14.186901,9.0751896 14.182608,8.0869179 14.031017,7.7562051 12.939497,6.3401661 12.471307,5.7328124 11.89816,4.9864194 11.665847,4.6815029 11.433535,4.3766078 11.131373,4.0474756 10.994365,3.9500791 10.647957,3.7038012 10.249402,3.583513 9.8522359,3.5845381 Z M 3.7474144,6.9423991 C 4.5193256,6.9735767 5.3439604,7.5307287 5.6563936,8.2806664 5.8490084,8.7432407 5.846446,9.530228 5.649987,9.9193014 5.3774435,10.460972 4.8353886,10.941164 4.3257496,11.092501 3.5408124,11.325603 2.9594018,11.204396 2.3465152,10.679767 0.9476449,9.4823948 1.5864555,7.2721931 3.4210154,6.9622586 3.5275725,6.9451755 3.6365433,6.9379148 3.7468163,6.94304 Z m 7.4292086,0.010678 c 0.796213,-0.00427 1.526206,0.45841 1.910666,1.3064491 0.452923,0.9990129 0.02627,2.1871598 -0.967131,2.6939798 -1.461182,0.745432 -3.0728254,-0.265752 -3.0728254,-1.927898 0,-0.6957624 0.3224908,-1.3203296 0.8637126,-1.6723325 C 10.324335,7.0844688 10.759575,6.9549343 11.176623,6.9530771 Z m -7.5124046,0.347176 c -0.3853791,0 -0.4492709,0.027335 -0.4492709,0.1919744 0,0.1605833 0.064062,0.1917604 0.3932588,0.1917604 0.7943333,0 1.3615646,0.48363 1.4908002,1.2710229 0.045485,0.2766437 0.1035674,0.3597112 0.2516164,0.3597112 0.1744637,0 0.1868492,-0.042708 0.1306877,-0.451705 C 5.3568157,7.9551647 4.5953893,7.3002741 3.6641329,7.3002741 Z m 7.4784936,0.00854 c -0.05424,8.475e-4 -0.1089,0.00429 -0.164,0.00854 -0.533513,0.050821 -0.429155,0.3084613 0.150334,0.3707946 0.82536,0.088833 1.287892,0.491253 1.366583,1.1893211 0.0378,0.3354322 0.08883,0.4376756 0.218453,0.4376756 0.243032,0 0.276408,-0.1748906 0.137734,-0.7194437 -0.19838,-0.7793627 -0.894953,-1.2948529 -1.708869,-1.286952 z"
     id="path4232"
     inkscape:connector-curvature="0" /></svg>